<?xml version="1.0" encoding="UTF-8"?>
<!DOCTYPE svg PUBLIC "-//W3C//DTD SVG 1.1//EN" "http://www.w3.org/Graphics/SVG/1.1/DTD/svg11.dtd">
<svg version="1.1" xmlns="http://www.w3.org/2000/svg" xmlns:xlink="http://www.w3.org/1999/xlink" x="0px" y="0px" width="799.654" height="226.818" viewBox="0, 0, 198.425, 56.282">
  <g id="Layer 1">
    <path d="M35.445,51.294 C34.222,51.142 33.148,50.73 32.88,50.648 C31.531,50.232 29.885,49.262 28.655,48.616 C26.586,47.449 25.24,45.429 23.682,43.706 C23.502,44.387 22.992,44.928 22.748,45.574 C23.18,46.327 22.852,46.95 22.852,46.95 C22.852,46.95 22.502,47.539 21.974,47.404 C21.568,47.009 21.703,46.054 21.828,45.768 L23.078,43.272 C21.172,43.916 19.276,44.581 17.284,44.897 C16.37,44.953 15.209,44.634 14.307,44.394 L14.271,44.382 C13.326,44.151 12.39,43.779 11.507,43.26 L11.492,43.253 C9.944,42.41 8.75,41.37 7.544,40.169 C7.339,39.965 7.14,39.757 6.942,39.548 C6.744,39.34 6.75,39.307 6.555,39.155 C5.837,38.593 5.189,38.184 4.374,37.777 C5.066,37.926 4.664,37.848 5.576,37.993 C4.651,36.897 3.757,35.768 2.616,34.792 C1.893,34.174 1.108,33.65 0.281,33.163 C1.633,33.529 2.983,33.758 4.285,33.829 C5.275,33.884 6.229,33.863 7.187,33.837 C6.918,33.445 6.546,33.095 6.18,32.752 C7.103,33.202 8.061,33.496 9.008,33.721 C9.218,33.77 9.428,33.819 9.636,33.853 C10.301,33.961 11.131,33.746 11.784,33.621 C11.612,33.302 11.302,33.068 11.114,32.757 C10.124,31.501 9.335,30.073 8.815,28.509 L8.805,28.485 C7.805,25.828 7.56,23.279 7.513,20.512 C7.505,20.041 7.511,19.571 7.519,19.102 C7.526,18.632 7.578,18.597 7.515,18.203 C7.281,16.752 6.937,15.569 6.363,14.218 C7.115,15.111 6.667,14.602 7.729,15.716 C7.928,13.366 9.053,10.958 8.793,8.543 C8.629,7.015 8.58,5.743 8.096,4.279 C9.468,6.121 9.853,7.637 11.55,9.051 C12.841,10.126 14.184,11.068 15.54,12.007 C15.696,11.229 15.655,10.402 15.611,9.589 C16.277,11.105 17.202,12.455 18.205,13.706 C18.427,13.983 18.651,14.259 18.892,14.513 C19.306,14.868 19.761,15.302 19.979,15.532 C20.959,16.568 21.509,16.96 22.713,19.633 C23.02,20.308 23.315,20.988 23.569,21.685 C23.572,21.696 23.576,21.706 23.579,21.717 C23.599,21.799 23.62,21.88 23.64,21.962 C23.553,21.614 23.606,21.785 23.484,21.45 C24.771,19.042 26.605,16.998 28.416,14.979 C28.806,14.564 29.204,14.161 29.604,13.76 C30.005,13.358 30.074,13.37 30.357,12.976 C31.398,11.526 32.132,10.219 32.831,8.578 C32.65,9.966 32.738,9.159 32.607,10.991 C34.731,9.114 36.929,7.301 38.76,4.993 C39.919,3.532 40.87,1.947 41.733,0.281 C41.224,2.998 41.001,5.708 41.098,8.32 C41.172,10.304 41.397,12.217 41.636,14.137 C42.406,13.589 43.071,12.837 43.72,12.096 C42.952,13.954 42.517,15.88 42.226,17.783 C42.162,18.205 42.105,18.628 42.068,19.044 C41.829,23.353 42.019,23.693 42.037,24.032 C39.871,27.217 38.73,31.686 38.839,35.542 C36.695,36.673 34.505,37.713 32.304,38.727 C30.879,39.368 29.435,39.969 27.987,40.561 C25.54,41.491 26.767,41.035 24.306,41.929 C24.645,41.377 24.456,41.685 24.871,41.005 C25.035,40.736 25.207,40.467 25.363,40.193 C26.241,38.657 27.076,37.096 27.893,35.527 C29.254,32.912 30.56,30.268 31.796,27.591 C32.443,26.191 33.358,24.153 33.949,22.738 C34.485,21.451 35.028,20.167 35.523,18.864 C36.194,17.099 36.83,15.321 37.446,13.536 C37.784,12.559 38.161,11.292 38.481,10.208 C38.854,8.941 39.227,7.674 39.586,6.403 C39.753,5.809 39.94,5.212 40.059,4.606 C40.067,4.563 40.062,4.519 40.063,4.475 C39.802,5.005 39.62,5.598 39.43,6.15 C39.234,6.717 39.042,7.286 38.85,7.855 C38.671,8.384 38.389,9.233 38.196,9.818 C38.095,10.124 37.999,10.433 37.893,10.737 C37.488,11.898 37.064,13.053 36.633,14.205 C35.394,17.512 34.098,20.803 32.707,24.05 C31.415,27.067 30.265,29.682 28.81,32.68 C27.997,34.356 27.144,36.012 26.283,37.664 C24.729,40.494 25.514,39.084 23.927,41.896 C22.505,39.426 23.206,40.666 21.823,38.174 C21.065,36.736 20.315,35.294 19.602,33.835 C18.326,31.223 17.324,28.943 16.2,26.312 C14.99,23.48 13.869,20.609 12.802,17.722 C12.43,16.717 12.066,15.708 11.718,14.694 C11.628,14.428 11.546,14.158 11.46,13.891 C11.295,13.38 11.055,12.638 10.903,12.176 C10.739,11.679 10.574,11.182 10.406,10.686 C10.243,10.205 10.089,9.686 9.86,9.225 C9.861,9.263 9.854,9.302 9.861,9.34 C9.957,9.87 10.115,10.392 10.255,10.911 C10.556,12.023 10.871,13.131 11.187,14.238 C11.456,15.187 11.775,16.294 12.063,17.148 C12.591,18.706 13.137,20.259 13.716,21.799 C14.143,22.937 14.615,24.057 15.081,25.179 C15.594,26.414 16.392,28.19 16.957,29.411 C18.038,31.743 19.184,34.046 20.382,36.322 C21.101,37.688 21.837,39.047 22.614,40.382 C22.752,40.62 22.905,40.854 23.05,41.087 C23.493,41.798 23.292,41.477 23.653,42.051 C22.986,41.904 22.324,41.736 21.66,41.572 C20.77,41.329 19.881,41.081 19.003,40.809 C17.431,40.323 16.111,39.849 14.602,39.287 C12.979,38.682 11.381,38.022 9.802,37.332 C9.252,37.091 8.705,36.847 8.163,36.592 C8.021,36.525 7.882,36.452 7.742,36.383 C7.473,36.25 7.083,36.057 6.839,35.938 C6.576,35.811 6.313,35.683 6.049,35.558 C5.793,35.436 5.527,35.295 5.247,35.211 C5.262,35.226 5.274,35.245 5.291,35.257 C5.535,35.429 5.804,35.569 6.064,35.716 C6.622,36.031 7.184,36.338 7.746,36.645 C8.227,36.907 8.791,37.213 9.245,37.429 C10.075,37.823 10.912,38.207 11.758,38.571 C12.383,38.84 13.023,39.083 13.66,39.328 C14.361,39.598 15.398,39.96 16.118,40.201 C17.494,40.662 18.889,41.081 20.299,41.466 C21.144,41.698 21.995,41.918 22.856,42.112 C23.625,42.173 24.287,42.501 24.965,42.832 C25.75,43.188 26.548,43.51 27.35,43.818 C28.686,44.331 30.036,44.799 31.401,45.214 C32.116,45.431 33.155,45.728 33.877,45.902 C34.533,46.061 35.188,46.224 35.852,46.351 C36.751,46.523 37.657,46.668 38.565,46.798 C39.063,46.869 39.707,46.918 40.259,46.959 C40.903,47.006 41.548,47.053 42.194,47.089 C42.496,47.106 42.8,47.135 43.108,47.116 C43.129,47.115 43.152,47.103 43.174,47.097 C42.904,47.004 42.602,46.976 42.321,46.936 C42.032,46.895 41.742,46.856 41.453,46.818 C41.183,46.782 40.751,46.729 40.453,46.692 C40.298,46.673 40.14,46.659 39.986,46.636 C39.394,46.548 38.806,46.446 38.219,46.339 C36.534,46.03 34.857,45.678 33.202,45.252 C31.663,44.856 30.329,44.492 28.798,43.978 C27.943,43.691 27.097,43.373 26.253,43.049 C25.636,42.795 25.024,42.528 24.414,42.256 C24.943,42.09 24.649,42.183 25.294,41.978 C25.547,41.897 25.805,41.822 26.055,41.733 C27.456,41.233 28.84,40.688 30.214,40.125 C32.505,39.186 34.77,38.19 37.003,37.125 C37.624,36.829 38.242,36.527 38.858,36.22 C38.907,39.556 39.96,43.008 42.572,45.23 C44.511,46.879 46.964,47.606 49.45,47.881 C47.832,48.15 46.202,48.417 44.632,48.902 C43.649,49.226 42.72,49.618 41.789,50.019 C42.154,50.345 42.609,50.587 43.056,50.822 C42.036,50.685 41.022,50.732 40.037,50.852 C38.878,51.096 38.692,51.147 38.5,51.187 C37.636,51.363 36.406,51.414 35.445,51.294 z M23.523,21.941 L23.609,22.016 C23.482,21.899 23.441,21.836 23.343,21.697 C23.39,21.752 23.42,21.823 23.471,21.875 z M45.128,41.119 C43.594,38.994 43.405,36.241 43.588,33.717 L44.065,33.449 C45.434,32.651 46.785,31.82 48.125,30.972 C48.859,30.507 49.767,29.864 50.542,29.312 C51.448,28.667 52.354,28.022 53.251,27.364 C53.67,27.057 54.104,26.76 54.494,26.412 C54.522,26.387 54.541,26.352 54.564,26.323 C54.11,26.523 53.681,26.82 53.267,27.082 C52.841,27.352 52.417,27.625 51.993,27.898 C51.598,28.153 50.969,28.564 50.536,28.848 C50.31,28.997 50.085,29.151 49.856,29.295 C48.981,29.844 48.096,30.377 47.207,30.902 C44.755,32.333 45.934,31.661 43.675,32.923 C43.969,30.596 44.631,28.295 45.799,26.25 C45.992,25.913 46.204,25.587 46.417,25.263 C46.494,25.146 46.547,24.997 46.669,24.928 C47.141,24.661 47.671,24.513 48.159,24.277 C48.461,24.132 48.743,23.949 49.036,23.785 C48.302,24.627 48.717,24.128 47.821,25.3 C50.07,25.246 52.34,25.278 54.583,24.761 C56.003,24.434 57.338,23.903 58.651,23.265 C57.111,24.823 55.766,26.54 54.679,28.375 C53.853,29.769 53.16,31.202 52.472,32.647 C53.229,32.718 54.006,32.589 54.767,32.459 C53.433,33.282 52.292,34.343 51.258,35.471 C51.029,35.721 50.801,35.973 50.596,36.239 C50.488,36.38 50.413,36.538 50.322,36.688 C50.145,36.934 49.978,37.186 49.793,37.427 C48.958,38.509 47.543,39.847 46.32,40.577 C46.149,40.679 45.822,40.837 45.641,40.91 C45.539,40.952 45.43,40.974 45.328,41.018 L45.165,41.099 z" fill="url(#Gradient_1)"/>
    <path d="M51.386,47.716 C61.206,47.716 67.826,40.789 67.826,29.873 C67.826,21.982 63.354,17.204 55.682,17.204 C47.002,17.204 40.777,22.903 39.462,32.46 C38.103,42.017 42.706,47.716 51.386,47.716 z M55.2,20.448 C61.118,20.448 63.793,24.963 63.793,30.443 C63.793,37.94 59.672,44.472 51.824,44.472 C45.029,44.472 42.487,39.255 43.451,32.46 C44.328,26.015 48.405,20.448 55.2,20.448 z M72.602,44.779 C73.216,46.927 76.109,47.804 78.213,47.804 C84.702,47.804 89.919,43.332 89.919,34.257 C89.919,28.339 87.069,25.489 82.247,25.489 C79.835,25.489 76.898,26.103 74.838,28.996 L75.189,25.972 L71.462,25.972 L67.254,56.001 L71.024,56.001 z M77.95,44.691 C76.723,44.691 72.734,43.858 73.172,40.614 L74.093,34.169 C74.706,29.961 78.915,28.602 81.019,28.602 C84.658,28.602 85.885,31.627 85.885,34.915 C85.885,38.597 84.965,44.691 77.95,44.691 z M100.306,47.804 C104.164,47.804 107.189,46.839 108.636,46.05 L107.847,43.288 C103.945,44.779 102.41,44.647 101.139,44.647 C96.711,44.647 94.388,41.885 94.958,38.027 L111.178,38.027 C112.976,30.18 109.6,25.489 102.98,25.489 C95.922,25.489 91.231,31.188 91.231,38.29 C91.231,44.209 95.045,47.804 100.306,47.804 z M102.542,28.646 C106.137,28.646 108.373,30.838 107.978,34.915 L95.528,34.915 C96.01,31.846 98.947,28.646 102.542,28.646 z M132.701,34.783 C133.666,27.769 130.509,25.533 125.555,25.533 C123.583,25.533 120.163,26.278 118.41,29.961 L118.979,26.015 L115.472,26.015 L112.491,47.234 L116.261,47.234 L118.015,34.652 C118.76,29.435 123.495,28.602 125.029,28.602 C128.58,28.602 129.457,31.188 128.931,34.783 L127.177,47.234 L130.948,47.234 z M134.584,47.234 L138.354,47.234 L142.519,17.686 L138.749,17.686 z M151.548,47.804 C155.405,47.804 158.43,46.839 159.877,46.05 L159.088,43.288 C155.186,44.779 153.652,44.647 152.38,44.647 C147.953,44.647 145.629,41.885 146.199,38.027 L162.42,38.027 C164.217,30.18 160.841,25.489 154.222,25.489 C147.164,25.489 142.473,31.188 142.473,38.29 C142.473,44.209 146.287,47.804 151.548,47.804 z M153.783,28.646 C157.378,28.646 159.614,30.838 159.219,34.915 L146.769,34.915 C147.251,31.846 150.189,28.646 153.783,28.646 z M180.216,47.234 L182.32,32.197 C183.329,25.007 174.649,25.489 174.649,25.489 C170.089,25.489 166.889,27.506 166.889,27.55 L167.59,30.18 C169.256,29.435 170.835,28.514 174.079,28.514 C179.339,28.514 178.55,32.109 178.506,32.328 L178.331,33.643 C169.213,34.126 163.382,36.142 163.382,42.104 C163.382,45.787 166.451,47.716 170.309,47.716 C171.492,47.716 174.298,47.409 176.621,44.822 L176.314,47.234 z M170.835,44.647 C168.511,44.647 166.977,43.507 166.977,41.491 C166.977,38.466 171.404,36.712 177.937,36.361 L177.41,40.132 C176.841,44.253 171.843,44.647 170.835,44.647 z M185.168,26.015 L184.773,28.865 L187.447,28.865 L183.633,56.001 L187.36,56.001 L191.174,28.865 L195.382,28.865 L195.777,26.015 L191.568,26.015 L191.919,23.473 C192.138,22.026 192.84,19.001 197.443,20.535 L198.144,17.993 C196.873,17.291 195.426,17.204 195.075,17.204 C194.111,17.204 189.201,16.765 188.149,23.955 L187.842,26.015 z" fill="url(#Gradient_2)"/>
  </g>
  <defs>
    <linearGradient id="Gradient_1" gradientUnits="userSpaceOnUse" x1="37.823" y1="-20.045" x2="37.823" y2="32.212" gradientTransform="matrix(0.874, 0.486, -0.486, 0.874, 0, 0)">
      <stop offset="0" stop-color="#599900"/>
      <stop offset="0.754" stop-color="#003309"/>
    </linearGradient>
    <linearGradient id="Gradient_2" gradientUnits="userSpaceOnUse" x1="118.685" y1="17.199" x2="118.685" y2="56.001">
      <stop offset="0" stop-color="#448105"/>
      <stop offset="0.803" stop-color="#003309"/>
    </linearGradient>
  </defs>
</svg>
