<?xml version="1.0" standalone="no"?>
<!DOCTYPE svg PUBLIC "-//W3C//DTD SVG 1.1//EN" "http://www.w3.org/Graphics/SVG/1.1/DTD/svg11.dtd" >
<svg xmlns="http://www.w3.org/2000/svg">
<metadata></metadata>
<defs>
<font id="IntervalSansProUltraLightIt" horiz-adv-x="518" >
<font-face units-per-em="1000" ascent="750" descent="-250" />
<missing-glyph horiz-adv-x="278" />
<glyph unicode="&#xfb01;" horiz-adv-x="400" d="M60 -214l95 675h-79l3 23h79l9 62q6 41 20.5 69.5t29 42t35.5 20.5t30 7.5t23 0.5h4q19 0 40 -7l-7 -21q-19 6 -37 6q-94 0 -110 -107l-10 -73h213l-68 -484h-27l65 461h-186l-95 -675h-27z" />
<glyph unicode="&#xfb02;" horiz-adv-x="400" d="M60 -214l95 675h-79l3 23h79l7 50q6 39 21.5 68t31.5 42t37.5 20.5t31 8.5t20.5 1h118l-95 -674h-27l92 650h-94q-91 0 -107 -105l-9 -61h108l-3 -23h-108l-95 -675h-27z" />
<glyph unicode="&#xfb03;" horiz-adv-x="633" d="M58 -214l97 675h-79l3 23h79l9 62q6 41 20.5 69.5t29 42t35.5 20.5t30 7.5t23 0.5h4q19 0 40 -7l-7 -21q-19 6 -37 6q-94 0 -110 -107l-10 -73h206l9 62q6 41 20.5 69.5t29 42t35.5 20.5t30 7.5t23 0.5h4q19 0 40 -7l-7 -21q-20 6 -37 6q-94 0 -110 -107l-10 -73h213 l-68 -484h-27l65 461h-186l-96 -675h-28l97 675h-206l-96 -675h-28z" />
<glyph unicode="fll" horiz-adv-x="633" d="M59 -214l96 675h-79l3 23h79l9 62q6 41 20.5 69.5t29 42t35.5 20.5t30 7.5t23 0.5h4q19 0 40 -7l-7 -21q-19 6 -37 6q-94 0 -110 -107l-10 -73h206l7 50q6 39 21.5 68t31.5 42t37.5 20.5t31 8.5t20.5 1h118l-95 -674h-27l92 651h-92q-29 0 -51 -12.5t-33.5 -32t-17 -34.5 t-7.5 -27l-9 -61h108l-3 -23h-108l-95 -675h-28l96 675h-206l-95 -675h-28z" />
<glyph horiz-adv-x="0" />
<glyph horiz-adv-x="1000" />
<glyph unicode=" "  horiz-adv-x="278" />
<glyph unicode="&#x09;" horiz-adv-x="278" />
<glyph unicode="&#xa0;" horiz-adv-x="278" />
<glyph unicode="!" horiz-adv-x="167" d="M70 0l10 74h27l-10 -74h-27zM92 152l74 522h26l-75 -522h-25z" />
<glyph unicode="&#x22;" horiz-adv-x="224" d="M108 402l36 272h26l-39 -272h-23zM206 402l36 272h26l-38 -272h-24z" />
<glyph unicode="#" horiz-adv-x="571" d="M53 0l108 221h-105l3 21h112l95 197h-120l3 21h126l102 214h26l-102 -214h174l100 214h27l-100 -214h109l-3 -21h-115l-96 -197h117l-3 -21h-124l-106 -221h-27l106 221h-171l-110 -221h-26zM198 242h172l97 197h-174z" />
<glyph unicode="$" horiz-adv-x="533" d="M39 66l17 22q104 -77 222 -77q65 0 129.5 35t82.5 93q39 101 -68 148q-37 14 -114.5 47t-95.5 40q-58 25 -84.5 64t-8.5 105q19 63 82 102.5t149 40.5l12 83h25l-12 -84q105 -5 175 -58l-15 -22q-45 28 -84 42t-99 14q-69 0 -126 -29t-81 -89q-6 -20 -6 -38t3.5 -31 t13.5 -25.5t19.5 -20.5t26.5 -17.5t28 -14.5t31 -13l173 -72q108 -43 92 -138q-14 -85 -85 -136t-163 -51h-1l-12 -84h-25l12 85q-126 6 -213 79z" />
<glyph unicode="%" horiz-adv-x="801" d="M98 474q0 96 54.5 154.5t137.5 58.5q64 0 103 -41.5t39 -111.5q0 -97 -56 -156t-138 -59q-64 0 -102 41.5t-38 113.5zM126 477q0 -60 30 -96t85 -36q74 0 117 53t43 133q0 58 -29.5 94.5t-85.5 36.5q-73 0 -116.5 -53.5t-43.5 -131.5zM182 0l496 674h25l-496 -674h-25z M465 144q0 96 54 154.5t137 58.5q64 0 103 -41t39 -112q0 -97 -56 -156t-138 -59q-64 0 -101.5 41.5t-37.5 113.5zM493 147q0 -60 29.5 -96t85.5 -36q74 0 117 53t43 133q0 58 -29.5 94.5t-85.5 36.5q-73 0 -116.5 -53.5t-43.5 -131.5z" />
<glyph unicode="&#x26;" horiz-adv-x="587" d="M62 150q0 78 55.5 137t157.5 91q-52 45 -72 79.5t-20 71.5q0 75 55.5 116t124.5 41q58 0 99.5 -28.5t41.5 -89.5q0 -66 -36.5 -103.5t-151.5 -91.5l179 -201q10 16 17.5 32.5t12 28t8 27t5 22.5t3.5 22.5t3 19.5h26q-16 -111 -55 -165q45 -60 54 -87.5t2 -71.5h-24 q0 3 2 18t1 21t-5 21t-15 32.5t-30 40.5q-47 -73 -102.5 -110t-132.5 -37q-101 0 -152 46.5t-51 117.5zM90 154q0 -70 49 -108t129 -38q69 0 125 42.5t90 98.5l-192 211q-29 -8 -61 -24.5t-65 -41.5t-54 -62t-21 -78zM212 552q-3 -24 -0.5 -43.5t13 -36.5t19 -27t27.5 -28.5 t27 -27.5q94 44 132.5 75.5t46.5 86.5q7 46 -22.5 79t-94.5 33q-64 0 -103 -34.5t-45 -76.5z" />
<glyph unicode="'" horiz-adv-x="126" d="M108 402l36 272h26l-38 -272h-24z" />
<glyph unicode="(" horiz-adv-x="308" d="M80 101q0 247 77 400.5t206 172.5l-3 -21q-86 -11 -150 -122t-91 -301t6 -301t116 -122l-3 -21q-76 11 -117 91.5t-41 223.5z" />
<glyph unicode=")" horiz-adv-x="308" d="M10 -214l3 21q110 14 181 167.5t71 381.5q0 132 -34.5 210t-98.5 87l3 21q75 -11 116 -92t41 -225q0 -248 -76.5 -400t-205.5 -171z" />
<glyph unicode="*" horiz-adv-x="378" d="M110 428l135 84l-110 85l13 16l106 -81l19 142h22l-21 -142l126 81l11 -16l-134 -85l111 -84l-16 -18l-104 82l-19 -142h-22l21 142l-128 -82z" />
<glyph unicode="+" horiz-adv-x="553" d="M72 226l4 28h219l32 230h27l-32 -229l227 -1l-4 -28l-227 1l-32 -227h-27l32 226h-219z" />
<glyph unicode="," horiz-adv-x="192" d="M18 -83l116 177h31l-121 -177h-26z" />
<glyph unicode="-" horiz-adv-x="407" d="M85 248l4 28h307l-4 -28h-307z" />
<glyph unicode="." horiz-adv-x="131" d="M50 0l8 58h31l-8 -58h-31z" />
<glyph unicode="/" horiz-adv-x="359" d="M50 0l328 674h26l-328 -674h-26z" />
<glyph unicode="0" horiz-adv-x="570" d="M87 250q0 194 77.5 302.5t210.5 108.5q97 0 148.5 -65.5t51.5 -191.5q0 -193 -79.5 -305.5t-215.5 -112.5q-92 0 -142.5 68.5t-50.5 195.5zM113 258q0 -110 42.5 -178t128.5 -68q87 0 148 57.5t87.5 141.5t26.5 184q0 107 -43 173.5t-132 66.5q-82 0 -142 -55t-88 -139 t-28 -183z" />
<glyph unicode="1" horiz-adv-x="570" d="M273 531l151 119h39l-92 -650h-27l88 624l-145 -114z" />
<glyph unicode="2" horiz-adv-x="570" d="M65 0l4 32q5 32 16.5 56t40 49t50 40t77.5 50.5t91 58.5q16 11 49.5 32t49.5 32t39.5 30.5t34.5 35t20 38.5t9 48q0 59 -44 96.5t-121 37.5q-56 0 -105.5 -23t-81.5 -57l-16 18q25 33 81.5 60t125.5 27q83 0 136.5 -39.5t53.5 -112.5q0 -31 -11 -59.5t-24 -47.5t-42 -43 t-45.5 -35t-55.5 -35t-53 -33l-122 -80q-33 -21 -45.5 -30t-34.5 -27.5t-31.5 -36.5t-12.5 -40l-2 -15h403l-4 -27h-430z" />
<glyph unicode="3" horiz-adv-x="570" d="M82 59l19 19q61 -67 174 -67q99 0 155 47t56 116q0 59 -44.5 98t-128.5 39h-28l4 27h22q98 0 154 48t56 115q0 56 -41 94.5t-118 38.5q-93 0 -168 -58l-15 18q72 67 189 67q80 0 130 -40t50 -113q0 -140 -162 -184q64 -9 96.5 -51.5t32.5 -93.5q0 -90 -71.5 -142.5 t-165.5 -50.5q-131 0 -196 73z" />
<glyph unicode="4" horiz-adv-x="570" d="M65 148l4 30q28 39 63 83.5t61 75.5t74 84t67.5 73.5t77 81.5t69.5 74h36l-68 -478h102l-3 -24h-102l-21 -148h-28l21 148h-353zM93 172h328l63 446q-21 -22 -67 -70.5t-65.5 -69.5t-57.5 -62.5t-64 -72.5t-62.5 -76t-74.5 -95z" />
<glyph unicode="5" horiz-adv-x="570" d="M103 68l22 21q23 -34 68.5 -55.5t89.5 -21.5q59 0 104.5 18t71.5 48t39 64.5t13 71.5q0 70 -43.5 118t-122.5 48q-86 0 -146 -44h-38q17 63 44.5 169t37.5 145h312l-5 -26h-287l-71 -264q26 20 70 32t86 12q96 0 143.5 -54.5t47.5 -131.5q0 -96 -66 -163t-193 -67 q-109 0 -177 80z" />
<glyph unicode="6" horiz-adv-x="570" d="M102 234q0 217 86 322t230 105q60 0 103 -17l-13 -25q-43 16 -91 16q-127 0 -202 -93.5t-82 -249.5q17 41 49 70.5t67 42.5t62 18.5t47 5.5q84 0 132 -52t48 -139q0 -115 -75 -183.5t-175 -68.5q-54 0 -92.5 22.5t-58 61.5t-27.5 78.5t-8 85.5zM131 216q-4 -93 35.5 -148 t123.5 -55q104 0 161 68.5t57 150.5q0 69 -37.5 119.5t-120.5 50.5q-71 0 -132 -44.5t-79 -104.5q-6 -18 -8 -37z" />
<glyph unicode="7" horiz-adv-x="570" d="M140 0q80 152 119.5 222t121 184.5t181.5 219.5h-409l3 24h439l-4 -28q-140 -153 -238.5 -301t-180.5 -321h-32z" />
<glyph unicode="8" horiz-adv-x="570" d="M82 142q0 21 8 47t26.5 57.5t58.5 57t94 33.5q-61 6 -88.5 45t-27.5 92q0 76 52.5 126t120.5 58q24 3 52 3l50 -3q53 -6 91 -45t38 -97q0 -62 -40 -117t-122 -62q77 -13 107.5 -60t30.5 -97q0 -80 -65 -137t-185 -57q-100 0 -150.5 44t-50.5 112zM109 141q0 -58 46 -94 t132 -36q102 0 160 47t58 121q0 62 -44 102.5t-131 41.5q-105 -1 -163 -55t-58 -127zM180 475q0 -122 155 -122q194 0 194 162q0 53 -38 87t-117 34q-96 0 -145 -46t-49 -115z" />
<glyph unicode="9" horiz-adv-x="570" d="M123 409q0 115 75 183.5t175 68.5q54 0 92.5 -22.5t58 -61.5t27.5 -78.5t8 -85.5q0 -217 -86 -322t-230 -105q-61 0 -103 17l13 25q43 -16 91 -16q127 0 202 93.5t82 249.5q-17 -41 -49 -70.5t-67 -42.5t-62 -18.5t-47 -5.5q-84 0 -132 52t-48 139zM153 415 q0 -69 37.5 -119.5t120.5 -50.5q71 0 132 44.5t79 104.5q6 18 8 37q4 93 -35.5 148t-123.5 55q-104 0 -161 -68.5t-57 -150.5z" />
<glyph unicode=":" horiz-adv-x="131" d="M50 0l8 58h31l-8 -58h-31zM110 426l8 58h31l-8 -58h-31z" />
<glyph unicode=";" horiz-adv-x="205" d="M37 -93l85 138h37l-98 -138h-24zM184 426l8 58h31l-8 -58h-31z" />
<glyph unicode="&#x3c;" horiz-adv-x="570" d="M62 229l4 27l512 229l-4 -29l-483 -214l423 -213l-4 -29z" />
<glyph unicode="=" horiz-adv-x="577" d="M79 205l4 26h477l-4 -26h-477zM107 407l4 26h477l-4 -26h-477z" />
<glyph unicode="&#x3e;" horiz-adv-x="570" d="M30 0l4 29l483 213l-423 214l4 29l448 -229l-4 -27z" />
<glyph unicode="?" horiz-adv-x="506" d="M145 576q71 110 205 110q84 0 136.5 -40t52.5 -118q0 -106 -121 -196q-9 -7 -31 -23.5l-28 -21t-22.5 -17.5t-21 -18t-15 -16t-14 -18.5t-9.5 -18.5t-8.5 -22t-4.5 -25h-24q3 23 10.5 42t13.5 31t25.5 30.5t29.5 27.5t44 35t51 40q99 77 99 165q0 61 -42.5 100.5 t-123.5 39.5q-104 0 -183 -98zM217 0l10 74h27l-10 -74h-27z" />
<glyph unicode="@" horiz-adv-x="870" d="M87 245q0 117 63.5 219.5t167.5 162t219 59.5q168 0 252.5 -82.5t84.5 -201.5q0 -133 -77.5 -225t-173.5 -92q-37 0 -59.5 28.5t-14.5 79.5q-16 -23 -38.5 -39.5t-41.5 -24.5t-40 -12.5t-29.5 -5t-14.5 -0.5q-53 0 -83 30.5t-30 86.5q0 99 67.5 172.5t171.5 73.5 q29 0 62 -16.5t36 -55.5l24 63h25q-32 -95 -82 -235q-9 -20 -9 -43q0 -33 16.5 -57t44.5 -24q84 0 153.5 83.5t69.5 214.5q0 65 -26.5 116t-72 81.5t-101 46t-117.5 15.5q-78 0 -154.5 -32.5t-135.5 -87.5t-95.5 -133.5t-36.5 -163.5q0 -144 90.5 -229t241.5 -85 q79 0 161 27t138 68l11 -19q-154 -97 -313 -97q-168 0 -261 94t-93 240zM308 296q-12 -41 -11.5 -78t25.5 -62t71 -25q40 0 91 29.5t72 85.5l37 101q13 47 -18 76.5t-66 29.5q-75 0 -126 -44.5t-75 -112.5z" />
<glyph unicode="A" horiz-adv-x="631" d="M10 0l386 674h30l195 -674h-27l-52 172h-406l-98 -172h-28zM149 195h385l-128 448z" />
<glyph unicode="B" horiz-adv-x="585" d="M65 0l95 674h278q77 0 117 -42t40 -107q0 -16 -5.5 -39t-18.5 -53t-41.5 -55t-67.5 -35q53 -2 88.5 -47t35.5 -105q0 -69 -53 -130t-141 -61h-327zM95 23h295q76 0 121.5 50.5t45.5 115.5q0 58 -38 98.5t-111 40.5h-270zM141 352h260q48 4 83 22.5t52.5 45.5t25 52 t7.5 49q0 59 -36.5 94.5t-99.5 35.5h-250z" />
<glyph unicode="C" horiz-adv-x="575" d="M83 287q0 166 108.5 282.5t275.5 116.5q111 0 171 -24l-10 -21q-84 20 -139 20q-96 0 -171 -34t-118.5 -89t-66 -119t-22.5 -130q0 -55 16 -103t48.5 -88.5t89.5 -64t132 -23.5q66 0 146 21l3 -22q-68 -23 -177 -23q-133 0 -209.5 85t-76.5 216z" />
<glyph unicode="D" horiz-adv-x="652" d="M65 0l95 674h227q137 0 212.5 -70.5t75.5 -206.5q0 -191 -102.5 -294t-280.5 -103h-227zM98 25h202q71 0 132.5 21.5t110.5 64.5t77 116t28 168q0 131 -70 192.5t-194 61.5h-199z" />
<glyph unicode="E" horiz-adv-x="531" d="M65 0l95 674h414l-4 -25h-387l-41 -295h358l-4 -26h-358l-42 -303h394l-4 -25h-421z" />
<glyph unicode="F" horiz-adv-x="489" d="M65 0l95 674h389l-4 -25h-361l-41 -295h333l-4 -26h-333l-46 -328h-28z" />
<glyph unicode="G" horiz-adv-x="665" d="M83 292q0 164 116.5 279t297.5 115q112 0 186 -39l-15 -23q-33 18 -76 28t-72 10q-101 0 -182 -33t-129.5 -86.5t-73.5 -116.5t-25 -128q0 -55 18 -105t53 -91t94.5 -65.5t134.5 -24.5q97 0 188 30l37 262h-147l4 26h173l-43 -306q-86 -36 -223 -36q-147 0 -231.5 85.5 t-84.5 218.5z" />
<glyph unicode="H" horiz-adv-x="636" d="M65 0l95 674h27l-44 -312h452l44 312h27l-95 -674h-27l47 337h-452l-47 -337h-27z" />
<glyph unicode="I" horiz-adv-x="147" d="M60 0l95 674h27l-95 -674h-27z" />
<glyph unicode="J" horiz-adv-x="373" d="M12 14l12 26q3 -1 15 -5.5l16 -6t14.5 -4.5t17.5 -4.5t17 -3.5t20.5 -2.5t22.5 -0.5q71 0 108 40t50 123l70 498h28l-71 -505q-14 -99 -66 -141t-122 -42q-61 0 -132 28z" />
<glyph unicode="K" horiz-adv-x="533" d="M65 0l95 674h27l-61 -433l413 433h32l-282 -299l234 -375h-34l-220 355l-148 -150l-29 -205h-27z" />
<glyph unicode="L" horiz-adv-x="494" d="M65 0l95 674h28l-91 -648h361l-4 -26h-389z" />
<glyph unicode="M" horiz-adv-x="834" d="M45 0l127 674h36l213 -643l396 643h35l-63 -674h-27l60 634l-390 -634h-30l-211 633l-118 -633h-28z" />
<glyph unicode="N" horiz-adv-x="644" d="M65 0l95 674h41l355 -645l91 645h27l-95 -674h-38l-358 645l-91 -645h-27z" />
<glyph unicode="O" horiz-adv-x="713" d="M82 277q0 186 102 297.5t269 111.5q129 0 201 -76.5t72 -212.5q0 -186 -102.5 -298.5t-268.5 -112.5q-128 0 -200.5 77.5t-72.5 213.5zM109 283q0 -123 64 -198t185 -75q158 0 249.5 109t91.5 269q0 119 -64 196.5t-185 77.5q-155 0 -248 -111t-93 -268z" />
<glyph unicode="P" horiz-adv-x="553" d="M65 0l95 674h291q79 0 115 -51t36 -120q0 -14 -4 -36.5t-17.5 -55.5t-33.5 -60t-57.5 -46.5t-85.5 -19.5h-271l-40 -285h-28zM136 309h271q42 0 76.5 20.5t53.5 51t29 61.5t10 57q0 64 -33 108t-99 44h-260z" />
<glyph unicode="Q" horiz-adv-x="703" d="M82 277q0 186 102 297.5t269 111.5q129 0 201 -76.5t72 -212.5q0 -137 -70 -247.5t-186 -145.5q62 -81 187 -81h4l-3 -22q-45 0 -80.5 8.5t-61.5 24.5t-40.5 28.5t-31.5 31.5q-45 -8 -89 -8q-128 0 -200.5 77.5t-72.5 213.5zM109 283q0 -123 63.5 -198.5t185.5 -75.5 q157 0 249 109.5t92 269.5q0 120 -64 197.5t-185 77.5q-104 0 -183 -54t-118.5 -139.5t-39.5 -186.5z" />
<glyph unicode="R" horiz-adv-x="582" d="M65 0l95 674h280q46 0 79.5 -14.5t50.5 -39t24.5 -51t7.5 -57.5q0 -20 -5.5 -45t-21 -60.5t-52 -65t-89.5 -41.5q27 -14 43.5 -40t27.5 -73l48 -187h-28l-57 213q-13 41 -41 60t-79 19h-214l-41 -292h-28zM138 318h255q50 0 88 20t57.5 50.5t28.5 60.5t9 57 q0 62 -34 103.5t-107 41.5h-251z" />
<glyph unicode="S" horiz-adv-x="533" d="M39 66l17 22q104 -77 222 -77q65 0 129.5 35t82.5 93q39 101 -68 148q-37 14 -114.5 47t-95.5 40q-58 25 -84.5 64t-8.5 105q19 64 83.5 103.5t151.5 39.5q119 0 196 -59l-15 -22q-45 28 -84 42t-99 14q-69 0 -126 -29t-81 -89q-6 -20 -6 -38t3.5 -31t13.5 -25.5 t19.5 -20.5t26.5 -17.5t28 -14.5t31 -13l173 -72q108 -43 92 -138q-14 -85 -85 -136t-163 -51q-142 0 -239 80z" />
<glyph unicode="T" horiz-adv-x="519" d="M101 649l4 25h499l-4 -25h-236l-91 -649h-27l91 649h-236z" />
<glyph unicode="U" horiz-adv-x="666" d="M104 277l56 397h28l-55 -391q-20 -142 27.5 -206.5t173.5 -64.5q127 0 193 64.5t86 206.5l55 391h28l-56 -397q-22 -155 -100.5 -223t-209.5 -68q-130 0 -189 68t-37 223z" />
<glyph unicode="V" horiz-adv-x="553" d="M95 674h29l156 -644l339 644h29l-355 -674h-33z" />
<glyph unicode="W" horiz-adv-x="932" d="M105 674h27l113 -644l299 617h27l125 -618l294 645h27l-307 -674h-35l-123 607l-293 -607h-37z" />
<glyph unicode="X" horiz-adv-x="550" d="M10 0l300 332l-194 342h32l178 -314l266 314h32l-289 -342l205 -332h-31l-191 305l-277 -305h-31z" />
<glyph unicode="Y" horiz-adv-x="568" d="M105 674h31l184 -410l300 410h33l-322 -436l-34 -238h-28l34 238z" />
<glyph unicode="Z" horiz-adv-x="568" d="M30 0l4 26l567 626h-460l3 22h489l-4 -25l-565 -625h457l-3 -24h-488z" />
<glyph unicode="[" horiz-adv-x="231" d="M30 -214l125 888h131l-3 -22h-104l-119 -844h104l-3 -22h-131z" />
<glyph unicode="\" horiz-adv-x="359" d="M145 674h26l138 -674h-26z" />
<glyph unicode="]" horiz-adv-x="231" d="M10 -214l3 22h104l119 844h-104l3 22h131l-125 -888h-131z" />
<glyph unicode="^" horiz-adv-x="341" d="M99 423l149 251h33l79 -251h-28l-71 227l-134 -227h-28z" />
<glyph unicode="_" horiz-adv-x="633" d="M30 -72l4 25h553l-4 -25h-553z" />
<glyph unicode="`" horiz-adv-x="174" d="M133 661h33l45 -111h-26z" />
<glyph unicode="a" horiz-adv-x="476" d="M46 106q0 91 95 133.5t296 52.5l8 60q-1 6 1.5 20t-5.5 32t-20.5 34.5t-43.5 27.5t-75 11q-65 0 -148 -31l-7 22q87 32 161 32h19.5t43 -7t53 -20.5t38 -43.5t9.5 -73l-50 -356h-26l13 93q-26 -50 -88.5 -78.5t-117.5 -28.5q-66 0 -111 31.5t-45 88.5zM70 122 q-7 -49 33.5 -81.5t103.5 -32.5q18 0 46 7t65 22.5t65.5 50t35.5 81.5l14 101q-347 -17 -363 -148z" />
<glyph unicode="b" horiz-adv-x="534" d="M60 0l95 674h27l-37 -259q79 85 191 85q98 0 149.5 -58.5t51.5 -155.5q0 -130 -72.5 -215t-191.5 -85q-151 0 -176 92l-11 -78h-26zM111 168q-7 -48 7.5 -81.5t43 -49t55.5 -22t56 -6.5q53 0 95.5 19t68 48.5t42.5 67t23 71.5t6 66q0 33 -7.5 63.5t-25 62t-54.5 50.5 t-89 19q-39 0 -79.5 -13t-76 -47t-42.5 -82z" />
<glyph unicode="c" horiz-adv-x="427" d="M65 198q0 137 76.5 219.5t203.5 82.5q67 0 119 -20l-12 -25q-58 20 -102 20q-130 0 -193 -80t-63 -192q0 -85 46 -138.5t145 -53.5q55 0 108 16l4 -25q-52 -16 -124 -16q-99 0 -153.5 56t-54.5 156z" />
<glyph unicode="d" horiz-adv-x="534" d="M65 199q0 130 73 215.5t200 85.5q113 0 167 -85l37 259h27l-95 -674h-26l11 78q-52 -92 -202 -92q-92 0 -142 58.5t-50 154.5zM93 202q0 -36 8 -67.5t26 -61t53 -47t83 -17.5q29 0 57.5 6.5t62 22t57 49t30.5 81.5l24 166q10 70 -42 106t-116 36q-60 0 -106.5 -22.5 t-71.5 -54t-40.5 -72t-20 -70.5t-4.5 -55z" />
<glyph unicode="e" d="M66 207q0 124 78 208.5t185 84.5q100 0 153 -64t36 -183l-2 -16h-420q-14 -102 37.5 -164t152.5 -62q70 0 147 26l5 -24q-75 -27 -169 -27q-90 0 -146.5 60t-56.5 161zM100 259h392q15 108 -33 162t-133 54q-79 0 -146 -64t-80 -152z" />
<glyph unicode="f" horiz-adv-x="233" d="M58 -214l97 675h-79l3 23h79l9 62q9 65 41 99t52 38t45 3h4q19 0 40 -7l-7 -21q-19 6 -37 6q-94 0 -110 -107l-10 -73h108l-3 -23h-108l-96 -675h-28z" />
<glyph unicode="g" horiz-adv-x="534" d="M65 194q0 146 72.5 226t184.5 80q23 0 46.5 -3.5t52.5 -13t51 -31t31 -51.5l11 83h27l-79 -563q-11 -78 -76 -112t-153 -34q-86 0 -154 31l13 25q69 -32 136 -32q44 0 78 6t55.5 18t36.5 24.5t23 31t11.5 32.5t5.5 33l19 132q-61 -90 -194 -90q-93 0 -145.5 52.5 t-52.5 155.5zM90 198q0 -85 43.5 -137t141.5 -52q18 0 45 6.5t59 20.5t57 42.5t30 65.5l23 169q5 39 -4.5 69t-28 47.5t-44 29t-48 15.5t-44.5 4q-57 0 -102.5 -25t-72.5 -66t-41 -89.5t-14 -99.5z" />
<glyph unicode="h" horiz-adv-x="522" d="M60 0l95 674h27l-39 -273q65 99 193 99q92 0 137 -51t30 -158l-41 -291h-27l41 291q12 84 -23.5 134.5t-119.5 50.5q-25 0 -51.5 -6t-60.5 -22.5t-59 -55.5t-33 -95l-42 -297h-27z" />
<glyph unicode="i" horiz-adv-x="167" d="M70 0l68 484h27l-68 -484h-27zM154 600l11 74h27l-11 -74h-27z" />
<glyph unicode="j" horiz-adv-x="175" d="M-81 -218l8 22q42 -7 43 -7q51 0 75.5 38t30.5 85l80 564h27l-81 -568q-6 -41 -20 -69.5t-28 -42t-35.5 -21t-31 -8t-25.5 -0.5q-18 0 -43 7zM172 600l10 74h27l-10 -74h-27z" />
<glyph unicode="k" horiz-adv-x="434" d="M60 0l95 674h27l-62 -442l296 252h35l-197 -169l176 -315h-31l-167 297l-117 -99l-28 -198h-27z" />
<glyph unicode="l" horiz-adv-x="167" d="M70 0l95 674h27l-95 -674h-27z" />
<glyph unicode="m" horiz-adv-x="833" d="M60 0l68 484h28l-11 -80q58 96 172 96q58 0 96.5 -24.5t58.5 -91.5q73 116 197 116q174 0 147 -192l-43 -308h-27l41 290q13 94 -16 140t-107 46q-16 0 -39.5 -6t-57 -21.5t-60 -52t-33.5 -88.5l-43 -308h-27l43 307q10 69 -22.5 119t-110.5 50q-60 0 -115.5 -40 t-66.5 -118l-45 -318h-27z" />
<glyph unicode="n" horiz-adv-x="524" d="M60 0l68 484h28l-11 -79q33 54 89.5 74.5t104.5 20.5q195 0 166 -211l-41 -289h-28l41 289q12 87 -21.5 137t-116.5 50q-69 0 -132.5 -38t-74.5 -116l-45 -322h-27z" />
<glyph unicode="o" d="M60 198q0 137 74 219.5t195 82.5q93 0 145 -57t52 -156q0 -137 -74 -219.5t-195 -82.5q-93 0 -145 57t-52 156zM87 205q0 -86 44.5 -141.5t128.5 -55.5q107 0 173 79t66 193q0 87 -45 141.5t-128 54.5q-110 0 -174.5 -79t-64.5 -192z" />
<glyph unicode="p" horiz-adv-x="534" d="M30 -214l98 698h26l-11 -80q17 31 46.5 52t62 29.5t54 11.5t39.5 3q91 0 141.5 -60t50.5 -157q0 -131 -72.5 -214t-200.5 -83q-115 0 -168 81l-39 -281h-27zM108 148q-9 -70 42 -104t116 -34q60 0 106.5 22t71 53t40 71.5t20 69.5t4.5 55q0 36 -8 68t-26 62t-52.5 48 t-82.5 18q-28 0 -57.5 -7t-62.5 -23.5t-57 -50.5t-31 -82z" />
<glyph unicode="q" horiz-adv-x="534" d="M65 197q0 130 73 216.5t191 86.5q18 0 38.5 -3t51 -11.5t54 -29.5t32.5 -52l11 80h26l-98 -698h-27l40 281q-76 -81 -191 -81q-98 0 -149.5 57t-51.5 154zM94 202q0 -25 4 -49t16 -51t30.5 -46.5t51.5 -32.5t75 -13q40 0 79.5 12t75 45t42.5 81l23 166q7 48 -7.5 82 t-43 50.5t-56 23.5t-55.5 7q-53 0 -95.5 -19.5t-68 -49.5t-42.5 -68t-23 -72t-6 -66z" />
<glyph unicode="r" horiz-adv-x="271" d="M60 0l68 484h26l-12 -86q31 55 81 78.5t96 23.5h7l-3 -26h-11q-61 0 -116.5 -45t-66.5 -125l-43 -304h-26z" />
<glyph unicode="s" horiz-adv-x="401" d="M35 39l13 23q27 -16 44 -25t49.5 -18t65.5 -9q40 0 81 15.5t61 52.5q18 36 12 62.5t-19 39.5t-30 19l-157 63q-87 43 -63 136q14 45 61 73.5t109 28.5q87 0 144 -36l-14 -23q-64 34 -127 34q-72 0 -112 -31.5t-40 -78.5q0 -34 23 -56t70 -38l107 -41q75 -29 75 -99 q0 -66 -50.5 -105.5t-131.5 -39.5q-97 0 -171 53z" />
<glyph unicode="t" horiz-adv-x="272" d="M68 461l3 23h83l20 138h26l-20 -138h127l-3 -23h-127l-46 -329q-4 -25 -4 -41.5t4.5 -38t23 -33t49.5 -11.5q22 0 44 11q0 -2 2 -12t2 -11q-28 -10 -53 -10h-12.5t-13.5 1t-15 2.5t-14 5t-14 8.5t-11.5 12.5t-10 18.5t-6 24t-2 31t3.5 39l47 333h-83z" />
<glyph unicode="u" horiz-adv-x="524" d="M88 195l40 289h27l-41 -289q-12 -86 22 -135t118 -49q24 0 51.5 6t62.5 21.5t60.5 49.5t32.5 82l44 314h27l-68 -484h-28l12 83q-33 -54 -90 -75.5t-105 -21.5q-92 0 -136.5 47.5t-28.5 161.5z" />
<glyph unicode="v" horiz-adv-x="484" d="M78 484h29l139 -457l267 457h29l-284 -484h-32z" />
<glyph unicode="w" horiz-adv-x="774" d="M78 484h28l99 -451l235 435h26l113 -435l225 451h28l-242 -484h-29l-113 435l-234 -435h-30z" />
<glyph unicode="x" horiz-adv-x="424" d="M10 0l219 241l-150 243h34l136 -221l198 221h33l-218 -243l152 -241h-34l-137 219l-200 -219h-33z" />
<glyph unicode="y" horiz-adv-x="495" d="M47 -222l8 22q8 -1 15 -1q66 0 109 71l59 108l-160 506h31l149 -472l264 472h31l-363 -641q-21 -37 -55.5 -52.5t-59.5 -15.5q-13 0 -28 3z" />
<glyph unicode="z" horiz-adv-x="440" d="M25 0l3 22l420 439h-346l3 23h378l-3 -23l-418 -438h344l-3 -23h-378z" />
<glyph unicode="{" horiz-adv-x="309" d="M91 221l3 18q56 15 79 56.5t34 113.5l22 157q9 63 36 85.5t69 22.5h30l-3 -20h-26q-35 0 -53.5 -20.5t-25.5 -66.5l-25 -173q-3 -22 -8.5 -41.5t-11 -33.5t-13.5 -27t-13.5 -20.5t-14 -15t-12.5 -11t-10.5 -7.5t-7.5 -5l-1 -6l7 -6q7 -6 10 -9.5t11.5 -14t10.5 -20 t7.5 -27.5t3 -36.5t-3.5 -47.5l-24 -173q-7 -46 6.5 -66.5t48.5 -20.5h26l-3 -20h-30q-42 0 -62.5 22.5t-11.5 85.5l22 157q5 42 5 75.5t-17.5 59t-53.5 35.5z" />
<glyph unicode="|" horiz-adv-x="125" d="M38 -87l116 827h25l-116 -827h-25z" />
<glyph unicode="}" horiz-adv-x="309" d="M10 -214l3 20h26q35 0 54 20.5t25 66.5l24 173q3 22 8.5 41.5t11 33.5t13.5 27t13.5 20.5t14 15.5t12.5 10.5t11 7.5l8 5l1 6q-1 0 -5.5 4t-7.5 6.5t-8.5 8.5t-9 12.5t-7.5 15.5t-6.5 20t-4 25t-1 31.5t3.5 37.5l24 173q7 46 -6.5 66.5t-48.5 20.5h-26l3 20h30 q42 0 62.5 -22.5t11.5 -85.5l-22 -157q-5 -42 -5 -75.5t17.5 -59t53.5 -35.5l-3 -18q-56 -15 -79.5 -56.5t-34.5 -113.5l-22 -157q-9 -63 -35.5 -85.5t-68.5 -22.5h-30z" />
<glyph unicode="~" horiz-adv-x="460" d="M73 237q39 114 122 114q27 0 89 -28q49 -20 71 -20q27 0 48 16t30.5 33t18.5 42h23q-40 -116 -122 -116q-29 0 -73 19q-6 3 -20 9.5t-22 10t-20.5 6.5t-24.5 3q-39 0 -61 -25t-36 -64h-23z" />
<glyph unicode="&#xa1;" horiz-adv-x="167" d="M41 -214l77 546h26l-77 -546h-26zM128 410l10 74h27l-10 -74h-27z" />
<glyph unicode="&#xa2;" horiz-adv-x="427" d="M65 198q0 129 68 209.5t185 91.5l11 81h25l-11 -80h2q67 0 119 -20l-12 -25q-58 20 -102 20q-68 0 -119 -23.5t-80.5 -63.5t-43.5 -86.5t-14 -98.5q0 -85 46.5 -138.5t144.5 -53.5q56 0 109 16l4 -25q-52 -16 -124 -16h-2l-12 -85h-25l12 86q-87 7 -134 62.5t-47 148.5z " />
<glyph unicode="&#xa3;" horiz-adv-x="461" d="M39 0l4 26h75l50 357h-94l3 24h93l8 53q16 112 79 169t167 57q68 0 112 -22l-13 -23q-40 20 -102 20q-92 0 -146 -53.5t-67 -147.5l-8 -53h198l-3 -24h-197l-50 -357h302l-4 -26h-407z" />
<glyph unicode="&#xa4;" horiz-adv-x="482" d="M68 125l76 69q-34 42 -27 112q12 67 55 108l-53 71l18 15l55 -68q47 37 114 37q68 0 104 -37l75 65l14 -16l-74 -64q28 -32 28 -88q0 -77 -57 -135l55 -64l-20 -16l-58 63q-48 -36 -113 -36q-59 0 -103 36l-73 -68zM141 286q0 -58 37.5 -89t85.5 -31q59 0 112 41t53 118 q0 57 -39 88t-87 31q-59 0 -110.5 -41t-51.5 -117z" />
<glyph unicode="&#xa5;" horiz-adv-x="504" d="M77 141l3 22h181l14 98h-181l3 24h181l-170 413h33l156 -388l261 388h34l-284 -413h178l-3 -24h-177l-14 -98h177l-3 -22h-177l-20 -141h-31l20 141h-181z" />
<glyph unicode="&#xa6;" horiz-adv-x="142" d="M43 -122l51 363h22l-51 -363h-22zM104 311l51 363h22l-51 -363h-22z" />
<glyph unicode="&#xa7;" horiz-adv-x="411" d="M45 38l15 25q78 -51 152 -51q38 0 77 15t59 50q12 27 12 46q0 27 -14 45.5t-32 24.5q-30 11 -84 33t-68 27q-85 43 -61 131q14 51 71 79q-64 41 -43 123q13 43 58.5 71t106.5 28q82 0 139 -36l-11 -23q-66 33 -126 33q-68 0 -106.5 -30t-38.5 -73q0 -50 58 -79l133 -52 q74 -27 74 -96q0 -79 -75 -118q47 -28 47 -83q0 -64 -49 -102.5t-128 -38.5q-96 0 -166 51zM123 353q0 -60 87 -91l107 -39q37 17 60 55q12 26 12 47q0 27 -14 44.5t-33 23.5l-139 56q-38 -13 -59 -38.5t-21 -57.5z" />
<glyph unicode="&#xa8;" horiz-adv-x="221" d="M122 587l10 74h27l-10 -74h-27zM236 587l10 74h27l-10 -74h-27z" />
<glyph unicode="&#xa9;" horiz-adv-x="788" d="M83 292q0 104 57.5 195.5t151.5 145t198 53.5q133 0 220.5 -90.5t87.5 -222.5q0 -159 -122 -273t-284 -114q-133 0 -221 87.5t-88 218.5zM107 295q0 -122 82 -205t206 -83q150 0 264.5 107.5t114.5 255.5q0 123 -82 207.5t-205 84.5q-150 0 -265 -109.5t-115 -257.5z M254 313q0 95 63 162.5t159 67.5q68 0 102 -15l-9 -20q-52 13 -81 13q-103 0 -156 -63t-53 -144q0 -65 38.5 -109.5t119.5 -44.5q39 0 86 13l3 -20q-39 -14 -106 -14q-77 0 -121.5 49.5t-44.5 124.5z" />
<glyph unicode="&#xaa;" horiz-adv-x="331" d="M83 306l3 24h251l-3 -24h-251zM110 493q0 58 59 84t183 33l4 31q-1 3 0.5 11t-3 18t-11.5 19t-25 15.5t-43 6.5t-91 -17l-8 19q52 22 104 22h12.5t27 -4.5t33.5 -13t23.5 -28t5.5 -46.5l-31 -218h-24l5 41q-20 -25 -56 -37.5t-67 -12.5q-41 0 -69.5 21t-28.5 56zM134 497 q0 -24 23 -40.5t56 -16.5q10 0 27 3.5t39.5 12.5t40 28.5t21.5 46.5l8 56q-215 -11 -215 -90z" />
<glyph unicode="&#xab;" horiz-adv-x="377" d="M95 323l164 231h30l-163 -231l100 -231h-30zM209 323l164 231h30l-163 -231l100 -231h-30z" />
<glyph unicode="&#xac;" horiz-adv-x="577" d="M98 338l4 28h477l-25 -179h-29l21 151h-448z" />
<glyph unicode="&#xad;" horiz-adv-x="407" d="M85 248l4 28h307l-4 -28h-307z" />
<glyph unicode="&#xae;" horiz-adv-x="788" d="M83 292q0 104 57.5 195.5t151.5 145t198 53.5q133 0 220.5 -90.5t87.5 -222.5q0 -159 -122 -273t-284 -114q-133 0 -221 87.5t-88 218.5zM107 295q0 -122 82 -205t206 -83q150 0 264.5 107.5t114.5 255.5q0 123 -82 207.5t-205 84.5q-150 0 -265 -109.5t-115 -257.5z M279 141l54 389h164q51 0 73 -28t22 -68q0 -11 -3 -25t-11 -33.5t-27.5 -36.5t-47.5 -25q24 -17 34 -63q12 -73 26 -110h-25q-8 21 -17.5 64t-13.5 58q-13 43 -63 43h-118l-23 -165h-24zM329 328h141q52 0 75.5 33t23.5 69q0 79 -75 79h-139z" />
<glyph unicode="&#xaf;" horiz-adv-x="268" d="M130 637l3 24h188l-3 -24h-188z" />
<glyph unicode="&#xb0;" horiz-adv-x="348" d="M106 502q0 64 48.5 111.5t111.5 47.5q52 0 86.5 -36.5t34.5 -89.5q0 -63 -48.5 -110t-112.5 -47q-52 0 -86 36t-34 88zM133 505q0 -44 27 -72t70 -28q53 0 91.5 37.5t38.5 90.5q0 44 -27.5 73t-70.5 29q-52 0 -90.5 -38.5t-38.5 -91.5z" />
<glyph unicode="&#xb1;" horiz-adv-x="557" d="M40 0l4 27h477l-4 -27h-477zM88 342l4 29h226l30 209h26l-30 -209h225l-4 -29h-225l-30 -211h-26l30 211h-226z" />
<glyph unicode="&#xb2;" horiz-adv-x="324" d="M99 470l3 22q5 33 24.5 52.5t68.5 51.5q7 4 11 7l79 52q55 36 69 53q16 20 16 45q0 32 -24 51.5t-65 19.5q-62 0 -106 -46l-13 16q14 19 48 36t74 17q48 0 79.5 -23t31.5 -66q0 -23 -7.5 -41t-27.5 -35.5t-30.5 -25t-40.5 -26.5l-95 -61q-32 -20 -47.5 -35.5t-20.5 -40.5 h226l-3 -23h-250z" />
<glyph unicode="&#xb3;" horiz-adv-x="324" d="M107 506l16 17q37 -39 100 -39q53 0 82.5 24.5t29.5 61.5q0 32 -24 53t-69 21h-21l4 23h18q53 0 82 25.5t29 60.5q0 30 -21.5 50.5t-62.5 20.5q-50 0 -96 -34l-13 15q40 42 113 42q47 0 76 -23t29 -66q0 -72 -78 -102q30 -8 45 -31t15 -50q0 -53 -41.5 -83.5t-96.5 -29.5 q-72 0 -116 44z" />
<glyph unicode="&#xb4;" horiz-adv-x="174" d="M117 550l77 111h33l-84 -111h-26z" />
<glyph unicode="&#xb6;" horiz-adv-x="426" d="M97 467q0 83 63.5 145t147.5 62h153l-125 -888h-21l122 867h-76l-122 -867h-22l72 513q-83 0 -137.5 48.5t-54.5 119.5z" />
<glyph unicode="&#xb7;" horiz-adv-x="131" d="M92 297l8 57h31l-8 -57h-31z" />
<glyph unicode="&#xb8;" horiz-adv-x="268" d="M15 -176l3 23l50 -17q47 -16 82.5 4.5t38.5 66t-36 109.5h23q31 -43 36 -84q7 -55 -27.5 -93t-95.5 -32q-36 4 -74 23z" />
<glyph unicode="&#xb9;" horiz-adv-x="240" d="M148 770l88 71h27l-52 -371h-23l48 345l-76 -61z" />
<glyph unicode="&#xba;" horiz-adv-x="364" d="M85 306l3 24h279l-3 -24h-279zM118 548q0 84 46.5 135.5t120.5 51.5q58 0 90 -35t32 -96q0 -86 -45.5 -137t-121.5 -51q-58 0 -90 35t-32 97zM145 554q0 -50 25.5 -82t73.5 -32q63 0 101 45.5t38 111.5q0 49 -26.5 81t-74.5 32q-63 0 -100 -45.5t-37 -110.5z" />
<glyph unicode="&#xbb;" horiz-adv-x="377" d="M63 92l164 231l-98 231h30l99 -231l-165 -231h-30zM177 92l164 231l-98 231h30l99 -231l-165 -231h-30z" />
<glyph unicode="&#xbc;" horiz-adv-x="625" d="M70 0l496 674h25l-496 -674h-25zM145 604l88 71h27l-52 -371h-23l48 345l-76 -61zM298 83l2 20q59 84 191 224v-1l43 45h26l-37 -267h57l-3 -21h-57l-12 -83h-25l12 83h-197zM327 104h171l32 231l-28 -29v1q-108 -116 -175 -203z" />
<glyph unicode="&#xbd;" horiz-adv-x="689" d="M77 0l496 674h25l-496 -674h-25zM145 604l88 71h27l-52 -371h-23l48 345l-76 -61zM373 0l3 22q3 23 16 41t27.5 29t49.5 34q7 4 11 7l79 52q2 1 12.5 8l13.5 9l12 8t11.5 8.5t9.5 8.5t9 10t6.5 10t6 11t3 11.5t1.5 13.5q0 32 -24 51.5t-65 19.5q-62 0 -106 -46l-13 16 q14 19 48 36t74 17q48 0 79.5 -23t31.5 -66q0 -23 -7.5 -41t-27.5 -35.5t-30.5 -25t-40.5 -26.5l-95 -61q-32 -20 -47.5 -35.5t-20.5 -40.5h226l-3 -23h-250z" />
<glyph unicode="&#xbe;" horiz-adv-x="747" d="M108 340l16 17q37 -39 100 -39q53 0 82.5 24.5t29.5 61.5q0 32 -24 53t-69 21h-21l4 23h18q53 0 82 25.5t29 60.5q0 30 -21.5 50.5t-62.5 20.5q-50 0 -96 -34l-13 15q40 42 113 42q47 0 76 -23t29 -66q0 -72 -78 -102q30 -8 45 -31t15 -50q0 -53 -41.5 -83.5t-96.5 -29.5 q-72 0 -116 44zM182 0l496 674h25l-496 -674h-25zM420 83l3 20q58 84 190 224v-1l43 45h26l-37 -267h57l-3 -21h-57l-12 -83h-25l12 83h-197zM449 104h171l32 231l-28 -29v1q-117 -127 -175 -203z" />
<glyph unicode="&#xbf;" horiz-adv-x="506" d="M59 -47q0 107 122 199q9 6 31 23t28 21.5t22.5 17.5t21 18t15 16t14 18.5t9 18.5t8 22t4.5 25h24q-3 -23 -10.5 -42t-13.5 -31t-25.5 -30.5t-29.5 -27.5t-44 -35t-51 -40q-99 -79 -99 -168q0 -61 42.5 -100.5t123.5 -39.5q104 0 183 98l19 -11q-71 -110 -205 -110 q-84 0 -136.5 40t-52.5 118zM344 410l10 74h27l-10 -74h-27z" />
<glyph unicode="&#xc0;" horiz-adv-x="631" d="M10 0l386 674h30l195 -674h-27l-52 172h-406l-98 -172h-28zM149 195h385l-128 448zM340 851h33l45 -111h-26z" />
<glyph unicode="&#xc1;" horiz-adv-x="631" d="M10 0l386 674h30l195 -674h-27l-52 172h-406l-98 -172h-28zM149 195h385l-128 448zM420 740l77 111h33l-84 -111h-26z" />
<glyph unicode="&#xc2;" horiz-adv-x="631" d="M10 0l386 674h30l195 -674h-27l-52 172h-406l-98 -172h-28zM149 195h385l-128 448zM316 744l97 107h44l67 -107h-29l-63 91l-87 -91h-29z" />
<glyph unicode="&#xc3;" horiz-adv-x="631" d="M10 0l386 674h30l195 -674h-27l-52 172h-406l-98 -172h-28zM149 195h385l-128 448zM312 789q11 32 34 48t52 14q21 -3 46 -20t37 -17q30 0 45 37h23q-7 -33 -29 -47t-47 -11q-23 3 -45 19t-40 16q-19 0 -30 -8.5t-21 -30.5h-25z" />
<glyph unicode="&#xc4;" horiz-adv-x="631" d="M10 0l386 674h30l195 -674h-27l-52 172h-406l-98 -172h-28zM149 195h385l-128 448zM354 777l11 74h27l-11 -74h-27zM468 777l11 74h27l-11 -74h-27z" />
<glyph unicode="&#xc5;" horiz-adv-x="631" d="M10 0l386 674h30l195 -674h-27l-52 172h-406l-98 -172h-28zM149 195h385l-128 448zM356 822q0 34 23.5 60t63.5 26q32 0 48.5 -18.5t16.5 -47.5q0 -35 -25 -61.5t-62 -26.5q-30 0 -47.5 20t-17.5 48zM378 824q0 -20 11.5 -34.5t33.5 -14.5q28 0 44.5 20t16.5 43 q0 20 -11 34.5t-34 14.5q-28 0 -44.5 -20t-16.5 -43z" />
<glyph unicode="&#xc6;" horiz-adv-x="934" d="M10 0l432 674h533l-4 -23h-385l-41 -298h357l-4 -25h-358l-42 -303h395l-4 -25h-422l24 170h-340l-113 -170h-28zM161 195h333l64 456h-102z" />
<glyph unicode="&#xc7;" horiz-adv-x="575" d="M83 287q0 166 108.5 282.5t275.5 116.5q111 0 171 -24l-10 -21q-84 20 -139 20q-96 0 -171 -34t-118.5 -89t-66 -119t-22.5 -130q0 -55 16 -103t48.5 -88.5t89.5 -64t132 -23.5q66 0 146 21l3 -22q-68 -23 -177 -23q-14 0 -38 2q19 -31 21.5 -66t-9.5 -63.5t-41.5 -45 t-71.5 -12.5q-36 4 -74 23l4 23l49 -17q71 -24 106.5 26.5t-9.5 135.5q-105 18 -164 99.5t-59 195.5z" />
<glyph unicode="&#xc8;" horiz-adv-x="531" d="M65 0l95 674h414l-4 -25h-387l-41 -295h358l-4 -26h-358l-42 -303h394l-4 -25h-421zM310 851h33l45 -111h-26z" />
<glyph unicode="&#xc9;" horiz-adv-x="531" d="M65 0l95 674h414l-4 -25h-387l-41 -295h358l-4 -26h-358l-42 -303h394l-4 -25h-421zM355 740l77 111h33l-84 -111h-26z" />
<glyph unicode="&#xca;" horiz-adv-x="531" d="M65 0l95 674h414l-4 -25h-387l-41 -295h358l-4 -26h-358l-42 -303h394l-4 -25h-421zM266 744l97 107h44l67 -107h-29l-63 91l-87 -91h-29z" />
<glyph unicode="&#xcb;" horiz-adv-x="531" d="M65 0l95 674h414l-4 -25h-387l-41 -295h358l-4 -26h-358l-42 -303h394l-4 -25h-421zM304 777l11 74h27l-11 -74h-27zM418 777l11 74h27l-11 -74h-27z" />
<glyph unicode="&#xcc;" horiz-adv-x="147" d="M60 0l95 674h27l-95 -674h-27zM111 851h33l45 -111h-26z" />
<glyph unicode="&#xcd;" horiz-adv-x="147" d="M60 0l95 674h27l-95 -674h-27zM163 740l77 111h33l-84 -111h-26z" />
<glyph unicode="&#xce;" horiz-adv-x="147" d="M60 0l95 674h27l-95 -674h-27zM75 744l97 107h44l67 -107h-29l-63 91l-87 -91h-29z" />
<glyph unicode="&#xcf;" horiz-adv-x="147" d="M60 0l95 674h27l-95 -674h-27zM112 777l11 74h27l-11 -74h-27zM226 777l11 74h27l-11 -74h-27z" />
<glyph unicode="&#xd0;" horiz-adv-x="706" d="M53 305l3 24h111l49 345h225q137 0 212.5 -70.5t75.5 -206.5q0 -191 -102.5 -294t-280.5 -103h-225l43 305h-111zM152 25h203q71 0 132 21.5t110 64.5t77 116t28 169q0 131 -70 192t-194 61h-199l-45 -320h226l-3 -24h-226z" />
<glyph unicode="&#xd1;" horiz-adv-x="644" d="M65 0l95 674h41l355 -645l91 645h27l-95 -674h-38l-358 645l-91 -645h-27zM319 789q11 32 34 48t52 14q21 -3 46 -20t37 -17q30 0 45 37h23q-7 -33 -29 -47t-47 -11q-23 3 -45 19t-40 16q-19 0 -30 -8.5t-21 -30.5h-25z" />
<glyph unicode="&#xd2;" horiz-adv-x="713" d="M82 277q0 186 102 297.5t269 111.5q129 0 201 -76.5t72 -212.5q0 -186 -102.5 -298.5t-268.5 -112.5q-128 0 -200.5 77.5t-72.5 213.5zM109 283q0 -123 64 -198t185 -75q158 0 249.5 109t91.5 269q0 119 -64 196.5t-185 77.5q-155 0 -248 -111t-93 -268zM389 851h33 l45 -111h-26z" />
<glyph unicode="&#xd3;" horiz-adv-x="713" d="M82 277q0 186 102 297.5t269 111.5q129 0 201 -76.5t72 -212.5q0 -186 -102.5 -298.5t-268.5 -112.5q-128 0 -200.5 77.5t-72.5 213.5zM109 283q0 -123 64 -198t185 -75q158 0 249.5 109t91.5 269q0 119 -64 196.5t-185 77.5q-155 0 -248 -111t-93 -268zM446 740l77 111 h33l-84 -111h-26z" />
<glyph unicode="&#xd4;" horiz-adv-x="713" d="M82 277q0 186 102 297.5t269 111.5q129 0 201 -76.5t72 -212.5q0 -186 -102.5 -298.5t-268.5 -112.5q-128 0 -200.5 77.5t-72.5 213.5zM109 283q0 -123 64 -198t185 -75q158 0 249.5 109t91.5 269q0 119 -64 196.5t-185 77.5q-155 0 -248 -111t-93 -268zM357 744l97 107 h44l67 -107h-29l-63 91l-87 -91h-29z" />
<glyph unicode="&#xd5;" horiz-adv-x="713" d="M82 277q0 186 102 297.5t269 111.5q129 0 201 -76.5t72 -212.5q0 -186 -102.5 -298.5t-268.5 -112.5q-128 0 -200.5 77.5t-72.5 213.5zM109 283q0 -123 64 -198t185 -75q158 0 249.5 109t91.5 269q0 119 -64 196.5t-185 77.5q-155 0 -248 -111t-93 -268zM353 789 q11 32 34 48t52 14q21 -3 46 -20t37 -17q15 0 25.5 8t19.5 29h23q-7 -33 -29 -47t-47 -11q-23 3 -45 19t-40 16q-19 0 -30 -8.5t-21 -30.5h-25z" />
<glyph unicode="&#xd6;" horiz-adv-x="713" d="M82 277q0 186 102 297.5t269 111.5q129 0 201 -76.5t72 -212.5q0 -186 -102.5 -298.5t-268.5 -112.5q-128 0 -200.5 77.5t-72.5 213.5zM109 283q0 -123 64 -198t185 -75q158 0 249.5 109t91.5 269q0 119 -64 196.5t-185 77.5q-155 0 -248 -111t-93 -268zM395 777l11 74 h27l-11 -74h-27zM509 777l11 74h27l-11 -74h-27z" />
<glyph unicode="&#xd7;" horiz-adv-x="546" d="M42 17l245 216q-21 25 -89 104t-91 106l20 18l181 -210l238 209l16 -18l-238 -209l184 -214l-20 -19l-185 215l-246 -217z" />
<glyph unicode="&#xd8;" horiz-adv-x="713" d="M66 -53l90 111q-74 74 -74 219q0 186 102.5 297.5t269.5 111.5q105 0 175 -51l70 85h32l-84 -101q79 -73 79 -223q0 -186 -102 -298t-269 -112q-113 0 -181 56l-76 -95h-32zM109 282q0 -134 65 -202l435 532q-61 50 -159 50q-155 0 -248 -111t-93 -269zM191 63 q65 -53 168 -53q157 0 248.5 108.5t91.5 268.5q0 138 -71 208z" />
<glyph unicode="&#xd9;" horiz-adv-x="666" d="M104 277l56 397h28l-55 -391q-20 -142 27.5 -206.5t173.5 -64.5q127 0 193 64.5t86 206.5l55 391h28l-56 -397q-22 -155 -100.5 -223t-209.5 -68q-130 0 -189 68t-37 223zM406 851h33l45 -111h-26z" />
<glyph unicode="&#xda;" horiz-adv-x="666" d="M104 277l56 397h28l-55 -391q-20 -142 27.5 -206.5t173.5 -64.5q127 0 193 64.5t86 206.5l55 391h28l-56 -397q-22 -155 -100.5 -223t-209.5 -68q-130 0 -189 68t-37 223zM390 740l77 111h33l-84 -111h-26z" />
<glyph unicode="&#xdb;" horiz-adv-x="666" d="M104 277l56 397h28l-55 -391q-20 -142 27.5 -206.5t173.5 -64.5q127 0 193 64.5t86 206.5l55 391h28l-56 -397q-22 -155 -100.5 -223t-209.5 -68q-130 0 -189 68t-37 223zM334 744l97 107h44l67 -107h-29l-62 91l-88 -91h-29z" />
<glyph unicode="&#xdc;" horiz-adv-x="666" d="M104 277l56 397h28l-55 -391q-20 -142 27.5 -206.5t173.5 -64.5q127 0 193 64.5t86 206.5l55 391h28l-56 -397q-22 -155 -100.5 -223t-209.5 -68q-130 0 -189 68t-37 223zM372 777l10 74h27l-10 -74h-27zM486 777l10 74h27l-10 -74h-27z" />
<glyph unicode="&#xdd;" horiz-adv-x="568" d="M105 674h31l184 -410l300 410h33l-322 -436l-34 -238h-28l34 238zM341 740l77 111h33l-84 -111h-26z" />
<glyph unicode="&#xde;" horiz-adv-x="539" d="M65 0l95 674h27l-26 -180q79 85 191 85q98 0 149.5 -58.5t51.5 -155.5q0 -130 -72.5 -215t-191.5 -85q-150 0 -176 92l-22 -157h-26zM127 247q-7 -48 7.5 -81.5t43 -49t55.5 -22t56 -6.5q53 0 95.5 19t68 48.5t42.5 67t23 71.5t6 66q0 33 -7.5 63.5t-25 62t-54.5 50.5 t-89 19q-39 0 -79.5 -13t-76 -47t-42.5 -82z" />
<glyph unicode="&#xdf;" horiz-adv-x="549" d="M60 0l63 451q34 235 244 235q71 0 124.5 -35t53.5 -110q0 -63 -38.5 -114.5t-117.5 -66.5q87 -5 120.5 -48.5t33.5 -95.5q0 -37 -14.5 -73.5t-43.5 -69.5t-78.5 -53t-112.5 -20h-130l4 25h130q101 0 159.5 57.5t58.5 131.5q0 109 -132 124l-21 3l5 38l23 4q58 12 92 51 t34 101q0 56 -42 90.5t-111 34.5q-184 0 -215 -217l-62 -443h-27z" />
<glyph unicode="&#xe0;" horiz-adv-x="476" d="M46 106q0 91 95 133.5t296 52.5l8 60q-1 6 1.5 20t-5.5 32t-20.5 34.5t-43.5 27.5t-75 11q-65 0 -148 -31l-7 22q87 32 161 32h19.5t43 -7t53 -20.5t38 -43.5t9.5 -73l-50 -356h-26l13 93q-26 -50 -88.5 -78.5t-117.5 -28.5q-66 0 -111 31.5t-45 88.5zM70 122 q-7 -49 33.5 -81.5t103.5 -32.5q18 0 46 7t65 22.5t65.5 50t35.5 81.5l14 101q-347 -17 -363 -148zM266 661h33l46 -111h-26z" />
<glyph unicode="&#xe1;" horiz-adv-x="476" d="M46 106q0 91 95 133.5t296 52.5l8 60q-1 6 1.5 20t-5.5 32t-20.5 34.5t-43.5 27.5t-75 11q-65 0 -148 -31l-7 22q87 32 161 32h19.5t43 -7t53 -20.5t38 -43.5t9.5 -73l-50 -356h-26l13 93q-26 -50 -88.5 -78.5t-117.5 -28.5q-66 0 -111 31.5t-45 88.5zM70 122 q-7 -49 33.5 -81.5t103.5 -32.5q18 0 46 7t65 22.5t65.5 50t35.5 81.5l14 101q-347 -17 -363 -148zM273 550l76 111h33l-83 -111h-26z" />
<glyph unicode="&#xe2;" horiz-adv-x="476" d="M46 106q0 91 95 133.5t296 52.5l8 60q-1 6 1.5 20t-5.5 32t-20.5 34.5t-43.5 27.5t-75 11q-65 0 -148 -31l-7 22q87 32 161 32h19.5t43 -7t53 -20.5t38 -43.5t9.5 -73l-50 -356h-26l13 93q-26 -50 -88.5 -78.5t-117.5 -28.5q-66 0 -111 31.5t-45 88.5zM70 122 q-7 -49 33.5 -81.5t103.5 -32.5q18 0 46 7t65 22.5t65.5 50t35.5 81.5l14 101q-347 -17 -363 -148zM206 554l97 107h44l67 -107h-29l-62 91l-88 -91h-29z" />
<glyph unicode="&#xe3;" horiz-adv-x="487" d="M57 106q0 91 95 133.5t296 52.5l8 60q-1 6 1.5 20t-5.5 32t-20.5 34.5t-43.5 27.5t-75 11q-65 0 -148 -31l-7 22q87 32 161 32h19.5t43 -7t53 -20.5t38 -43.5t9.5 -73l-50 -356h-26l13 93q-26 -50 -88.5 -78.5t-117.5 -28.5q-66 0 -111 31.5t-45 88.5zM81 122 q-7 -49 33.5 -81.5t103.5 -32.5q18 0 46 7t65 22.5t65.5 50t35.5 81.5l14 101q-347 -17 -363 -148zM214 599q11 32 34 48t51 14q22 -3 47 -20t37 -17q29 0 44 37h23q-7 -33 -28.5 -47t-46.5 -11q-23 3 -45 19t-40 16q-19 0 -30 -8.5t-21 -30.5h-25z" />
<glyph unicode="&#xe4;" horiz-adv-x="476" d="M46 106q0 91 95 133.5t296 52.5l8 60q-1 6 1.5 20t-5.5 32t-20.5 34.5t-43.5 27.5t-75 11q-65 0 -148 -31l-7 22q87 32 161 32h19.5t43 -7t53 -20.5t38 -43.5t9.5 -73l-50 -356h-26l13 93q-26 -50 -88.5 -78.5t-117.5 -28.5q-66 0 -111 31.5t-45 88.5zM70 122 q-7 -49 33.5 -81.5t103.5 -32.5q18 0 46 7t65 22.5t65.5 50t35.5 81.5l14 101q-347 -17 -363 -148zM245 587l10 74h27l-10 -74h-27zM359 587l10 74h27l-10 -74h-27z" />
<glyph unicode="&#xe5;" horiz-adv-x="476" d="M46 106q0 91 95 133.5t296 52.5l8 60q-1 6 1.5 20t-5.5 32t-20.5 34.5t-43.5 27.5t-75 11q-65 0 -148 -31l-7 22q87 32 161 32h19.5t43 -7t53 -20.5t38 -43.5t9.5 -73l-50 -356h-26l13 93q-26 -50 -88.5 -78.5t-117.5 -28.5q-66 0 -111 31.5t-45 88.5zM70 122 q-7 -49 33.5 -81.5t103.5 -32.5q18 0 46 7t65 22.5t65.5 50t35.5 81.5l14 101q-347 -17 -363 -148zM247 632q0 34 23 60t63 26q32 0 48.5 -18.5t16.5 -47.5q0 -36 -24.5 -62t-61.5 -26q-30 0 -47.5 20t-17.5 48zM269 634q0 -20 11.5 -34.5t33.5 -14.5q28 0 44.5 20t16.5 43 q0 20 -11.5 34.5t-34.5 14.5q-27 0 -43.5 -20t-16.5 -43z" />
<glyph unicode="&#xe6;" horiz-adv-x="874" d="M54 104q0 38 18 67t48.5 48t80.5 31.5t104.5 19.5t128.5 11l10 71q1 10 1.5 17t-4.5 29.5t-17.5 37t-44 27.5t-77.5 13q-58 0 -145 -29l-5 21q79 32 156 32h18.5t40.5 -6.5t51 -18t38.5 -38.5t14.5 -65q37 59 94 93.5t121 34.5q101 0 154 -59t37 -177l-2 -15h-420 q-15 -114 35.5 -176t152.5 -62q70 0 147 26l4 -24q-75 -27 -168 -27q-69 0 -119.5 34t-70.5 95l-5 16q-2 -8 -9 -20t-12 -21l-6 -8q-38 -50 -98 -73t-112 -23q-60 0 -100 31t-40 87zM84 122q-6 -56 27 -84.5t96 -28.5q16 0 44.5 7.5t65.5 24t66 51.5t36 82l12 85 q-164 -9 -251.5 -40t-95.5 -97zM460 273h391q14 107 -34 155t-134 48q-80 0 -145.5 -58t-77.5 -145z" />
<glyph unicode="&#xe7;" horiz-adv-x="427" d="M65 198q0 137 76.5 219.5t203.5 82.5q67 0 119 -20l-12 -25q-58 20 -102 20q-130 0 -193 -80t-63 -192q0 -85 46 -138.5t145 -53.5q55 0 108 16l4 -25q-52 -16 -124 -16h-15q19 -39 22 -60q7 -55 -28 -93.5t-96 -31.5q-36 4 -74 23l4 23l49 -17q70 -24 105.5 25.5 t-7.5 133.5q-81 10 -124.5 64.5t-43.5 144.5z" />
<glyph unicode="&#xe8;" d="M66 207q0 124 78 208.5t185 84.5q100 0 153 -64t36 -183l-2 -16h-420q-14 -102 37.5 -164t152.5 -62q70 0 147 26l5 -24q-75 -27 -169 -27q-90 0 -146.5 60t-56.5 161zM100 259h392q15 108 -33 162t-133 54q-79 0 -146 -64t-80 -152zM269 661h33l45 -111h-26z" />
<glyph unicode="&#xe9;" d="M66 207q0 124 78 208.5t185 84.5q100 0 153 -64t36 -183l-2 -16h-420q-14 -102 37.5 -164t152.5 -62q70 0 147 26l5 -24q-75 -27 -169 -27q-90 0 -146.5 60t-56.5 161zM100 259h392q15 108 -33 162t-133 54q-79 0 -146 -64t-80 -152zM320 550l77 111h33l-84 -111h-26z " />
<glyph unicode="&#xea;" d="M66 207q0 124 78 208.5t185 84.5q100 0 153 -64t36 -183l-2 -16h-420q-14 -102 37.5 -164t152.5 -62q70 0 147 26l5 -24q-75 -27 -169 -27q-90 0 -146.5 60t-56.5 161zM100 259h392q15 108 -33 162t-133 54q-79 0 -146 -64t-80 -152zM233 554l97 107h44l67 -107h-29 l-62 91l-88 -91h-29z" />
<glyph unicode="&#xeb;" d="M66 207q0 124 78 208.5t185 84.5q100 0 153 -64t36 -183l-2 -16h-420q-14 -102 37.5 -164t152.5 -62q70 0 147 26l5 -24q-75 -27 -169 -27q-90 0 -146.5 60t-56.5 161zM100 259h392q15 108 -33 162t-133 54q-79 0 -146 -64t-80 -152zM270 587l11 74h27l-11 -74h-27z M384 587l11 74h27l-11 -74h-27z" />
<glyph unicode="&#xec;" horiz-adv-x="146" d="M60 0l68 484h26l-68 -484h-26zM87 661h33l45 -111h-26z" />
<glyph unicode="&#xed;" horiz-adv-x="146" d="M60 0l68 484h26l-68 -484h-26zM138 550l77 111h33l-84 -111h-26z" />
<glyph unicode="&#xee;" horiz-adv-x="146" d="M47 554l97 107h44l67 -107h-29l-62 91l-88 -91h-29zM60 0l68 484h26l-68 -484h-26z" />
<glyph unicode="&#xef;" horiz-adv-x="146" d="M60 0l68 484h26l-68 -484h-26zM85 587l11 74h27l-11 -74h-27zM199 587l11 74h27l-11 -74h-27z" />
<glyph unicode="&#xf0;" d="M60 198q0 137 74 219.5t195 82.5q58 0 93 -15.5t38 -40.5q-4 34 -20 66t-47 64.5t-45 45.5t-47 40l-98 -86l-14 14l93 83q-55 45 -88 58l22 16q55 -28 87 -56l79 70l14 -14l-77 -67q238 -191 203 -435q-17 -120 -88 -189t-177 -69q-93 0 -145 57t-52 156zM87 205 q0 -86 44.5 -141.5t128.5 -55.5q107 0 173 79t66 193q0 87 -45 141.5t-128 54.5q-110 0 -174.5 -79t-64.5 -192z" />
<glyph unicode="&#xf1;" horiz-adv-x="524" d="M60 0l68 484h28l-11 -79q33 54 89.5 74.5t104.5 20.5q195 0 166 -211l-41 -289h-28l41 289q12 87 -21.5 137t-116.5 50q-69 0 -132.5 -38t-74.5 -116l-45 -322h-27zM232 599q11 32 34 48t52 14q21 -3 46.5 -20t37.5 -17q29 0 44 37h23q-7 -33 -28.5 -47t-46.5 -11 q-23 3 -45 19t-40 16q-35 0 -52 -39h-25z" />
<glyph unicode="&#xf2;" d="M60 198q0 137 74 219.5t195 82.5q93 0 145 -57t52 -156q0 -137 -74 -219.5t-195 -82.5q-93 0 -145 57t-52 156zM87 205q0 -86 44.5 -141.5t128.5 -55.5q107 0 173 79t66 193q0 87 -45 141.5t-128 54.5q-110 0 -174.5 -79t-64.5 -192zM267 661h33l45 -111h-26z" />
<glyph unicode="&#xf3;" d="M60 198q0 137 74 219.5t195 82.5q93 0 145 -57t52 -156q0 -137 -74 -219.5t-195 -82.5q-93 0 -145 57t-52 156zM87 205q0 -86 44.5 -141.5t128.5 -55.5q107 0 173 79t66 193q0 87 -45 141.5t-128 54.5q-110 0 -174.5 -79t-64.5 -192zM324 550l77 111h33l-84 -111h-26z " />
<glyph unicode="&#xf4;" d="M60 198q0 137 74 219.5t195 82.5q93 0 145 -57t52 -156q0 -137 -74 -219.5t-195 -82.5q-93 0 -145 57t-52 156zM87 205q0 -86 44.5 -141.5t128.5 -55.5q107 0 173 79t66 193q0 87 -45 141.5t-128 54.5q-110 0 -174.5 -79t-64.5 -192zM233 554l97 107h44l67 -107h-29 l-62 91l-88 -91h-29z" />
<glyph unicode="&#xf5;" d="M60 198q0 137 74 219.5t195 82.5q93 0 145 -57t52 -156q0 -137 -74 -219.5t-195 -82.5q-93 0 -145 57t-52 156zM87 205q0 -86 44.5 -141.5t128.5 -55.5q107 0 173 79t66 193q0 87 -45 141.5t-128 54.5q-110 0 -174.5 -79t-64.5 -192zM229 599q11 32 34 48t52 14 q21 -3 46.5 -20t37.5 -17q29 0 44 37h23q-7 -33 -28.5 -47t-46.5 -11q-23 3 -45 19t-40 16q-35 0 -52 -39h-25z" />
<glyph unicode="&#xf6;" d="M60 198q0 137 74 219.5t195 82.5q93 0 145 -57t52 -156q0 -137 -74 -219.5t-195 -82.5q-93 0 -145 57t-52 156zM87 205q0 -86 44.5 -141.5t128.5 -55.5q107 0 173 79t66 193q0 87 -45 141.5t-128 54.5q-110 0 -174.5 -79t-64.5 -192zM270 587l11 74h27l-11 -74h-27z M384 587l11 74h27l-11 -74h-27z" />
<glyph unicode="&#xf7;" horiz-adv-x="517" d="M72 230l4 25h437l-4 -25h-437zM239 0l8 62h37l-8 -62h-37zM298 421l9 62h37l-9 -62h-37z" />
<glyph unicode="&#xf8;" d="M50 -58l70 88q-60 54 -60 168q0 137 74 219.5t195 82.5q79 0 128 -38l55 70h28l-66 -85q52 -54 52 -160q0 -137 -74 -219.5t-195 -82.5q-72 0 -119 32l-60 -75h-28zM87 205q0 -101 51 -152l301 386q-45 37 -113 37q-110 0 -174.5 -79t-64.5 -192zM155 39q42 -31 105 -31 q107 0 173.5 79t66.5 193q0 92 -45 143z" />
<glyph unicode="&#xf9;" horiz-adv-x="524" d="M88 195l40 289h27l-41 -289q-12 -86 22 -135t118 -49q24 0 51.5 6t62.5 21.5t60.5 49.5t32.5 82l44 314h27l-68 -484h-28l12 83q-33 -54 -90 -75.5t-105 -21.5q-92 0 -136.5 47.5t-28.5 161.5zM308 661h33l46 -111h-26z" />
<glyph unicode="&#xfa;" horiz-adv-x="524" d="M88 195l40 289h27l-41 -289q-12 -86 22 -135t118 -49q24 0 51.5 6t62.5 21.5t60.5 49.5t32.5 82l44 314h27l-68 -484h-28l12 83q-33 -54 -90 -75.5t-105 -21.5q-92 0 -136.5 47.5t-28.5 161.5zM293 550l76 111h33l-83 -111h-26z" />
<glyph unicode="&#xfb;" horiz-adv-x="524" d="M88 195l40 289h27l-41 -289q-12 -86 22 -135t118 -49q24 0 51.5 6t62.5 21.5t60.5 49.5t32.5 82l44 314h27l-68 -484h-28l12 83q-33 -54 -90 -75.5t-105 -21.5q-92 0 -136.5 47.5t-28.5 161.5zM236 554l97 107h44l67 -107h-29l-62 91l-88 -91h-29z" />
<glyph unicode="&#xfc;" horiz-adv-x="524" d="M88 195l40 289h27l-41 -289q-12 -86 22 -135t118 -49q24 0 51.5 6t62.5 21.5t60.5 49.5t32.5 82l44 314h27l-68 -484h-28l12 83q-33 -54 -90 -75.5t-105 -21.5q-92 0 -136.5 47.5t-28.5 161.5zM274 587l10 74h27l-10 -74h-27zM388 587l10 74h27l-10 -74h-27z" />
<glyph unicode="&#xfd;" horiz-adv-x="495" d="M47 -222l8 22q8 -1 15 -1q66 0 109 71l59 108l-160 506h31l149 -472l264 472h31l-363 -641q-21 -37 -55.5 -52.5t-59.5 -15.5q-13 0 -28 3zM294 550l77 111h33l-84 -111h-26z" />
<glyph unicode="&#xfe;" horiz-adv-x="534" d="M37 -200l123 874h27l-37 -259q79 85 191 85q98 0 149.5 -58.5t51.5 -155.5q0 -130 -72.5 -215t-191.5 -85q-150 0 -176 92l-39 -278h-26zM116 168q-7 -48 7.5 -81.5t43 -49t55.5 -22t56 -6.5q53 0 95.5 19t68 48.5t42.5 67t23 71.5t6 66q0 33 -7.5 63.5t-25 62 t-54.5 50.5t-89 19q-39 0 -79.5 -13t-76 -47t-42.5 -82z" />
<glyph unicode="&#xff;" horiz-adv-x="495" d="M47 -222l8 22q8 -1 15 -1q66 0 109 71l59 108l-160 506h31l149 -472l264 472h31l-363 -641q-21 -37 -55.5 -52.5t-59.5 -15.5q-13 0 -28 3zM260 587l10 74h27l-10 -74h-27zM374 587l10 74h27l-10 -74h-27z" />
<glyph unicode="&#x152;" horiz-adv-x="1114" d="M82 277q0 186 102 297.5t269 111.5q107 0 175 -50.5t89 -143.5l26 182h414l-4 -25h-387l-41 -295h358l-4 -26h-358l-43 -303h394l-3 -25h-421l25 181q-47 -93 -129 -144t-189 -51q-128 0 -200.5 77.5t-72.5 213.5zM109 283q0 -123 64 -198t185 -75q158 0 249.5 109 t91.5 269q0 119 -64 196.5t-185 77.5q-155 0 -248 -111t-93 -268z" />
<glyph unicode="&#x153;" horiz-adv-x="943" d="M60 198q0 137 74 219.5t195 82.5q81 0 131.5 -41.5t62.5 -117.5q34 73 96 116t135 43q99 0 151.5 -64t37.5 -183l-2 -16h-420q-17 -101 35.5 -163.5t154.5 -62.5q70 0 147 26l5 -24q-75 -27 -169 -27q-77 0 -130.5 42.5t-68.5 117.5q-32 -77 -94 -119t-144 -42 q-93 0 -145 57t-52 156zM87 205q0 -86 44.5 -141.5t128.5 -55.5q88 0 149.5 58t81.5 150q4 20 8 56q5 90 -40.5 147t-132.5 57q-110 0 -174.5 -79t-64.5 -192zM525 259h392q15 108 -33 162t-133 54q-79 0 -146 -64t-80 -152z" />
<glyph unicode="&#x178;" horiz-adv-x="568" d="M105 674h31l184 -410l300 410h33l-322 -436l-34 -238h-28l34 238zM322 777l11 74h27l-11 -74h-27zM436 777l11 74h27l-11 -74h-27z" />
<glyph unicode="&#x2c6;" horiz-adv-x="288" d="M118 554l97 107h44l67 -107h-29l-62 91l-88 -91h-29z" />
<glyph unicode="&#x2dc;" horiz-adv-x="308" d="M124 599q11 32 34 48t52 14q21 -3 46.5 -20t37.5 -17q29 0 44 37h23q-7 -33 -28.5 -47t-46.5 -11q-23 3 -45.5 19t-40.5 16q-19 0 -30 -8.5t-21 -30.5h-25z" />
<glyph unicode="&#x2000;" horiz-adv-x="454" />
<glyph unicode="&#x2001;" horiz-adv-x="908" />
<glyph unicode="&#x2002;" horiz-adv-x="454" />
<glyph unicode="&#x2003;" horiz-adv-x="908" />
<glyph unicode="&#x2004;" horiz-adv-x="302" />
<glyph unicode="&#x2005;" horiz-adv-x="227" />
<glyph unicode="&#x2006;" horiz-adv-x="151" />
<glyph unicode="&#x2007;" horiz-adv-x="151" />
<glyph unicode="&#x2008;" horiz-adv-x="113" />
<glyph unicode="&#x2009;" horiz-adv-x="181" />
<glyph unicode="&#x200a;" horiz-adv-x="50" />
<glyph unicode="&#x2010;" horiz-adv-x="407" d="M85 248l4 28h307l-4 -28h-307z" />
<glyph unicode="&#x2011;" horiz-adv-x="407" d="M85 248l4 28h307l-4 -28h-307z" />
<glyph unicode="&#x2012;" horiz-adv-x="407" d="M85 248l4 28h307l-4 -28h-307z" />
<glyph unicode="&#x2013;" horiz-adv-x="551" d="M75 252l3 24h471l-3 -24h-471z" />
<glyph unicode="&#x2014;" horiz-adv-x="920" d="M75 252l3 24h840l-3 -24h-840z" />
<glyph unicode="&#x2018;" horiz-adv-x="215" d="M145 674h29l62 -174h-27z" />
<glyph unicode="&#x2019;" horiz-adv-x="215" d="M120 500l110 174h29l-112 -174h-27z" />
<glyph unicode="&#x201a;" horiz-adv-x="215" d="M39 -80l110 174h29l-112 -174h-27z" />
<glyph unicode="&#x201c;" horiz-adv-x="306" d="M145 674h29l62 -174h-27zM236 674h29l62 -174h-27z" />
<glyph unicode="&#x201d;" horiz-adv-x="306" d="M120 500l110 174h29l-112 -174h-27zM211 500l110 174h29l-112 -174h-27z" />
<glyph unicode="&#x201e;" horiz-adv-x="306" d="M39 -80l110 174h29l-112 -174h-27zM130 -80l110 174h29l-112 -174h-27z" />
<glyph unicode="&#x2022;" horiz-adv-x="279" d="M93 303q0 42 31 73t72 31q34 0 56 -23.5t22 -58.5q0 -42 -31 -72.5t-73 -30.5q-33 0 -55 23.5t-22 57.5z" />
<glyph unicode="&#x2026;" horiz-adv-x="485" d="M50 0l8 58h28l-8 -58h-28zM224 0l8 58h29l-8 -58h-29zM406 0l8 58h29l-8 -58h-29z" />
<glyph unicode="&#x202f;" horiz-adv-x="181" />
<glyph unicode="&#x2039;" horiz-adv-x="263" d="M95 323l164 231h30l-163 -231l100 -231h-30z" />
<glyph unicode="&#x203a;" horiz-adv-x="263" d="M63 92l164 231l-98 231h30l99 -231l-165 -231h-30z" />
<glyph unicode="&#x205f;" horiz-adv-x="227" />
<glyph unicode="&#x20ac;" horiz-adv-x="700" d="M67 264l13 21h147q0 45 10 85h-125l13 21h117q35 129 134.5 212t234.5 83q79 0 136 -14l-13 -25q-18 6 -52.5 10t-48.5 4q-76 0 -139.5 -22.5t-107 -61t-72 -85.5t-43.5 -101h341l-13 -21h-333q-11 -48 -11 -85h312l-13 -21h-299q2 -52 18.5 -96.5t49.5 -80.5t89 -56.5 t129 -20.5q57 0 113 16l6 -26q-64 -14 -147 -14q-131 0 -206.5 77.5t-79.5 200.5h-160z" />
<glyph unicode="&#x2122;" horiz-adv-x="846" d="M142 652l3 22h356l118 -369l223 369h35l-41 -395h-27l40 364l-217 -364h-31l-115 364l-62 -364h-28l67 373h-153l-52 -373h-26l52 373h-142z" />
<glyph unicode="&#xe000;" horiz-adv-x="485" d="M0 0v485h485v-485h-485z" />
</font>
</defs>
</svg>
