<?xml version="1.0" standalone="no"?>
<!DOCTYPE svg PUBLIC "-//W3C//DTD SVG 1.1//EN" "http://www.w3.org/Graphics/SVG/1.1/DTD/svg11.dtd" >
<svg xmlns="http://www.w3.org/2000/svg">
<metadata></metadata>
<defs>
<font id="IntervalSansProCondLightRg" horiz-adv-x="484" >
<font-face units-per-em="1000" ascent="750" descent="-250" />
<missing-glyph horiz-adv-x="236" />
<glyph unicode="&#xfb01;" horiz-adv-x="367" d="M7 437v47h63v52q0 43 9.5 73.5t21.5 45t30 22t27 8t21 0.5h3q26 0 53 -14l-7 -40q-21 10 -36 10q-67 0 -67 -93v-64h194v-484h-56v437h-138v-437h-56l1 437h-63z" />
<glyph unicode="&#xfb02;" horiz-adv-x="367" d="M7 437v47h63v41q0 52 14 85.5t36.5 45.5t35 15t26.5 3h137v-674h-56v627h-71q-67 0 -67 -93v-50h86v-47h-86v-437h-56l1 437h-63z" />
<glyph unicode="&#xfb03;" horiz-adv-x="582" d="M7 437v47h63v52q0 43 9.5 73.5t21.5 45t30 22t27 8t21 0.5h3q26 0 53 -14l-7 -40q-21 10 -36 10q-67 0 -67 -93v-64h160v52q0 43 9.5 73.5t21.5 45t30 22t27 8t21 0.5h3q26 0 53 -14l-7 -40q-21 10 -36 10q-67 0 -67 -93v-64h194v-484h-56v437h-138v-437h-56l1 437h-160 v-437h-56l1 437h-63z" />
<glyph unicode="fll" horiz-adv-x="582" d="M7 437v47h63v52q0 43 9.5 73.5t21.5 45t30 22t27 8t21 0.5h3q26 0 53 -14l-7 -40q-21 10 -36 10q-67 0 -67 -93v-64h160v41q0 52 14 85.5t36.5 45.5t35 15t26.5 3h137v-674h-56v628h-72q-66 0 -66 -91v-53h86v-47h-86v-437h-56l1 437h-160v-437h-56l1 437h-63z" />
<glyph horiz-adv-x="0" />
<glyph horiz-adv-x="1000" />
<glyph unicode=" "  horiz-adv-x="236" />
<glyph unicode="&#x09;" horiz-adv-x="236" />
<glyph unicode="&#xa0;" horiz-adv-x="236" />
<glyph unicode="!" horiz-adv-x="170" d="M56 0v76h57v-76h-57zM56 674h57l-3 -532h-50z" />
<glyph unicode="&#x22;" horiz-adv-x="249" d="M39 674h55l-5 -286h-44zM155 674h55l-6 -286h-44z" />
<glyph unicode="#" horiz-adv-x="485" d="M18 206v46h92l49 186h-92l1 46h104l52 190h50l-52 -190h114l52 190h48l-51 -190h82v-46h-95l-49 -186h90l-1 -46h-102q-9 -33 -28 -103t-29 -103h-46l55 206h-112l-59 -206h-48l55 206h-80zM161 252h114l49 186h-114z" />
<glyph unicode="$" horiz-adv-x="466" d="M22 75l16 31l8 18q39 -34 92.5 -57.5t105.5 -23.5q55 0 97.5 34.5t42.5 97.5q0 66 -69 103q-28 12 -86.5 38t-86.5 38q-118 54 -104 181q8 63 54.5 103.5t116.5 45.5v75h47v-75q91 -8 158 -66l-21 -49q-78 61 -164 61q-49 0 -85 -24t-48 -76q-12 -77 97 -132 q135 -62 149 -68q52 -26 76.5 -68.5t23.5 -80.5q-1 -85 -54.5 -137t-131.5 -55v-80h-47v82q-105 12 -187 84z" />
<glyph unicode="%" horiz-adv-x="725" d="M31 509q0 78 37 123t97 45t97 -45.5t37 -122.5q0 -79 -37 -124.5t-97 -45.5t-97 45.5t-37 124.5zM85 509q0 -118 80 -118q79 0 79 118q0 117 -79 117q-80 0 -80 -117zM163 0l337 674h46l-336 -674h-47zM426 158q0 78 37 123t97 45t97 -45.5t37 -122.5q0 -79 -37 -124.5 t-97 -45.5t-97 45.5t-37 124.5zM480 158q0 -118 80 -118t80 118q0 117 -80 117t-80 -117z" />
<glyph unicode="&#x26;" horiz-adv-x="514" d="M31 177q0 132 141 186h-1q-86 68 -86 166q0 79 42.5 117.5t100.5 38.5q56 0 99 -37t43 -113q0 -47 -25 -96.5t-84 -85.5l130 -153q19 52 19 132h50q3 -106 -29 -168h-1q38 -47 56 -82.5t18 -81.5h-51l-2 16q-3 20 -5 29.5t-11.5 27.5t-27.5 41q-50 -127 -179 -127 q-97 0 -147 54.5t-50 135.5zM87 181q0 -70 36 -108t105 -38q89 0 139 115h1q-26 30 -79 90t-79 90q-48 -12 -85.5 -51t-37.5 -98zM139 543q-4 -101 84 -158q52 32 73 65.5t21 91.5q-3 42 -26 69t-63 27t-63 -29t-26 -66z" />
<glyph unicode="'" horiz-adv-x="133" d="M39 674h55l-5 -286h-44z" />
<glyph unicode="(" horiz-adv-x="277" d="M48 275q1 194 53.5 292t144.5 107v-46q-32 -5 -55.5 -22t-44 -55.5t-31.5 -109t-11 -171.5q0 -345 142 -363v-48h-3q-92 6 -143.5 109.5t-51.5 306.5z" />
<glyph unicode=")" horiz-adv-x="277" d="M31 -96q142 18 142 366q0 101 -11 171.5t-31.5 109t-44 56t-55.5 21.5v46h3q91 -9 142.5 -107t52.5 -292q0 -202 -52 -306.5t-146 -111.5v47z" />
<glyph unicode="*" horiz-adv-x="318" d="M31 578l20 37l89 -69v128h39v-129l85 70l23 -38l-89 -62l86 -62l-19 -39l-86 71v-130h-39v130q-10 -8 -42 -34t-47 -37l-18 39l85 62z" />
<glyph unicode="+" horiz-adv-x="471" d="M31 295v54h175v217h52v-217h182v-54h-182v-214h-52v214h-175z" />
<glyph unicode="," horiz-adv-x="187" d="M17 -100l72 174h67l-87 -174h-52z" />
<glyph unicode="-" horiz-adv-x="339" d="M31 232v58h277v-58h-277z" />
<glyph unicode="." horiz-adv-x="145" d="M39 0v86h67v-86h-67z" />
<glyph unicode="/" horiz-adv-x="297" d="M22 0l198 674h52l-198 -674h-52z" />
<glyph unicode="0" d="M37 328q0 162 54 252t149 90q98 0 152.5 -89.5t54.5 -252.5q0 -162 -54.5 -252t-152.5 -90q-95 0 -149 90.5t-54 251.5zM91 328q0 -80 15 -144.5t49.5 -106.5t84.5 -42q51 0 86 42t50 106t15 145q0 123 -38 207.5t-113 84.5q-73 0 -111 -85t-38 -207z" />
<glyph unicode="1" d="M153 529l117 130h62v-659h-56v591l-95 -106z" />
<glyph unicode="2" d="M51 0v23q2 54 19.5 97.5t48.5 76.5t60 56t72 53.5t67 50.5q59 53 59 126q0 48 -35.5 90t-90.5 42q-30 0 -62 -15t-54 -35t-30 -38l-33 46q8 13 22 28t35.5 31.5t52.5 27t65 10.5q41 0 76 -14t59 -39t37.5 -59t13.5 -73q0 -28 -3.5 -49.5t-19.5 -54t-46 -58.5 q-36 -31 -88 -68q-35 -25 -58.5 -44.5t-49.5 -45.5t-40 -53.5t-15 -56.5h317v-55h-379z" />
<glyph unicode="3" d="M58 69l23 42q76 -71 155 -71q63 0 98 38.5t35 93.5t-36.5 96t-100.5 41h-39v56h36q63 0 98 36.5t35 87.5q0 52 -35 90.5t-94 38.5q-75 0 -135 -71q-5 9 -10 21l-12 23q54 79 161 79q77 1 127.5 -47t50.5 -134q0 -47 -31.5 -95t-86.5 -57q54 -4 91 -52t37 -110 q0 -84 -55 -137.5t-129 -51.5q-110 0 -183 83z" />
<glyph unicode="4" d="M34 143v55q71 159 251 432l20 29h63v-466h81v-50h-81v-143h-54v143h-280zM90 193h224v388q-151 -215 -224 -388z" />
<glyph unicode="5" d="M54 79l26 61q23 -43 60.5 -71.5t77.5 -28.5q47 0 81 16t50 43t23 52.5t7 52.5q0 75 -35.5 127.5t-99.5 52.5q-73 0 -108 -54h-65q7 59 20 199l12 130h288v-55h-241q-3 -35 -10 -104.5t-10 -104.5q38 42 114 42q79 0 133 -63t54 -162q0 -108 -57.5 -166t-146.5 -58 q-57 0 -96.5 23.5t-76.5 67.5z" />
<glyph unicode="6" d="M50 309q0 179 61.5 270t163.5 91q65 0 114 -27l-13 -44q-46 24 -88 24q-88 0 -135.5 -75.5t-50.5 -205.5q48 91 150 91q85 0 134 -62.5t49 -164.5q0 -103 -52.5 -161t-135.5 -58q-49 0 -86.5 22.5t-58 55t-33 79t-16 84.5t-3.5 81zM113 213q0 -76 36 -126t97 -50 q66 0 100.5 53t34.5 116q0 41 -11.5 78.5t-44 67.5t-80.5 30q-62 0 -97 -49.5t-35 -119.5z" />
<glyph unicode="7" d="M51 604v55h382v-63q-96 -145 -158.5 -287t-108.5 -309h-64q59 184 121.5 327.5t151.5 276.5h-324z" />
<glyph unicode="8" d="M46 165q0 21 4.5 44t16.5 52t39 52t66 32h1q-52 6 -79.5 54.5t-27.5 102.5q0 63 41 108.5t93 56.5q1 0 7 0.5t15.5 1.5t19.5 1l43 -3q52 -11 93 -56.5t41 -108.5q0 -54 -27.5 -102.5t-80.5 -54.5h1q39 -9 66 -32t39 -52t16.5 -52t4.5 -44q0 -78 -50 -128.5t-146 -50.5 t-146 50.5t-50 128.5zM100 173q0 -57 38 -99t104 -42t104.5 42t38.5 99q0 58 -37 99t-106 42q-68 -1 -105 -42t-37 -99zM120 502q2 -128 122 -128t122 128q0 50 -30.5 86t-91.5 36q-60 0 -91 -36t-31 -86z" />
<glyph unicode="9" d="M50 451q0 102 52 160.5t135 58.5q49 0 86.5 -22.5t58 -55.5t33.5 -79t16.5 -84.5t3.5 -80.5q0 -179 -61.5 -270t-163.5 -91q-67 0 -114 27l12 46q52 -26 88 -26q88 0 135.5 75t50.5 206q-26 -50 -67.5 -70.5t-82.5 -20.5q-84 0 -133 62.5t-49 164.5zM103 451 q0 -41 11.5 -78.5t44 -67.5t81.5 -30q62 0 97 49.5t35 119.5q0 76 -36.5 126t-96.5 50q-67 0 -101.5 -53t-34.5 -116z" />
<glyph unicode=":" horiz-adv-x="137" d="M39 0v86h59v-86h-59zM39 398v86h59v-86h-59z" />
<glyph unicode=";" horiz-adv-x="212" d="M32 -100l72 174h67l-86 -174h-53zM106 398v86h58v-86h-58z" />
<glyph unicode="&#x3c;" d="M22 223v37q75 40 212.5 111t201.5 104v-57l-347 -177q57 -29 173.5 -89t173.5 -88v-58z" />
<glyph unicode="=" horiz-adv-x="490" d="M39 211v51h412v-51h-412zM39 407v51h412v-51h-412z" />
<glyph unicode="&#x3e;" d="M48 6v58l346 177q-56 28 -172.5 88t-173.5 89v57q31 -16 87.5 -45t75.5 -39q27 -14 251 -131v-37z" />
<glyph unicode="?" horiz-adv-x="440" d="M52 583q12 23 30 43t56.5 40t84.5 20q81 0 133.5 -49t52.5 -141q0 -82 -85 -170q-49 -49 -70 -83.5t-21 -82.5v-18h-50q1 80 21 117.5t95 116.5q55 55 55 126q0 57 -36 96t-100 39q-39 0 -72.5 -27.5t-55.5 -60.5q-8 6 -38 34zM181 0v76h57v-76h-57z" />
<glyph unicode="@" horiz-adv-x="733" d="M39 301q0 104 44.5 192.5t120.5 140t166 51.5q65 0 119.5 -19.5t91.5 -51.5t62.5 -74t37.5 -85.5t12 -86.5q0 -61 -13 -110t-34 -80t-48 -52.5t-53 -30t-51 -8.5q-26 0 -46 16t-21 53q-44 -47 -116 -47q-54 0 -83.5 35t-29.5 106q0 100 48 163t131 63q25 0 47.5 -14 t34.5 -36q1 5 7 42h52q-4 -24 -9 -51t-10 -51t-9.5 -48t-9.5 -51t-9 -51q-3 -16 -3 -30q0 -55 34 -55q52 0 98 56t46 173q0 135 -82 207t-194 72q-120 0 -200 -97t-80 -241q0 -151 80 -242t200 -91q138 0 250 89l18 -34q-49 -43 -120.5 -70.5t-140.5 -27.5 q-105 0 -182.5 50.5t-116.5 134.5t-39 191zM250 243q0 -29 6.5 -48t22 -30t41.5 -11q14 0 28 3.5t31 11.5t30 25.5t19 42.5l19 124q0 37 -25 55.5t-45 18.5q-99 0 -122 -142q-5 -25 -5 -50z" />
<glyph unicode="A" horiz-adv-x="552" d="M5 0l238 674h66l238 -674h-58l-57 164h-313l-56 -164h-58zM136 218h279l-139 393z" />
<glyph unicode="B" horiz-adv-x="504" d="M52 0v674h251q77 0 115 -50t38 -123q0 -107 -77 -155h-2q46 -7 77.5 -57.5t31.5 -110.5q0 -67 -40 -122.5t-113 -55.5h-281zM108 54h201q57 0 87.5 36.5t30.5 88.5q0 55 -30.5 94t-87.5 39h-201v-258zM108 367h192q36 5 59 27.5t30.5 46t7.5 48.5q0 131 -112 131h-177 v-253z" />
<glyph unicode="C" horiz-adv-x="500" d="M31 336q0 150 77.5 249.5t206.5 99.5q106 0 162 -30q-10 -29 -16 -45q-59 20 -125 20q-65 0 -114.5 -25.5t-77 -68.5t-41 -93.5t-13.5 -106.5t13.5 -106.5t41 -93.5t77 -68.5t114.5 -25.5q69 0 127 20q1 -2 7 -25l7 -20q-56 -30 -162 -30q-129 0 -206.5 99.5t-77.5 249.5 z" />
<glyph unicode="D" horiz-adv-x="558" d="M52 0v674h200q135 0 209.5 -85.5t74.5 -251.5t-74.5 -251.5t-209.5 -85.5h-200zM108 54h148q99 0 162 70t63 213q0 146 -61.5 214.5t-166.5 68.5h-145v-566z" />
<glyph unicode="E" horiz-adv-x="462" d="M52 0v674h368v-54h-312v-252h289v-55h-289v-259h318v-54h-374z" />
<glyph unicode="F" horiz-adv-x="427" d="M52 0v674h348v-54h-292v-252h269v-55h-269v-313h-56z" />
<glyph unicode="G" horiz-adv-x="569" d="M31 337q0 150 84 249t225 99q106 0 176 -47l-23 -50q-30 21 -68.5 32t-63.5 11q-70 0 -124 -25.5t-85.5 -68.5t-47 -93.5t-15.5 -106.5q0 -117 68.5 -205t192.5 -88q65 0 128 27v220h-118v55h173v-316q-30 -20 -86 -30.5t-107 -10.5q-141 0 -225 99t-84 249z" />
<glyph unicode="H" horiz-adv-x="547" d="M52 0v674h56v-292h332v292h55v-674h-55v327h-332v-327h-56z" />
<glyph unicode="I" horiz-adv-x="177" d="M61 0v674h55v-674h-55z" />
<glyph unicode="J" horiz-adv-x="334" d="M5 20l12 48q59 -27 107 -27q38 0 60 14q26 17 35.5 45.5t9.5 83.5v490h53v-497q0 -188 -149 -188q-70 0 -128 31z" />
<glyph unicode="K" horiz-adv-x="473" d="M52 0v674h56v-382q43 63 129 191t130 191h64l-205 -301h1l241 -373h-71l-205 322l-85 -116h1v-206h-56z" />
<glyph unicode="L" horiz-adv-x="431" d="M52 -1v675h56v-620h292v-55h-348z" />
<glyph unicode="M" horiz-adv-x="708" d="M35 0l23 674h75l221 -602l221 602h75l23 -674h-56l-17 595q-36 -100 -108.5 -297.5t-108.5 -297.5h-57l-218 595q-3 -100 -8.5 -297.5t-8.5 -297.5h-56z" />
<glyph unicode="N" horiz-adv-x="554" d="M52 0v674h75l320 -589v589h55v-674h-66l-328 592v-592h-56z" />
<glyph unicode="O" horiz-adv-x="608" d="M31 337q0 163 73 255.5t200 92.5t200 -92.5t73 -255.5t-73 -256.5t-200 -93.5q-126 0 -199.5 93.5t-73.5 256.5zM91 337q0 -132 55 -215.5t158 -83.5q104 0 158.5 83.5t54.5 215.5q0 127 -55 212t-158 85q-102 0 -157.5 -85t-55.5 -212z" />
<glyph unicode="P" horiz-adv-x="478" d="M52 0v674h252q57 0 95 -35t51.5 -79.5t13.5 -93.5q0 -12 -1.5 -28.5t-10.5 -48t-23.5 -56t-45.5 -43.5t-73 -19h-202v-271h-56zM108 326h189q32 0 55 15t33.5 38.5t15 44.5t4.5 41q0 64 -29.5 109.5t-92.5 45.5h-175v-294z" />
<glyph unicode="Q" horiz-adv-x="599" d="M31 337q0 163 73 255.5t200 92.5t200 -92.5t73 -255.5q0 -104 -42.5 -190.5t-110.5 -135.5q21 -27 58 -43t74 -16h20v-46h-17q-47 0 -88.5 15t-60.5 29t-44 37h-62q-126 0 -199.5 93.5t-73.5 256.5zM91 337q0 -132 55 -215.5t158 -83.5q104 0 158.5 83.5t54.5 215.5 q0 127 -55 212t-158 85q-102 0 -157.5 -85t-55.5 -212z" />
<glyph unicode="R" horiz-adv-x="503" d="M52 0v674h243q49 0 84.5 -19t52.5 -51t24.5 -64.5t7.5 -69.5q0 -10 -1 -21.5t-7 -36t-16.5 -44.5t-33 -39.5t-52.5 -28.5h1q26 -16 37 -34t27 -66q2 -5 3.5 -10.5t3.5 -12.5t3 -12q16 -65 51 -165h-59l-65 213q-27 68 -91 68h-157v-281h-56zM108 335h189q32 0 56 14 t35 36.5t16 43t5 40.5q0 64 -28.5 107.5t-91.5 43.5h-181v-285z" />
<glyph unicode="S" horiz-adv-x="466" d="M22 75l16 31l8 18q39 -34 92.5 -57.5t105.5 -23.5q55 0 97.5 34.5t42.5 97.5q0 66 -69 103q-28 12 -86.5 38t-86.5 38q-118 54 -104 181q9 67 61 108.5t130 41.5q108 0 185 -67l-21 -49q-78 61 -164 61q-49 0 -85 -24t-48 -76q-12 -77 97 -132q135 -62 149 -68 q52 -26 76.5 -68.5t23.5 -80.5q-1 -88 -57.5 -140t-138.5 -52q-127 0 -224 86z" />
<glyph unicode="T" horiz-adv-x="440" d="M1 620v54h438v-54h-191v-620h-56v620h-191z" />
<glyph unicode="U" horiz-adv-x="572" d="M52 280v394h56v-388q0 -128 42.5 -189t135.5 -61t135.5 61t42.5 189v388h56v-394q0 -157 -60 -225t-174 -68t-174 68t-60 225z" />
<glyph unicode="V" horiz-adv-x="511" d="M5 674h57l194 -606q31 103 97.5 307.5t95.5 298.5h56l-216 -674h-67z" />
<glyph unicode="W" horiz-adv-x="790" d="M5 674h59l150 -591l148 565h67l148 -563q22 92 74 291.5t75 297.5h59l-175 -674h-66l-149 559q-23 -89 -74 -279t-74 -280h-66z" />
<glyph unicode="X" horiz-adv-x="499" d="M5 0l214 333l-205 341h67l168 -291l169 291h66l-204 -341l213 -333h-67l-177 282q-27 -44 -87.5 -139t-89.5 -143h-67z" />
<glyph unicode="Y" horiz-adv-x="508" d="M5 674h66l183 -376l182 376h67l-220 -438v-236h-58v236z" />
<glyph unicode="Z" horiz-adv-x="490" d="M22 0v71l380 549h-364v54h429v-67l-387 -551h371v-56h-429z" />
<glyph unicode="[" horiz-adv-x="212" d="M48 -142v816h133v-43h-83v-730h83v-43h-133z" />
<glyph unicode="\" horiz-adv-x="294" d="M22 674h52l198 -674h-51z" />
<glyph unicode="]" horiz-adv-x="212" d="M31 -99h82v730h-82v43h133v-816h-133v43z" />
<glyph unicode="^" horiz-adv-x="321" d="M27 389l114 285h39l115 -285h-51l-84 219l-84 -219h-49z" />
<glyph unicode="_" horiz-adv-x="517" d="M22 -75h472v-54h-472v54z" />
<glyph unicode="`" horiz-adv-x="195" d="M31 674h65l68 -129h-49z" />
<glyph unicode="a" horiz-adv-x="401" d="M22 129q0 86 68.5 125t210.5 48v43q0 6 -0.5 13.5t-6 24.5t-15 29.5t-29.5 23t-48 10.5q-68 0 -130 -34l-14 48q5 4 20 11t52 16.5t76 9.5h16.5t36.5 -7t45.5 -20.5t36 -45t16.5 -76.5v-348h-57v45q-40 -58 -131 -58q-62 0 -104.5 37.5t-42.5 104.5zM75 133 q2 -45 30.5 -70.5t72.5 -25.5q13 0 30 4t40.5 14.5t39 37t15.5 65.5v97q-112 -7 -170.5 -37t-57.5 -85z" />
<glyph unicode="b" horiz-adv-x="456" d="M48 0v674h56v-240q37 63 134 63q93 0 142.5 -69.5t49.5 -185.5q0 -115 -48.5 -185t-139.5 -70q-80 0 -139 62v-49h-55zM104 169q0 -39 14 -67t37 -41t43.5 -18t41.5 -5q39 0 66.5 19.5t41 52.5t18.5 64.5t5 67.5q0 30 -4.5 57.5t-17.5 65t-45 60t-80 22.5q-18 0 -44 -11 t-51 -40t-25 -68v-159z" />
<glyph unicode="c" horiz-adv-x="372" d="M27 242q0 119 55 187t152 68q73 0 116 -22l-10 -47q-46 17 -99 17q-156 0 -156 -203q0 -204 156 -204q51 0 99 18q3 -8 5 -23t5 -24q-45 -23 -116 -23q-97 0 -152 68t-55 188z" />
<glyph unicode="d" horiz-adv-x="456" d="M27 242q0 116 49 185.5t142 69.5q36 0 74 -15t60 -50v242h56v-674h-55v49q-60 -62 -139 -62q-90 0 -138.5 70t-48.5 185zM85 242q0 -36 5.5 -67.5t18.5 -64.5t40.5 -52.5t67.5 -19.5q20 0 40.5 5t43.5 18t37 41t14 67v159q0 39 -25 68t-51 40t-44 11q-39 0 -67.5 -16.5 t-43 -39t-23.5 -53.5t-11 -52.5t-2 -43.5z" />
<glyph unicode="e" horiz-adv-x="442" d="M27 242q0 109 55.5 182t138.5 73q85 0 139.5 -67t54.5 -181q0 -20 -1 -28h-329q2 -79 46.5 -130.5t114.5 -51.5h4q57 0 115 27l17 -46q-56 -33 -152 -33q-88 0 -145.5 69t-57.5 186zM86 270h273q-2 84 -41 130t-97 46q-53 0 -93 -53.5t-42 -122.5z" />
<glyph unicode="f" horiz-adv-x="215" d="M7 437v47h63v52q0 43 9.5 73.5t21.5 45t30 22t27 8t21 0.5h3q26 0 53 -14l-7 -40q-21 10 -36 10q-67 0 -67 -93v-64h86v-47h-86v-437h-56l1 437h-63z" />
<glyph unicode="g" horiz-adv-x="456" d="M27 242q0 126 51.5 190.5t136.5 64.5q13 0 30 -2t52 -17t56 -41v47h55v-542q0 -81 -52.5 -116.5t-130.5 -35.5q-97 0 -144 33l12 49q57 -32 126 -32q46 0 75 10t41 30.5t15 36.5t3 41v90q-48 -61 -127 -61q-92 0 -145.5 64.5t-53.5 190.5zM87 242q0 -204 146 -204 q18 0 43 7.5t50.5 34t25.5 65.5v176q0 39 -14 66.5t-37.5 39t-43 16t-40.5 4.5q-68 0 -99 -59t-31 -146z" />
<glyph unicode="h" horiz-adv-x="451" d="M48 0v674h56v-249q15 25 34.5 41t42 22t36 7.5t34.5 1.5q71 0 111.5 -50.5t40.5 -158.5v-288h-56v288q0 159 -107 159q-17 0 -37 -6t-44 -20.5t-39.5 -48t-15.5 -81.5v-291h-56z" />
<glyph unicode="i" horiz-adv-x="152" d="M48 0v484h56v-484h-56zM48 588v86h56v-86h-56z" />
<glyph unicode="j" horiz-adv-x="170" d="M-46 -187l7 42q27 -8 42 -8q22 0 36 9t19.5 28t6.5 32t1 36v532h56l-1 -536q0 -53 -12.5 -86.5t-34 -45t-35 -14.5t-31.5 -2q-26 0 -54 13zM66 588v86h56v-86h-56z" />
<glyph unicode="k" horiz-adv-x="390" d="M48 0v674h56v-401l186 211h65l-151 -176h1l184 -308h-64l-159 274l-63 -74h1v-200h-56z" />
<glyph unicode="l" horiz-adv-x="152" d="M48 0v674h56v-674h-56z" />
<glyph unicode="m" horiz-adv-x="699" d="M48 0v484h51v-60q39 73 130 73q36 0 73 -21t57 -70q20 47 57 69t81 22q154 0 154 -193v-304h-56v287q0 81 -25 120.5t-83 39.5q-11 0 -26 -5.5t-36 -18.5t-35 -44.5t-14 -74.5v-304h-54l1 303q0 58 -27 101t-81 43q-44 0 -77.5 -38.5t-33.5 -130.5v-278h-56z" />
<glyph unicode="n" horiz-adv-x="451" d="M48 0v484h50v-68q43 81 135 81q82 0 126 -47.5t44 -163.5v-286h-56v286q0 161 -107 161q-17 0 -36.5 -6t-43.5 -21.5t-40 -49.5t-16 -81v-289h-56z" />
<glyph unicode="o" horiz-adv-x="433" d="M18 242q0 119 53.5 187t145.5 68t145 -68t53 -187q0 -120 -53 -188t-145 -68t-145.5 68t-53.5 188zM74 242q0 -85 38 -146.5t105 -61.5q66 0 104.5 62.5t38.5 145.5t-38.5 145t-104.5 62q-67 0 -105 -61t-38 -146z" />
<glyph unicode="p" horiz-adv-x="456" d="M48 -200v684h55v-49q59 62 139 62q91 0 139.5 -70t48.5 -185q0 -116 -49.5 -185.5t-142.5 -69.5q-35 0 -73 14.5t-61 48.5v-250h-56zM104 156q0 -39 25 -68t51 -40t44 -11q48 0 80 22.5t45 60t17.5 65t4.5 57.5q0 36 -5 67.5t-18.5 64.5t-41 52.5t-66.5 19.5 q-21 0 -41.5 -5t-43.5 -18t-37 -41t-14 -67v-159z" />
<glyph unicode="q" horiz-adv-x="456" d="M27 242q0 115 48.5 185t138.5 70q79 0 139 -62v49h55v-684h-56v250q-37 -63 -134 -63q-93 0 -142 69.5t-49 185.5zM85 242q0 -22 2 -43.5t11 -52.5t23.5 -53.5t43 -39t67.5 -16.5q18 0 44 11t51 40t25 68v159q0 39 -14 67t-37 41t-43.5 18t-40.5 5q-40 0 -67.5 -19.5 t-40.5 -52.5t-18.5 -64.5t-5.5 -67.5z" />
<glyph unicode="r" horiz-adv-x="248" d="M52 0v484h51v-62q38 73 121 75h17v-59h-26q-45 0 -76 -35.5t-31 -102.5v-300h-56z" />
<glyph unicode="s" horiz-adv-x="354" d="M22 48l24 47q82 -59 132 -59q32 0 57.5 15t35.5 43q15 62 -32 91q-50 25 -91 42l-41 18q-43 24 -61.5 58t-13.5 86q8 48 46 78.5t94 30.5q74 0 139 -47l-21 -46q-67 41 -112 41q-44 0 -67.5 -21t-23.5 -54q0 -32 18 -52.5t57 -35.5l87 -39q42 -19 62.5 -50t20.5 -64 q0 -66 -43 -105t-105 -39q-90 0 -162 62z" />
<glyph unicode="t" horiz-adv-x="267" d="M16 437v47h70v129h56v-129h100v-47h-100v-298q0 -20 0.5 -30.5t4 -27.5t10.5 -25.5t21 -15t34 -6.5q19 0 36 6l5 -39q-26 -14 -57 -14q-12 0 -21.5 0.5t-27.5 8t-30 22t-21.5 45t-9.5 73.5v301h-70z" />
<glyph unicode="u" horiz-adv-x="451" d="M48 198v286h56v-286q0 -79 25 -120.5t91 -41.5q10 0 21 1.5t31.5 9.5t35.5 22t27 42.5t12 67.5v305h56v-484h-50v52q-17 -25 -51 -41.5t-54 -20t-30 -3.5q-83 0 -126.5 48.5t-43.5 162.5z" />
<glyph unicode="v" horiz-adv-x="435" d="M5 484h59l154 -429l153 429h59l-175 -484h-74z" />
<glyph unicode="w" horiz-adv-x="674" d="M5 484h60l118 -413l117 413h74l119 -413l118 413h58l-142 -484h-65l-125 428l-122 -428h-66z" />
<glyph unicode="x" horiz-adv-x="404" d="M5 0l159 245l-147 239h63l122 -201l121 201h64l-147 -239q115 -177 158 -245h-64l-132 209l-133 -209h-64z" />
<glyph unicode="y" horiz-adv-x="435" d="M5 484h59l156 -426l151 426h59l-225 -621q-16 -42 -45 -57.5t-55 -15.5q-17 0 -39 8l3 45q68 -13 94 50l31 90z" />
<glyph unicode="z" horiz-adv-x="379" d="M18 0v57l285 381h-275v46h333v-58l-284 -380h274v-46h-333z" />
<glyph unicode="{" horiz-adv-x="279" d="M48 238v35q44 9 59.5 45.5t15.5 100.5v153q0 43 27 72.5t57 29.5h41v-42h-23q-51 0 -51 -65v-162q1 -42 -11.5 -77t-23 -49.5t-20.5 -22.5q57 -57 55 -150v-142q0 -65 51 -65h23v-41h-41q-31 0 -57.5 29.5t-26.5 72.5v132q0 64 -15.5 100t-59.5 46z" />
<glyph unicode="|" horiz-adv-x="144" d="M48 -111v863h48v-863h-48z" />
<glyph unicode="}" horiz-adv-x="279" d="M31 -101h23q51 0 51 65v142q-2 94 54 150q-56 51 -54 149v162q0 65 -51 65h-23v42h40q31 0 58 -29.5t27 -72.5v-153q0 -64 15.5 -100.5t59.5 -45.5v-35q-44 -10 -59.5 -46t-15.5 -100v-132q0 -43 -27 -72.5t-58 -29.5h-40v41z" />
<glyph unicode="~" horiz-adv-x="403" d="M39 245q5 117 95 117q24 0 67.5 -22.5t67.5 -22.5q48 0 48 62h46q1 -53 -23 -83t-73 -30q-24 0 -66 22t-66 22q-47 0 -50 -65h-46z" />
<glyph unicode="&#xa1;" horiz-adv-x="170" d="M56 -201l4 543h50l3 -543h-57zM56 408v76h57v-76h-57z" />
<glyph unicode="&#xa2;" horiz-adv-x="372" d="M27 242q0 113 50 180.5t139 73.5h-3v81h48v-81q52 -3 89 -21l-10 -47q-46 17 -99 17q-156 0 -156 -203q0 -204 156 -204q51 0 99 18q3 -8 5 -23t5 -24q-34 -19 -89 -22v-91h-48v91h3q-89 6 -139 73t-50 182z" />
<glyph unicode="&#xa3;" horiz-adv-x="399" d="M14 367v45h74v46q0 113 48.5 170t138.5 57q67 0 114 -31l-23 -41q-44 27 -91 27q-64 0 -96 -49.5t-32 -132.5v-46h155v-45h-155v-312h237v-55h-355v55h61q0 39 -0.5 156t-0.5 156h-75z" />
<glyph unicode="&#xa4;" horiz-adv-x="427" d="M40 133l52 67q-27 40 -29 103q2 59 29 99l-52 67l35 38l48 -61q32 27 83 27q49 0 92 -31l52 63l22 -24q8 -10 14 -16l-51 -59h1q25 -43 25 -104q0 -58 -26 -103h-1l52 -62q-6 -6 -14 -16l-22 -24l-51 62q-43 -30 -91 -30q-51 0 -85 27q-7 -10 -24 -30.5t-24 -30.5z M108 301q0 -60 31.5 -91t70.5 -31t72 32t33 93q0 57 -33.5 88t-71.5 31q-39 0 -70.5 -31t-31.5 -91z" />
<glyph unicode="&#xa5;" horiz-adv-x="457" d="M9 684h65l158 -350l151 350h65l-182 -386h138v-42h-146v-83h146v-41h-146v-132h-58v132h-149v41h149v83h-149v42h140q-171 362 -182 386z" />
<glyph unicode="&#xa6;" horiz-adv-x="143" d="M48 -129v372h47v-372h-47zM48 302v372h47v-372h-47z" />
<glyph unicode="&#xa7;" horiz-adv-x="365" d="M31 44l20 41q62 -52 132 -52q30 0 52.5 14t30.5 38q8 29 -1.5 53.5t-32.5 36.5q-6 2 -95 43q-101 49 -101 118q0 30 19.5 62t52.5 53q-65 54 -55 134q8 44 44.5 72t88.5 28q69 0 131 -43l-19 -38q-53 34 -108 34q-35 0 -60 -18.5t-27 -46.5q-2 -35 16.5 -58t62.5 -43 q2 0 6.5 -2t6.5 -3q23 -9 36.5 -14.5t35.5 -18t34.5 -25t22.5 -32t10 -42.5q0 -68 -69 -116q25 -17 40 -46.5t15 -59.5q0 -60 -36 -93t-101 -33q-86 0 -152 57zM91 316q9 -20 35 -36.5t91 -43.5q66 43 66 91q0 43 -39 64l-93 32q-39 -18 -54.5 -49.5t-5.5 -57.5z" />
<glyph unicode="&#xa8;" horiz-adv-x="232" d="M31 598v76h58v-76h-58zM142 598v76h59v-76h-59z" />
<glyph unicode="&#xa9;" horiz-adv-x="654" d="M31 337q0 144 87 246t209 102q123 0 209.5 -102t86.5 -246t-86.5 -246.5t-209.5 -102.5q-122 0 -209 102.5t-87 246.5zM79 337q0 -124 73 -212t175 -88q103 0 176 88t73 212t-73 211.5t-176 87.5q-102 0 -175 -87.5t-73 -211.5zM158 334q0 90 46.5 149.5t125.5 59.5 q63 0 104 -23l-9 -27q-3 -5 -5 -20q-42 17 -79 17q-66 0 -98 -46t-32 -110q0 -65 32 -111t98 -46q37 0 80 15l6 -24q2 -7 7 -22q-40 -22 -104 -22q-79 0 -125.5 60t-46.5 150z" />
<glyph unicode="&#xaa;" horiz-adv-x="275" d="M31 437q0 55 42 81t130 32v32q-4 52 -56 52q-30 0 -79 -23l-7 39q44 24 88 24h10.5t22.5 -4t28.5 -12.5t23 -28.5t10.5 -48v-225h-39v23q-38 -31 -79 -31q-38 0 -66.5 22t-28.5 67zM37 259v45h201v-45h-201zM75 439q1 -30 13.5 -41t38.5 -11q13 0 27.5 4t31.5 24.5 t17 55.5v42q-75 -5 -102 -20t-26 -54z" />
<glyph unicode="&#xab;" horiz-adv-x="370" d="M39 308l112 231h55l-111 -231l115 -232h-59zM159 308l112 231h55l-111 -231l115 -232h-59z" />
<glyph unicode="&#xac;" horiz-adv-x="508" d="M48 321v53h412v-199h-50v146h-362z" />
<glyph unicode="&#xad;" horiz-adv-x="339" d="M31 232v58h277v-58h-277z" />
<glyph unicode="&#xae;" horiz-adv-x="654" d="M31 337q0 144 87 246t209 102q123 0 209.5 -102t86.5 -246t-86.5 -246.5t-209.5 -102.5q-122 0 -209 102.5t-87 246.5zM79 337q0 -124 73 -212t175 -88q103 0 176 88t73 212t-73 211.5t-176 87.5q-102 0 -175 -87.5t-73 -211.5zM210 138v400h142q29 0 50 -11.5t31.5 -31 t15 -39.5t4.5 -42q0 -74 -59 -98q21 -11 34 -53q25 -88 41 -125h-44q-10 23 -17 43t-13 43t-13 41q-12 33 -47 33h-84v-160h-41zM251 346h103q32 0 45 21.5t13 45.5q0 21 -5.5 37.5t-20.5 28.5t-38 12h-97v-145z" />
<glyph unicode="&#xaf;" horiz-adv-x="255" d="M31 596v54h193v-54h-193z" />
<glyph unicode="&#xb0;" horiz-adv-x="307" d="M27 525q0 62 36.5 105.5t89.5 43.5t90 -43.5t37 -105.5t-37 -105t-90 -43t-89.5 43t-36.5 105zM70 525q0 -43 24 -73t59 -30t59 30t24 73t-24 73.5t-59 30.5t-59 -30.5t-24 -73.5z" />
<glyph unicode="&#xb1;" horiz-adv-x="482" d="M35 0v55h412v-55h-412zM35 321v56h181v197h50v-197h181v-56h-181v-199h-50v199h-181z" />
<glyph unicode="&#xb2;" horiz-adv-x="275" d="M25 470v20q1 38 18.5 69t33 44.5t50.5 39.5q32 21 50 37q32 27 32 65q0 25 -19 47.5t-48 22.5q-50 0 -84 -49l-22 29q14 21 41.5 40.5t62.5 19.5q49 0 79.5 -31t30.5 -78q0 -53 -40 -93q-14 -13 -46 -35q-86 -63 -91 -106h170v-42h-218z" />
<glyph unicode="&#xb3;" horiz-adv-x="275" d="M28 512l19 33q44 -44 87 -44q33 0 51 20t18 49q0 28 -19 49.5t-52 21.5h-28v41h26q33 0 50.5 18.5t17.5 45.5t-17.5 47.5t-47.5 20.5q-40 0 -79 -46l-5 14q-1 3 -11 20q41 50 96 50q46 0 76 -28t30 -78q0 -21 -16.5 -48t-42.5 -37q30 -4 47.5 -31t17.5 -59 q0 -49 -32.5 -80t-76.5 -30q-64 0 -109 51z" />
<glyph unicode="&#xb4;" horiz-adv-x="195" d="M31 545l68 129h65l-85 -129h-48z" />
<glyph unicode="&#xb6;" horiz-adv-x="371" d="M22 492q0 80 47.5 136t114.5 56h139v-884h-40v852h-47v-852h-41v502q-73 1 -123 56.5t-50 133.5z" />
<glyph unicode="&#xb7;" horiz-adv-x="145" d="M39 277v86h67v-86h-67z" />
<glyph unicode="&#xb8;" horiz-adv-x="245" d="M39 -134l39 -14q22 -6 31 -6q22 0 34 14.5t12 40.5q0 49 -41 109h45q33 -46 42 -84q4 -16 4 -34q0 -43 -26.5 -69.5t-70.5 -21.5q-28 3 -69 24v41z" />
<glyph unicode="&#xb9;" horiz-adv-x="238" d="M48 769l70 78h42v-377h-43v318l-48 -53z" />
<glyph unicode="&#xba;" horiz-adv-x="307" d="M31 518q0 73 32.5 114.5t89.5 41.5t90 -41.5t33 -114.5t-33 -115t-90 -42t-89.5 42t-32.5 115zM41 259v45h225v-45h-225zM73 518q0 -48 21 -82.5t59 -34.5q37 0 58.5 34.5t21.5 82.5q0 46 -21.5 81t-58.5 35q-38 0 -59 -34.5t-21 -81.5z" />
<glyph unicode="&#xbb;" horiz-adv-x="370" d="M39 76l116 232l-111 231h55l111 -231l-111 -232h-60zM159 76l116 232l-111 231h55l111 -231l-111 -232h-60z" />
<glyph unicode="&#xbc;" horiz-adv-x="563" d="M48 600l70 78h42v-377h-43v320l-48 -55zM68 0l337 674h46l-336 -674h-47zM267 79v37q36 81 136 235l16 26h51v-258h45v-40h-45v-79h-48v79h-155zM318 119h104v182q-63 -91 -104 -182z" />
<glyph unicode="&#xbd;" horiz-adv-x="602" d="M48 600l70 78h42v-377h-43v320l-48 -55zM72 0l337 674h46l-336 -674h-47zM327 1v20q2 38 19 69t34.5 46.5t51 39t47.5 35.5q33 26 33 65q0 25 -19.5 47.5t-48.5 22.5q-47 0 -82 -53l-24 34q14 21 41 40t63 19q49 0 79.5 -31t30.5 -78q0 -53 -40 -93q-19 -18 -46 -35 q-86 -63 -91 -106h170v-42h-218z" />
<glyph unicode="&#xbe;" horiz-adv-x="649" d="M48 344l19 33q44 -44 87 -44q33 0 50.5 20t17.5 49t-18.5 50t-52.5 21h-27v41h26q33 0 50.5 18.5t17.5 45.5t-18 47.5t-48 20.5q-38 0 -76 -45l-8 13q-9 19 -10 21q40 49 96 49q46 0 76 -28t30 -78q0 -21 -16.5 -48t-42.5 -37q30 -4 47.5 -31t17.5 -59q0 -49 -32.5 -80 t-77.5 -30q-66 0 -108 51zM148 0l337 674h46l-336 -674h-47zM353 79v37q36 81 136 235l16 26h50v-258h46v-40h-46v-79h-47v79h-155zM404 119h104v182q-63 -91 -104 -182z" />
<glyph unicode="&#xbf;" horiz-adv-x="440" d="M54 -12q0 82 85 170q49 49 70 83.5t21 82.5v18h50q-1 -80 -21 -117.5t-95 -116.5q-55 -55 -55 -126q0 -57 36 -96t100 -39q39 0 72.5 27.5t55.5 60.5q8 -6 38 -34q-12 -23 -30 -43t-56.5 -40t-84.5 -20q-81 0 -133.5 49t-52.5 141zM225 408v76h57v-76h-57z" />
<glyph unicode="&#xc0;" horiz-adv-x="552" d="M5 0l238 674h66l238 -674h-58l-57 164h-313l-56 -164h-58zM136 218h279l-139 393zM174 864h65l68 -129h-49z" />
<glyph unicode="&#xc1;" horiz-adv-x="552" d="M5 0l238 674h66l238 -674h-58l-57 164h-313l-56 -164h-58zM136 218h279l-139 393zM245 735l68 129h65l-85 -129h-48z" />
<glyph unicode="&#xc2;" horiz-adv-x="552" d="M5 0l238 674h66l238 -674h-58l-57 164h-313l-56 -164h-58zM136 218h279l-139 393zM168 755l77 109h62l77 -109h-45l-63 65l-63 -65h-45z" />
<glyph unicode="&#xc3;" horiz-adv-x="552" d="M5 0l238 674h66l238 -674h-58l-57 164h-313l-56 -164h-58zM136 218h279l-139 393zM162 776q0 35 18 57.5t51 22.5q18 0 44 -15t44 -15q14 0 21 8.5t11 29.5h38q-2 -37 -20 -60t-51 -23q-21 0 -45 15h1q-28 15 -41 15q-30 0 -32 -35h-39z" />
<glyph unicode="&#xc4;" horiz-adv-x="552" d="M5 0l238 674h66l238 -674h-58l-57 164h-313l-56 -164h-58zM136 218h279l-139 393zM191 788v76h58v-76h-58zM302 788v76h59v-76h-59z" />
<glyph unicode="&#xc5;" horiz-adv-x="552" d="M5 0l238 674h66l238 -674h-58l-57 164h-313l-56 -164h-58zM136 218h279l-139 393zM202 848q0 37 18.5 61t55.5 24t55 -23.5t18 -61.5q0 -37 -18 -61t-55 -24t-55.5 24.5t-18.5 60.5zM240 848q0 -49 36 -49q35 0 35 49q0 48 -35 48q-36 0 -36 -48z" />
<glyph unicode="&#xc6;" horiz-adv-x="789" d="M5 0q184 434 285 674h461v-54h-312v-252h289v-55h-290v-259h320v-54h-375v164h-246q-67 -155 -71 -164h-61zM155 218h228v402h-54z" />
<glyph unicode="&#xc7;" horiz-adv-x="500" d="M31 336q0 97 34 176t99 126t151 47q106 0 162 -30q-10 -29 -16 -45q-59 20 -125 20q-65 0 -114.5 -25.5t-77 -68.5t-41 -93.5t-13.5 -106.5t13.5 -106.5t41 -93.5t77 -68.5t114.5 -25.5q69 0 127 20q1 -2 7 -25l7 -20q-54 -28 -150 -30q30 -52 30 -95t-26.5 -69.5 t-70.5 -21.5q-32 4 -68 24v41l38 -14q22 -6 31 -6q14 0 24.5 6.5t16 19t5.5 29.5q0 40 -29 88h3q-115 14 -182.5 111.5t-67.5 235.5z" />
<glyph unicode="&#xc8;" horiz-adv-x="462" d="M52 0v674h368v-54h-312v-252h289v-55h-289v-259h318v-54h-374zM136 864h65l68 -129h-49z" />
<glyph unicode="&#xc9;" horiz-adv-x="462" d="M52 0v674h368v-54h-312v-252h289v-55h-289v-259h318v-54h-374zM192 735l68 129h65l-85 -129h-48z" />
<glyph unicode="&#xca;" horiz-adv-x="462" d="M52 0v674h368v-54h-312v-252h289v-55h-289v-259h318v-54h-374zM123 755l77 109h62l77 -109h-45l-63 65l-63 -65h-45z" />
<glyph unicode="&#xcb;" horiz-adv-x="462" d="M52 0v674h368v-54h-312v-252h289v-55h-289v-259h318v-54h-374zM146 788v76h58v-76h-58zM257 788v76h59v-76h-59z" />
<glyph unicode="&#xcc;" horiz-adv-x="177" d="M-14 864h65l68 -129h-49zM61 0v674h55v-674h-55z" />
<glyph unicode="&#xcd;" horiz-adv-x="177" d="M56 735l68 129h65l-84 -129h-49zM61 0v674h55v-674h-55z" />
<glyph unicode="&#xce;" horiz-adv-x="177" d="M-20 755l77 109h62l77 -109h-45l-63 65l-63 -65h-45zM61 0v674h55v-674h-55z" />
<glyph unicode="&#xcf;" horiz-adv-x="177" d="M4 788v76h58v-76h-58zM61 0v674h55v-674h-55zM115 788v76h59v-76h-59z" />
<glyph unicode="&#xd0;" horiz-adv-x="601" d="M5 303v42h90v329h199q135 0 209.5 -85.5t74.5 -251.5t-74.5 -251.5t-209.5 -85.5h-199v303h-90zM150 54h147q100 0 163.5 70t63.5 213q0 146 -62 214.5t-167 68.5h-145v-275h183v-42h-183v-249z" />
<glyph unicode="&#xd1;" horiz-adv-x="554" d="M52 0v674h75l320 -589v589h55v-674h-66l-328 592v-592h-56zM163 776q0 35 18 57.5t51 22.5q18 0 44 -15t44 -15q14 0 21 8.5t11 29.5h38q-2 -37 -20 -60t-51 -23q-21 0 -45 15h1q-28 15 -41 15q-30 0 -32 -35h-39z" />
<glyph unicode="&#xd2;" horiz-adv-x="608" d="M31 337q0 163 73 255.5t200 92.5t200 -92.5t73 -255.5t-73 -256.5t-200 -93.5q-126 0 -199.5 93.5t-73.5 256.5zM91 337q0 -132 55 -215.5t158 -83.5q104 0 158.5 83.5t54.5 215.5q0 127 -55 212t-158 85q-102 0 -157.5 -85t-55.5 -212zM195 864h65l68 -129h-49z" />
<glyph unicode="&#xd3;" horiz-adv-x="608" d="M31 337q0 163 73 255.5t200 92.5t200 -92.5t73 -255.5t-73 -256.5t-200 -93.5q-126 0 -199.5 93.5t-73.5 256.5zM91 337q0 -132 55 -215.5t158 -83.5q104 0 158.5 83.5t54.5 215.5q0 127 -55 212t-158 85q-102 0 -157.5 -85t-55.5 -212zM262 735l68 129h65l-85 -129h-48z " />
<glyph unicode="&#xd4;" horiz-adv-x="608" d="M31 337q0 163 73 255.5t200 92.5t200 -92.5t73 -255.5t-73 -256.5t-200 -93.5q-126 0 -199.5 93.5t-73.5 256.5zM91 337q0 -132 55 -215.5t158 -83.5q104 0 158.5 83.5t54.5 215.5q0 127 -55 212t-158 85q-102 0 -157.5 -85t-55.5 -212zM196 755l77 109h62l77 -109h-45 l-63 65l-63 -65h-45z" />
<glyph unicode="&#xd5;" horiz-adv-x="608" d="M31 337q0 163 73 255.5t200 92.5t200 -92.5t73 -255.5t-73 -256.5t-200 -93.5q-126 0 -199.5 93.5t-73.5 256.5zM91 337q0 -132 55 -215.5t158 -83.5q104 0 158.5 83.5t54.5 215.5q0 127 -55 212t-158 85q-102 0 -157.5 -85t-55.5 -212zM190 776q0 35 18 57.5t51 22.5 q18 0 44 -15t44 -15q14 0 21 8.5t11 29.5h38q-2 -37 -20 -60t-51 -23q-21 0 -45 15h1q-28 15 -41 15q-30 0 -32 -35h-39z" />
<glyph unicode="&#xd6;" horiz-adv-x="608" d="M31 337q0 163 73 255.5t200 92.5t200 -92.5t73 -255.5t-73 -256.5t-200 -93.5q-126 0 -199.5 93.5t-73.5 256.5zM91 337q0 -132 55 -215.5t158 -83.5q104 0 158.5 83.5t54.5 215.5q0 127 -55 212t-158 85q-102 0 -157.5 -85t-55.5 -212zM219 788v76h58v-76h-58zM330 788 v76h59v-76h-59z" />
<glyph unicode="&#xd7;" horiz-adv-x="477" d="M32 124l173 203q-27 32 -83.5 99t-84.5 99l34 39l168 -198l167 197l34 -39l-167 -197l172 -202l-34 -39l-172 201q-28 -34 -86.5 -101.5t-86.5 -101.5z" />
<glyph unicode="&#xd8;" horiz-adv-x="615" d="M31 337q0 163 73 255.5t200 92.5q88 0 150 -45l38 63h52l-54 -94h-1q88 -94 88 -272q0 -163 -73 -256.5t-200 -93.5q-88 0 -147 42q-8 -12 -22.5 -37t-21.5 -37h-52l60 105h1q-91 94 -91 277zM91 337q0 -145 60 -225l274 477h1q-51 45 -122 45q-102 0 -157.5 -85 t-55.5 -212zM184 79q50 -41 120 -41q104 0 158.5 83.5t54.5 215.5q0 136 -60 217l-272 -475h-1z" />
<glyph unicode="&#xd9;" horiz-adv-x="572" d="M52 280v394h56v-388q0 -128 42.5 -189t135.5 -61t135.5 61t42.5 189v388h56v-394q0 -157 -60 -225t-174 -68t-174 68t-60 225zM188 864h65l68 -129h-49z" />
<glyph unicode="&#xda;" horiz-adv-x="572" d="M52 280v394h56v-388q0 -128 42.5 -189t135.5 -61t135.5 61t42.5 189v388h56v-394q0 -157 -60 -225t-174 -68t-174 68t-60 225zM219 735l68 129h65l-85 -129h-48z" />
<glyph unicode="&#xdb;" horiz-adv-x="572" d="M52 280v394h56v-388q0 -128 42.5 -189t135.5 -61t135.5 61t42.5 189v388h56v-394q0 -157 -60 -225t-174 -68t-174 68t-60 225zM178 755l77 109h62l77 -109h-45l-63 65l-63 -65h-45z" />
<glyph unicode="&#xdc;" horiz-adv-x="572" d="M52 280v394h56v-388q0 -128 42.5 -189t135.5 -61t135.5 61t42.5 189v388h56v-394q0 -157 -60 -225t-174 -68t-174 68t-60 225zM201 788v76h58v-76h-58zM312 788v76h59v-76h-59z" />
<glyph unicode="&#xdd;" horiz-adv-x="508" d="M5 674h66l183 -376l182 376h67l-220 -438v-236h-58v236zM212 733l68 129h65l-85 -129h-48z" />
<glyph unicode="&#xde;" horiz-adv-x="455" d="M52 0v674h56v-160q26 35 57 47.5t74 12.5q86 0 137.5 -63t51.5 -186q0 -124 -51 -187t-137 -63q-84 0 -133 51v-126h-55zM108 253q0 -39 14 -66.5t36 -40.5t42 -18t41 -5q66 0 96.5 58t30.5 144q0 201 -143 201q-28 0 -69 -29.5t-48 -82.5v-161z" />
<glyph unicode="&#xdf;" horiz-adv-x="477" d="M52 0v458q2 106 49.5 166.5t139.5 60.5q68 0 118.5 -42t50.5 -131q0 -47 -23 -87t-68 -56q61 -13 94 -66.5t33 -118.5q0 -80 -46.5 -132t-145.5 -52h-80v52h80q68 0 103.5 36t35.5 95q0 69 -39.5 111t-103.5 43v56q42 0 75 29t33 90q0 52 -32.5 88t-84.5 36 q-61 0 -97 -49t-36 -129v-458h-56z" />
<glyph unicode="&#xe0;" horiz-adv-x="401" d="M22 129q0 86 68.5 125t210.5 48v43q0 6 -0.5 13.5t-6 24.5t-15 29.5t-29.5 23t-48 10.5q-68 0 -130 -34l-14 48q5 4 20 11t52 16.5t76 9.5h16.5t36.5 -7t45.5 -20.5t36 -45t16.5 -76.5v-348h-57v45q-40 -58 -131 -58q-62 0 -104.5 37.5t-42.5 104.5zM75 133 q2 -45 30.5 -70.5t72.5 -25.5q13 0 30 4t40.5 14.5t39 37t15.5 65.5v97q-112 -7 -170.5 -37t-57.5 -85zM108 674h65l68 -129h-49z" />
<glyph unicode="&#xe1;" horiz-adv-x="401" d="M22 129q0 86 68.5 125t210.5 48v43q0 6 -0.5 13.5t-6 24.5t-15 29.5t-29.5 23t-48 10.5q-68 0 -130 -34l-14 48q5 4 20 11t52 16.5t76 9.5h16.5t36.5 -7t45.5 -20.5t36 -45t16.5 -76.5v-348h-57v45q-40 -58 -131 -58q-62 0 -104.5 37.5t-42.5 104.5zM75 133 q2 -45 30.5 -70.5t72.5 -25.5q13 0 30 4t40.5 14.5t39 37t15.5 65.5v97q-112 -7 -170.5 -37t-57.5 -85zM134 545l68 129h65l-85 -129h-48z" />
<glyph unicode="&#xe2;" horiz-adv-x="401" d="M22 129q0 86 68.5 125t210.5 48v43q0 6 -0.5 13.5t-6 24.5t-15 29.5t-29.5 23t-48 10.5q-68 0 -130 -34l-14 48q5 4 20 11t52 16.5t76 9.5h16.5t36.5 -7t45.5 -20.5t36 -45t16.5 -76.5v-348h-57v45q-40 -58 -131 -58q-62 0 -104.5 37.5t-42.5 104.5zM75 133 q2 -45 30.5 -70.5t72.5 -25.5q13 0 30 4t40.5 14.5t39 37t15.5 65.5v97q-112 -7 -170.5 -37t-57.5 -85zM92 565l77 109h62l77 -109h-45l-63 65l-63 -65h-45z" />
<glyph unicode="&#xe3;" horiz-adv-x="401" d="M22 129q0 86 68.5 125t210.5 48v43q0 6 -0.5 13.5t-6 24.5t-15 29.5t-29.5 23t-48 10.5q-68 0 -130 -34l-14 48q5 4 20 11t52 16.5t76 9.5h16.5t36.5 -7t45.5 -20.5t36 -45t16.5 -76.5v-348h-57v45q-40 -58 -131 -58q-62 0 -104.5 37.5t-42.5 104.5zM75 133 q2 -45 30.5 -70.5t72.5 -25.5q13 0 30 4t40.5 14.5t39 37t15.5 65.5v97q-112 -7 -170.5 -37t-57.5 -85zM87 586q0 35 18 57.5t51 22.5q18 0 44 -15t44 -15q14 0 21 8.5t11 29.5h38q-2 -37 -20 -60t-51 -23q-21 0 -45 15h1q-28 15 -41 15q-30 0 -32 -35h-39z" />
<glyph unicode="&#xe4;" horiz-adv-x="401" d="M22 129q0 86 68.5 125t210.5 48v43q0 6 -0.5 13.5t-6 24.5t-15 29.5t-29.5 23t-48 10.5q-68 0 -130 -34l-14 48q5 4 20 11t52 16.5t76 9.5h16.5t36.5 -7t45.5 -20.5t36 -45t16.5 -76.5v-348h-57v45q-40 -58 -131 -58q-62 0 -104.5 37.5t-42.5 104.5zM75 133 q2 -45 30.5 -70.5t72.5 -25.5q13 0 30 4t40.5 14.5t39 37t15.5 65.5v97q-112 -7 -170.5 -37t-57.5 -85zM115 598v76h58v-76h-58zM226 598v76h59v-76h-59z" />
<glyph unicode="&#xe5;" horiz-adv-x="401" d="M22 129q0 86 68.5 125t210.5 48v43q0 6 -0.5 13.5t-6 24.5t-15 29.5t-29.5 23t-48 10.5q-68 0 -130 -34l-14 48q5 4 20 11t52 16.5t76 9.5h16.5t36.5 -7t45.5 -20.5t36 -45t16.5 -76.5v-348h-57v45q-40 -58 -131 -58q-62 0 -104.5 37.5t-42.5 104.5zM75 133 q2 -45 30.5 -70.5t72.5 -25.5q13 0 30 4t40.5 14.5t39 37t15.5 65.5v97q-112 -7 -170.5 -37t-57.5 -85zM127 658q0 37 18.5 61t55.5 24t55 -23.5t18 -61.5q0 -37 -18 -61t-55 -24t-55.5 24.5t-18.5 60.5zM165 658q0 -49 36 -49q35 0 35 49q0 48 -35 48q-36 0 -36 -48z" />
<glyph unicode="&#xe6;" horiz-adv-x="713" d="M25 129q0 160 275 155v61q0 22 -3 37t-12.5 32t-31.5 25.5t-56 8.5q-29 0 -54 -6t-35.5 -11.5t-32.5 -17.5l-16 47q3 3 18.5 11t50.5 17.5t73 9.5q5 1 12.5 1t29 -3t39 -10t36 -25.5t27.5 -45.5q55 83 147 83q86 0 140 -62.5t54 -175.5v-28h-330v-8q2 -79 47 -132 t114 -53h4q57 0 115 27l17 -46q-56 -33 -144 -33q-56 0 -100.5 31t-70.5 83q-5 -24 -15.5 -43t-20.5 -31t-27.5 -20.5t-27.5 -12t-30.5 -5.5t-26.5 -2h-24q-59 0 -100 37.5t-41 104.5zM76 133q2 -45 29.5 -70.5t69.5 -25.5q13 0 29.5 4t39.5 14.5t38 37t15 65.5l-1 78 q-220 0 -220 -103zM357 281h273q-2 83 -40.5 124.5t-97.5 41.5q-54 0 -93.5 -49t-41.5 -117z" />
<glyph unicode="&#xe7;" horiz-adv-x="372" d="M27 242q0 119 55 187t152 68q73 0 116 -22l-10 -47q-46 17 -99 17q-35 0 -62.5 -11t-45 -29.5t-28.5 -45.5t-15.5 -55t-4.5 -62q0 -42 7.5 -77t24.5 -64.5t48.5 -46t75.5 -16.5q51 0 99 18q3 -8 5 -23t5 -24q-39 -20 -99 -23q11 -21 15.5 -30.5t9.5 -27.5t5 -36 q0 -43 -26.5 -69.5t-70.5 -21.5q-33 4 -69 24v41l39 -14q22 -6 31 -6q22 0 34 14.5t12 40.5q0 38 -28 87h3q-85 10 -132 76.5t-47 177.5z" />
<glyph unicode="&#xe8;" horiz-adv-x="442" d="M27 242q0 109 55.5 182t138.5 73q85 0 139.5 -67t54.5 -181q0 -20 -1 -28h-329q2 -79 46.5 -130.5t114.5 -51.5h4q57 0 115 27l17 -46q-56 -33 -152 -33q-88 0 -145.5 69t-57.5 186zM86 270h273q-2 84 -41 130t-97 46q-53 0 -93 -53.5t-42 -122.5zM124 674h65l68 -129 h-49z" />
<glyph unicode="&#xe9;" horiz-adv-x="442" d="M27 242q0 109 55.5 182t138.5 73q85 0 139.5 -67t54.5 -181q0 -20 -1 -28h-329q2 -79 46.5 -130.5t114.5 -51.5h4q57 0 115 27l17 -46q-56 -33 -152 -33q-88 0 -145.5 69t-57.5 186zM86 270h273q-2 84 -41 130t-97 46q-53 0 -93 -53.5t-42 -122.5zM189 545l68 129h65 l-85 -129h-48z" />
<glyph unicode="&#xea;" horiz-adv-x="442" d="M27 242q0 109 55.5 182t138.5 73q85 0 139.5 -67t54.5 -181q0 -20 -1 -28h-329q2 -79 46.5 -130.5t114.5 -51.5h4q57 0 115 27l17 -46q-56 -33 -152 -33q-88 0 -145.5 69t-57.5 186zM86 270h273q-2 84 -41 130t-97 46q-53 0 -93 -53.5t-42 -122.5zM113 565l77 109h62 l77 -109h-45l-63 65l-63 -65h-45z" />
<glyph unicode="&#xeb;" horiz-adv-x="442" d="M27 242q0 109 55.5 182t138.5 73q85 0 139.5 -67t54.5 -181q0 -20 -1 -28h-329q2 -79 46.5 -130.5t114.5 -51.5h4q57 0 115 27l17 -46q-56 -33 -152 -33q-88 0 -145.5 69t-57.5 186zM86 270h273q-2 84 -41 130t-97 46q-53 0 -93 -53.5t-42 -122.5zM136 598v76h58v-76h-58 zM247 598v76h59v-76h-59z" />
<glyph unicode="&#xec;" horiz-adv-x="147" d="M-33 674h65l68 -129h-49zM48 0v484h51v-484h-51z" />
<glyph unicode="&#xed;" horiz-adv-x="147" d="M46 545l68 129h65l-85 -129h-48zM48 0v484h51v-484h-51z" />
<glyph unicode="&#xee;" horiz-adv-x="147" d="M-34 565l77 109h62l77 -109h-45l-63 65l-63 -65h-45zM48 0v484h51v-484h-51z" />
<glyph unicode="&#xef;" horiz-adv-x="147" d="M-11 598v76h58v-76h-58zM48 0v484h51v-484h-51zM100 598v76h59v-76h-59z" />
<glyph unicode="&#xf0;" horiz-adv-x="442" d="M22 243q0 119 53.5 187t145.5 68q45 0 80 -23q-27 45 -63 83.5t-65 56.5q-59 -70 -66 -79l-29 29l64 77l-51 33l-28 15q21 21 37 41l13 -9q35 -22 61 -41q8 11 28.5 34t28.5 33l29 -28l-56 -66q215 -187 215 -411q0 -120 -53 -188t-145 -68q-93 0 -146 68t-53 188z M78 243q0 -85 38 -146.5t105 -61.5q66 0 104.5 62.5t38.5 145.5t-38.5 145t-104.5 62q-67 0 -105 -61t-38 -146z" />
<glyph unicode="&#xf1;" horiz-adv-x="451" d="M48 0v484h50v-68q43 81 135 81q82 0 126 -47.5t44 -163.5v-286h-56v286q0 161 -107 161q-17 0 -36.5 -6t-43.5 -21.5t-40 -49.5t-16 -81v-289h-56zM112 586q0 35 18 57.5t51 22.5q18 0 44 -15t44 -15q14 0 21 8.5t11 29.5h38q-2 -37 -20 -60t-51 -23q-21 0 -45 15h1 q-28 15 -41 15q-30 0 -32 -35h-39z" />
<glyph unicode="&#xf2;" horiz-adv-x="433" d="M18 242q0 119 53.5 187t145.5 68t145 -68t53 -187q0 -120 -53 -188t-145 -68t-145.5 68t-53.5 188zM74 242q0 -85 38 -146.5t105 -61.5q66 0 104.5 62.5t38.5 145.5t-38.5 145t-104.5 62q-67 0 -105 -61t-38 -146zM114 674h65l68 -129h-49z" />
<glyph unicode="&#xf3;" horiz-adv-x="433" d="M18 242q0 119 53.5 187t145.5 68t145 -68t53 -187q0 -120 -53 -188t-145 -68t-145.5 68t-53.5 188zM74 242q0 -85 38 -146.5t105 -61.5q66 0 104.5 62.5t38.5 145.5t-38.5 145t-104.5 62q-67 0 -105 -61t-38 -146zM178 545l68 129h65l-85 -129h-48z" />
<glyph unicode="&#xf4;" horiz-adv-x="433" d="M18 242q0 119 53.5 187t145.5 68t145 -68t53 -187q0 -120 -53 -188t-145 -68t-145.5 68t-53.5 188zM74 242q0 -85 38 -146.5t105 -61.5q66 0 104.5 62.5t38.5 145.5t-38.5 145t-104.5 62q-67 0 -105 -61t-38 -146zM108 565l77 109h62l77 -109h-45l-63 65l-63 -65h-45z " />
<glyph unicode="&#xf5;" horiz-adv-x="433" d="M18 242q0 119 53.5 187t145.5 68t145 -68t53 -187q0 -120 -53 -188t-145 -68t-145.5 68t-53.5 188zM74 242q0 -85 38 -146.5t105 -61.5q66 0 104.5 62.5t38.5 145.5t-38.5 145t-104.5 62q-67 0 -105 -61t-38 -146zM103 586q0 35 18 57.5t51 22.5q18 0 44 -15t44 -15 q14 0 21 8.5t11 29.5h38q-2 -37 -20 -60t-51 -23q-21 0 -45 15h1q-28 15 -41 15q-30 0 -32 -35h-39z" />
<glyph unicode="&#xf6;" horiz-adv-x="433" d="M18 242q0 119 53.5 187t145.5 68t145 -68t53 -187q0 -120 -53 -188t-145 -68t-145.5 68t-53.5 188zM74 242q0 -85 38 -146.5t105 -61.5q66 0 104.5 62.5t38.5 145.5t-38.5 145t-104.5 62q-67 0 -105 -61t-38 -146zM131 598v76h58v-76h-58zM242 598v76h59v-76h-59z" />
<glyph unicode="&#xf7;" horiz-adv-x="442" d="M31 284v52h380v-52h-380zM189 69v88h64v-88h-64zM189 468v85h64v-85h-64z" />
<glyph unicode="&#xf8;" horiz-adv-x="456" d="M34 -43l58 98h1q-52 69 -52 187q0 119 53.5 187t145.5 68q51 0 92 -23q3 5 14 23.5t17 28.5h52l-45 -80h-1q69 -66 69 -204q0 -120 -53 -188t-145 -68q-66 0 -115 36q-7 -10 -19.5 -32.5t-18.5 -32.5h-53zM96 242q0 -73 29 -131l181 315h1q-31 23 -67 23q-68 0 -106 -61 t-38 -146zM153 71q37 -37 87 -37q66 0 104.5 62.5t38.5 145.5q0 95 -43 151l-186 -322h-1z" />
<glyph unicode="&#xf9;" horiz-adv-x="451" d="M48 198v286h56v-286q0 -79 25 -120.5t91 -41.5q10 0 21 1.5t31.5 9.5t35.5 22t27 42.5t12 67.5v305h56v-484h-50v52q-17 -25 -51 -41.5t-54 -20t-30 -3.5q-83 0 -126.5 48.5t-43.5 162.5zM142 674h65l68 -129h-49z" />
<glyph unicode="&#xfa;" horiz-adv-x="451" d="M48 198v286h56v-286q0 -79 25 -120.5t91 -41.5q10 0 21 1.5t31.5 9.5t35.5 22t27 42.5t12 67.5v305h56v-484h-50v52q-17 -25 -51 -41.5t-54 -20t-30 -3.5q-83 0 -126.5 48.5t-43.5 162.5zM159 545l68 129h65l-85 -129h-48z" />
<glyph unicode="&#xfb;" horiz-adv-x="451" d="M48 198v286h56v-286q0 -79 25 -120.5t91 -41.5q10 0 21 1.5t31.5 9.5t35.5 22t27 42.5t12 67.5v305h56v-484h-50v52q-17 -25 -51 -41.5t-54 -20t-30 -3.5q-83 0 -126.5 48.5t-43.5 162.5zM117 565l77 109h62l77 -109h-45l-63 65l-63 -65h-45z" />
<glyph unicode="&#xfc;" horiz-adv-x="451" d="M48 198v286h56v-286q0 -79 25 -120.5t91 -41.5q10 0 21 1.5t31.5 9.5t35.5 22t27 42.5t12 67.5v305h56v-484h-50v52q-17 -25 -51 -41.5t-54 -20t-30 -3.5q-83 0 -126.5 48.5t-43.5 162.5zM140 598v76h58v-76h-58zM251 598v76h59v-76h-59z" />
<glyph unicode="&#xfd;" horiz-adv-x="435" d="M5 484h59l156 -426l151 426h59l-225 -621q-16 -42 -45 -57.5t-55 -15.5q-17 0 -39 8l3 45q68 -13 94 50l31 90zM166 545l68 129h65l-85 -129h-48z" />
<glyph unicode="&#xfe;" horiz-adv-x="455" d="M52 -201v875h56v-235q26 35 57 47.5t74 12.5q86 0 137.5 -63t51.5 -186q0 -126 -52 -194.5t-136 -68.5q-12 -1 -29.5 0.5t-49 14t-54.5 35.5v-238h-55zM108 164q0 -39 13.5 -66.5t36 -40t42.5 -17.5t41 -5q65 0 96 63.5t31 151.5q0 201 -143 201q-28 0 -69 -29.5 t-48 -82.5v-175z" />
<glyph unicode="&#xff;" horiz-adv-x="435" d="M5 484h59l156 -426l151 426h59l-225 -621q-16 -42 -45 -57.5t-55 -15.5q-17 0 -39 8l3 45q68 -13 94 50l31 90zM132 598v76h58v-76h-58zM243 598v76h59v-76h-59z" />
<glyph unicode="&#x152;" horiz-adv-x="915" d="M22 337q0 163 73 255.5t200 92.5q69 0 127 -31.5t87 -105.5v126h368v-54h-313v-252h290v-55h-290v-259h320v-54h-375v124q-28 -66 -88.5 -100.5t-125.5 -34.5q-127 0 -200 92.5t-73 255.5zM82 337q0 -132 55 -214.5t158 -82.5t155 82t52 215q0 128 -52.5 212.5 t-154.5 84.5t-157.5 -85t-55.5 -212z" />
<glyph unicode="&#x153;" horiz-adv-x="767" d="M18 242q0 119 54 187.5t146 68.5q58 0 105.5 -33.5t67.5 -103.5q22 68 69.5 102.5t96.5 34.5q89 0 140 -66.5t51 -182.5v-28h-329q4 -83 47.5 -133.5t103.5 -50.5h5q59 0 128 25l13 -40q-66 -36 -147 -36q-55 0 -107.5 32t-72.5 90q-22 -59 -68.5 -90.5t-102.5 -31.5 q-92 0 -146 68.5t-54 187.5zM73 242q0 -84 39 -146t106 -62q66 0 105 62t39 146q0 83 -39 145t-105 62q-67 0 -106 -61.5t-39 -145.5zM422 270h272q-4 83 -41 129.5t-96 46.5h-2q-56 0 -93.5 -54t-39.5 -122z" />
<glyph unicode="&#x178;" horiz-adv-x="508" d="M5 674h66l183 -376l182 376h67l-220 -438v-236h-58v236zM169 788v76h58v-76h-58zM280 788v76h59v-76h-59z" />
<glyph unicode="&#x2c6;" horiz-adv-x="280" d="M31 565l77 109h62l77 -109h-45l-63 65l-63 -65h-45z" />
<glyph unicode="&#x2dc;" horiz-adv-x="289" d="M28 586q0 35 18 57.5t51 22.5q18 0 44 -15t44 -15q14 0 21 8.5t11 29.5h38q-2 -37 -20 -60t-51 -23q-21 0 -45 15h1q-28 15 -41 15q-30 0 -32 -35h-39z" />
<glyph unicode="&#x2000;" horiz-adv-x="466" />
<glyph unicode="&#x2001;" horiz-adv-x="933" />
<glyph unicode="&#x2002;" horiz-adv-x="466" />
<glyph unicode="&#x2003;" horiz-adv-x="933" />
<glyph unicode="&#x2004;" horiz-adv-x="311" />
<glyph unicode="&#x2005;" horiz-adv-x="233" />
<glyph unicode="&#x2006;" horiz-adv-x="155" />
<glyph unicode="&#x2007;" horiz-adv-x="155" />
<glyph unicode="&#x2008;" horiz-adv-x="116" />
<glyph unicode="&#x2009;" horiz-adv-x="186" />
<glyph unicode="&#x200a;" horiz-adv-x="51" />
<glyph unicode="&#x2010;" horiz-adv-x="339" d="M31 232v58h277v-58h-277z" />
<glyph unicode="&#x2011;" horiz-adv-x="339" d="M31 232v58h277v-58h-277z" />
<glyph unicode="&#x2012;" horiz-adv-x="339" d="M31 232v58h277v-58h-277z" />
<glyph unicode="&#x2013;" horiz-adv-x="469" d="M31 235v55h407v-55h-407z" />
<glyph unicode="&#x2014;" horiz-adv-x="762" d="M31 236v54h700v-54h-700z" />
<glyph unicode="&#x2018;" horiz-adv-x="219" d="M39 674h46l95 -167h-66z" />
<glyph unicode="&#x2019;" horiz-adv-x="219" d="M39 507l75 167h66l-95 -167h-46z" />
<glyph unicode="&#x201a;" horiz-adv-x="219" d="M39 -91l75 167h66l-95 -167h-46z" />
<glyph unicode="&#x201c;" horiz-adv-x="342" d="M39 674h46l95 -167h-66zM162 674h45l95 -167h-65z" />
<glyph unicode="&#x201d;" horiz-adv-x="342" d="M39 507l75 167h66l-95 -167h-46zM162 507l75 167h65l-95 -167h-45z" />
<glyph unicode="&#x201e;" horiz-adv-x="342" d="M39 -91l75 167h66l-95 -167h-46zM162 -91l75 167h65l-95 -167h-45z" />
<glyph unicode="&#x2022;" horiz-adv-x="254" d="M39 309q0 43 25.5 73t62.5 30t62.5 -30t25.5 -73q0 -42 -25.5 -72t-62.5 -30t-62.5 30t-25.5 72z" />
<glyph unicode="&#x2026;" horiz-adv-x="575" d="M39 0v86h57v-86h-57zM242 0v86h58v-86h-58zM462 0v86h58v-86h-58z" />
<glyph unicode="&#x202f;" horiz-adv-x="186" />
<glyph unicode="&#x2039;" horiz-adv-x="250" d="M39 308l112 231h55l-111 -231l115 -232h-59z" />
<glyph unicode="&#x203a;" horiz-adv-x="250" d="M39 77l116 232l-111 231h55l111 -231l-111 -232h-60z" />
<glyph unicode="&#x205f;" horiz-adv-x="233" />
<glyph unicode="&#x20ac;" horiz-adv-x="552" d="M14 254l14 38h85q0 2 -0.5 7.5t-0.5 7.5q-3 30 1 73h-99q7 23 9 26q1 2 3 6.5t2 6.5h89q23 122 98 199t184 77q68 0 121 -30q-8 -23 -11 -29v2q-1 -2 -5 -17q-48 23 -83 23q-98 0 -161.5 -64.5t-86.5 -160.5h269l-15 -38h-258q-3 -26 -3 -47q0 -25 4 -42h227l-15 -38 h-206q25 -93 87 -153.5t158 -60.5q39 0 85 23l15 -44q-55 -31 -122 -31q-104 0 -178.5 74.5t-101.5 191.5h-105z" />
<glyph unicode="&#x2122;" horiz-adv-x="735" d="M39 630v44h346l112 -338q19 56 57 169.5t57 168.5h73l12 -396h-48l-8 345q-19 -57 -57 -170.5t-56 -170.5h-57l-113 340q-1 -57 -4 -172t-4 -172h-49l11 352h-122v-352h-47v352h-103z" />
<glyph unicode="&#xe000;" horiz-adv-x="485" d="M0 0v485h485v-485h-485z" />
</font>
</defs>
</svg>
