<?xml version="1.0" standalone="no"?>
<!DOCTYPE svg PUBLIC "-//W3C//DTD SVG 1.1//EN" "http://www.w3.org/Graphics/SVG/1.1/DTD/svg11.dtd" >
<svg xmlns="http://www.w3.org/2000/svg">
<metadata></metadata>
<defs>
<font id="IntervalSansProCondBold" horiz-adv-x="510" >
<font-face units-per-em="1000" ascent="750" descent="-250" />
<missing-glyph horiz-adv-x="236" />
<glyph unicode="&#xfb01;" horiz-adv-x="502" d="M12 389v95h46v39q0 47 12.5 80t27 48.5t38 24t35 9t27.5 0.5h4q42 0 93 -32l-20 -85q-42 17 -57 17q-18 0 -18 -46v-55h258v-484h-143v389h-115v-389h-142v389h-46z" />
<glyph unicode="&#xfb02;" horiz-adv-x="502" d="M12 389v95h46v39q0 43 13.5 73.5t30 45t40.5 22.5t35.5 9t24.5 1h256v-674h-143v574h-97q-18 0 -18 -35v-55h74v-95h-74v-389h-142v389h-46z" />
<glyph unicode="&#xfb03;" horiz-adv-x="773" d="M12 389v95h46v39q0 47 12.5 80t27 48.5t38 24t35 9t27.5 0.5h4q42 0 93 -32l-20 -85q-42 17 -57 17q-18 0 -18 -46v-55h130v39q0 47 12 80t27 48.5t38.5 24t34.5 9t27 0.5h4q43 0 93 -32l-20 -85q-42 17 -57 17q-18 0 -18 -46v-55h258v-484h-143v389h-115v-389h-142 l1 389h-130v-389h-142v389h-46z" />
<glyph unicode="fll" horiz-adv-x="773" d="M12 389v95h46v39q0 47 12.5 80t27 48.5t38 24t35 9t27.5 0.5h4q42 0 93 -32l-20 -85q-42 17 -57 17q-18 0 -18 -46v-55h130v28q0 46 13 79t29.5 48.5t40.5 24t35.5 9.5t24.5 1h256v-674h-143v574h-97q-18 0 -18 -46v-44h74v-95h-74v-389h-142l1 389h-130v-389h-142v389 h-46z" />
<glyph horiz-adv-x="0" />
<glyph horiz-adv-x="1000" />
<glyph unicode=" "  horiz-adv-x="236" />
<glyph unicode="&#x09;" horiz-adv-x="236" />
<glyph unicode="&#xa0;" horiz-adv-x="236" />
<glyph unicode="!" horiz-adv-x="248" d="M52 0v120h144v-120h-144zM56 674h136l-12 -490h-112z" />
<glyph unicode="&#x22;" horiz-adv-x="367" d="M35 674h133l-14 -317h-104zM199 674h133l-15 -317h-104z" />
<glyph unicode="#" horiz-adv-x="535" d="M27 182v103h79l25 98h-61v100h90l50 191h121l-50 -191h55l49 191h119l-49 -191h53v-100h-81l-26 -98h61l-1 -103h-89l-50 -182h-116l50 182h-55q-8 -27 -25 -89t-26 -93h-120l49 182h-52zM227 285h56l26 98h-56z" />
<glyph unicode="$" horiz-adv-x="514" d="M19 94l47 108q36 -39 95 -67.5t111 -28.5q29 0 53.5 18.5t24.5 53.5q0 49 -36 65l-154 70q-66 31 -96 76.5t-30 93.5q0 81 48.5 133.5t128.5 64.5h-6v88h104v-87h-6q85 -12 169 -85l-39 -100q-45 33 -85.5 49.5t-51.5 17t-35 0.5q-39 0 -61.5 -19t-22.5 -46q0 -41 45 -66 q25 -10 76.5 -33.5t75.5 -33.5q122 -55 122 -171q0 -88 -56 -142.5t-137 -63.5h6v-97h-104v101h6q-39 7 -67 19q-82 36 -125 82z" />
<glyph unicode="%" horiz-adv-x="696" d="M41 492q0 76 35 120t94 44q60 0 95.5 -44t35.5 -120q0 -77 -35.5 -121.5t-95.5 -44.5q-59 0 -94 44.5t-35 121.5zM119 492q0 -35 13.5 -63t37.5 -28q25 0 39 28.5t14 62.5q0 35 -14 63t-39 28q-24 0 -37.5 -28t-13.5 -63zM136 0l338 674h74l-337 -674h-75zM395 155 q0 76 35 120t94 44q61 0 96 -44t35 -120q0 -77 -35 -121.5t-96 -44.5q-59 0 -94 44.5t-35 121.5zM473 155q0 -34 13.5 -62.5t37.5 -28.5q25 0 39 28.5t14 62.5q0 35 -14 63t-39 28q-24 0 -37.5 -28.5t-13.5 -62.5z" />
<glyph unicode="&#x26;" horiz-adv-x="550" d="M27 185q0 116 106 177h-2q-63 64 -59 149q4 73 55 114t116 41q62 0 112 -42t57 -111q0 -42 -20 -91t-64 -82h1l32 -37q0 -12 3 -12q6 12 6 60h116q1 -21 1 -41q0 -77 -19 -133h-2q27 -33 39 -50.5t23 -51t11 -75.5h-124q0 46 -7 63q-21 -34 -65.5 -54t-99.5 -20 q-106 0 -161 56.5t-55 139.5zM167 192q0 -46 20 -73.5t56 -27.5q25 0 46.5 18.5t34.5 46.5h1l-109 125q-49 -22 -49 -89zM204 508q-2 -29 9 -57.5t28 -37.5q20 12 31 38.5t9 55.5q-4 66 -38 66q-35 0 -39 -65z" />
<glyph unicode="'" horiz-adv-x="204" d="M35 674h133l-14 -317h-104z" />
<glyph unicode="(" horiz-adv-x="352" d="M44 245q1 197 73 313t191 116v-80q-55 -1 -97.5 -94.5t-42.5 -255.5t42.5 -255.5t97.5 -94.5v-80q-119 0 -191 117t-73 314z" />
<glyph unicode=")" horiz-adv-x="352" d="M44 -106q54 1 97 94.5t43 255.5t-43 255.5t-97 94.5v80q119 0 191 -116t73 -313q-1 -197 -73 -314t-191 -117v80z" />
<glyph unicode="*" horiz-adv-x="358" d="M29 462l82 44q-14 7 -44.5 24t-37.5 21l44 86l65 -48q0 9 -1 25t-1 24q-2 24 -2 36h91l-4 -84l63 47l45 -85l-83 -46l83 -44l-45 -86l-63 46l4 -83h-91l4 84q-11 -9 -33.5 -24.5t-31.5 -22.5z" />
<glyph unicode="+" horiz-adv-x="502" d="M27 282v113h161v186h128v-186h159v-113h-159v-185h-128v185h-161z" />
<glyph unicode="," horiz-adv-x="302" d="M28 -93l96 223h150l-124 -223h-122z" />
<glyph unicode="-" horiz-adv-x="387" d="M27 196v128h333v-128h-333z" />
<glyph unicode="." horiz-adv-x="220" d="M35 0v130h150v-130h-150z" />
<glyph unicode="/" horiz-adv-x="347" d="M18 0l199 674h111l-199 -674h-111z" />
<glyph unicode="0" d="M29 324q0 156 60 246.5t163 90.5q107 0 167.5 -90t60.5 -247t-60.5 -247t-167.5 -90q-103 0 -163 90.5t-60 246.5zM165 324q0 -93 23 -160t64 -67q43 0 67 66.5t24 160.5q0 92 -24 159.5t-67 67.5q-40 0 -63.5 -68t-23.5 -159z" />
<glyph unicode="1" d="M121 473l148 177h116v-650h-137v461l-64 -82z" />
<glyph unicode="2" d="M40 0v74q0 73 44 131t119 113q49 35 80 65q33 33 33 64q0 32 -19.5 55.5t-53.5 23.5t-68.5 -27t-57.5 -59l-64 90q15 19 19.5 25t26.5 28t40 32.5t47.5 20.5t60.5 10q86 0 145 -56.5t59 -147.5q0 -34 -13 -64.5t-41.5 -59t-48.5 -44.5t-59 -44q-107 -80 -112 -111h264 v-119h-401z" />
<glyph unicode="3" d="M47 83l52 88q67 -70 130 -70q93 0 93 84q0 36 -19 62.5t-52 26.5h-80v115h76q32 0 50 24t18 56t-17.5 57t-45.5 25q-85 0 -137 -72l-53 86q9 15 27.5 34t65 40.5t101.5 21.5q86 1 142.5 -50t56.5 -140q0 -39 -21 -79t-65 -57h-1q44 -14 70 -62t26 -86q0 -89 -61.5 -144 t-144.5 -54q-125 0 -211 94z" />
<glyph unicode="4" d="M27 121v103q41 113 108 227.5t142 198.5h130v-417h76v-113h-76v-120l-138 1v120h-242zM152 233h117v222q-73 -100 -117 -222z" />
<glyph unicode="5" d="M48 79l55 101q64 -79 132 -79q58 0 84 35.5t26 86.5q0 45 -21.5 79t-65.5 34q-52 0 -78 -48h-117l50 363h320v-120h-214l-16 -115q45 28 90 28q73 0 126 -61t53 -161q0 -117 -68.5 -177.5t-161.5 -60.5q-121 0 -194 95z" />
<glyph unicode="6" d="M41 299q0 172 66.5 267t174.5 95q84 0 153 -56l-30 -93q-54 42 -112 42q-42 0 -76.5 -43.5t-35.5 -115.5q19 19 47 28t47 9q82 0 137.5 -61t55.5 -161q0 -104 -58.5 -163.5t-151.5 -59.5q-54 0 -95 21.5t-63.5 53.5t-36.5 76.5t-18 82t-4 78.5zM190 216q0 -53 18 -87.5 t49 -34.5q34 0 51.5 36.5t17.5 79.5t-18 80.5t-52 37.5q-31 0 -48.5 -33t-17.5 -79z" />
<glyph unicode="7" d="M43 532v118h423v-93q-84 -124 -138.5 -256.5t-100.5 -300.5h-153q105 326 251 532h-282z" />
<glyph unicode="8" d="M39 180q0 26 8 53.5t32 58t60 45.5q-21 12 -37.5 30t-26 38t-14.5 40t-5 39q0 38 13.5 69t37 51t49.5 32.5t55 18.5q24 4 44 4q26 0 45 -4q64 -13 108.5 -55.5t44.5 -115.5q0 -40 -21 -82.5t-61 -64.5q52 -21 76 -67.5t24 -89.5q0 -82 -55 -137.5t-161 -55.5t-161 55.5 t-55 137.5zM179 186q0 -40 22 -62t54 -22q36 0 57 24.5t21 59.5q0 45 -20 70.5t-58 26.5q-25 0 -42.5 -12.5t-25.5 -34t-8 -50.5zM194 476q0 -37 15.5 -56t43.5 -19q14 0 25 4.5t19.5 13.5t13.5 23t5 32q0 75 -61 75t-61 -73z" />
<glyph unicode="9" d="M41 438q0 104 58.5 163.5t151.5 59.5q54 0 95 -21.5t63.5 -53.5t36.5 -76.5t18 -82t4 -78.5q0 -172 -66.5 -267t-174.5 -95q-84 0 -153 56l30 93q54 -42 112 -42q44 0 79.5 44t33.5 116q-34 -38 -94 -38q-83 0 -138.5 61t-55.5 161zM183 438q0 -43 18 -80.5t52 -37.5 q31 0 48.5 33t17.5 79q0 53 -18 87.5t-49 34.5q-34 0 -51.5 -36.5t-17.5 -79.5z" />
<glyph unicode=":" horiz-adv-x="203" d="M27 0v130h149v-130h-149zM27 354v130h149v-130h-149z" />
<glyph unicode=";" horiz-adv-x="302" d="M28 -93l96 223h150l-124 -223h-122zM126 354v130h149v-130h-149z" />
<glyph unicode="&#x3c;" horiz-adv-x="514" d="M18 210v63l452 235v-140l-276 -127l276 -128v-138z" />
<glyph unicode="=" horiz-adv-x="445" d="M27 167v104h391v-104h-391zM27 363v104h391v-104h-391z" />
<glyph unicode="&#x3e;" horiz-adv-x="514" d="M44 -25v138l269 128q-12 6 -114.5 54.5t-154.5 72.5v140l452 -235v-63z" />
<glyph unicode="?" horiz-adv-x="479" d="M49 565q8 17 21 34.5t36 38.5t59 34t78 13q90 0 149.5 -52t59.5 -150q0 -85 -88 -171q-6 -6 -25.5 -23.5t-25 -25t-12.5 -29t-7 -50.5h-127q0 30 0.5 47t7.5 38t9 28t22 31t28.5 32.5t43.5 45.5q31 31 31 83q0 35 -18.5 61t-49.5 26q-41 0 -73 -27.5t-41 -52.5zM160 0 v120h144v-120h-144z" />
<glyph unicode="@" horiz-adv-x="717" d="M35 306q0 169 95.5 274t236.5 105q65 0 119 -19.5t89.5 -51t60 -72.5t35.5 -83.5t11 -84.5q0 -73 -19.5 -131t-51 -90t-65.5 -48.5t-68 -16.5q-35 0 -54.5 20t-23.5 49q-34 -50 -86 -50q-65 0 -101 38t-36 113q0 96 53.5 162.5t120.5 66.5q44 0 66 -29q1 4 2 11t2 10h117 l-47 -248q-4 -7 -1.5 -31.5t17.5 -24.5q9 0 22 11.5t27.5 33t24.5 61t10 87.5q0 117 -66 177.5t-158 60.5q-105 0 -171.5 -83t-66.5 -217q0 -138 66 -222.5t183 -84.5q113 0 236 102l32 -51q-44 -55 -120 -88.5t-150 -33.5q-151 0 -246 103.5t-95 274.5zM297 254 q0 -64 25 -64q15 0 33.5 16t27.5 46l16 112q3 21 -7 30t-19 9q-38 0 -57 -45.5t-19 -103.5z" />
<glyph unicode="A" horiz-adv-x="614" d="M1 0l238 674h135l238 -674h-152l-51 154h-207l-49 -154h-152zM240 264h132l-65 234z" />
<glyph unicode="B" horiz-adv-x="548" d="M48 0v674h274q93 0 139 -55t46 -134q0 -11 -2 -23t-8.5 -33t-24 -40.5t-43.5 -32.5h-2q50 -8 78.5 -58.5t28.5 -103.5q0 -73 -48.5 -133.5t-137.5 -60.5h-300zM194 114h125q30 0 50 25t20 56q0 34 -20 61.5t-50 27.5h-125v-170zM194 394h107q31 0 47 26.5t16 53.5 q0 37 -18.5 61.5t-47.5 24.5h-104v-166z" />
<glyph unicode="C" horiz-adv-x="546" d="M27 337q0 149 83 248.5t221 99.5q48 0 102.5 -13t93.5 -37l-34 -104q-85 36 -145 36q-88 0 -131 -68t-43 -162q0 -60 16 -110t57 -86t101 -36q55 0 148 37l31 -105q-39 -24 -93.5 -37t-102.5 -13q-138 0 -221 100t-83 250z" />
<glyph unicode="D" horiz-adv-x="597" d="M48 0v674h227q144 0 223.5 -85.5t79.5 -251.5t-79.5 -251.5t-223.5 -85.5h-227zM193 117h85q69 0 112.5 54.5t43.5 165.5q0 113 -43 166.5t-116 53.5h-82v-440z" />
<glyph unicode="E" horiz-adv-x="512" d="M48 0v674h427v-117h-281v-159h260v-117h-260v-164h286v-117h-432z" />
<glyph unicode="F" horiz-adv-x="474" d="M48 0v674h404v-117h-257v-159h236v-117h-236v-282z" />
<glyph unicode="G" horiz-adv-x="606" d="M27 337q0 149 89.5 248.5t236.5 99.5q117 0 209 -68l-44 -101q-37 27 -84 39.5t-73 12.5q-50 0 -88 -20t-58.5 -54t-30.5 -73.5t-10 -83.5q0 -92 49.5 -162t138.5 -70q39 0 82 15h-5v146l-115 -2v117h250v-334q-37 -26 -103.5 -43t-117.5 -17q-147 0 -236.5 100.5 t-89.5 249.5z" />
<glyph unicode="H" horiz-adv-x="592" d="M48 0v674h146v-269h204v269h145v-674h-145v287h-204v-287h-146z" />
<glyph unicode="I" horiz-adv-x="241" d="M48 0v674h145v-674h-145z" />
<glyph unicode="J" horiz-adv-x="399" d="M2 40l30 101q59 -44 112 -44q63 0 63 100v477h143v-483q0 -111 -51 -157.5t-130 -46.5q-72 0 -167 53z" />
<glyph unicode="K" horiz-adv-x="550" d="M48 0v674h146v-236l156 236h163l-208 -305l242 -369h-170l-159 247l-25 -37h1v-210h-146z" />
<glyph unicode="L" horiz-adv-x="484" d="M48 0v674h147v-556h262v-118h-409z" />
<glyph unicode="M" horiz-adv-x="759" d="M35 0l45 674h162l137 -467q127 428 138 467h162l45 -674h-142l-23 419l-120 -419h-119l-118 414q-4 -70 -12 -208.5t-11 -205.5h-144z" />
<glyph unicode="N" horiz-adv-x="597" d="M48 0v674h176l180 -428v428h144v-674h-167l-188 435v-435h-145z" />
<glyph unicode="O" horiz-adv-x="640" d="M27 337q0 163 78.5 255.5t214.5 92.5t214.5 -92.5t78.5 -255.5t-79 -256.5t-214 -93.5t-214 93.5t-79 256.5zM177 337q0 -104 36.5 -169.5t106.5 -65.5t106.5 65.5t36.5 169.5q0 100 -37 166.5t-106 66.5t-106 -66.5t-37 -166.5z" />
<glyph unicode="P" horiz-adv-x="524" d="M48 0v674h274q52 0 91 -21t60 -55t31 -71t10 -75q0 -12 -2 -30t-12.5 -51.5t-28.5 -60t-55.5 -47t-87.5 -20.5h-134v-243h-146zM194 361h107q37 0 53.5 31.5t16.5 63.5q0 41 -18.5 71t-51.5 30h-107v-196z" />
<glyph unicode="Q" horiz-adv-x="632" d="M27 337q0 163 78.5 255.5t214.5 92.5t214.5 -92.5t78.5 -255.5q0 -93 -31.5 -168t-86.5 -122q15 -23 52 -23h65v-107h-63q-43 0 -70 8.5t-36.5 17t-23.5 27.5l-15 20l2 -3h-86q-131 0 -212 94.5t-81 255.5zM177 337q0 -103 36.5 -168t106.5 -65t106.5 65t36.5 168 q0 100 -37 166.5t-106 66.5t-106 -66.5t-37 -166.5z" />
<glyph unicode="R" horiz-adv-x="558" d="M48 0v674h266q59 0 100.5 -18.5t62 -51t29 -66t8.5 -72.5q0 -17 -3.5 -35t-13.5 -44.5t-34.5 -48.5t-60.5 -34q53 -21 69 -70q8 -24 24 -72.5t29.5 -89t23.5 -72.5h-148l-67 192q-20 59 -58 60h-81v-252h-146zM194 369h106q34 0 53.5 29.5t19.5 56.5q0 42 -18.5 72 t-55.5 30h-105v-188z" />
<glyph unicode="S" horiz-adv-x="514" d="M19 94l47 110q37 -39 95.5 -68.5t110.5 -29.5q29 0 53.5 18.5t24.5 53.5q0 49 -36 65l-154 70q-66 31 -96 76.5t-30 93.5q0 93 62 147.5t159 54.5q69 0 116.5 -21t100.5 -67l-39 -102q-45 33 -84.5 50t-52.5 18t-35 1q-39 0 -61.5 -19t-22.5 -46q0 -43 45 -66 q25 -10 76.5 -33.5t75.5 -33.5q122 -55 122 -171q0 -97 -66 -152.5t-159 -55.5q-70 0 -127 25q-82 36 -125 82z" />
<glyph unicode="T" horiz-adv-x="492" d="M1 557v117h490v-117h-173v-557h-145v557h-172z" />
<glyph unicode="U" horiz-adv-x="612" d="M48 302v372h147v-374q0 -99 26.5 -147.5t84.5 -48.5q59 0 86 48.5t27 147.5v374h145v-372q0 -171 -65.5 -243t-192.5 -72q-126 0 -192 72.5t-66 242.5z" />
<glyph unicode="V" horiz-adv-x="571" d="M1 674h149l136 -486l137 486h147l-215 -674h-136z" />
<glyph unicode="W" horiz-adv-x="818" d="M1 674h150l95 -457l95 434h137l94 -430q15 77 46 226.5t47 226.5h151l-175 -674h-137l-94 435l-95 -435h-138z" />
<glyph unicode="X" horiz-adv-x="589" d="M2 0l215 333l-205 341h162l120 -228l121 228h161l-205 -341l216 -333h-165l-128 227l-129 -227h-163z" />
<glyph unicode="Y" horiz-adv-x="591" d="M2 674h163l131 -298l129 298h163l-219 -436h1v-238h-148v237h1z" />
<glyph unicode="Z" horiz-adv-x="523" d="M14 0v106l312 451h-298v117h480v-103l-316 -452h303v-119h-481z" />
<glyph unicode="[" horiz-adv-x="296" d="M44 -185v859h208v-97h-88v-665h88v-97h-208z" />
<glyph unicode="\" horiz-adv-x="348" d="M18 674h112l200 -674h-111z" />
<glyph unicode="]" horiz-adv-x="296" d="M44 -88h88v665h-88v97h208v-859h-208v97z" />
<glyph unicode="^" horiz-adv-x="394" d="M19 361l127 313h103l126 -313h-130l-48 159l-48 -159h-130z" />
<glyph unicode="_" horiz-adv-x="554" d="M27 -20h500v-92h-500v92z" />
<glyph unicode="`" horiz-adv-x="289" d="M38 708h142l81 -154h-111z" />
<glyph unicode="a" horiz-adv-x="451" d="M18 147q0 74 68 120t187 57v8q0 63 -55 63q-31 0 -64 -10.5t-50 -20.5l-17 -11l-39 92q0 2 23 14.5t69.5 26.5t93.5 14q5 0 11 -0.5t21 -1.5t29 -5.5t31.5 -11.5t32 -20t27 -29.5t19.5 -41.5t7 -56v-334h-142v50q-34 -58 -116 -58q-46 0 -91 38.5t-45 116.5zM152 152 q0 -23 11.5 -39t28.5 -16q12 0 28 4.5t34.5 24t18.5 49.5v65q-54 -10 -87.5 -33t-33.5 -55z" />
<glyph unicode="b" horiz-adv-x="489" d="M44 0v674h142v-233q40 57 109 57q73 0 122 -66.5t49 -189.5q0 -125 -50.5 -190t-136.5 -65q-8 0 -22.5 3.5t-37 17.5t-34.5 36v-44h-141zM186 175q0 -76 70 -76q33 0 48.5 41t15.5 102q0 144 -78 144q-6 0 -14 -3.5t-18 -11.5t-17 -25.5t-7 -41.5v-129z" />
<glyph unicode="c" horiz-adv-x="418" d="M23 242q0 119 60.5 187.5t164.5 68.5q79 0 152 -42l-27 -101q-50 30 -111 30q-49 0 -74 -41.5t-25 -101.5t25 -101t74 -41q57 0 111 27l27 -99q-73 -41 -152 -41q-104 0 -164.5 68.5t-60.5 186.5z" />
<glyph unicode="d" horiz-adv-x="489" d="M23 242q0 123 49 189.5t122 66.5q69 0 109 -57v233h142v-674h-141v44q-12 -22 -34.5 -36t-37 -17.5t-22.5 -3.5q-86 0 -136.5 65t-50.5 190zM169 242q0 -61 15.5 -102t48.5 -41q70 0 70 76v129q0 24 -7 41.5t-17 25.5t-18 11.5t-14 3.5q-78 0 -78 -144z" />
<glyph unicode="e" horiz-adv-x="476" d="M23 242q0 112 58.5 184t156.5 72q99 0 157 -72t58 -181q0 -24 -3 -48h-294q9 -48 37.5 -76.5t75.5 -28.5q60 0 130 42l28 -92q-73 -54 -181 -54q-105 0 -164 73.5t-59 180.5zM156 289h169q-2 43 -24 71t-60 28q-37 0 -60 -28t-25 -71z" />
<glyph unicode="f" horiz-adv-x="271" d="M12 389v95h46v39q0 47 12.5 80t27 48.5t38 24t35 9t27.5 0.5h4q42 0 93 -32l-20 -85q-42 17 -57 17q-18 0 -18 -46v-55h74v-95h-74v-389h-142v389h-46z" />
<glyph unicode="g" horiz-adv-x="490" d="M23 242q0 123 51 189.5t127 66.5q9 0 22 -2.5t39 -17.5t43 -41v47h141v-504q0 -88 -59 -126.5t-146 -38.5q-51 0 -100.5 15.5t-73.5 36.5l31 100q26 -18 65 -32t70 -14q79 0 79 81v37q-42 -52 -93 -52q-75 0 -135.5 67.5t-60.5 187.5zM169 242q0 -143 78 -143 q20 0 38.5 18t18.5 60v132q0 45 -22 61.5t-48 16.5q-34 0 -49.5 -42t-15.5 -103z" />
<glyph unicode="h" horiz-adv-x="489" d="M44 0v674h142v-233q19 32 49.5 44.5t55.5 12.5q154 0 154 -216v-282h-143v282q0 104 -45 104q-9 0 -19.5 -4t-23 -13.5t-20.5 -31.5t-8 -53v-284h-142z" />
<glyph unicode="i" horiz-adv-x="231" d="M44 0v484h143v-484h-143zM44 551v123h143v-123h-143z" />
<glyph unicode="j" horiz-adv-x="241" d="M-50 -150l20 89q15 -6 32.5 -11.5t23.5 -8.5q9 -3 15.5 2t8.5 17.5t2.5 21t0.5 21.5v503h144l-1 -507q0 -47 -12.5 -80t-28 -48.5t-39 -24t-35.5 -9t-27 -0.5q-47 0 -104 35zM53 551v123h144v-123h-144z" />
<glyph unicode="k" horiz-adv-x="453" d="M44 0v674h142v-305q1 1 87 115h161l-157 -188h1l177 -296h-155l-111 205l-5 -6h2v-199h-142z" />
<glyph unicode="l" horiz-adv-x="231" d="M44 0v674h143v-674h-143z" />
<glyph unicode="m" horiz-adv-x="693" d="M40 0v484h138v-54q47 68 108 68q28 0 56 -18.5t48 -48.5q22 31 52 49t59 18q63 0 107.5 -46.5t44.5 -155.5v-296h-142v281q0 104 -45 104q-4 0 -8.5 -1t-12 -6t-13 -14t-10 -26.5t-4.5 -41.5v-296h-142l1 295q0 90 -47 90q-12 0 -21.5 -8.5t-17.5 -35t-8 -68.5v-273h-143 z" />
<glyph unicode="n" horiz-adv-x="480" d="M40 0v484h137v-55q42 69 112 69q74 0 112.5 -50t38.5 -168v-280h-142v280q0 108 -46 108q-8 0 -18.5 -4.5t-22.5 -15t-20.5 -33t-8.5 -53.5v-282h-142z" />
<glyph unicode="o" horiz-adv-x="481" d="M23 243q0 118 58 186.5t159 68.5t159.5 -68.5t58.5 -186.5t-58.5 -187t-159.5 -69q-100 0 -158.5 68.5t-58.5 187.5zM164 243q0 -59 20.5 -103t55.5 -44t56 44.5t21 102.5t-20.5 102t-56.5 44t-56 -43.5t-20 -102.5z" />
<glyph unicode="p" horiz-adv-x="489" d="M44 -185v669h141v-49q43 63 107 63q77 0 125.5 -65.5t48.5 -189.5q0 -123 -51.5 -189.5t-129.5 -66.5q-22 0 -52.5 14.5t-47.5 43.5v-230h-141zM185 182q0 -33 12.5 -54t23.5 -25.5t20 -4.5q78 0 78 145q0 60 -15 101.5t-48 41.5q-71 0 -71 -76v-128z" />
<glyph unicode="q" horiz-adv-x="489" d="M23 243q0 124 48.5 189.5t125.5 65.5q64 0 107 -63v49h141v-669h-141v230q-17 -29 -47.5 -43.5t-52.5 -14.5q-78 0 -129.5 66.5t-51.5 189.5zM170 243q0 -145 78 -145q9 0 20 4.5t23.5 25.5t12.5 54v128q0 76 -71 76q-33 0 -48 -41.5t-15 -101.5z" />
<glyph unicode="r" horiz-adv-x="323" d="M48 0v484h137v-61q40 75 104 75h24v-120h-31q-94 0 -94 -111l1 -267h-141z" />
<glyph unicode="s" horiz-adv-x="402" d="M19 72l52 94q65 -68 139 -68q12 0 22.5 8t14.5 19q11 36 -14 47l-108 48q-54 28 -74.5 60t-20.5 74q0 65 47.5 104.5t123.5 39.5q47 0 83.5 -14.5t86.5 -54.5l-39 -88q-66 53 -127 53q-27 0 -33 -28q-5 -31 40 -52l68 -30q47 -20 75 -59t28 -84q0 -70 -48 -112t-124 -42 q-107 0 -192 85z" />
<glyph unicode="t" horiz-adv-x="317" d="M3 390v94h66v114h141v-114h87v-94h-87v-251q0 -13 1 -20.5t7.5 -16t19.5 -8.5t65 25l4 -101q-50 -30 -94 -30q-17 0 -29.5 0.5t-36 9t-38.5 24t-27.5 48.5t-12.5 80v240h-66z" />
<glyph unicode="u" horiz-adv-x="489" d="M44 204v280h142v-280q0 -105 46 -105q7 0 15.5 2t22.5 9.5t23 27.5t9 49v297h143v-484h-138v51q-13 -20 -31 -34.5t-34.5 -20t-26.5 -7.5t-16 -2q-60 -1 -107.5 52t-47.5 165z" />
<glyph unicode="v" horiz-adv-x="490" d="M1 484h149l95 -320l95 320h148l-175 -484h-136z" />
<glyph unicode="w" horiz-adv-x="689" d="M1 484h149l62 -286l62 286h142l63 -282l62 282h147l-143 -484h-126l-74 278l-73 -278h-127z" />
<glyph unicode="x" horiz-adv-x="488" d="M2 0l159 245l-148 239h156l74 -144q4 8 13 25t13 26q32 64 48 93h156l-147 -239q127 -199 159 -245h-156l-85 152l-85 -152h-157z" />
<glyph unicode="y" horiz-adv-x="491" d="M1 484h149l97 -303l94 303h149l-212 -585q-12 -34 -40 -54t-49 -25t-40 -5q-29 0 -83 23l10 94q18 -12 50 -12q19 0 31 37l21 60q-30 84 -177 467z" />
<glyph unicode="z" horiz-adv-x="416" d="M14 0v90l220 288h-212v106h380v-90l-218 -288h211v-106h-381z" />
<glyph unicode="{" horiz-adv-x="334" d="M44 206v76q39 5 51.5 32t12.5 74l-1 165q0 51 38 86t80 35h82v-94h-61q-13 0 -16 -10t-3 -31v-164q1 -41 -23.5 -81.5t-53.5 -49.5q29 -9 53.5 -49.5t23.5 -81.5v-163q0 -41 19 -41h61v-94h-82q-42 0 -80 35t-38 86l1 164q0 47 -12.5 74t-51.5 32z" />
<glyph unicode="|" horiz-adv-x="192" d="M44 -108v878h104v-878h-104z" />
<glyph unicode="}" horiz-adv-x="334" d="M27 -91h61q19 0 19 41v163q-1 41 23.5 81.5t53.5 49.5q-29 9 -53.5 49.5t-23.5 81.5v164q0 14 -0.5 21t-5 13.5t-13.5 6.5h-61v94h82q42 0 80 -35t38 -86l-1 -165q0 -47 12.5 -74t51.5 -32v-76q-39 -5 -51.5 -32t-12.5 -74l1 -164q0 -51 -38 -86t-80 -35h-82v94z" />
<glyph unicode="~" horiz-adv-x="442" d="M27 197q0 86 32 126.5t103 40.5q23 0 63 -23q34 -21 48 -21q23 0 38 59h104q0 -83 -33.5 -124.5t-105.5 -41.5q-22 0 -64 23q-36 21 -49 21q-22 0 -34 -60h-102z" />
<glyph unicode="&#xa1;" horiz-adv-x="248" d="M52 364v120h144v-120h-144zM56 -190l12 490h112l12 -490h-136z" />
<glyph unicode="&#xa2;" horiz-adv-x="418" d="M23 242q0 108 50.5 175t141.5 79h-6v90h104v-95h-5q49 -11 91 -35l-26 -101q-50 30 -111 30q-49 0 -74 -41.5t-25 -101.5t25 -101t74 -41q57 0 111 27l26 -99q-41 -25 -92 -34h6v-100h-104v95h6q-91 10 -141.5 77.5t-50.5 175.5z" />
<glyph unicode="&#xa3;" horiz-adv-x="462" d="M9 326v96h66v17q0 104 47.5 160.5t111.5 67.5q16 3 48 3q77 0 140 -51l-36 -92q-56 37 -104 37q-31 0 -47.5 -34.5t-16.5 -90.5v-17h134v-96h-134v-232h203v-107h-398v107h52v232h-66z" />
<glyph unicode="&#xa4;" horiz-adv-x="459" d="M28 141l49 59h-1q-24 46 -24 94q0 52 27 95q-25 34 -50 62l68 84l59 -69q37 16 70 16q36 0 71 -16l58 67l75 -90l-54 -63h1q18 -42 18 -79q0 -40 -23 -92h-1l53 -60l-74 -84l-52 62q-33 -19 -73 -19q-39 0 -69 13q-7 -8 -28 -32.5t-32 -35.5zM28 449q-11 16 -9 14 q1 -1 10 -12zM174 294q0 -34 15.5 -52t33.5 -18q7 0 13.5 2.5t13.5 8.5t12.5 14t9 20.5t3.5 27.5q0 22 -9 38.5t-20.5 23.5t-22.5 7q-18 0 -33.5 -19t-15.5 -53z" />
<glyph unicode="&#xa5;" horiz-adv-x="518" d="M7 674h152l100 -258q16 44 49.5 129.5t50.5 128.5h153l-157 -338h102v-88h-128v-70h128v-87h-128v-91h-140v91h-130v87h130v70h-130v88h104z" />
<glyph unicode="&#xa6;" horiz-adv-x="192" d="M44 -108v395h104v-395h-104zM44 376v395h104v-395h-104z" />
<glyph unicode="&#xa7;" horiz-adv-x="415" d="M28 68l50 91q60 -60 134 -60q22 0 29.5 23.5t-13.5 34.5l-73 36q-116 56 -116 143q0 60 49 106q-41 51 -35 117q8 54 51.5 86.5t108.5 32.5q80 0 163 -66l-42 -89q-59 45 -116 45q-28 0 -32 -23q-4 -26 28 -43l12 -5l20 -9q79 -36 102 -59q40 -45 40 -93q0 -70 -45 -111 h1q31 -49 31 -98q0 -60 -45.5 -100t-117.5 -40q-109 0 -184 81zM170 347q0 -37 45 -59l26 -13q23 28 23 47q0 22 -16 34l-62 28q-16 -20 -16 -37z" />
<glyph unicode="&#xa8;" horiz-adv-x="333" d="M27 569v116h122v-116h-122zM184 569v116h122v-116h-122z" />
<glyph unicode="&#xa9;" horiz-adv-x="671" d="M30 336q0 145 89.5 247t216.5 102q126 0 215.5 -102t89.5 -247t-89.5 -247t-215.5 -102q-127 0 -216.5 102t-89.5 247zM97 335q0 -118 70.5 -201t170.5 -83t171 83t71 201t-71 201t-171 83t-170.5 -83t-70.5 -201zM173 334q0 87 47.5 144.5t125.5 57.5q69 0 107 -24 l-18 -52q-40 19 -79 19q-59 0 -86 -42t-27 -103q0 -62 26.5 -103.5t85.5 -41.5q37 0 82 18l16 -51q-38 -24 -107 -24q-78 0 -125.5 57.5t-47.5 144.5z" />
<glyph unicode="&#xaa;" horiz-adv-x="314" d="M27 556q0 86 152 102q0 42 -22 42q-17 0 -38 -5t-34 -11l-13 -5l-31 58q0 2 15.5 11t47 19.5t63.5 10.5h8.5t17 -2t23.5 -5.5t25 -11.5t23.5 -19t16 -29t6.5 -41v-212h-110v35q-15 -17 -35.5 -28t-33.5 -11q-29 0 -55 25t-26 77zM45 333v79h228v-79h-228zM128 551 q0 -25 13 -25q6 0 13.5 2.5t16 13t8.5 26.5v32q-51 -13 -51 -49z" />
<glyph unicode="&#xab;" horiz-adv-x="507" d="M36 325l112 232h128l-113 -232l113 -232h-128zM230 325l112 232h128l-113 -232l113 -232h-128z" />
<glyph unicode="&#xac;" horiz-adv-x="503" d="M27 264v123h449v-236h-123v113h-326z" />
<glyph unicode="&#xad;" horiz-adv-x="387" d="M27 196v128h333v-128h-333z" />
<glyph unicode="&#xae;" horiz-adv-x="671" d="M30 336q0 145 89.5 247t216.5 102q126 0 215.5 -102t89.5 -247t-89.5 -247t-215.5 -102q-127 0 -216.5 102t-89.5 247zM97 335q0 -118 70.5 -201t170.5 -83t171 83t71 201t-71 201t-171 83t-170.5 -83t-70.5 -201zM211 145v390h151q42 0 68 -20.5t33.5 -46t7.5 -56.5 q0 -72 -59 -95h1q21 -12 34 -46l42 -126h-71l-42 123q-14 28 -33 28h-64v-151h-68zM279 353h84q42 0 42 59q0 68 -46 68h-80v-127z" />
<glyph unicode="&#xaf;" horiz-adv-x="295" d="M27 583v102h241v-102h-241z" />
<glyph unicode="&#xb0;" horiz-adv-x="336" d="M27 506q0 61 40.5 103t99.5 42t100.5 -42t41.5 -103q0 -60 -41.5 -102t-100.5 -42t-99.5 41.5t-40.5 102.5zM122 506q0 -24 13.5 -41t31.5 -17q19 0 32.5 17t13.5 41t-13.5 41t-32.5 17q-18 0 -31.5 -17t-13.5 -41z" />
<glyph unicode="&#xb1;" horiz-adv-x="504" d="M27 0v103h450v-103h-450zM27 353v104h162v177h127v-177h161v-104h-161v-176h-127v176h-162z" />
<glyph unicode="&#xb2;" horiz-adv-x="327" d="M39 467v48q0 40 24.5 70t69.5 63q61 44 61 76q0 16 -8.5 29t-23.5 13q-46 0 -76 -45l-41 52q47 70 120 70q52 0 87.5 -33.5t35.5 -87.5q0 -27 -16.5 -51.5t-32.5 -37.5t-47 -35q-30 -22 -58 -57h149v-74h-244z" />
<glyph unicode="&#xb3;" horiz-adv-x="292" d="M8 518l37 50q38 -39 79 -39q23 0 33 14t10 33q0 18 -8.5 33t-22.5 15h-58v66h56q13 0 21.5 15t8.5 31q0 17 -9 31t-24 14q-44 0 -75 -41l-39 51q42 59 119 59q52 1 86.5 -29.5t34.5 -83.5q0 -45 -56 -78h-2q30 -8 46.5 -32t16.5 -50q0 -53 -37.5 -85.5t-88.5 -31.5 q-78 0 -128 58z" />
<glyph unicode="&#xb4;" horiz-adv-x="289" d="M28 554l81 154h142l-112 -154h-111z" />
<glyph unicode="&#xb6;" horiz-adv-x="469" d="M18 477q0 82 55 139.5t133 57.5h219v-859h-106v767h-46v-767h-106v468h6q-67 13 -111 67.5t-44 126.5z" />
<glyph unicode="&#xb7;" horiz-adv-x="220" d="M35 240v130h150v-130h-150z" />
<glyph unicode="&#xb8;" horiz-adv-x="235" d="M27 -78l49 -16q38 -13 29 23q-6 27 -39 81h93q33 -46 42 -84q6 -24 6 -43q0 -43 -28 -65t-76 -17q-41 5 -76 25v96z" />
<glyph unicode="&#xb9;" horiz-adv-x="235" d="M19 738l89 107h78v-378h-90v277l-41 -49z" />
<glyph unicode="&#xba;" horiz-adv-x="342" d="M27 616q0 75 39 119t104 44q67 0 106 -44t39 -119q0 -76 -39 -120t-106 -44q-65 0 -104 44t-39 120zM59 333v79h227v-79h-227zM134 616q0 -34 10 -59t26 -25q17 0 27 25t10 59q0 33 -10 58t-27 25q-16 0 -26 -25t-10 -58z" />
<glyph unicode="&#xbb;" horiz-adv-x="507" d="M36 93l114 232q-18 37 -56.5 116t-57.5 116h129l111 -232l-111 -232h-129zM230 93l113 232l-113 232h129l111 -232l-111 -232h-129z" />
<glyph unicode="&#xbc;" horiz-adv-x="654" d="M31 567l89 107h78v-378h-95v255l-32 -34zM99 0l339 674h74l-338 -674h-75zM350 77v56q22 60 62 127t82 118h88v-235h42v-66h-42v-77l-96 1v76h-136zM429 143h57v109q-40 -60 -57 -109z" />
<glyph unicode="&#xbd;" horiz-adv-x="680" d="M34 567l89 107h78v-378h-90v277l-41 -49zM112 0l338 674h74l-337 -674h-75zM382 0v48q0 40 24.5 70t69.5 63q61 44 61 76q0 16 -8.5 29t-23.5 13q-46 0 -76 -45l-41 52q47 70 120 70q52 0 87.5 -33.5t35.5 -87.5q0 -27 -16.5 -51.5t-32.5 -37.5t-47 -35q-30 -22 -58 -57 h149v-74h-244z" />
<glyph unicode="&#xbe;" horiz-adv-x="680" d="M16 348l37 50q38 -39 79 -39q23 0 33 14t10 33q0 18 -8.5 33t-22.5 15h-58v66h56q13 0 21.5 15t8.5 31q0 17 -9 31t-24 14q-44 0 -75 -41l-39 51q42 59 119 59q52 1 86.5 -29.5t34.5 -83.5q0 -45 -56 -78h-2q30 -8 46.5 -32t16.5 -50q0 -53 -37.5 -85.5t-88.5 -31.5 q-78 0 -128 58zM139 0l339 674h74l-338 -674h-75zM390 77v56q22 60 62 127t82 118h88v-235h42v-66h-42v-77l-96 1v76h-136zM469 143h57v109q-40 -60 -57 -109z" />
<glyph unicode="&#xbf;" horiz-adv-x="479" d="M28 1q0 85 88 171q6 6 25.5 23.5t25 25t12.5 28.5t7 51h127q0 -30 -0.5 -47t-7.5 -38t-9 -28t-22 -31t-28.5 -32.5t-43.5 -45.5q-31 -31 -31 -83q0 -35 18.5 -61t49.5 -26q41 0 73 27.5t41 52.5l78 -69q-8 -17 -21 -34.5t-36 -38.5t-59 -34t-78 -13q-90 0 -149.5 52 t-59.5 150zM176 364v120h144v-120h-144z" />
<glyph unicode="&#xc0;" horiz-adv-x="614" d="M1 0l238 674h135l238 -674h-152l-51 154h-207l-49 -154h-152zM149 898h142l81 -154h-111zM240 264h132l-65 234z" />
<glyph unicode="&#xc1;" horiz-adv-x="614" d="M1 0l238 674h135l238 -674h-152l-51 154h-207l-49 -154h-152zM240 264h132l-65 234zM246 744l81 154h142l-112 -154h-111z" />
<glyph unicode="&#xc2;" horiz-adv-x="614" d="M1 0l238 674h135l238 -674h-152l-51 154h-207l-49 -154h-152zM149 752l93 167h129l94 -167h-121l-38 75l-35 -75h-122zM240 264h132l-65 234z" />
<glyph unicode="&#xc3;" horiz-adv-x="614" d="M1 0l238 674h135l238 -674h-152l-51 154h-207l-49 -154h-152zM165 756q3 69 23 102t74 33q23 0 52 -19q23 -14 27 -14q5 0 10.5 12t4.5 28h93q-3 -68 -23 -101.5t-74 -33.5q-31 0 -53 22q-17 13 -24 13q-15 0 -18 -42h-92zM240 264h132l-65 234z" />
<glyph unicode="&#xc4;" horiz-adv-x="614" d="M1 0l238 674h135l238 -674h-152l-51 154h-207l-49 -154h-152zM167 759v116h122v-116h-122zM240 264h132l-65 234zM324 759v116h122v-116h-122z" />
<glyph unicode="&#xc5;" horiz-adv-x="614" d="M1 0l238 674h135l238 -674h-152l-51 154h-207l-49 -154h-152zM205 855q0 45 24.5 74.5t77.5 29.5q54 0 78 -29t24 -75q0 -104 -102 -104q-53 0 -77.5 29.5t-24.5 74.5zM240 264h132l-65 234zM277 855q0 -20 7.5 -33.5t21.5 -13.5t22 13.5t8 33.5q0 19 -8 32.5t-22 13.5 t-21.5 -13.5t-7.5 -32.5z" />
<glyph unicode="&#xc6;" horiz-adv-x="819" d="M2 0l288 674h492v-117h-279v-159h260v-117h-261v-164h286v-117h-432v148h-134q-48 -116 -61 -148h-159zM262 264h94v256z" />
<glyph unicode="&#xc7;" horiz-adv-x="546" d="M27 337q0 73 21.5 136.5t60 110.5t96 74t126.5 27q31 0 65 -5.5t69.5 -17t61.5 -27.5l-34 -104q-85 36 -145 36q-46 0 -80.5 -20t-54.5 -53.5t-29.5 -73t-9.5 -83.5q0 -35 6 -67t19 -62.5t32.5 -53t49.5 -36t67 -13.5q55 0 148 37l31 -105q-63 -40 -160 -48q1 -2 4 -7 q11 -22 16 -33t9.5 -29t4.5 -38q0 -43 -28 -64.5t-76 -16.5q-41 5 -75 25v96l49 -16q33 -11 29 16q-2 22 -29 70h5q-115 20 -182 116t-67 229z" />
<glyph unicode="&#xc8;" horiz-adv-x="512" d="M48 0v674h427v-117h-281v-159h260v-117h-260v-164h286v-117h-432zM109 898h142l81 -154h-111z" />
<glyph unicode="&#xc9;" horiz-adv-x="512" d="M48 0v674h427v-117h-281v-159h260v-117h-260v-164h286v-117h-432zM172 744l81 154h142l-112 -154h-111z" />
<glyph unicode="&#xca;" horiz-adv-x="512" d="M48 0v674h427v-117h-281v-159h260v-117h-260v-164h286v-117h-432zM98 752l93 167h129l94 -167h-121l-38 75l-35 -75h-122z" />
<glyph unicode="&#xcb;" horiz-adv-x="512" d="M48 0v674h427v-117h-281v-159h260v-117h-260v-164h286v-117h-432zM116 759v116h122v-116h-122zM273 759v116h122v-116h-122z" />
<glyph unicode="&#xcc;" horiz-adv-x="241" d="M-31 898h142l81 -154h-111zM48 0v674h145v-674h-145z" />
<glyph unicode="&#xcd;" horiz-adv-x="241" d="M47 744l81 154h142l-112 -154h-111zM48 0v674h145v-674h-145z" />
<glyph unicode="&#xce;" horiz-adv-x="241" d="M-37 752l93 167h129l94 -167h-121l-38 75l-35 -75h-122zM48 0v674h145v-674h-145z" />
<glyph unicode="&#xcf;" horiz-adv-x="241" d="M-19 759v116h122v-116h-122zM48 0v674h145v-674h-145zM138 759v116h122v-116h-122z" />
<glyph unicode="&#xd0;" horiz-adv-x="630" d="M1 283v111h80v280h228q142 0 222 -85.5t80 -251.5t-80 -251.5t-222 -85.5h-228v283h-80zM226 117h86q68 0 111.5 54.5t43.5 165.5q0 114 -42.5 167t-115.5 53h-83v-163h135v-111h-135v-166z" />
<glyph unicode="&#xd1;" horiz-adv-x="597" d="M48 0v674h176l180 -428v428h144v-674h-167l-188 435v-435h-145zM156 756q3 69 23 102t74 33q23 0 52 -19q23 -14 27 -14q5 0 10.5 12t4.5 28h93q-3 -68 -23 -101.5t-74 -33.5q-31 0 -53 22q-17 13 -24 13q-15 0 -18 -42h-92z" />
<glyph unicode="&#xd2;" horiz-adv-x="640" d="M27 337q0 163 78.5 255.5t214.5 92.5t214.5 -92.5t78.5 -255.5t-79 -256.5t-214 -93.5t-214 93.5t-79 256.5zM149 898h142l81 -154h-111zM177 337q0 -104 36.5 -169.5t106.5 -65.5t106.5 65.5t36.5 169.5q0 100 -37 166.5t-106 66.5t-106 -66.5t-37 -166.5z" />
<glyph unicode="&#xd3;" horiz-adv-x="640" d="M27 337q0 163 78.5 255.5t214.5 92.5t214.5 -92.5t78.5 -255.5t-79 -256.5t-214 -93.5t-214 93.5t-79 256.5zM177 337q0 -104 36.5 -169.5t106.5 -65.5t106.5 65.5t36.5 169.5q0 100 -37 166.5t-106 66.5t-106 -66.5t-37 -166.5zM259 744l81 154h142l-112 -154h-111z" />
<glyph unicode="&#xd4;" horiz-adv-x="640" d="M27 337q0 163 78.5 255.5t214.5 92.5t214.5 -92.5t78.5 -255.5t-79 -256.5t-214 -93.5t-214 93.5t-79 256.5zM162 752l93 167h129l94 -167h-121l-38 75l-35 -75h-122zM177 337q0 -104 36.5 -169.5t106.5 -65.5t106.5 65.5t36.5 169.5q0 100 -37 166.5t-106 66.5 t-106 -66.5t-37 -166.5z" />
<glyph unicode="&#xd5;" horiz-adv-x="640" d="M27 337q0 163 78.5 255.5t214.5 92.5t214.5 -92.5t78.5 -255.5t-79 -256.5t-214 -93.5t-214 93.5t-79 256.5zM177 337q0 -104 36.5 -169.5t106.5 -65.5t106.5 65.5t36.5 169.5q0 100 -37 166.5t-106 66.5t-106 -66.5t-37 -166.5zM178 756q3 69 23 102t74 33q23 0 52 -19 q23 -14 27 -14q5 0 10.5 12t4.5 28h93q-3 -68 -23 -101.5t-74 -33.5q-31 0 -53 22q-17 13 -24 13q-15 0 -18 -42h-92z" />
<glyph unicode="&#xd6;" horiz-adv-x="640" d="M27 337q0 163 78.5 255.5t214.5 92.5t214.5 -92.5t78.5 -255.5t-79 -256.5t-214 -93.5t-214 93.5t-79 256.5zM177 337q0 -104 36.5 -169.5t106.5 -65.5t106.5 65.5t36.5 169.5q0 100 -37 166.5t-106 66.5t-106 -66.5t-37 -166.5zM180 759v116h122v-116h-122zM337 759v116 h122v-116h-122z" />
<glyph unicode="&#xd7;" horiz-adv-x="511" d="M29 139l150 176l-150 177l76 90l151 -177l149 176l77 -89l-150 -177l150 -175l-77 -90l-149 175l-151 -176z" />
<glyph unicode="&#xd8;" horiz-adv-x="640" d="M27 337q0 163 78.5 255.5t214.5 92.5q77 0 138 -32l36 65h86l-61 -108h-1q95 -93 95 -273q0 -163 -79 -256.5t-214 -93.5q-72 0 -131 27l-39 -69h-86l63 112h1q-101 96 -101 280zM177 337q0 -86 25 -145l192 348h1q-33 30 -75 30q-69 0 -106 -66.5t-37 -166.5zM249 126 q32 -24 71 -24q70 0 106.5 65.5t36.5 169.5q0 75 -22 133l-190 -344h-2z" />
<glyph unicode="&#xd9;" horiz-adv-x="612" d="M48 302v372h147v-374q0 -99 26.5 -147.5t84.5 -48.5q59 0 86 48.5t27 147.5v374h145v-372q0 -171 -65.5 -243t-192.5 -72q-126 0 -192 72.5t-66 242.5zM158 898h142l81 -154h-111z" />
<glyph unicode="&#xda;" horiz-adv-x="612" d="M48 302v372h147v-374q0 -99 26.5 -147.5t84.5 -48.5q59 0 86 48.5t27 147.5v374h145v-372q0 -171 -65.5 -243t-192.5 -72q-126 0 -192 72.5t-66 242.5zM231 744l81 154h142l-112 -154h-111z" />
<glyph unicode="&#xdb;" horiz-adv-x="612" d="M48 302v372h147v-374q0 -99 26.5 -147.5t84.5 -48.5q59 0 86 48.5t27 147.5v374h145v-372q0 -171 -65.5 -243t-192.5 -72q-126 0 -192 72.5t-66 242.5zM148 752l93 167h129l94 -167h-121l-38 75l-35 -75h-122z" />
<glyph unicode="&#xdc;" horiz-adv-x="612" d="M48 302v372h147v-374q0 -99 26.5 -147.5t84.5 -48.5q59 0 86 48.5t27 147.5v374h145v-372q0 -171 -65.5 -243t-192.5 -72q-126 0 -192 72.5t-66 242.5zM166 759v116h122v-116h-122zM323 759v116h122v-116h-122z" />
<glyph unicode="&#xdd;" horiz-adv-x="591" d="M2 674h163l131 -298l129 298h163l-219 -436h1v-238h-148v237h1zM184 744l81 154h142l-112 -154h-111z" />
<glyph unicode="&#xde;" horiz-adv-x="505" d="M48 0v674h146v-145q16 28 46.5 41.5t55.5 13.5q78 0 132 -66.5t54 -192.5t-56.5 -192t-145.5 -66q-18 0 -44 11.5t-42 36.5q0 -17 -0.5 -57t-0.5 -58h-145zM194 255q0 -76 73 -76q34 0 50 42t16 104q0 148 -81 148q-5 0 -10 -1t-14.5 -6t-16 -14.5t-12 -28t-5.5 -44.5 v-124z" />
<glyph unicode="&#xdf;" horiz-adv-x="519" d="M48 0v455q2 104 55.5 167t147.5 63q35 0 70 -9.5t67.5 -29.5t53 -57.5t20.5 -86.5q0 -75 -64 -123h-1q95 -50 95 -174q0 -82 -55.5 -143.5t-155.5 -61.5h-66v108h66q35 0 56.5 32.5t21.5 71.5q0 50 -20.5 85t-58.5 36q-4 0 -17 1t-18 1v83l35 2q17 0 29.5 23.5t12.5 58.5 q0 34 -17.5 55.5t-53.5 21.5q-59 0 -59 -124v-455h-144z" />
<glyph unicode="&#xe0;" horiz-adv-x="451" d="M18 147q0 74 68 120t187 57v8q0 63 -55 63q-31 0 -64 -10.5t-50 -20.5l-17 -11l-39 92q0 2 23 14.5t69.5 26.5t93.5 14q5 0 11 -0.5t21 -1.5t29 -5.5t31.5 -11.5t32 -20t27 -29.5t19.5 -41.5t7 -56v-334h-142v50q-34 -58 -116 -58q-46 0 -91 38.5t-45 116.5zM79 708h142 l81 -154h-111zM152 152q0 -23 11.5 -39t28.5 -16q12 0 28 4.5t34.5 24t18.5 49.5v65q-54 -10 -87.5 -33t-33.5 -55z" />
<glyph unicode="&#xe1;" horiz-adv-x="451" d="M18 147q0 74 68 120t187 57v8q0 63 -55 63q-31 0 -64 -10.5t-50 -20.5l-17 -11l-39 92q0 2 23 14.5t69.5 26.5t93.5 14q5 0 11 -0.5t21 -1.5t29 -5.5t31.5 -11.5t32 -20t27 -29.5t19.5 -41.5t7 -56v-334h-142v50q-34 -58 -116 -58q-46 0 -91 38.5t-45 116.5zM149 554 l81 154h142l-112 -154h-111zM152 152q0 -23 11.5 -39t28.5 -16q12 0 28 4.5t34.5 24t18.5 49.5v65q-54 -10 -87.5 -33t-33.5 -55z" />
<glyph unicode="&#xe2;" horiz-adv-x="451" d="M18 147q0 74 68 120t187 57v8q0 63 -55 63q-31 0 -64 -10.5t-50 -20.5l-17 -11l-39 92q0 2 23 14.5t69.5 26.5t93.5 14q5 0 11 -0.5t21 -1.5t29 -5.5t31.5 -11.5t32 -20t27 -29.5t19.5 -41.5t7 -56v-334h-142v50q-34 -58 -116 -58q-46 0 -91 38.5t-45 116.5zM67 562 l93 167h129l94 -167h-121l-38 75l-35 -75h-122zM152 152q0 -23 11.5 -39t28.5 -16q12 0 28 4.5t34.5 24t18.5 49.5v65q-54 -10 -87.5 -33t-33.5 -55z" />
<glyph unicode="&#xe3;" horiz-adv-x="451" d="M18 147q0 74 68 120t187 57v8q0 63 -55 63q-31 0 -64 -10.5t-50 -20.5l-17 -11l-39 92q0 2 23 14.5t69.5 26.5t93.5 14q5 0 11 -0.5t21 -1.5t29 -5.5t31.5 -11.5t32 -20t27 -29.5t19.5 -41.5t7 -56v-334h-142v50q-34 -58 -116 -58q-46 0 -91 38.5t-45 116.5zM83 566 q3 69 23 102t74 33q23 0 52 -19q23 -14 27 -14q5 0 10.5 12t4.5 28h93q-3 -68 -23 -101.5t-74 -33.5q-31 0 -53 22q-17 13 -24 13q-15 0 -18 -42h-92zM152 152q0 -23 11.5 -39t28.5 -16q12 0 28 4.5t34.5 24t18.5 49.5v65q-54 -10 -87.5 -33t-33.5 -55z" />
<glyph unicode="&#xe4;" horiz-adv-x="451" d="M18 147q0 74 68 120t187 57v8q0 63 -55 63q-31 0 -64 -10.5t-50 -20.5l-17 -11l-39 92q0 2 23 14.5t69.5 26.5t93.5 14q5 0 11 -0.5t21 -1.5t29 -5.5t31.5 -11.5t32 -20t27 -29.5t19.5 -41.5t7 -56v-334h-142v50q-34 -58 -116 -58q-46 0 -91 38.5t-45 116.5zM86 569v116 h122v-116h-122zM152 152q0 -23 11.5 -39t28.5 -16q12 0 28 4.5t34.5 24t18.5 49.5v65q-54 -10 -87.5 -33t-33.5 -55zM243 569v116h122v-116h-122z" />
<glyph unicode="&#xe5;" horiz-adv-x="451" d="M18 147q0 74 68 120t187 57v8q0 63 -55 63q-31 0 -64 -10.5t-50 -20.5l-17 -11l-39 92q0 2 23 14.5t69.5 26.5t93.5 14q5 0 11 -0.5t21 -1.5t29 -5.5t31.5 -11.5t32 -20t27 -29.5t19.5 -41.5t7 -56v-334h-142v50q-34 -58 -116 -58q-46 0 -91 38.5t-45 116.5zM123 665 q0 45 24.5 74.5t77.5 29.5q54 0 78 -29t24 -75q0 -104 -102 -104q-53 0 -77.5 29.5t-24.5 74.5zM152 152q0 -23 11.5 -39t28.5 -16q12 0 28 4.5t34.5 24t18.5 49.5v65q-54 -10 -87.5 -33t-33.5 -55zM195 665q0 -20 7.5 -33.5t21.5 -13.5t22 13.5t8 33.5q0 19 -8 32.5 t-22 13.5t-21.5 -13.5t-7.5 -32.5z" />
<glyph unicode="&#xe6;" horiz-adv-x="731" d="M18 147q0 74 68 120t187 57v8q0 63 -55 63q-31 0 -64 -10.5t-50 -20.5l-17 -11l-39 92q0 2 23 14.5t69.5 26.5t93.5 14q82 0 130 -45q51 43 129 43q99 0 157 -72t58 -181q0 -24 -3 -48h-293v-8q20 -97 112 -97q60 0 130 42l28 -92q-73 -54 -181 -54q-107 0 -169 79 q-48 -75 -144 -75q-69 0 -119.5 37.5t-50.5 117.5zM152 152q0 -23 11.5 -39t28.5 -16q12 0 28 4.5t34.5 24t18.5 49.5v58q-121 -23 -121 -81zM411 292h169q-2 43 -24 71t-60 28q-37 0 -60 -28t-25 -71z" />
<glyph unicode="&#xe7;" horiz-adv-x="418" d="M23 242q0 119 60.5 187.5t164.5 68.5q79 0 152 -42l-27 -101q-50 30 -111 30q-49 0 -74 -41.5t-25 -101.5t25 -101t74 -41q57 0 111 27l26 -99q-52 -30 -114 -38h5q35 -59 35 -107q0 -43 -28 -65t-76 -17q-41 5 -76 25v96l49 -16q34 -11 30 17q-3 23 -29 69h5 q-83 14 -130 80.5t-47 169.5z" />
<glyph unicode="&#xe8;" horiz-adv-x="476" d="M23 242q0 112 58.5 184t156.5 72q99 0 157 -72t58 -181q0 -24 -3 -48h-294q9 -48 37.5 -76.5t75.5 -28.5q60 0 130 42l28 -92q-73 -54 -181 -54q-105 0 -164 73.5t-59 180.5zM81 708h142l81 -154h-111zM156 289h169q-2 43 -24 71t-60 28q-37 0 -60 -28t-25 -71z" />
<glyph unicode="&#xe9;" horiz-adv-x="476" d="M23 242q0 112 58.5 184t156.5 72q99 0 157 -72t58 -181q0 -24 -3 -48h-294q9 -48 37.5 -76.5t75.5 -28.5q60 0 130 42l28 -92q-73 -54 -181 -54q-105 0 -164 73.5t-59 180.5zM156 289h169q-2 43 -24 71t-60 28q-37 0 -60 -28t-25 -71zM172 554l81 154h142l-112 -154h-111 z" />
<glyph unicode="&#xea;" horiz-adv-x="476" d="M23 242q0 112 58.5 184t156.5 72q99 0 157 -72t58 -181q0 -24 -3 -48h-294q9 -48 37.5 -76.5t75.5 -28.5q60 0 130 42l28 -92q-73 -54 -181 -54q-105 0 -164 73.5t-59 180.5zM80 562l93 167h129l94 -167h-121l-38 75l-35 -75h-122zM156 289h169q-2 43 -24 71t-60 28 q-37 0 -60 -28t-25 -71z" />
<glyph unicode="&#xeb;" horiz-adv-x="476" d="M23 242q0 112 58.5 184t156.5 72q99 0 157 -72t58 -181q0 -24 -3 -48h-294q9 -48 37.5 -76.5t75.5 -28.5q60 0 130 42l28 -92q-73 -54 -181 -54q-105 0 -164 73.5t-59 180.5zM98 569v116h122v-116h-122zM156 289h169q-2 43 -24 71t-60 28q-37 0 -60 -28t-25 -71zM255 569 v116h122v-116h-122z" />
<glyph unicode="&#xec;" horiz-adv-x="231" d="M-36 708h142l81 -154h-111zM44 0v484h143v-484h-143z" />
<glyph unicode="&#xed;" horiz-adv-x="231" d="M44 0v484h143v-484h-143zM44 554l81 154h142l-112 -154h-111z" />
<glyph unicode="&#xee;" horiz-adv-x="231" d="M-42 562l93 167h129l94 -167h-121l-38 75l-35 -75h-122zM44 0v484h143v-484h-143z" />
<glyph unicode="&#xef;" horiz-adv-x="231" d="M-24 569v116h122v-116h-122zM44 0v484h143v-484h-143zM133 569v116h122v-116h-122z" />
<glyph unicode="&#xf0;" horiz-adv-x="472" d="M18 240q0 91 56 162.5t126 71.5q26 0 45 -9q-28 44 -76 77q-19 -24 -67 -80l-47 54l56 67q-27 26 -65 52l72 77q41 -19 70 -40l57 67l52 -49l-47 -56q84 -79 143.5 -184.5t59.5 -209.5q0 -117 -58.5 -184t-159.5 -67q-100 0 -158.5 67t-58.5 184zM166 240q0 -55 18 -95 t51 -40t52 40.5t19 94.5q0 55 -19 96t-52 41t-51 -40.5t-18 -96.5z" />
<glyph unicode="&#xf1;" horiz-adv-x="480" d="M40 0v484h137v-55q42 69 112 69q74 0 112.5 -50t38.5 -168v-280h-142v280q0 108 -46 108q-8 0 -18.5 -4.5t-22.5 -15t-20.5 -33t-8.5 -53.5v-282h-142zM98 566q3 69 23 102t74 33q23 0 52 -19q23 -14 27 -14q5 0 10.5 12t4.5 28h93q-3 -68 -23 -101.5t-74 -33.5 q-31 0 -53 22q-17 13 -24 13q-15 0 -18 -42h-92z" />
<glyph unicode="&#xf2;" horiz-adv-x="481" d="M23 243q0 118 58 186.5t159 68.5t159.5 -68.5t58.5 -186.5t-58.5 -187t-159.5 -69q-100 0 -158.5 68.5t-58.5 187.5zM73 708h142l81 -154h-111zM164 243q0 -59 20.5 -103t55.5 -44t56 44.5t21 102.5t-20.5 102t-56.5 44t-56 -43.5t-20 -102.5z" />
<glyph unicode="&#xf3;" horiz-adv-x="481" d="M23 243q0 118 58 186.5t159 68.5t159.5 -68.5t58.5 -186.5t-58.5 -187t-159.5 -69q-100 0 -158.5 68.5t-58.5 187.5zM164 243q0 -59 20.5 -103t55.5 -44t56 44.5t21 102.5t-20.5 102t-56.5 44t-56 -43.5t-20 -102.5zM176 554l81 154h142l-112 -154h-111z" />
<glyph unicode="&#xf4;" horiz-adv-x="481" d="M23 243q0 118 58 186.5t159 68.5t159.5 -68.5t58.5 -186.5t-58.5 -187t-159.5 -69q-100 0 -158.5 68.5t-58.5 187.5zM82 562l93 167h129l94 -167h-121l-38 75l-35 -75h-122zM164 243q0 -59 20.5 -103t55.5 -44t56 44.5t21 102.5t-20.5 102t-56.5 44t-56 -43.5t-20 -102.5 z" />
<glyph unicode="&#xf5;" horiz-adv-x="481" d="M23 243q0 118 58 186.5t159 68.5t159.5 -68.5t58.5 -186.5t-58.5 -187t-159.5 -69q-100 0 -158.5 68.5t-58.5 187.5zM98 566q3 69 23 102t74 33q23 0 52 -19q23 -14 27 -14q5 0 10.5 12t4.5 28h93q-3 -68 -23 -101.5t-74 -33.5q-31 0 -53 22q-17 13 -24 13q-15 0 -18 -42 h-92zM164 243q0 -59 20.5 -103t55.5 -44t56 44.5t21 102.5t-20.5 102t-56.5 44t-56 -43.5t-20 -102.5z" />
<glyph unicode="&#xf6;" horiz-adv-x="481" d="M23 243q0 118 58 186.5t159 68.5t159.5 -68.5t58.5 -186.5t-58.5 -187t-159.5 -69q-100 0 -158.5 68.5t-58.5 187.5zM101 569v116h122v-116h-122zM164 243q0 -59 20.5 -103t55.5 -44t56 44.5t21 102.5t-20.5 102t-56.5 44t-56 -43.5t-20 -102.5zM258 569v116h122v-116 h-122z" />
<glyph unicode="&#xf7;" horiz-adv-x="502" d="M27 282v113h448v-113h-448zM171 91v130h149v-130h-149zM171 461v130h149v-130h-149z" />
<glyph unicode="&#xf8;" horiz-adv-x="490" d="M27 243q0 118 58.5 186.5t158.5 68.5q44 0 84 -15l26 47h86l-48 -87h-1q72 -72 72 -200q0 -118 -59 -187t-160 -69q-53 0 -94 19l-28 -50h-86l52 95h1q-62 70 -62 192zM168 243q0 -21 3 -42l99 177h2q-14 11 -28 11q-35 0 -55.5 -43.5t-20.5 -102.5zM208 113 q17 -17 36 -17q35 0 56 44.5t21 102.5q0 34 -7 61l-105 -191h-1z" />
<glyph unicode="&#xf9;" horiz-adv-x="489" d="M44 204v280h142v-280q0 -105 46 -105q7 0 15.5 2t22.5 9.5t23 27.5t9 49v297h143v-484h-138v51q-13 -20 -31 -34.5t-34.5 -20t-26.5 -7.5t-16 -2q-60 -1 -107.5 52t-47.5 165zM94 708h142l81 -154h-111z" />
<glyph unicode="&#xfa;" horiz-adv-x="489" d="M44 204v280h142v-280q0 -105 46 -105q7 0 15.5 2t22.5 9.5t23 27.5t9 49v297h143v-484h-138v51q-13 -20 -31 -34.5t-34.5 -20t-26.5 -7.5t-16 -2q-60 -1 -107.5 52t-47.5 165zM172 554l81 154h142l-112 -154h-111z" />
<glyph unicode="&#xfb;" horiz-adv-x="489" d="M44 204v280h142v-280q0 -105 46 -105q7 0 15.5 2t22.5 9.5t23 27.5t9 49v297h143v-484h-138v51q-13 -20 -31 -34.5t-34.5 -20t-26.5 -7.5t-16 -2q-60 -1 -107.5 52t-47.5 165zM86 562l93 167h129l94 -167h-121l-38 75l-35 -75h-122z" />
<glyph unicode="&#xfc;" horiz-adv-x="489" d="M44 204v280h142v-280q0 -105 46 -105q7 0 15.5 2t22.5 9.5t23 27.5t9 49v297h143v-484h-138v51q-13 -20 -31 -34.5t-34.5 -20t-26.5 -7.5t-16 -2q-60 -1 -107.5 52t-47.5 165zM105 569v116h122v-116h-122zM262 569v116h122v-116h-122z" />
<glyph unicode="&#xfd;" horiz-adv-x="491" d="M1 484h149l97 -303l94 303h149l-212 -585q-12 -34 -40 -54t-49 -25t-40 -5q-29 0 -83 23l10 94q18 -12 50 -12q19 0 31 37l21 60q-30 84 -177 467zM134 554l81 154h142l-112 -154h-111z" />
<glyph unicode="&#xfe;" horiz-adv-x="494" d="M48 -185v859h143v-229q36 53 98 53q79 0 130.5 -66t51.5 -190q0 -125 -50.5 -190t-134.5 -65q-8 0 -20.5 2t-36 13.5t-39.5 31.5v-219h-142zM191 175q0 -45 21.5 -61.5t47.5 -16.5q34 0 49.5 42t15.5 103q0 144 -78 144q-9 0 -20 -4t-23.5 -24.5t-12.5 -55.5v-127z" />
<glyph unicode="&#xff;" horiz-adv-x="491" d="M1 484h149l97 -303l94 303h149l-212 -585q-12 -34 -40 -54t-49 -25t-40 -5q-29 0 -83 23l10 94q18 -12 50 -12q19 0 31 37l21 60q-30 84 -177 467zM106 569v116h122v-116h-122zM263 569v116h122v-116h-122z" />
<glyph unicode="&#x152;" horiz-adv-x="928" d="M27 337q0 160 78.5 254t202.5 94q99 0 156 -68v57h427v-117h-281v-159h260v-117h-260v-164h287v-117h-433v48q-55 -59 -156 -59q-127 0 -204 93t-77 255zM176 337q0 -103 37 -168t107 -65t106.5 65t36.5 168q0 100 -37 166.5t-106 66.5t-106.5 -66.5t-37.5 -166.5z" />
<glyph unicode="&#x153;" horiz-adv-x="779" d="M23 242q0 118 58.5 186.5t159.5 68.5q87 0 146 -67q72 68 154 68q99 0 156.5 -70.5t57.5 -178.5q0 -23 -3 -49h-289q3 -50 30.5 -79t77.5 -29q66 0 139 45l20 -95q-73 -54 -181 -54q-49 0 -89 21t-63 57q-23 -36 -66.5 -57t-89.5 -21q-101 0 -159.5 68t-58.5 186z M165 242q0 -59 20 -102.5t56 -43.5q35 0 55.5 43.5t20.5 102.5q0 58 -20.5 102t-55.5 44q-36 0 -56 -43.5t-20 -102.5zM460 289h169q-2 43 -24 71t-60 28q-37 0 -60 -28t-25 -71z" />
<glyph unicode="&#x178;" horiz-adv-x="591" d="M2 674h163l131 -298l129 298h163l-219 -436h1v-238h-148v237h1zM156 759v116h122v-116h-122zM313 759v116h122v-116h-122z" />
<glyph unicode="&#x2c6;" horiz-adv-x="388" d="M36 562l93 167h129l94 -167h-121l-38 75l-35 -75h-122z" />
<glyph unicode="&#x2dc;" horiz-adv-x="320" d="M18 566q3 69 23 102t74 33q23 0 52 -19q23 -14 27 -14q5 0 10.5 12t4.5 28h93q-3 -68 -23 -101.5t-74 -33.5q-31 0 -53 22q-17 13 -24 13q-15 0 -18 -42h-92z" />
<glyph unicode="&#x2000;" horiz-adv-x="479" />
<glyph unicode="&#x2001;" horiz-adv-x="959" />
<glyph unicode="&#x2002;" horiz-adv-x="479" />
<glyph unicode="&#x2003;" horiz-adv-x="959" />
<glyph unicode="&#x2004;" horiz-adv-x="319" />
<glyph unicode="&#x2005;" horiz-adv-x="239" />
<glyph unicode="&#x2006;" horiz-adv-x="159" />
<glyph unicode="&#x2007;" horiz-adv-x="159" />
<glyph unicode="&#x2008;" horiz-adv-x="119" />
<glyph unicode="&#x2009;" horiz-adv-x="191" />
<glyph unicode="&#x200a;" horiz-adv-x="53" />
<glyph unicode="&#x2010;" horiz-adv-x="387" d="M27 196v128h333v-128h-333z" />
<glyph unicode="&#x2011;" horiz-adv-x="387" d="M27 196v128h333v-128h-333z" />
<glyph unicode="&#x2012;" horiz-adv-x="387" d="M27 196v128h333v-128h-333z" />
<glyph unicode="&#x2013;" horiz-adv-x="499" d="M27 198v119h445v-119h-445z" />
<glyph unicode="&#x2014;" horiz-adv-x="639" d="M27 199v118h585v-118h-585z" />
<glyph unicode="&#x2018;" horiz-adv-x="320" d="M36 436l131 238h117l-105 -238h-143z" />
<glyph unicode="&#x2019;" horiz-adv-x="320" d="M36 436l105 238h143l-130 -238h-118z" />
<glyph unicode="&#x201a;" horiz-adv-x="303" d="M28 -108l105 238h142l-130 -238h-117z" />
<glyph unicode="&#x201c;" horiz-adv-x="501" d="M36 674h143l105 -238h-117zM217 674h143l104 -238h-117z" />
<glyph unicode="&#x201d;" horiz-adv-x="501" d="M36 436l105 238h143l-130 -238h-118zM217 436l104 238h143l-130 -238h-117z" />
<glyph unicode="&#x201e;" horiz-adv-x="484" d="M28 -108l105 238h142l-130 -238h-117zM208 -108l105 238h143l-130 -238h-118z" />
<glyph unicode="&#x2022;" horiz-adv-x="316" d="M35 300q0 51 35.5 86.5t86.5 35.5q52 0 88 -35.5t36 -86.5q0 -52 -36 -87t-88 -35q-51 0 -86.5 35t-35.5 87z" />
<glyph unicode="&#x2026;" horiz-adv-x="592" d="M35 0v130h144v-130h-144zM225 0v130h142v-130h-142zM415 0v130h142v-130h-142z" />
<glyph unicode="&#x202f;" horiz-adv-x="191" />
<glyph unicode="&#x2039;" horiz-adv-x="313" d="M36 325l112 232h128l-113 -232l113 -232h-128z" />
<glyph unicode="&#x203a;" horiz-adv-x="313" d="M36 93l114 232q-18 37 -56.5 116t-57.5 116h129l111 -232l-111 -232h-129z" />
<glyph unicode="&#x205f;" horiz-adv-x="239" />
<glyph unicode="&#x20ac;" horiz-adv-x="592" d="M11 350l34 83h72q26 105 101 169t186 64q98 0 159 -49l-41 -99q-47 37 -101 37q-116 0 -158 -122h238l-39 -83h-215q-2 -24 -2 -54h203l-39 -83h-143q21 -50 61 -81t94 -31q49 0 97 40l39 -103q-80 -49 -153 -49q-104 0 -179 62.5t-105 161.5h-108l30 83h63q0 24 3 54 h-97z" />
<glyph unicode="&#x2122;" horiz-adv-x="705" d="M6 605v69h392l78 -267l79 267h102l21 -399h-90l-8 219l-66 -219h-76l-64 215l-9 -215h-91l17 330h-92v-330h-91v330h-102z" />
<glyph unicode="&#xe000;" horiz-adv-x="485" d="M0 0v485h485v-485h-485z" />
</font>
</defs>
</svg>
