<?xml version="1.0" standalone="no"?>
<!DOCTYPE svg PUBLIC "-//W3C//DTD SVG 1.1//EN" "http://www.w3.org/Graphics/SVG/1.1/DTD/svg11.dtd" >
<svg xmlns="http://www.w3.org/2000/svg">
<metadata></metadata>
<defs>
<font id="IntervalSansProCondSemiBoldIt" horiz-adv-x="501" >
<font-face units-per-em="1000" ascent="750" descent="-250" />
<missing-glyph horiz-adv-x="236" />
<glyph unicode="&#xfb01;" horiz-adv-x="459" d="M26 -192l84 591h-49l12 85h49l6 42q6 46 22 78.5t32 47.5t38.5 23.5t33 9t25.5 0.5h4q39 0 76 -27l-22 -75q-35 17 -54 17q-29 0 -38 -57l-8 -59h242l-68 -484h-116l56 399h-126l-83 -591h-116z" />
<glyph unicode="&#xfb02;" horiz-adv-x="459" d="M26 -192l84 591h-49l12 85h49l4 31q6 45 23 77.5t34.5 47.5t41 23.5t34 9.5t23.5 1h224l-95 -674h-116l83 589h-96q-32 0 -38 -57l-7 -48h76l-12 -85h-76l-83 -591h-116z" />
<glyph unicode="&#xfb03;" horiz-adv-x="706" d="M26 -192l84 591h-49l12 85h49l6 42q6 46 22 78.5t32 47.5t38.5 23.5t33 9t25.5 0.5h4q39 0 76 -27l-22 -75q-35 17 -54 17q-29 0 -38 -57l-8 -59h132l6 42q6 46 22 78.5t32 47.5t38.5 23.5t33 9t25.5 0.5h2h2q39 0 77 -27l-22 -75q-35 17 -55 17q-29 0 -38 -57l-8 -59 h242l-68 -484h-115l56 399h-127l-83 -591h-115l83 591h-132l-83 -591h-116z" />
<glyph unicode="fll" horiz-adv-x="706" d="M26 -192l84 591h-49l12 85h49l6 42q6 46 22 78.5t32 47.5t38.5 23.5t33 9t25.5 0.5h4q39 0 76 -27l-22 -75q-35 17 -54 17q-29 0 -38 -57l-8 -59h132l6 42q6 45 23 77.5t34 47.5t40.5 23.5t34 9.5t23.5 1h224l-96 -685h-115l84 600h-97q-29 0 -38 -57l-8 -59h77l-12 -85 h-77l-83 -591h-115l83 591h-132l-83 -591h-116z" />
<glyph horiz-adv-x="0" />
<glyph horiz-adv-x="1000" />
<glyph unicode=" "  horiz-adv-x="236" />
<glyph unicode="&#x09;" horiz-adv-x="236" />
<glyph unicode="&#xa0;" horiz-adv-x="236" />
<glyph unicode="!" horiz-adv-x="229" d="M56 0l15 106h116l-15 -106h-116zM91 170l64 504h109l-78 -504h-95z" />
<glyph unicode="&#x22;" horiz-adv-x="333" d="M101 378l33 296h106l-50 -296h-89zM250 378l33 296h106l-50 -296h-89z" />
<glyph unicode="#" horiz-adv-x="530" d="M38 0l75 184h-56l12 88h80l47 120h-66l13 86h91l77 186h109l-77 -186h58l77 186h107l-77 -186h58l-12 -86h-83l-48 -120h65l-13 -88h-89q-15 -34 -41.5 -98t-35.5 -86h-104l76 184h-58l-78 -184h-107zM258 272h59l49 120h-60z" />
<glyph unicode="$" d="M35 89l61 92q33 -39 83.5 -63.5t99.5 -24.5q68 0 101 62q14 32 5.5 58.5t-34.5 42.5l-147 72q-51 25 -75 65t-24 83q0 82 58.5 137t140.5 68h-3l12 85h90l-12 -85q19 -3 59 -16q51 -23 89 -63l-53 -92q-71 74 -160 74q-34 0 -60.5 -20.5t-34.5 -50.5q-15 -57 48 -87 l137 -67q47 -25 69.5 -65.5t22.5 -83.5q0 -92 -63 -151t-151 -68l-13 -92h-90l14 94q-34 5 -62 18q-72 33 -108 78z" />
<glyph unicode="%" horiz-adv-x="709" d="M103 459q0 93 45.5 149t120.5 56q56 0 88 -37t32 -103q0 -92 -46.5 -148.5t-121.5 -56.5q-56 0 -87 37t-31 103zM159 0l429 674h62l-429 -674h-62zM189 471q0 -68 44 -68q32 0 51 33t19 76q0 30 -11.5 49.5t-33.5 19.5q-33 0 -51 -33t-18 -77zM412 129q0 93 46 149 t120 56q57 0 88.5 -37t31.5 -103q0 -93 -46.5 -149t-122.5 -56q-55 0 -86 37t-31 103zM498 141q0 -30 11 -49t32 -19q33 0 52 33t19 76q0 30 -11.5 49.5t-34.5 19.5q-32 0 -50 -32.5t-18 -77.5z" />
<glyph unicode="&#x26;" horiz-adv-x="545" d="M54 157q0 71 38.5 123.5t101.5 83.5h-1q-32 33 -41 75.5t-1 81.5q14 72 67 112t115 40q59 0 100 -41.5t38 -109.5q-7 -44 -36 -94t-77 -82l53 -79q1 6 5 21t5 22l5 36h97q-10 -105 -45 -172h-1q23 -32 34 -51t18 -51.5t1 -71.5h-104q6 53 -6 80q-28 -38 -76.5 -64.5 t-106.5 -26.5q-91 0 -137 47.5t-46 120.5zM167 170q0 -43 21 -68.5t61 -25.5q64 0 107 74h1l-100 147q-36 -12 -63 -45t-27 -82zM257 518q-6 -33 4.5 -67t32.5 -43q29 14 48 45t22 65q2 30 -8.5 50.5t-34.5 21.5q-25 -1 -41.5 -22t-22.5 -50z" />
<glyph unicode="'" horiz-adv-x="184" d="M101 378l33 296h106l-50 -296h-89z" />
<glyph unicode="(" horiz-adv-x="337" d="M82 241q29 201 111 317t191 116l-12 -82q-75 -1 -135.5 -126t-60.5 -342q0 -115 27 -174t70 -60l-11 -82q-109 0 -158.5 116t-21.5 317z" />
<glyph unicode=")" horiz-adv-x="337" d="M21 -192l12 82q74 1 135.5 125t61.5 340q0 117 -28 176.5t-71 60.5l12 82q89 0 139.5 -87t50.5 -238q0 -236 -89.5 -388.5t-222.5 -152.5z" />
<glyph unicode="*" horiz-adv-x="358" d="M96 462l88 44q-13 7 -40.5 24t-34.5 21l54 84l61 -51q2 9 3 27t3 27q0 21 3 36h83l-17 -88l73 49l33 -83l-90 -46l77 -44l-56 -84l-59 49l-8 -88h-83l16 90l-75 -51z" />
<glyph unicode="+" horiz-adv-x="495" d="M69 271l14 99h167l27 193h99l-27 -193h167l-14 -99h-167l-27 -192h-99l27 192h-167z" />
<glyph unicode="," horiz-adv-x="264" d="M20 -78l108 195h121l-133 -195h-96z" />
<glyph unicode="-" horiz-adv-x="375" d="M60 203l16 115h313l-16 -115h-313z" />
<glyph unicode="." horiz-adv-x="201" d="M39 0l16 117h123l-16 -117h-123z" />
<glyph unicode="/" horiz-adv-x="326" d="M22 0l293 674h84l-293 -674h-84z" />
<glyph unicode="0" d="M72 249q0 185 74.5 298.5t194.5 113.5q87 0 134 -68t47 -189q0 -184 -76.5 -300.5t-199.5 -116.5q-83 0 -128.5 70t-45.5 192zM182 260q0 -75 20 -126t58 -51q43 0 78.5 48t54 117.5t18.5 141.5q0 75 -21 125t-62 50q-40 0 -74.5 -46t-53 -116t-18.5 -143z" />
<glyph unicode="1" d="M163 504l161 146h95l-92 -650h-109l71 507l-87 -76z" />
<glyph unicode="2" d="M47 0l9 64q6 44 24.5 80.5t51 67.5t58.5 50t70 48l20 14q57 39 76 56q29 26 42 45.5t13 45.5q0 34 -22.5 56.5t-61.5 22.5q-33 0 -66 -19.5t-46.5 -34t-35.5 -40.5l-45 80q31 42 87 80.5t125 38.5q75 0 124 -48t49 -126q0 -24 -6.5 -47.5t-15 -40.5t-27 -37t-30.5 -31.5 t-38.5 -30.5t-38 -27t-41.5 -27l-17 -11q-46 -32 -85.5 -68.5t-46.5 -57.5h284l-14 -103h-396z" />
<glyph unicode="3" d="M64 84l58 84q61 -83 138 -83q46 0 73.5 33t27.5 77q0 36 -20 61.5t-57 25.5h-67l14 102h64q47 0 73.5 30t26.5 70q0 34 -18.5 57.5t-51.5 23.5q-73 0 -141 -78l-37 77q80 97 195 97q74 1 120.5 -42t46.5 -119q0 -50 -31 -99.5t-83 -63.5q41 -10 61 -53t20 -86 q0 -91 -69 -151.5t-157 -59.5q-39 0 -71 9t-54.5 26.5t-34 29.5t-26.5 32z" />
<glyph unicode="4" d="M48 131l13 91q61 115 132 209t182 219h108l-60 -426h78l-13 -93h-78l-18 -131h-111l18 132q-20 0 -61.5 -0.5t-62.5 -0.5h-127zM164 224h148l37 265q-50 -55 -105.5 -135t-79.5 -130z" />
<glyph unicode="5" d="M60 104l74 75q41 -88 108 -88q38 0 67 14t44.5 37t22.5 46.5t7 46.5q0 46 -23.5 71.5t-60.5 25.5q-65 0 -100 -60h-92l90 369h311l-15 -109h-222l-35 -135q22 19 51 28t46 9q72 0 113.5 -49.5t41.5 -133.5q0 -120 -74.5 -192t-180.5 -72q-122 0 -173 117z" />
<glyph unicode="6" d="M80 225q0 202 83 319t209 117q81 0 133 -46l-42 -82q-45 35 -92 35q-52 0 -92.5 -46t-64.5 -136q25 22 56.5 33.5t52.5 11.5q73 0 118.5 -50.5t45.5 -135.5q0 -117 -67.5 -187t-167.5 -70q-50 0 -85.5 21.5t-53.5 58.5t-25.5 75t-7.5 82zM195 188q0 -47 17.5 -77 t50.5 -30q50 0 79.5 49.5t29.5 100.5q0 44 -18 77t-54 33q-46 0 -75.5 -46t-29.5 -107z" />
<glyph unicode="7" d="M83 0q152 335 338 546h-297l14 104h406l-12 -85q-105 -130 -180 -264t-143 -301h-126z" />
<glyph unicode="8" d="M66 153q0 54 36 112.5t107 74.5q-40 15 -60.5 52t-20.5 79q0 79 51.5 126t120.5 60q1 0 3 1t3 1q3 0 15 1t23 1q29 0 43 -4q52 -11 88.5 -47.5t36.5 -97.5q0 -53 -33 -102.5t-91 -69.5q35 -10 58 -37t31 -54.5t8 -54.5q0 -82 -62 -144.5t-174 -62.5q-91 0 -137 47 t-46 119zM181 170q0 -37 21.5 -63t60.5 -26q48 0 80 36.5t32 82.5q0 39 -21 68.5t-61 30.5q-51 -1 -81.5 -42t-30.5 -87zM233 467q0 -37 19 -57.5t54 -20.5q40 0 65 24t31 66q5 35 -13.5 65t-56.5 30q-42 0 -70.5 -34.5t-28.5 -72.5z" />
<glyph unicode="9" d="M86 34l44 82q43 -35 92 -35q51 0 91 46t64 136q-25 -22 -56 -33.5t-52 -11.5q-73 0 -119 50.5t-46 135.5q0 117 67.5 187t167.5 70q50 0 85.5 -21.5t53.5 -58t25.5 -75t7.5 -81.5q0 -202 -82.5 -319.5t-207.5 -117.5q-81 0 -135 46zM219 418q0 -43 18.5 -76.5t55.5 -33.5 q46 0 75 46t29 106q0 48 -18 78t-51 30q-49 0 -79 -49.5t-30 -100.5z" />
<glyph unicode=":" horiz-adv-x="201" d="M39 0l16 117h123l-16 -117h-123zM91 367l16 117h123l-16 -117h-123z" />
<glyph unicode=";" horiz-adv-x="281" d="M28 -78l108 195h122l-133 -195h-97zM163 367l16 117h121l-16 -117h-121z" />
<glyph unicode="&#x3c;" horiz-adv-x="507" d="M52 211l8 60l469 227l-17 -121l-296 -136l258 -136l-17 -121z" />
<glyph unicode="=" horiz-adv-x="438" d="M58 191l13 90h376l-13 -90h-376zM84 374l12 89h376l-12 -89h-376z" />
<glyph unicode="&#x3e;" horiz-adv-x="507" d="M46 -16l17 121l296 136l-258 136l17 121l404 -227l-8 -60z" />
<glyph unicode="?" horiz-adv-x="472" d="M130 556q11 18 25.5 35.5t40.5 40.5t63 37.5t78 14.5q77 0 126 -43.5t49 -125.5q0 -94 -117 -205l-9 -9q-3 -3 -15.5 -14.5t-14.5 -14t-11.5 -12.5t-11.5 -14t-8.5 -14t-8.5 -18t-5 -19.5t-5 -24.5h-108q8 55 22 87t37 57t87 83q52 47 52 106q0 34 -20 55t-57 21 q-42 0 -78 -29t-56 -61zM169 0l15 106h116l-15 -106h-116z" />
<glyph unicode="@" horiz-adv-x="715" d="M77 245q0 190 115 313.5t270 123.5q71 0 125 -24.5t84 -64.5t45 -86.5t15 -95.5q0 -80 -24 -145t-62 -101.5t-78 -56t-77 -19.5q-31 0 -46.5 20.5t-14.5 48.5q-58 -50 -101 -50q-112 0 -112 118q0 103 65 179.5t132 76.5q58 0 73 -34q2 5 4.5 14t3.5 12h102l-79 -244 q-7 -8 -7 -35t21 -27q11 0 30 14.5t41 41t37.5 74.5t15.5 106q0 102 -59 154.5t-144 52.5q-124 0 -210.5 -102t-86.5 -260q0 -117 57.5 -187.5t163.5 -70.5q112 0 250 99l20 -43q-53 -55 -131 -87.5t-151 -32.5q-130 0 -208.5 87t-78.5 231zM321 230q0 -47 25 -47 q17 0 42.5 17.5t36.5 47.5l33 115q6 24 -5.5 33.5t-23.5 9.5q-60 0 -97 -114q-11 -31 -11 -62z" />
<glyph unicode="A" horiz-adv-x="599" d="M5 0l333 674h113l143 -674h-124l-31 152h-238l-72 -152h-124zM248 253h174l-47 281z" />
<glyph unicode="B" horiz-adv-x="537" d="M52 0l95 674h265q76 0 113 -44.5t37 -111.5q0 -39 -23 -88.5t-74 -74.5q37 -9 59.5 -52t22.5 -92q0 -75 -56 -143t-147 -68h-292zM184 102h153q42 0 67.5 31.5t25.5 72.5q0 34 -17 58t-50 24h-153zM225 390h141q36 0 57 35.5t21 71.5q0 75 -64 75h-130z" />
<glyph unicode="C" horiz-adv-x="534" d="M74 282q0 167 98.5 285t249.5 118q114 0 179 -44l-41 -89q-67 30 -134 30q-59 0 -105.5 -26.5t-73.5 -70t-40.5 -92.5t-13.5 -100q0 -85 40 -144t124 -59q67 0 145 30l13 -89q-76 -44 -191 -44q-117 0 -183.5 83.5t-66.5 211.5z" />
<glyph unicode="D" horiz-adv-x="586" d="M52 0l95 674h217q121 0 187 -69t66 -203q0 -193 -93 -297.5t-255 -104.5h-217zM183 102h103q92 0 153 73t61 214q0 94 -40.5 138.5t-110.5 44.5h-100z" />
<glyph unicode="E" horiz-adv-x="499" d="M52 0l95 674h406l-15 -102h-288l-25 -181h266l-14 -102h-266l-27 -187h294l-14 -102h-412z" />
<glyph unicode="F" horiz-adv-x="467" d="M52 0l95 674h388l-15 -102h-270l-25 -181h249l-14 -102h-249l-41 -290z" />
<glyph unicode="G" horiz-adv-x="597" d="M74 286q0 166 105 282.5t266 116.5q115 0 191 -62l-52 -86q-28 24 -67.5 35t-65.5 11q-63 0 -114 -26t-81 -68t-46 -90.5t-16 -97.5q0 -87 45 -149t133 -62q41 0 95 18h-2l23 161h-115l14 104h226l-46 -331q-39 -24 -104.5 -39.5t-115.5 -15.5q-127 0 -200 84.5 t-73 214.5z" />
<glyph unicode="H" horiz-adv-x="581" d="M52 0l95 674h118l-38 -267h241l38 267h117l-95 -674h-117l43 304h-241l-43 -304h-118z" />
<glyph unicode="I" horiz-adv-x="238" d="M61 0l95 674h116l-95 -674h-116z" />
<glyph unicode="J" horiz-adv-x="382" d="M10 34l41 92q54 -38 113 -38q21 0 42 10q25 17 36 95l68 481h115l-68 -487q-16 -109 -70 -154.5t-128 -45.5q-30 0 -68 9q-37 9 -81 38z" />
<glyph unicode="K" horiz-adv-x="531" d="M52 0l95 674h118l-41 -290l228 290h132l-247 -304h1l189 -370h-139l-139 273q-10 -12 -27 -34t-23 -29h1l-30 -210h-118z" />
<glyph unicode="L" horiz-adv-x="471" d="M52 0l95 674h118l-81 -571h270l-14 -103h-388z" />
<glyph unicode="M" horiz-adv-x="744" d="M35 0l125 674h152l87 -483q42 92 120 260.5t103 222.5h153l-67 -674h-117l41 460l-213 -460h-95l-81 459l-90 -459h-118z" />
<glyph unicode="N" horiz-adv-x="586" d="M52 0l95 674h153l143 -492l69 492h116l-95 -674h-145l-149 499l-70 -499h-117z" />
<glyph unicode="O" horiz-adv-x="632" d="M72 271q0 188 93.5 301t245.5 113q115 0 179 -75t64 -208q0 -187 -94.5 -301t-246.5 -114q-114 0 -177.5 75.5t-63.5 208.5zM195 281q0 -87 33.5 -140.5t98.5 -53.5q95 0 149.5 89t54.5 213q0 86 -34 141t-100 55q-92 0 -147 -90.5t-55 -213.5z" />
<glyph unicode="P" horiz-adv-x="513" d="M52 0l95 674h266q80 0 116.5 -55t36.5 -129q0 -16 -4.5 -41t-18.5 -61t-35.5 -65.5t-60.5 -51t-88 -21.5h-154l-35 -250h-118zM220 353h142q42 0 65 43.5t23 82.5q0 40 -18 66.5t-55 26.5h-127z" />
<glyph unicode="Q" horiz-adv-x="623" d="M73 275q0 185 93.5 297.5t244.5 112.5q115 0 179 -75t64 -208q0 -118 -48 -212t-124 -152q29 -29 67 -29h46l-13 -94h-43q-102 1 -146 61l-9 11h-71q-110 0 -175 77t-65 211zM196 282q0 -87 33.5 -140t98.5 -53q95 0 149 87.5t54 212.5q0 86 -34 141t-100 55 q-61 0 -108 -44.5t-70 -112.5t-23 -146z" />
<glyph unicode="R" horiz-adv-x="539" d="M52 0l95 674h257q88 0 125.5 -51.5t37.5 -124.5q0 -28 -10 -63t-41.5 -76.5t-78.5 -63.5q41 -18 52 -74l38 -221h-123l-29 171q-11 88 -70 88h-99l-36 -259h-118zM221 361h142q44 0 65.5 40t21.5 82q0 38 -16 63.5t-50 25.5h-134z" />
<glyph unicode="S" d="M35 89l60 87q32 -38 83 -60.5t101 -22.5q68 0 101 62q14 32 5.5 58.5t-34.5 42.5l-147 72q-51 25 -75 65t-24 83q0 94 73.5 151.5t166.5 57.5q54 0 105 -20q51 -23 89 -63l-52 -87q-66 69 -161 69q-34 0 -60.5 -20.5t-34.5 -50.5q-15 -57 48 -87l137 -67 q47 -25 69.5 -65.5t22.5 -83.5q0 -101 -73.5 -161t-171.5 -60q-139 0 -228 100z" />
<glyph unicode="T" horiz-adv-x="481" d="M85 572l14 102h471l-14 -102h-177l-80 -572h-117l80 572h-177z" />
<glyph unicode="U" horiz-adv-x="602" d="M94 301l53 373h118l-53 -375q-15 -105 9 -153.5t93 -48.5t107 48.5t53 153.5l53 375h118l-53 -373q-24 -170 -97.5 -242t-195.5 -72t-175.5 72.5t-29.5 241.5z" />
<glyph unicode="V" horiz-adv-x="556" d="M100 674h120l78 -535l229 535h118l-311 -674h-112z" />
<glyph unicode="W" horiz-adv-x="810" d="M100 674h121l44 -484q33 89 96 253.5t79 206.5h114l45 -461l179 485h122l-271 -674h-114l-46 451q-28 -75 -87 -225.5t-87 -225.5h-114z" />
<glyph unicode="X" horiz-adv-x="567" d="M5 0l262 333l-157 341h134l98 -252l171 252h134l-253 -341l92.5 -185t74.5 -148h-135l-109 244q-33 -46 -94 -129.5t-83 -114.5h-135z" />
<glyph unicode="Y" horiz-adv-x="570" d="M100 674h135l99 -334l191 334h135l-280 -437l-34 -237h-120l33 236q-29 83 -86 238.5t-73 199.5z" />
<glyph unicode="Z" horiz-adv-x="520" d="M22 0l14 98l394 474h-314l15 102h462l-14 -95l-399 -475h318l-15 -104h-461z" />
<glyph unicode="[" horiz-adv-x="279" d="M21 -192l122 866h183l-13 -89h-76l-96 -688h76l-13 -89h-183z" />
<glyph unicode="\" horiz-adv-x="326" d="M117 674h85l102 -674h-83z" />
<glyph unicode="]" horiz-adv-x="279" d="M21 -192l13 89h76l96 688h-76l13 89h183l-122 -866h-183z" />
<glyph unicode="^" horiz-adv-x="405" d="M83 367l174 307h82l87 -307h-108l-39 176l-28 -56q-42 -82 -60 -120h-108z" />
<glyph unicode="_" horiz-adv-x="548" d="M14 -124l13 93h486l-13 -93h-486z" />
<glyph unicode="`" horiz-adv-x="267" d="M130 698h125l58 -151h-97z" />
<glyph unicode="a" horiz-adv-x="441" d="M39 112q0 88 77.5 143.5t210.5 66.5l2 12q8 74 -64 74q-62 0 -133 -40l-18 78q0 2 20 13.5t62 24t86 12.5q0 -1 10 0.5t26.5 -2t35.5 -7t37 -16t32 -28.5t20.5 -43.5t1.5 -62.5l-48 -337h-118l8 55q-26 -37 -64.5 -52.5t-67.5 -15.5q-42 0 -79 32.5t-37 92.5zM149 129 q0 -24 15 -37t38 -13q13 0 32 5.5t43 27.5t29 56l10 70q-72 -7 -119.5 -37t-47.5 -72z" />
<glyph unicode="b" horiz-adv-x="480" d="M48 0l95 674h115l-33 -233q22 29 51.5 42.5t53.5 13.5q73 0 117.5 -52.5t44.5 -151.5q0 -144 -63 -225t-160 -81q-6 0 -17 2.5t-28 8.5t-32 21t-22 36l-8 -55h-114zM187 172q-12 -88 77 -88q38 0 63.5 35t35 78.5t9.5 90.5q0 113 -79 113q-23 0 -51.5 -23t-35.5 -69z" />
<glyph unicode="c" horiz-adv-x="406" d="M57 196q0 136 70.5 218.5t186.5 82.5q80 0 135 -37l-35 -88q-58 26 -100 26q-68 0 -105.5 -55.5t-37.5 -130.5q0 -55 24.5 -91.5t74.5 -36.5q34 0 108 28l9 -88q-65 -37 -145 -37q-88 0 -136.5 55.5t-48.5 153.5z" />
<glyph unicode="d" horiz-adv-x="480" d="M56 186q0 148 67 229.5t167 81.5q24 0 49.5 -13.5t39.5 -42.5l33 233h115l-95 -674h-114l8 55q-17 -27 -46 -44t-46.5 -20.5t-26.5 -3.5q-70 0 -110.5 51t-40.5 148zM176 198q0 -114 64 -114q89 0 101 88l19 137q7 46 -15.5 69t-45.5 23q-59 0 -91 -53.5t-32 -149.5z" />
<glyph unicode="e" horiz-adv-x="467" d="M57 201q0 125 69 210.5t177 85.5q83 0 129.5 -54t46.5 -149q0 -30 -11 -78q-2 -10 -4 -18h-297q2 -49 26.5 -81t67.5 -32q62 0 146 37l12 -86q-75 -48 -179 -48q-81 0 -132 57.5t-51 155.5zM186 289h182q6 49 -17.5 80t-60.5 31q-35 0 -65.5 -33.5t-38.5 -77.5z" />
<glyph unicode="f" horiz-adv-x="247" d="M26 -192l84 591h-49l12 85h49l6 42q6 46 22 78.5t32 47.5t38.5 23.5t33 9t25.5 0.5h4q39 0 76 -27l-22 -75q-35 17 -54 17q-29 0 -38 -57l-8 -59h76l-12 -85h-76l-84 -591h-115z" />
<glyph unicode="g" horiz-adv-x="482" d="M53 -144l37 87q22 -18 58.5 -31t69.5 -13q84 0 99 85l8 60q-22 -29 -53 -43t-60 -14q-62 0 -108.5 55.5t-46.5 154.5q0 140 68 220t161 80q6 0 15.5 -2t25.5 -7.5t30.5 -19.5t22.5 -34l7 50h115l-72 -514q-6 -45 -28 -78t-53.5 -50.5t-66 -25.5t-72.5 -8 q-48 0 -92.5 14.5t-64.5 33.5zM177 196q0 -112 79 -112q8 0 18.5 3t25 10t26 22.5t14.5 37.5l22 155q12 88 -77 88q-37 0 -63 -35t-35.5 -79t-9.5 -90z" />
<glyph unicode="h" horiz-adv-x="479" d="M48 0l95 674h115l-33 -235q24 32 57.5 45t60.5 13q78 0 110.5 -51t17.5 -163l-40 -283h-115l40 283q16 117 -48 117q-11 0 -24.5 -4t-31 -15t-31 -35.5t-18.5 -59.5l-40 -286h-115z" />
<glyph unicode="i" horiz-adv-x="212" d="M48 0l68 484h116l-68 -484h-116zM126 558l17 116h116l-17 -116h-116z" />
<glyph unicode="j" horiz-adv-x="218" d="M-69 -165l23 76q39 -19 59 -19q27 0 38 79l72 513h115l-72 -517q-7 -46 -23 -78.5t-32 -47.5t-39.5 -23.5t-33.5 -9t-26 -0.5q-40 0 -81 27zM134 558l16 116h115l-16 -116h-115z" />
<glyph unicode="k" horiz-adv-x="446" d="M52 0l95 674h115l-47 -332l137 142h135l-184 -185h1l137 -299h-129l-94 223l-24 -23h1l-28 -200h-115z" />
<glyph unicode="l" horiz-adv-x="212" d="M48 0l95 674h116l-95 -674h-116z" />
<glyph unicode="m" horiz-adv-x="700" d="M48 0l68 484h111l-8 -57q46 70 120 70q28 0 58.5 -17t44.5 -50q51 67 128 67q152 0 124 -199l-42 -298h-115l40 282q8 60 -2.5 89t-45.5 29q-7 0 -15.5 -3t-22.5 -11.5t-25.5 -31t-16.5 -56.5l-42 -298h-113l42 297q14 103 -51 103q-25 0 -49 -29t-33 -97l-39 -274h-116z " />
<glyph unicode="n" horiz-adv-x="479" d="M48 0l68 484h110l-9 -61q30 45 62.5 59.5t78.5 14.5q142 0 112 -216l-39 -281h-115l39 281q17 119 -47 119q-11 0 -24.5 -4.5t-30.5 -15.5t-31 -36t-19 -60l-40 -284h-115z" />
<glyph unicode="o" horiz-adv-x="473" d="M57 195q0 135 68.5 218.5t179.5 83.5q84 0 131.5 -55.5t47.5 -152.5q0 -136 -69.5 -219t-181.5 -83q-83 0 -129.5 55.5t-46.5 152.5zM172 209q0 -54 19.5 -90.5t55.5 -36.5q51 0 86.5 59.5t35.5 131.5q0 54 -20 91.5t-58 37.5q-51 0 -85 -60t-34 -133z" />
<glyph unicode="p" horiz-adv-x="480" d="M21 -192l95 676h114l-7 -51q45 64 125 64q66 0 105 -50.5t39 -146.5q0 -148 -64 -230.5t-161 -82.5q-29 0 -57 14t-40 48l-34 -241h-115zM187 168q-6 -43 18 -64t44 -21q59 0 91 54t32 150q0 113 -64 113q-89 0 -101 -87z" />
<glyph unicode="q" horiz-adv-x="480" d="M56 188q0 146 61 227.5t155 81.5q79 0 107 -64l7 51h114l-95 -676h-115l34 241q-40 -62 -115 -62q-70 0 -111.5 51.5t-41.5 149.5zM176 197q0 -114 78 -114q20 0 50 21t36 64l21 145q12 87 -77 87q-37 0 -63 -34.5t-35.5 -78.5t-9.5 -90z" />
<glyph unicode="r" horiz-adv-x="310" d="M52 0l68 484h111l-9 -62q43 70 115 70h35l-14 -100h-49q-42 0 -69 -31t-35 -83l-39 -278h-114z" />
<glyph unicode="s" horiz-adv-x="405" d="M32 68l59 82q54 -64 135 -64q38 0 59 34q15 31 -6 44q-15 8 -64.5 31t-56.5 26q-76 39 -76 111q0 75 57 120t132 45q89 0 159 -63l-51 -79q-21 21 -55 35t-62 14q-22 0 -41 -14.5t-23 -32.5q-5 -21 6 -30.5t46 -24.5q38 -15 81 -36q72 -40 72 -112q0 -40 -24 -79 q-23 -41 -67 -63.5t-101 -22.5q-47 0 -93 17q-50 17 -86 62z" />
<glyph unicode="t" horiz-adv-x="300" d="M63 399l12 85h65l16 116h114l-16 -116h90l-12 -85h-90l-35 -250q-9 -65 25 -65q16 0 60 15l-4 -86q-46 -25 -85 -25h-12t-14 1t-17 3l-16.5 5.5t-16.5 9.5t-14.5 14t-12.5 20t-7.5 27t-3 35t3.5 44l35 252h-65z" />
<glyph unicode="u" horiz-adv-x="479" d="M77 203l39 281h115l-39 -281q-17 -120 47 -120q9 0 20.5 3t30.5 11.5t33 31t19 56.5l42 299h115l-68 -484h-110l8 55q-21 -28 -52 -44.5t-47.5 -20t-24.5 -3.5q-65 0 -104.5 52t-23.5 164z" />
<glyph unicode="v" horiz-adv-x="476" d="M73 484h121l62 -357l162 357h120l-243 -484h-114z" />
<glyph unicode="w" horiz-adv-x="685" d="M73 484h121l33 -329l124 329h119l33 -328l125 328h120l-211 -484h-104l-43 332l-136 -332h-105z" />
<glyph unicode="x" horiz-adv-x="467" d="M5 0l193 245l-115 239h130l65 -162l111 162h129l-182 -239q23 -44 68.5 -134t56.5 -111h-129l-75 168l-122 -168h-130z" />
<glyph unicode="y" horiz-adv-x="476" d="M44 -173l25 90q37 -14 46 -14q16 0 32 26l40 81l-32 135q-14 56 -41.5 169.5t-40.5 169.5h121l71 -318q62 127 153 318h120l-297 -594q-16 -33 -44.5 -53t-48.5 -24.5t-37 -4.5q-25 0 -67 19z" />
<glyph unicode="z" horiz-adv-x="407" d="M18 0l12 82l274 306h-222l13 96h362l-12 -82l-274 -306h223l-13 -96h-363z" />
<glyph unicode="{" horiz-adv-x="320" d="M77 209l9 64q41 5 57.5 31.5t23.5 77.5l24 175q7 50 45.5 83.5t76.5 33.5h70l-12 -85h-46q-31 0 -39 -51l-24 -169q-5 -45 -33.5 -80t-59.5 -48q26 -9 46 -46t12 -82l-24 -169q-8 -51 25 -51h46l-12 -85h-70q-38 0 -67.5 33.5t-22.5 83.5l26 175q7 51 -2 77.5t-49 31.5z " />
<glyph unicode="|" horiz-adv-x="186" d="M36 -88l118 840h90l-118 -840h-90z" />
<glyph unicode="}" horiz-adv-x="320" d="M4 -192l12 85h45q33 0 39 51l24 169q6 45 35.5 82t57.5 46q-26 13 -45 48.5t-12 79.5l24 169q6 51 -25 51h-45l12 85h69q38 0 67 -33.5t22 -83.5l-25 -175q-7 -51 2 -77.5t49 -31.5l-9 -64q-41 -5 -58 -32t-24 -77l-24 -175q-6 -50 -45 -83.5t-77 -33.5h-69z" />
<glyph unicode="~" horiz-adv-x="428" d="M60 208q32 89 58.5 122.5t85.5 33.5q23 0 63 -20q36 -18 52 -18q10 0 24.5 13t26.5 40h80q-14 -37 -21 -54t-20.5 -40.5t-26.5 -33.5t-33.5 -18t-46.5 -8q-21 0 -63 21q-36 18 -49 18q-9 0 -25 -15t-28 -41h-77z" />
<glyph unicode="&#xa1;" horiz-adv-x="229" d="M33 -192l78 504h95l-64 -504h-109zM109 378l15 106h116l-15 -106h-116z" />
<glyph unicode="&#xa2;" horiz-adv-x="406" d="M57 196q0 124 61 205t164 94h-3l10 77h77l-10 -78q49 -7 93 -34l-35 -88q-58 26 -100 26q-68 0 -105.5 -55.5t-37.5 -130.5q0 -55 24.5 -91.5t74.5 -36.5q34 0 108 28l9 -88q-41 -25 -102 -34l-12 -86h-77l12 85h3q-74 9 -114 64t-40 143z" />
<glyph unicode="&#xa3;" horiz-adv-x="464" d="M45 0l14 101h53l32 229h-67l13 90h67l4 28q14 102 68 158t118 68q12 3 45 3q77 0 128 -44l-42 -84q-46 36 -99 36q-40 0 -66 -37.5t-35 -99.5l-4 -28h139l-13 -90h-139l-32 -229h218l-14 -101h-388z" />
<glyph unicode="&#xa4;" horiz-adv-x="459" d="M52 142l56 58h-1q-11 31 -11 72q0 66 41 117h1l-27 39q-16 21 -16 22l77 81l47 -67q37 18 75 18q34 0 70 -18l65 65l60 -86l-63 -63h1q8 -30 8 -59q0 -48 -37 -112h-1l45 -60l-82 -80l-43 60q-38 -21 -77 -21q-38 0 -68 15l-67 -65zM195 279q0 -36 17 -54.5t40 -18.5 q29 0 57 27t28 77q0 35 -19 54.5t-41 19.5q-30 0 -56 -27.5t-26 -77.5z" />
<glyph unicode="&#xa5;" horiz-adv-x="503" d="M76 108l12 85h135l7 52h-135l12 85h110q-19 55 -57 171.5t-56 172.5h126l76 -288q83 152 158 288h125l-211 -344h109l-12 -85h-133l-7 -52h133l-12 -85h-133l-15 -108h-112l15 108h-135z" />
<glyph unicode="&#xa6;" horiz-adv-x="186" d="M33 -110l54 386h90l-54 -386h-90zM99 363l56 393h90l-56 -393h-90z" />
<glyph unicode="&#xa7;" horiz-adv-x="403" d="M40 64l53 78q54 -62 122 -62q31 0 52 35q13 33 -10 44l-77 40q-92 48 -92 127q0 32 19 66t49 57q-37 48 -20 121q15 52 60.5 83.5t106.5 31.5q42 0 77 -14q36 -17 68 -47l-49 -78q-52 43 -105 43q-21 0 -36 -11.5t-19 -28.5q-3 -20 6 -29t38 -22q2 -2 5 -2q15 -9 64 -33 q29 -16 43 -34q26 -33 26 -76q0 -31 -25 -81q-15 -28 -42 -47q24 -35 24 -80q0 -72 -48.5 -115t-127.5 -43q-101 0 -162 77zM194 344q0 -40 48 -62l32 -15q15 10 27.5 30.5t12.5 38.5q0 22 -15 32l-68 34q-37 -31 -37 -58z" />
<glyph unicode="&#xa8;" horiz-adv-x="323" d="M110 564l16 116h111l-16 -116h-111zM260 564l16 116h111l-16 -116h-111z" />
<glyph unicode="&#xa9;" horiz-adv-x="671" d="M73 290q0 159 109 277t250 118q113 0 186.5 -87.5t73.5 -215.5q0 -159 -109 -277t-249 -118q-113 0 -187 87.5t-74 215.5zM141 296q0 -104 57.5 -174.5t146.5 -70.5q112 0 198.5 96.5t86.5 225.5q0 105 -58 175.5t-147 70.5q-112 0 -198 -96.5t-86 -226.5zM217 303 q0 96 58 164.5t146 68.5q69 0 104 -24l-25 -52q-38 19 -77 19q-69 0 -102.5 -52.5t-33.5 -121.5q0 -50 22.5 -83t72.5 -33q37 0 84 18l9 -51q-41 -24 -110 -24t-108.5 48t-39.5 123z" />
<glyph unicode="&#xaa;" horiz-adv-x="309" d="M74 262l11 79h235l-11 -79h-235zM98 472q0 53 48.5 85t130.5 41l2 11q4 41 -32 41q-38 0 -86 -26l-14 53q0 1 13.5 9t41 16.5t56.5 8.5h13t28 -4.5t34.5 -13.5t24.5 -30.5t6 -51.5l-30 -211h-86l5 34q-38 -42 -88 -42q-24 0 -45.5 21t-21.5 59zM180 484q0 -28 25 -28 q8 0 18.5 3t24 15.5t16.5 31.5l6 40q-38 -5 -64 -22t-26 -40z" />
<glyph unicode="&#xab;" horiz-adv-x="474" d="M85 325l145 232h106l-143 -235l81 -230h-110zM259 325l144 232h107l-144 -235l82 -230h-111z" />
<glyph unicode="&#xac;" horiz-adv-x="487" d="M66 274l15 109h433l-31 -226h-108l16 117h-325z" />
<glyph unicode="&#xad;" horiz-adv-x="375" d="M60 203l16 115h313l-16 -115h-313z" />
<glyph unicode="&#xae;" horiz-adv-x="671" d="M73 290q0 159 109 277t250 118q113 0 186.5 -87.5t73.5 -215.5q0 -159 -109 -277t-249 -118q-113 0 -187 87.5t-74 215.5zM141 296q0 -104 57.5 -174.5t146.5 -70.5q112 0 198.5 96.5t86.5 225.5q0 105 -58 175.5t-147 70.5q-112 0 -198 -96.5t-86 -226.5zM231 145 l55 390h151q51 0 72.5 -29t21.5 -71q0 -17 -3.5 -35.5t-21.5 -45t-49 -37.5h1q19 -12 27 -46l24 -126h-71l-24 123q-10 28 -29 28h-64l-22 -151h-68zM329 353h84q29 0 40 24.5t11 50.5q0 52 -38 52h-80z" />
<glyph unicode="&#xaf;" horiz-adv-x="295" d="M112 577l14 97h233l-14 -97h-233z" />
<glyph unicode="&#xb0;" horiz-adv-x="309" d="M103 502q0 66 43.5 114t101.5 48q45 0 75 -35.5t30 -88.5q0 -65 -44 -113t-101 -48q-46 0 -75.5 35.5t-29.5 87.5zM182 512q0 -21 11 -37t27 -16q20 0 36.5 22t16.5 49q0 22 -10.5 38t-25.5 16q-21 0 -38 -22t-17 -50z" />
<glyph unicode="&#xb1;" horiz-adv-x="496" d="M31 0l14 99h434l-14 -99h-434zM77 324l13 99h168l26 179h99l-26 -179h167l-13 -99h-167l-25 -178h-99l25 178h-168z" />
<glyph unicode="&#xb2;" horiz-adv-x="327" d="M96 450l6 41q7 45 40 79.5t89 71.5q22 13 34.5 22t25.5 25.5t13 33.5t-10.5 28.5t-29.5 11.5q-21 0 -47.5 -16t-41.5 -35l-27 51q64 70 129 70q45 0 74.5 -28.5t29.5 -75.5q0 -23 -9 -43t-29 -39t-33 -28.5t-41 -28.5q-61 -39 -82 -71h161l-10 -69h-242z" />
<glyph unicode="&#xb3;" horiz-adv-x="292" d="M85 501l37 52q38 -46 85 -46q21 0 35.5 18t14.5 40q0 19 -10 33.5t-28 14.5h-47l8 62h46q21 0 36 17.5t15 38.5q0 17 -8.5 29.5t-26.5 12.5q-50 0 -88 -45l-21 48q51 60 120 60q45 1 74 -25t29 -71q0 -26 -16 -52.5t-46 -40.5q43 -18 43 -78q0 -55 -42 -91t-95 -36 q-71 0 -115 59z" />
<glyph unicode="&#xb4;" horiz-adv-x="267" d="M108 547l100 151h125l-128 -151h-97z" />
<glyph unicode="&#xb6;" horiz-adv-x="460" d="M87 452q0 90 63.5 156t145.5 66h211l-122 -866h-91l111 788h-53l-111 -788h-91l67 476h3q-59 7 -96 54.5t-37 113.5z" />
<glyph unicode="&#xb7;" horiz-adv-x="201" d="M74 249l16 117h123l-16 -117h-123z" />
<glyph unicode="&#xb8;" horiz-adv-x="235" d="M6 -175l12 88l42 -14q16 -5 30 -5t19 8t1 25.5t-11 35t-20 47.5h77q32 -54 32 -110q0 -51 -30.5 -78t-81.5 -21q-35 4 -70 24z" />
<glyph unicode="&#xb9;" horiz-adv-x="235" d="M125 744l95 86h66l-53 -380h-78l40 286l-46 -42z" />
<glyph unicode="&#xba;" horiz-adv-x="332" d="M75 262l11 79h251l-11 -79h-251zM106 523q0 85 44 137t116 52q54 0 84.5 -35t30.5 -97q0 -85 -44.5 -136.5t-115.5 -51.5q-54 0 -84.5 35t-30.5 96zM191 531q0 -31 10 -52t29 -21q28 0 47.5 35t19.5 78q0 31 -10.5 53t-29.5 22q-28 0 -47 -35.5t-19 -79.5z" />
<glyph unicode="&#xbb;" horiz-adv-x="474" d="M52 92l147 230l-77 235h106l79 -232l-144 -233h-111zM226 92l147 230l-78 235h106l80 -232l-145 -233h-110z" />
<glyph unicode="&#xbc;" horiz-adv-x="656" d="M102 0l429 674h62l-429 -674h-62zM132 588l95 86h66l-54 -380h-78l41 286l-46 -42zM356 75l7 56q65 118 183 249h71l-34 -243h44l-8 -62h-44l-11 -75h-76l11 75h-143zM435 137h72l19 134q-63 -76 -91 -134z" />
<glyph unicode="&#xbd;" horiz-adv-x="679" d="M102 0l429 674h62l-429 -674h-62zM132 588l95 86h66l-54 -380h-78l41 286l-46 -42zM377 0l6 41q7 45 40 79.5t89 71.5q22 13 34.5 22t25.5 25.5t13 33.5t-10.5 28.5t-29.5 11.5q-21 0 -47.5 -16t-41.5 -35l-27 51q64 70 129 70q45 0 74.5 -28.5t29.5 -75.5q0 -23 -9 -43 t-29 -39t-33 -28.5t-41 -28.5q-61 -39 -82 -71h161l-10 -69h-242z" />
<glyph unicode="&#xbe;" horiz-adv-x="693" d="M96 345l37 52q38 -46 85 -46q21 0 35.5 18t14.5 40q0 19 -10 33.5t-28 14.5h-47l8 62h46q21 0 36 17.5t15 38.5q0 17 -9 29.5t-26 12.5q-51 0 -88 -45l-21 48q51 60 120 60q45 1 74 -25t29 -71q0 -26 -16 -52.5t-46 -40.5q43 -18 43 -78q0 -55 -42 -91t-95 -36 q-71 0 -115 59zM165 0l428 674h62l-428 -674h-62zM392 75l8 56q58 108 182 249h72l-34 -243h44l-9 -62h-44l-10 -75h-76l10 75h-143zM472 137h72l19 134q-56 -65 -91 -134z" />
<glyph unicode="&#xbf;" horiz-adv-x="472" d="M28 -30q0 101 116 205l10 9q25 22 31.5 29t20 24t19 34.5t9.5 43.5h108q-8 -55 -22 -87t-37 -57t-87 -83q-52 -47 -52 -106q0 -34 20 -55t56 -21q42 0 78.5 29.5t56.5 60.5l55 -67q-11 -18 -25.5 -35.5t-40.5 -40.5t-63 -37.5t-78 -14.5q-77 0 -126 43.5t-49 125.5z M240 378l15 106h116l-15 -106h-116z" />
<glyph unicode="&#xc0;" horiz-adv-x="599" d="M5 0l333 674h113l143 -674h-124l-31 152h-238l-72 -152h-124zM248 253h174l-47 281zM277 888h125l58 -151h-97z" />
<glyph unicode="&#xc1;" horiz-adv-x="599" d="M5 0l333 674h113l143 -674h-124l-31 152h-238l-72 -152h-124zM248 253h174l-47 281zM347 737l100 151h125l-128 -151h-97z" />
<glyph unicode="&#xc2;" horiz-adv-x="599" d="M5 0l333 674h113l143 -674h-124l-31 152h-238l-72 -152h-124zM248 253h174l-47 281zM253 735l108 153h127l64 -153h-93l-45 80q-11 -13 -34 -40t-34 -40h-93z" />
<glyph unicode="&#xc3;" horiz-adv-x="599" d="M5 0l333 674h113l143 -674h-124l-31 152h-238l-72 -152h-124zM248 253h174l-47 281zM270 744q12 63 34.5 98.5t69.5 35.5q16 0 40 -16h-1l11 -7q17 -13 32 -13t28 43h73q-12 -63 -34.5 -98.5t-70.5 -35.5q-6 0 -13 2t-11.5 4.5t-11.5 7t-10 6.5q-24 16 -35 16 q-17 0 -29 -43h-72z" />
<glyph unicode="&#xc4;" horiz-adv-x="599" d="M5 0l333 674h113l143 -674h-124l-31 152h-238l-72 -152h-124zM248 253h174l-47 281zM275 754l16 116h111l-16 -116h-111zM425 754l16 116h111l-16 -116h-111z" />
<glyph unicode="&#xc5;" horiz-adv-x="599" d="M5 0l333 674h113l143 -674h-124l-31 152h-238l-72 -152h-124zM248 253h174l-47 281zM315 832q0 52 30 90.5t89 38.5q46 0 67 -25.5t21 -66.5q0 -54 -28.5 -92t-90.5 -38q-45 0 -66.5 26.5t-21.5 66.5zM383 842q0 -34 30 -34q41 0 41 50q0 34 -30 34q-41 0 -41 -50z" />
<glyph unicode="&#xc6;" horiz-adv-x="811" d="M5 0l383 674h477l-15 -102h-288l-25 -181h267l-14 -102h-267l-27 -187h294l-14 -102h-412l21 152h-166q-14 -25 -42 -76t-42 -76h-130zM268 253h132l44 315z" />
<glyph unicode="&#xc7;" horiz-adv-x="534" d="M74 283q0 166 98.5 284t249.5 118q114 0 179 -44l-41 -89q-67 30 -134 30q-59 0 -105.5 -26.5t-73.5 -70t-40.5 -92.5t-13.5 -100q0 -85 40 -144t124 -59q67 0 145 30l13 -89q-64 -38 -164 -43q20 -44 20 -88q0 -51 -30.5 -78t-81.5 -21q-33 4 -69 24l13 88l42 -14 q14 -5 28 -5q12 0 17.5 7t4 20.5t-7.5 30.5t-16 40h2q-94 17 -146.5 97t-52.5 194z" />
<glyph unicode="&#xc8;" horiz-adv-x="499" d="M52 0l95 674h406l-15 -102h-288l-25 -181h266l-14 -102h-266l-27 -187h294l-14 -102h-412zM244 888h125l58 -151h-97z" />
<glyph unicode="&#xc9;" horiz-adv-x="499" d="M52 0l95 674h406l-15 -102h-288l-25 -181h266l-14 -102h-266l-27 -187h294l-14 -102h-412zM275 737l100 151h125l-128 -151h-97z" />
<glyph unicode="&#xca;" horiz-adv-x="499" d="M52 0l95 674h406l-15 -102h-288l-25 -181h266l-14 -102h-266l-27 -187h294l-14 -102h-412zM203 735l108 153h127l64 -153h-93l-45 80q-11 -13 -33.5 -40t-34.5 -40h-93z" />
<glyph unicode="&#xcb;" horiz-adv-x="499" d="M52 0l95 674h406l-15 -102h-288l-25 -181h266l-14 -102h-266l-27 -187h294l-14 -102h-412zM225 754l16 116h111l-16 -116h-111zM375 754l16 116h111l-16 -116h-111z" />
<glyph unicode="&#xcc;" horiz-adv-x="238" d="M61 0l95 674h116l-95 -674h-116zM100 888h125l58 -151h-97z" />
<glyph unicode="&#xcd;" horiz-adv-x="238" d="M61 0l95 674h116l-95 -674h-116zM162 737l100 151h125l-128 -151h-97z" />
<glyph unicode="&#xce;" horiz-adv-x="238" d="M61 0l95 674h116l-95 -674h-116zM73 735l108 153h127l64 -153h-93l-45 80q-11 -13 -34 -40t-34 -40h-93z" />
<glyph unicode="&#xcf;" horiz-adv-x="238" d="M61 0l95 674h116l-95 -674h-116zM95 754l16 116h111l-16 -116h-111zM245 754l16 116h111l-16 -116h-111z" />
<glyph unicode="&#xd0;" horiz-adv-x="631" d="M45 288l14 103h83l40 283h217q121 0 187.5 -69.5t66.5 -202.5q0 -192 -94 -297t-254 -105h-217l40 288h-83zM218 102h105q90 0 151.5 73t61.5 214q0 93 -40 138t-110 45h-102l-26 -181h169l-14 -103h-169z" />
<glyph unicode="&#xd1;" horiz-adv-x="586" d="M52 0l95 674h153l143 -492l69 492h116l-95 -674h-145l-149 499l-70 -499h-117zM264 744q12 63 34.5 98.5t69.5 35.5q16 0 40 -16h-1l11 -7q17 -13 32 -13t28 43h73q-12 -63 -34.5 -98.5t-70.5 -35.5q-6 0 -13 2t-11.5 4.5t-11.5 7t-10 6.5q-24 16 -35 16q-17 0 -29 -43 h-72z" />
<glyph unicode="&#xd2;" horiz-adv-x="632" d="M72 271q0 188 93.5 301t245.5 113q115 0 179 -75t64 -208q0 -187 -94.5 -301t-246.5 -114q-114 0 -177.5 75.5t-63.5 208.5zM195 281q0 -87 33.5 -140.5t98.5 -53.5q95 0 149.5 89t54.5 213q0 86 -34 141t-100 55q-92 0 -147 -90.5t-55 -213.5zM280 888h125l58 -151h-97z " />
<glyph unicode="&#xd3;" horiz-adv-x="632" d="M72 271q0 188 93.5 301t245.5 113q115 0 179 -75t64 -208q0 -187 -94.5 -301t-246.5 -114q-114 0 -177.5 75.5t-63.5 208.5zM195 281q0 -87 33.5 -140.5t98.5 -53.5q95 0 149.5 89t54.5 213q0 86 -34 141t-100 55q-92 0 -147 -90.5t-55 -213.5zM356 737l100 151h125 l-128 -151h-97z" />
<glyph unicode="&#xd4;" horiz-adv-x="632" d="M72 271q0 188 93.5 301t245.5 113q115 0 179 -75t64 -208q0 -187 -94.5 -301t-246.5 -114q-114 0 -177.5 75.5t-63.5 208.5zM195 281q0 -87 33.5 -140.5t98.5 -53.5q95 0 149.5 89t54.5 213q0 86 -34 141t-100 55q-92 0 -147 -90.5t-55 -213.5zM269 735l107 153h127 l65 -153h-93l-46 80q-13 -15 -37 -44t-30 -36h-93z" />
<glyph unicode="&#xd5;" horiz-adv-x="632" d="M72 271q0 188 93.5 301t245.5 113q115 0 179 -75t64 -208q0 -187 -94.5 -301t-246.5 -114q-114 0 -177.5 75.5t-63.5 208.5zM195 281q0 -87 33.5 -140.5t98.5 -53.5q95 0 149.5 89t54.5 213q0 86 -34 141t-100 55q-92 0 -147 -90.5t-55 -213.5zM286 744q12 63 35 98.5 t70 35.5q16 0 40 -16h-1l11 -7q17 -13 32 -13t28 43h73q-12 -63 -35 -98.5t-71 -35.5q-17 0 -39 16h1q-35 20 -43 20q-17 0 -29 -43h-72z" />
<glyph unicode="&#xd6;" horiz-adv-x="632" d="M72 271q0 188 93.5 301t245.5 113q115 0 179 -75t64 -208q0 -187 -94.5 -301t-246.5 -114q-114 0 -177.5 75.5t-63.5 208.5zM195 281q0 -87 33.5 -140.5t98.5 -53.5q95 0 149.5 89t54.5 213q0 86 -34 141t-100 55q-92 0 -147 -90.5t-55 -213.5zM290 754l17 116h111 l-17 -116h-111zM440 754l17 116h111l-17 -116h-111z" />
<glyph unicode="&#xd7;" horiz-adv-x="500" d="M51 134l182 183l-131 183l73 74l130 -184q30 31 90.5 91.5t90.5 91.5l52 -73l-181 -183q119 -167 130 -182l-73 -73l-130 181l-181 -182z" />
<glyph unicode="&#xd8;" horiz-adv-x="632" d="M39 -55l88 123h1q-56 72 -56 204q0 187 93.5 300t245.5 113q72 0 119 -25l42 62h88l-71 -106h-1q66 -72 66 -215q0 -187 -94.5 -300.5t-246.5 -113.5q-76 0 -131 31l-54 -73h-89zM195 279q0 -61 11 -95l259 380h1q-31 21 -69 21q-92 0 -147 -91t-55 -215zM247 115 q31 -28 80 -28q95 0 149 88.5t54 210.5q0 72 -18 117l-264 -388h-1z" />
<glyph unicode="&#xd9;" horiz-adv-x="602" d="M94 301l53 373h118l-53 -375q-15 -105 9 -153.5t93 -48.5t107 48.5t53 153.5l53 375h118l-53 -373q-24 -170 -97.5 -242t-195.5 -72t-175.5 72.5t-29.5 241.5zM290 888h125l57 -151h-97z" />
<glyph unicode="&#xda;" horiz-adv-x="602" d="M94 301l53 373h118l-53 -375q-15 -105 9 -153.5t93 -48.5t107 48.5t53 153.5l53 375h118l-53 -373q-24 -170 -97.5 -242t-195.5 -72t-175.5 72.5t-29.5 241.5zM337 737l101 151h125l-129 -151h-97z" />
<glyph unicode="&#xdb;" horiz-adv-x="602" d="M94 301l53 373h118l-53 -375q-15 -105 9 -153.5t93 -48.5t107 48.5t53 153.5l53 375h118l-53 -373q-24 -170 -97.5 -242t-195.5 -72t-175.5 72.5t-29.5 241.5zM254 735l108 153h127l64 -153h-93l-46 80q-6 -7 -30 -36t-37 -44h-93z" />
<glyph unicode="&#xdc;" horiz-adv-x="602" d="M94 301l53 373h118l-53 -375q-15 -105 9 -153.5t93 -48.5t107 48.5t53 153.5l53 375h118l-53 -373q-24 -170 -97.5 -242t-195.5 -72t-175.5 72.5t-29.5 241.5zM276 754l16 116h111l-16 -116h-111zM426 754l16 116h111l-16 -116h-111z" />
<glyph unicode="&#xdd;" horiz-adv-x="570" d="M100 674h135l99 -334l191 334h135l-280 -437l-34 -237h-120l33 236q-29 83 -86 238.5t-73 199.5zM317 737l100 151h125l-128 -151h-97z" />
<glyph unicode="&#xde;" horiz-adv-x="492" d="M52 0l95 674h118l-19 -130q21 26 52.5 40t60.5 14q70 0 114.5 -52.5t44.5 -153.5q0 -147 -68.5 -227t-176.5 -80q-18 0 -45 13.5t-40 39.5l-19 -138h-117zM208 269q-4 -27 2.5 -46t21 -27t27 -11t27.5 -3q30 0 52.5 20t34.5 52t17.5 65.5t5.5 67.5q0 115 -80 115 q-20 0 -51 -23t-38 -70z" />
<glyph unicode="&#xdf;" horiz-adv-x="499" d="M52 0l64 456q14 101 66.5 157t114.5 69q15 3 45 3q67 0 117 -37.5t50 -116.5q0 -53 -28.5 -95.5t-82.5 -59.5h-1q34 -4 58 -31t33 -59.5t9 -66.5q0 -84 -63.5 -151.5t-168.5 -67.5h-63l13 94h63q49 0 81 36.5t32 86.5q0 47 -23.5 78.5t-65.5 32.5h-18l13 94h18 q80 0 80 95q0 33 -17.5 54.5t-48.5 21.5q-39 0 -63 -37t-33 -100l-64 -456h-117z" />
<glyph unicode="&#xe0;" horiz-adv-x="441" d="M39 112q0 88 77.5 143.5t210.5 66.5l2 12q8 74 -64 74q-62 0 -133 -40l-18 78q0 2 20 13.5t62 24t86 12.5q0 -1 10 0.5t26.5 -2t35.5 -7t37 -16t32 -28.5t20.5 -43.5t1.5 -62.5l-48 -337h-118l8 55q-26 -37 -64.5 -52.5t-67.5 -15.5q-42 0 -79 32.5t-37 92.5zM149 129 q0 -24 15 -37t38 -13q13 0 32 5.5t43 27.5t29 56l10 70q-72 -7 -119.5 -37t-47.5 -72zM186 698h125l58 -151h-97z" />
<glyph unicode="&#xe1;" horiz-adv-x="441" d="M39 112q0 88 77.5 143.5t210.5 66.5l2 12q8 74 -64 74q-62 0 -133 -40l-18 78q0 2 20 13.5t62 24t86 12.5q0 -1 10 0.5t26.5 -2t35.5 -7t37 -16t32 -28.5t20.5 -43.5t1.5 -62.5l-48 -337h-118l8 55q-26 -37 -64.5 -52.5t-67.5 -15.5q-42 0 -79 32.5t-37 92.5zM149 129 q0 -24 15 -37t38 -13q13 0 32 5.5t43 27.5t29 56l10 70q-72 -7 -119.5 -37t-47.5 -72zM222 547l100 151h125l-128 -151h-97z" />
<glyph unicode="&#xe2;" horiz-adv-x="441" d="M39 112q0 88 77.5 143.5t210.5 66.5l2 12q8 74 -64 74q-62 0 -133 -40l-18 78q0 2 20 13.5t62 24t86 12.5q0 -1 10 0.5t26.5 -2t35.5 -7t37 -16t32 -28.5t20.5 -43.5t1.5 -62.5l-48 -337h-118l8 55q-26 -37 -64.5 -52.5t-67.5 -15.5q-42 0 -79 32.5t-37 92.5zM148 545 l107 153h127l65 -153h-93l-46 80q-13 -15 -37 -44t-30 -36h-93zM149 129q0 -24 15 -37t38 -13q13 0 32 5.5t43 27.5t29 56l10 70q-72 -7 -119.5 -37t-47.5 -72z" />
<glyph unicode="&#xe3;" horiz-adv-x="441" d="M39 112q0 88 77.5 143.5t210.5 66.5l2 12q8 74 -64 74q-62 0 -133 -40l-18 78q0 2 20 13.5t62 24t86 12.5q0 -1 10 0.5t26.5 -2t35.5 -7t37 -16t32 -28.5t20.5 -43.5t1.5 -62.5l-48 -337h-118l8 55q-26 -37 -64.5 -52.5t-67.5 -15.5q-42 0 -79 32.5t-37 92.5zM149 129 q0 -24 15 -37t38 -13q13 0 32 5.5t43 27.5t29 56l10 70q-72 -7 -119.5 -37t-47.5 -72zM164 554q12 63 35 98.5t70 35.5q16 0 40 -16h-1l11 -7q17 -13 32 -13t28 43h73q-12 -63 -35 -98.5t-71 -35.5q-17 0 -39 16h1q-35 20 -43 20q-17 0 -29 -43h-72z" />
<glyph unicode="&#xe4;" horiz-adv-x="441" d="M39 112q0 88 77.5 143.5t210.5 66.5l2 12q8 74 -64 74q-62 0 -133 -40l-18 78q0 2 20 13.5t62 24t86 12.5q0 -1 10 0.5t26.5 -2t35.5 -7t37 -16t32 -28.5t20.5 -43.5t1.5 -62.5l-48 -337h-118l8 55q-26 -37 -64.5 -52.5t-67.5 -15.5q-42 0 -79 32.5t-37 92.5zM149 129 q0 -24 15 -37t38 -13q13 0 32 5.5t43 27.5t29 56l10 70q-72 -7 -119.5 -37t-47.5 -72zM169 564l17 116h111l-17 -116h-111zM319 564l17 116h111l-17 -116h-111z" />
<glyph unicode="&#xe5;" horiz-adv-x="441" d="M39 112q0 88 77.5 143.5t210.5 66.5l2 12q8 74 -64 74q-62 0 -133 -40l-18 78q0 2 20 13.5t62 24t86 12.5q0 -1 10 0.5t26.5 -2t35.5 -7t37 -16t32 -28.5t20.5 -43.5t1.5 -62.5l-48 -337h-118l8 55q-26 -37 -64.5 -52.5t-67.5 -15.5q-42 0 -79 32.5t-37 92.5zM149 129 q0 -24 15 -37t38 -13q13 0 32 5.5t43 27.5t29 56l10 70q-72 -7 -119.5 -37t-47.5 -72zM209 642q0 52 30.5 90.5t89.5 38.5q46 0 67 -25.5t21 -66.5q0 -54 -29 -92t-91 -38q-44 0 -66 26.5t-22 66.5zM277 652q0 -34 30 -34q21 0 31.5 14.5t10.5 35.5q0 34 -30 34 q-21 0 -31.5 -14.5t-10.5 -35.5z" />
<glyph unicode="&#xe6;" horiz-adv-x="724" d="M45 112q0 88 77 143.5t211 66.5l2 12q8 74 -64 74q-62 0 -133 -40l-18 78q0 2 20 13.5t62 24t86 12.5q4 1 11 1.5t26 -1.5t35 -7t33.5 -19.5t27.5 -36.5q56 64 153 64q72 0 117 -55.5t45 -149.5q0 -20 -2 -36.5t-6.5 -36t-4.5 -21.5h-298q2 -49 26.5 -81t67.5 -32 q63 0 145 37l12 -86q-73 -48 -177 -48q-130 0 -169 83q-52 -84 -169 -84q-43 0 -79.5 32.5t-36.5 92.5zM155 129q0 -24 15 -37t38 -13q13 0 32 5.5t43 27.5t29 56l10 69q-71 -7 -119 -36.5t-48 -71.5zM438 289h188q5 49 -18.5 80t-60.5 31q-35 0 -68.5 -32.5t-40.5 -74.5v-4 z" />
<glyph unicode="&#xe7;" horiz-adv-x="406" d="M57 196q0 136 70.5 218.5t186.5 82.5q80 0 135 -37l-35 -88q-58 26 -100 26q-68 0 -105.5 -55.5t-37.5 -130.5q0 -55 24.5 -91.5t74.5 -36.5q34 0 108 28l9 -88q-55 -31 -123 -36q14 -30 20 -62q0 -4 0.5 -13.5t0.5 -12.5q0 -51 -30.5 -78t-81.5 -21q-35 4 -70 24l13 88 l42 -14q15 -5 28 -5t18.5 7t3.5 21t-8 31t-17 41h2q-61 15 -94.5 68.5t-33.5 133.5z" />
<glyph unicode="&#xe8;" horiz-adv-x="467" d="M57 201q0 125 69 210.5t177 85.5q83 0 129.5 -54t46.5 -149q0 -30 -11 -78q-2 -10 -4 -18h-297q2 -49 26.5 -81t67.5 -32q62 0 146 37l12 -86q-75 -48 -179 -48q-81 0 -132 57.5t-51 155.5zM186 289h182q6 49 -17.5 80t-60.5 31q-35 0 -65.5 -33.5t-38.5 -77.5zM201 698 h125l58 -151h-97z" />
<glyph unicode="&#xe9;" horiz-adv-x="467" d="M57 201q0 125 69 210.5t177 85.5q83 0 129.5 -54t46.5 -149q0 -30 -11 -78q-2 -10 -4 -18h-297q2 -49 26.5 -81t67.5 -32q62 0 146 37l12 -86q-75 -48 -179 -48q-81 0 -132 57.5t-51 155.5zM186 289h182q6 49 -17.5 80t-60.5 31q-35 0 -65.5 -33.5t-38.5 -77.5zM240 547 l100 151h125l-128 -151h-97z" />
<glyph unicode="&#xea;" horiz-adv-x="467" d="M57 201q0 125 69 210.5t177 85.5q83 0 129.5 -54t46.5 -149q0 -30 -11 -78q-2 -10 -4 -18h-297q2 -49 26.5 -81t67.5 -32q62 0 146 37l12 -86q-75 -48 -179 -48q-81 0 -132 57.5t-51 155.5zM160 545l108 153h127l64 -153h-93l-46 80q-6 -7 -30 -36t-37 -44h-93zM186 289 h182q6 49 -17.5 80t-60.5 31q-35 0 -65.5 -33.5t-38.5 -77.5z" />
<glyph unicode="&#xeb;" horiz-adv-x="467" d="M57 201q0 125 69 210.5t177 85.5q83 0 129.5 -54t46.5 -149q0 -30 -11 -78q-2 -10 -4 -18h-297q2 -49 26.5 -81t67.5 -32q62 0 146 37l12 -86q-75 -48 -179 -48q-81 0 -132 57.5t-51 155.5zM182 564l16 116h111l-16 -116h-111zM186 289h182q6 49 -17.5 80t-60.5 31 q-35 0 -65.5 -33.5t-38.5 -77.5zM332 564l16 116h111l-16 -116h-111z" />
<glyph unicode="&#xec;" horiz-adv-x="212" d="M48 0l68 484h116l-68 -484h-116zM58 698h125l58 -151h-97z" />
<glyph unicode="&#xed;" horiz-adv-x="212" d="M48 0l68 484h116l-68 -484h-116zM124 547l100 151h125l-128 -151h-97z" />
<glyph unicode="&#xee;" horiz-adv-x="212" d="M34 545l108 153h127l64 -153h-93l-46 80q-6 -7 -30 -36t-37 -44h-93zM48 0l68 484h116l-68 -484h-116z" />
<glyph unicode="&#xef;" horiz-adv-x="212" d="M48 0l68 484h116l-68 -484h-116zM55 564l17 116h111l-17 -116h-111zM205 564l17 116h111l-17 -116h-111z" />
<glyph unicode="&#xf0;" horiz-adv-x="463" d="M52 194q0 124 72 207t160 83q18 0 33 -4q-9 14 -19.5 25.5t-16.5 17.5t-17 16.5t-16 14.5l-70 -70l-48 46l61 64q-14 12 -67 38l90 83q31 -18 62 -40q7 7 20.5 21t25 25t20.5 20l50 -47l-63 -64q65 -67 107.5 -158t42.5 -188q0 -133 -69 -214t-180 -81q-84 0 -131 54.5 t-47 150.5zM174 209q0 -50 18 -84t52 -34q48 0 80.5 56t32.5 124q0 50 -18 85t-53 35q-49 0 -80.5 -56.5t-31.5 -125.5z" />
<glyph unicode="&#xf1;" horiz-adv-x="479" d="M48 0l68 484h110l-9 -61q30 45 62.5 59.5t78.5 14.5q142 0 112 -216l-39 -281h-115l39 281q17 119 -47 119q-11 0 -24.5 -4.5t-30.5 -15.5t-31 -36t-19 -60l-40 -284h-115zM183 554q12 63 35 98.5t70 35.5q17 0 39 -16h-1l11 -7q17 -13 33 -13q15 0 28 43h73 q-12 -63 -35 -98.5t-71 -35.5q-17 0 -39 16h1q-35 20 -43 20q-17 0 -29 -43h-72z" />
<glyph unicode="&#xf2;" horiz-adv-x="473" d="M57 195q0 135 68.5 218.5t179.5 83.5q84 0 131.5 -55.5t47.5 -152.5q0 -136 -69.5 -219t-181.5 -83q-83 0 -129.5 55.5t-46.5 152.5zM172 209q0 -54 19.5 -90.5t55.5 -36.5q51 0 86.5 59.5t35.5 131.5q0 54 -20 91.5t-58 37.5q-51 0 -85 -60t-34 -133zM197 698h125 l58 -151h-97z" />
<glyph unicode="&#xf3;" horiz-adv-x="473" d="M57 195q0 135 68.5 218.5t179.5 83.5q84 0 131.5 -55.5t47.5 -152.5q0 -136 -69.5 -219t-181.5 -83q-83 0 -129.5 55.5t-46.5 152.5zM172 209q0 -54 19.5 -90.5t55.5 -36.5q51 0 86.5 59.5t35.5 131.5q0 54 -20 91.5t-58 37.5q-51 0 -85 -60t-34 -133zM248 547l100 151 h125l-128 -151h-97z" />
<glyph unicode="&#xf4;" horiz-adv-x="473" d="M57 195q0 135 68.5 218.5t179.5 83.5q84 0 131.5 -55.5t47.5 -152.5q0 -136 -69.5 -219t-181.5 -83q-83 0 -129.5 55.5t-46.5 152.5zM164 545l107 153h127l65 -153h-93l-46 80q-13 -15 -37 -44t-30 -36h-93zM172 209q0 -54 19.5 -90.5t55.5 -36.5q51 0 86.5 59.5 t35.5 131.5q0 54 -20 91.5t-58 37.5q-51 0 -85 -60t-34 -133z" />
<glyph unicode="&#xf5;" horiz-adv-x="473" d="M57 195q0 135 68.5 218.5t179.5 83.5q84 0 131.5 -55.5t47.5 -152.5q0 -136 -69.5 -219t-181.5 -83q-83 0 -129.5 55.5t-46.5 152.5zM172 209q0 -54 19.5 -90.5t55.5 -36.5q51 0 86.5 59.5t35.5 131.5q0 54 -20 91.5t-58 37.5q-51 0 -85 -60t-34 -133zM180 554 q12 63 35 98.5t70 35.5q17 0 39 -16h-1l11 -7q17 -13 33 -13q15 0 28 43h73q-12 -63 -35 -98.5t-71 -35.5q-17 0 -39 16h1q-35 20 -43 20q-17 0 -29 -43h-72z" />
<glyph unicode="&#xf6;" horiz-adv-x="473" d="M57 195q0 135 68.5 218.5t179.5 83.5q84 0 131.5 -55.5t47.5 -152.5q0 -136 -69.5 -219t-181.5 -83q-83 0 -129.5 55.5t-46.5 152.5zM172 209q0 -54 19.5 -90.5t55.5 -36.5q51 0 86.5 59.5t35.5 131.5q0 54 -20 91.5t-58 37.5q-51 0 -85 -60t-34 -133zM185 564l17 116 h111l-17 -116h-111zM335 564l17 116h111l-17 -116h-111z" />
<glyph unicode="&#xf7;" horiz-adv-x="467" d="M69 273l14 99h405l-14 -99h-405zM184 83l17 117h121l-17 -117h-121zM236 450l16 117h121l-16 -117h-121z" />
<glyph unicode="&#xf8;" horiz-adv-x="473" d="M30 -46l65 94h1q-39 51 -39 147q0 135 68.5 218.5t179.5 83.5q48 0 85 -17l32 46h80l-60 -87h-1q44 -55 44 -152q0 -135 -69.5 -217.5t-181.5 -82.5q-48 0 -88 19l-36 -52h-80zM172 207q0 -24 3 -41l153 223h1q-18 13 -37 13q-51 0 -85.5 -60.5t-34.5 -134.5zM207 97 q18 -15 40 -15q52 0 87 59.5t35 130.5q0 33 -4 52l-157 -227h-1z" />
<glyph unicode="&#xf9;" horiz-adv-x="479" d="M77 203l39 281h115l-39 -281q-17 -120 47 -120q9 0 20.5 3t30.5 11.5t33 31t19 56.5l42 299h115l-68 -484h-110l8 55q-21 -28 -52 -44.5t-47.5 -20t-24.5 -3.5q-65 0 -104.5 52t-23.5 164zM203 698h125l58 -151h-97z" />
<glyph unicode="&#xfa;" horiz-adv-x="479" d="M77 203l39 281h115l-39 -281q-17 -120 47 -120q9 0 20.5 3t30.5 11.5t33 31t19 56.5l42 299h115l-68 -484h-110l8 55q-21 -28 -52 -44.5t-47.5 -20t-24.5 -3.5q-65 0 -104.5 52t-23.5 164zM232 547l100 151h125l-128 -151h-97z" />
<glyph unicode="&#xfb;" horiz-adv-x="479" d="M77 203l39 281h115l-39 -281q-17 -120 47 -120q9 0 20.5 3t30.5 11.5t33 31t19 56.5l42 299h115l-68 -484h-110l8 55q-21 -28 -52 -44.5t-47.5 -20t-24.5 -3.5q-65 0 -104.5 52t-23.5 164zM167 545l107 153h127l65 -153h-93l-46 80q-6 -7 -30 -36t-37 -44h-93z" />
<glyph unicode="&#xfc;" horiz-adv-x="479" d="M77 203l39 281h115l-39 -281q-17 -120 47 -120q9 0 20.5 3t30.5 11.5t33 31t19 56.5l42 299h115l-68 -484h-110l8 55q-21 -28 -52 -44.5t-47.5 -20t-24.5 -3.5q-65 0 -104.5 52t-23.5 164zM189 564l16 116h111l-16 -116h-111zM339 564l16 116h111l-16 -116h-111z" />
<glyph unicode="&#xfd;" horiz-adv-x="476" d="M44 -173l25 95q5 -2 20 -10.5t26 -8.5q16 0 32 26l40 81l-32 135q-14 56 -41.5 169.5t-40.5 169.5h121l71 -318q40 83 49 102l104 216h120l-297 -594q-16 -33 -44.5 -53t-48.5 -24.5t-37 -4.5q-25 0 -67 19zM245 547l100 151h125l-128 -151h-97z" />
<glyph unicode="&#xfe;" horiz-adv-x="485" d="M25 -192l122 867h115l-33 -236q45 58 115 58q74 0 114 -50t40 -147q0 -151 -63 -231t-170 -80q-8 0 -22 2.5t-37.5 15t-34.5 32.5l-32 -231h-114zM191 172q-12 -87 77 -87q37 0 63 33t36.5 76.5t10.5 90.5q0 114 -80 114q-21 0 -51.5 -22.5t-36.5 -67.5z" />
<glyph unicode="&#xff;" horiz-adv-x="476" d="M44 -173l25 90q37 -14 46 -14q16 0 32 26l40 81l-32 135q-14 56 -41.5 169.5t-40.5 169.5h121l71 -318q62 127 153 318h120l-297 -594q-16 -33 -44.5 -53t-48.5 -24.5t-37 -4.5q-25 0 -67 19zM187 564l16 116h111l-16 -116h-111zM337 564l16 116h111l-16 -116h-111z" />
<glyph unicode="&#x152;" horiz-adv-x="926" d="M72 271q0 186 94 300t233 114q113 0 165 -80l9 69h406l-14 -102h-288l-25 -181h267l-15 -102h-267l-26 -187h294l-14 -102h-412l9 69q-72 -80 -187 -80q-107 0 -168 75t-61 207zM194 282q0 -87 33.5 -140t99.5 -53q64 0 111.5 43.5t69.5 110.5t22 147q0 86 -33.5 140.5 t-99.5 54.5q-93 0 -148 -90.5t-55 -212.5z" />
<glyph unicode="&#x153;" horiz-adv-x="770" d="M57 195q0 135 69 218.5t180 83.5q95 0 140 -77q28 35 72 56t89 21q82 0 128.5 -54t46.5 -149q0 -21 -2 -38t-6.5 -37t-4.5 -21l-293 -3q-5 -117 96 -117q58 0 144 38l5 -82q-28 -18 -78.5 -32.5t-103.5 -14.5q-43 0 -81 19t-58 50q-57 -69 -166 -69q-84 0 -130.5 55.5 t-46.5 152.5zM173 208q0 -53 19.5 -90t55.5 -37q52 0 86.5 60.5t34.5 132.5q0 54 -19.5 91t-56.5 37q-52 0 -86 -60t-34 -134zM492 284h176q3 116 -75 116q-38 0 -63.5 -34t-37.5 -82z" />
<glyph unicode="&#x178;" horiz-adv-x="570" d="M100 674h135l99 -334l191 334h135l-280 -437l-34 -237h-120l33 236q-29 83 -86 238.5t-73 199.5zM260 754l17 116h111l-17 -116h-111zM410 754l17 116h111l-17 -116h-111z" />
<glyph unicode="&#x2c6;" horiz-adv-x="361" d="M108 545l108 153h127l64 -153h-93l-46 80q-6 -7 -30 -36t-37 -44h-93z" />
<glyph unicode="&#x2dc;" horiz-adv-x="330" d="M109 554q12 63 35 98.5t70 35.5q16 0 40 -16h-1l11 -7q17 -13 32 -13t28 43h73q-12 -63 -35 -98.5t-71 -35.5q-17 0 -39 16h1q-35 20 -43 20q-17 0 -29 -43h-72z" />
<glyph unicode="&#x2000;" horiz-adv-x="480" />
<glyph unicode="&#x2001;" horiz-adv-x="961" />
<glyph unicode="&#x2002;" horiz-adv-x="480" />
<glyph unicode="&#x2003;" horiz-adv-x="961" />
<glyph unicode="&#x2004;" horiz-adv-x="320" />
<glyph unicode="&#x2005;" horiz-adv-x="240" />
<glyph unicode="&#x2006;" horiz-adv-x="160" />
<glyph unicode="&#x2007;" horiz-adv-x="160" />
<glyph unicode="&#x2008;" horiz-adv-x="120" />
<glyph unicode="&#x2009;" horiz-adv-x="192" />
<glyph unicode="&#x200a;" horiz-adv-x="53" />
<glyph unicode="&#x2010;" horiz-adv-x="375" d="M60 203l16 115h313l-16 -115h-313z" />
<glyph unicode="&#x2011;" horiz-adv-x="375" d="M60 203l16 115h313l-16 -115h-313z" />
<glyph unicode="&#x2012;" horiz-adv-x="375" d="M60 203l16 115h313l-16 -115h-313z" />
<glyph unicode="&#x2013;" horiz-adv-x="491" d="M61 216l14 100h429l-14 -100h-429z" />
<glyph unicode="&#x2014;" horiz-adv-x="648" d="M61 217l14 99h586l-14 -99h-586z" />
<glyph unicode="&#x2018;" horiz-adv-x="283" d="M108 489l134 185h97l-110 -185h-121z" />
<glyph unicode="&#x2019;" horiz-adv-x="284" d="M108 490l110 184h121l-134 -184h-97z" />
<glyph unicode="&#x201a;" horiz-adv-x="265" d="M21 -72l109 189h121l-134 -189h-96z" />
<glyph unicode="&#x201c;" horiz-adv-x="436" d="M134 674h120l59 -184h-97zM288 674h120l58 -184h-96z" />
<glyph unicode="&#x201d;" horiz-adv-x="436" d="M108 490l110 184h120l-134 -184h-96zM261 490l111 184h120l-134 -184h-97z" />
<glyph unicode="&#x201e;" horiz-adv-x="425" d="M21 -72l109 189h121l-134 -189h-96zM181 -72l108 189h122l-134 -189h-96z" />
<glyph unicode="&#x2022;" horiz-adv-x="301" d="M80 287q0 54 38.5 93.5t90.5 39.5q42 0 69 -29.5t27 -73.5q0 -54 -38.5 -93t-90.5 -39q-42 0 -69 29t-27 73z" />
<glyph unicode="&#x2026;" horiz-adv-x="587" d="M39 0l16 117h116l-16 -117h-116zM236 0l16 117h115l-16 -117h-115zM433 0l16 117h115l-16 -117h-115z" />
<glyph unicode="&#x202f;" horiz-adv-x="192" />
<glyph unicode="&#x2039;" horiz-adv-x="284" d="M77 325l144 232h107l-144 -235l82 -230h-111z" />
<glyph unicode="&#x203a;" horiz-adv-x="284" d="M44 92l147 230l-78 235h107l79 -232l-144 -233h-111z" />
<glyph unicode="&#x205f;" horiz-adv-x="240" />
<glyph unicode="&#x20ac;" horiz-adv-x="576" d="M47 227l39 80h68q0 11 7 39h-98l40 79h76q40 111 124.5 179.5t193.5 68.5q45 0 74.5 -9.5t62.5 -31.5l-48 -83q-38 27 -85 27q-71 0 -122.5 -42t-80.5 -109h245l-44 -79h-226q-3 -12 -3 -14q-2 -20 -3 -25h219l-44 -80h-168q11 -61 51 -100.5t107 -39.5q41 0 103 35 l15 -90q-76 -43 -149 -43q-104 0 -169.5 66.5t-77.5 171.5h-107z" />
<glyph unicode="&#x2122;" horiz-adv-x="694" d="M96 613l9 61h359l52 -284l130 284h94l-39 -400h-74l24 266q-61 -130 -124 -266h-59l-47 268l-52 -268h-73l62 339h-85l-48 -339h-72l48 339h-105z" />
<glyph unicode="&#xe000;" horiz-adv-x="485" d="M0 0v485h485v-485h-485z" />
</font>
</defs>
</svg>
