<?xml version="1.0" standalone="no"?>
<!DOCTYPE svg PUBLIC "-//W3C//DTD SVG 1.1//EN" "http://www.w3.org/Graphics/SVG/1.1/DTD/svg11.dtd" >
<svg xmlns="http://www.w3.org/2000/svg">
<metadata></metadata>
<defs>
<font id="IntervalSansProCondBoldItalic" horiz-adv-x="510" >
<font-face units-per-em="1000" ascent="750" descent="-250" />
<missing-glyph horiz-adv-x="236" />
<glyph unicode="&#xfb01;" horiz-adv-x="502" d="M31 -185l82 574h-46l13 95h46l6 39q6 47 23 80t34 48.5t41.5 24t36 9t27.5 0.5h4q42 0 89 -32l-32 -85q-39 17 -55 17q-18 0 -24 -46l-8 -55h258l-68 -484h-143l55 389h-115l-82 -574h-142z" />
<glyph unicode="&#xfb02;" horiz-adv-x="502" d="M31 -185l82 574h-46l13 95h46l6 39q6 43 23.5 73.5t36 45t43.5 22.5t37 9t25 1h256l-95 -674h-143l81 574h-97q-19 0 -23 -35l-8 -55h74l-13 -95h-74l-82 -574h-142z" />
<glyph unicode="&#xfb03;" horiz-adv-x="773" d="M32 -185l81 574h-46l13 95h46l6 39q6 47 23 80t34 48.5t41.5 24t36 9t27.5 0.5h4q42 0 89 -32l-32 -85q-39 17 -55 17q-18 0 -24 -46l-8 -55h130l6 39q6 47 23 80t34 48.5t41.5 24t35.5 9t27 0.5h4q43 0 89 -32l-32 -85q-39 17 -55 17q-18 0 -24 -46l-8 -55h258l-68 -484 h-143l55 389h-115l-81 -574h-142l82 574h-130l-81 -574h-142z" />
<glyph unicode="fll" horiz-adv-x="773" d="M31 -185l82 574h-46l13 95h46l6 39q6 47 23 80t34 48.5t41.5 24t36 9t27.5 0.5h4q42 0 89 -32l-32 -85q-39 17 -55 17q-18 0 -24 -46l-8 -55h130l4 28q5 38 18 68t30.5 46.5t33.5 27t36 14.5t28.5 5t19.5 1h256l-95 -674h-143l81 574h-97q-19 0 -25 -46l-6 -44h74 l-13 -95h-74l-82 -574h-142l83 574h-130l-82 -574h-142z" />
<glyph horiz-adv-x="0" />
<glyph horiz-adv-x="1000" />
<glyph unicode=" "  horiz-adv-x="236" />
<glyph unicode="&#x09;" horiz-adv-x="236" />
<glyph unicode="&#xa0;" horiz-adv-x="236" />
<glyph unicode="!" horiz-adv-x="248" d="M52 0l17 120h144l-17 -120h-144zM94 184l57 490h136l-81 -490h-112z" />
<glyph unicode="&#x22;" horiz-adv-x="367" d="M100 357l30 317h133l-59 -317h-104zM263 357l31 317h133l-60 -317h-104z" />
<glyph unicode="#" horiz-adv-x="535" d="M30 0l75 182h-52l14 103h79l39 98h-61l14 100h90l77 191h121l-77 -191h55l76 191h119l-76 -191h53l-14 -100h-81l-40 -98h61l-15 -103h-89l-76 -182h-116l76 182h-55q-14 -33 -40.5 -95.5t-36.5 -86.5h-120zM267 285h56l40 98h-56z" />
<glyph unicode="$" horiz-adv-x="514" d="M32 94l62 108q31 -39 86 -67.5t107 -28.5q32 0 60.5 21.5t28.5 60.5q0 42 -28 55l-144 70q-104 51 -104 152q0 84 58 143t148 73h-6l13 88h104l-12 -87h-6q83 -12 157 -85l-53 -100q-40 33 -78.5 49.5t-49.5 17t-35 0.5q-42 0 -68 -21.5t-26 -50.5q0 -37 37 -59 q23 -11 71 -34t71 -33q100 -47 100 -150q0 -95 -66 -156t-158 -71h6l-13 -97h-104l14 101h6q-36 7 -64 19q-76 36 -114 82z" />
<glyph unicode="%" horiz-adv-x="696" d="M107 460q0 88 43 142t112 54q52 0 81.5 -35.5t29.5 -97.5q0 -88 -44 -142.5t-113 -54.5q-51 0 -80 36t-29 98zM136 0l433 674h74l-432 -674h-75zM187 473q0 -30 9.5 -51t29.5 -21q29 0 48.5 35.5t19.5 73.5q0 30 -10.5 51.5t-31.5 21.5q-29 0 -47 -35.5t-18 -74.5z M414 123q0 88 43 142t112 54q52 0 81.5 -35.5t29.5 -97.5q0 -88 -43.5 -142.5t-114.5 -54.5q-51 0 -79.5 36t-28.5 98zM493 137q0 -29 10 -51t30 -22q29 0 48 35.5t19 73.5q0 30 -10 51.5t-31 21.5q-28 0 -47 -35.5t-19 -73.5z" />
<glyph unicode="&#x26;" horiz-adv-x="550" d="M51 159q0 132 133 203h-2q-54 65 -38 149q14 73 71 114t122 41q62 0 106 -42t41 -111q-5 -42 -32.5 -91t-75.5 -82h1l27 -37q-1 -12 1 -12q8 12 15 60h116q-10 -104 -43 -174h-2q12 -17 17 -25t14 -23.5t12 -26.5t6.5 -27.5t2.5 -35t-4 -39.5h-124q6 46 2 63 q-26 -34 -73 -54t-102 -20q-95 0 -143 48t-48 122zM192 172q0 -37 16.5 -59t47.5 -22q51 0 90 65h1l-91 125q-64 -26 -64 -109zM276 508q-5 -29 1.5 -57.5t21.5 -37.5q24 13 39 42.5t15 63.5q0 54 -29 54q-35 0 -48 -65z" />
<glyph unicode="'" horiz-adv-x="204" d="M100 357l30 317h133l-59 -317h-104z" />
<glyph unicode="(" horiz-adv-x="352" d="M78 245q28 197 117 313t208 116l-12 -80q-69 -1 -133.5 -127.5t-64.5 -324.5q0 -116 29 -181.5t71 -66.5l-11 -80q-119 0 -175 117t-29 314z" />
<glyph unicode=")" horiz-adv-x="352" d="M18 -186l11 80q69 1 134 127t65 324q0 116 -29 182t-71 67l11 80q119 0 175 -116t29 -313q-29 -198 -118 -314.5t-207 -116.5z" />
<glyph unicode="*" horiz-adv-x="358" d="M94 462l88 44q-13 7 -40.5 24t-34.5 21l56 86l58 -48q1 5 2 22t3 27q0 21 3 36h91l-16 -84l70 47l33 -85l-90 -46l77 -44l-57 -86l-57 46l-7 -83h-91l16 84q-10 -7 -35 -23t-37 -24z" />
<glyph unicode="+" horiz-adv-x="502" d="M67 282l16 113h161l26 186h128l-26 -186h159l-16 -113h-159l-26 -185h-128l26 185h-161z" />
<glyph unicode="," horiz-adv-x="302" d="M15 -93l127 223h150l-155 -223h-122z" />
<glyph unicode="-" horiz-adv-x="387" d="M55 196l18 128h333l-18 -128h-333z" />
<glyph unicode="." horiz-adv-x="220" d="M35 0l18 130h150l-18 -130h-150z" />
<glyph unicode="/" horiz-adv-x="347" d="M18 0l294 674h111l-294 -674h-111z" />
<glyph unicode="0" d="M68 250q0 182 77.5 296.5t199.5 114.5q90 0 138.5 -69.5t48.5 -192.5q0 -183 -77.5 -297.5t-204.5 -114.5q-86 0 -134 70t-48 193zM204 254q0 -67 15.5 -112t46.5 -45q37 0 67 46t46 113t16 135t-16.5 114t-48.5 46q-51 0 -88.5 -95t-37.5 -202z" />
<glyph unicode="1" d="M187 473l173 177h116l-91 -650h-137l64 461l-75 -82z" />
<glyph unicode="2" d="M40 0l10 74q11 74 63.5 132t134.5 112q56 37 89 65q43 37 43 75q0 28 -16.5 48t-46.5 20q-34 0 -72.5 -27t-65.5 -59l-52 90q54 58 94 82q57 34 117 34q77 0 127 -48.5t50 -128.5q0 -33 -13 -64.5t-28 -52t-48 -47.5t-49 -38t-56 -37q-118 -80 -127 -111h264l-17 -119 h-401z" />
<glyph unicode="3" d="M59 83l64 88q58 -70 121 -70q58 0 82 28.5t24 69.5q0 31 -15.5 53t-44.5 22h-80l16 115h76q37 0 58.5 28.5t21.5 63.5q0 29 -13.5 49.5t-38.5 20.5q-85 0 -147 -72l-41 86q7 10 21.5 23.5t40 31t64.5 29.5t81 12q77 1 126 -42.5t49 -120.5q0 -48 -27.5 -96t-80.5 -67h-1 q38 -13 57.5 -54.5t19.5 -80.5q0 -90 -72.5 -151t-162.5 -60q-125 0 -198 94z" />
<glyph unicode="4" d="M44 121l14 103q57 113 140.5 227t169.5 199h130l-58 -417h76l-16 -113h-76l-17 -120l-138 1l17 120h-242zM185 233h117l31 222q-87 -99 -148 -222z" />
<glyph unicode="5" d="M59 79l69 101q53 -79 121 -79q67 0 98 43.5t31 97.5q0 39 -18 66.5t-55 27.5q-52 0 -85 -48h-117l101 363h320l-16 -120h-214l-33 -115q51 28 94 28q64 0 107.5 -50.5t43.5 -135.5q0 -69 -24 -123.5t-63.5 -86t-85 -48t-93.5 -16.5q-122 0 -181 95z" />
<glyph unicode="6" d="M76 226q0 198 85.5 316.5t213.5 118.5q83 0 145 -56l-43 -93q-49 42 -106 42q-42 0 -82.5 -43.5t-52.5 -115.5q44 37 99 37q72 0 118.5 -51t46.5 -137q0 -117 -70 -187t-174 -70q-52 0 -89.5 22t-56 59t-26.5 75.5t-8 82.5zM217 187q0 -40 14 -66.5t39 -26.5 q39 0 63 45.5t24 92.5q0 38 -13.5 67t-41.5 29q-37 0 -61 -42.5t-24 -98.5z" />
<glyph unicode="7" d="M74 0q151 325 326 532h-282l16 118h423l-13 -93q-102 -124 -175 -256.5t-142 -300.5h-153z" />
<glyph unicode="8" d="M62 155q0 49 31 103.5t93 78.5q-32 19 -48 55.5t-16 73.5q0 80 54 127t127 62q24 4 45 4q26 0 44 -4q55 -12 93 -49t38 -100q0 -46 -28 -94.5t-77 -74.5q29 -13 48 -38.5t25.5 -50.5t6.5 -50q0 -85 -64.5 -148t-180.5 -63q-96 0 -143.5 47.5t-47.5 120.5zM204 173 q0 -34 18.5 -52.5t46.5 -18.5q41 0 66.5 29.5t25.5 73.5q0 36 -17 56.5t-49 21.5q-44 -1 -67.5 -32t-23.5 -78zM259 460q0 -59 50 -59q32 0 53.5 23.5t21.5 66.5q0 58 -52 58q-36 0 -54.5 -24t-18.5 -65z" />
<glyph unicode="9" d="M80 43l43 93q49 -42 106 -42q44 0 86 44t50 116q-40 -38 -100 -38q-73 0 -119.5 51t-46.5 137q0 117 70.5 187t174.5 70q52 0 89.5 -22t56 -59t26.5 -75.5t8 -82.5q0 -198 -85.5 -316.5t-213.5 -118.5q-85 0 -145 56zM243 416q0 -38 13.5 -67t41.5 -29q36 0 60 42.5 t24 98.5q0 41 -13.5 67t-38.5 26q-39 0 -63 -45.5t-24 -92.5z" />
<glyph unicode=":" horiz-adv-x="203" d="M27 0l18 130h149l-18 -130h-149zM77 354l18 130h149l-18 -130h-149z" />
<glyph unicode=";" horiz-adv-x="302" d="M15 -93l127 223h150l-155 -223h-122zM176 354l18 130h149l-18 -130h-149z" />
<glyph unicode="&#x3c;" horiz-adv-x="514" d="M48 210l9 63l485 235l-20 -140l-294 -127l258 -128l-19 -138z" />
<glyph unicode="=" horiz-adv-x="445" d="M50 167l15 104h391l-15 -104h-391zM78 363l14 104h391l-14 -104h-391z" />
<glyph unicode="&#x3e;" horiz-adv-x="514" d="M40 -25l19 138l287 128q-248 126 -251 127l20 140l419 -235l-9 -63z" />
<glyph unicode="?" horiz-adv-x="479" d="M128 565q10 17 26 34.5t41.5 38.5t63.5 34t80 13q81 0 132 -44t51 -128q0 -102 -115 -201q-9 -8 -30 -24.5t-28 -24.5t-16.5 -29t-13.5 -50h-127q5 36 11.5 58t11.5 37t27 38t34.5 35t58.5 54q44 40 44 97q0 31 -15 52t-42 21q-41 0 -76.5 -27.5t-49.5 -52.5zM160 0 l16 120h144l-16 -120h-144z" />
<glyph unicode="@" horiz-adv-x="717" d="M73 247q0 127 55.5 228.5t144 155.5t190.5 54q72 0 127 -24.5t86 -65.5t46.5 -87.5t15.5 -96.5q0 -65 -16.5 -120t-42.5 -91.5t-59.5 -62.5t-66 -37.5t-62.5 -11.5q-35 0 -52 20t-17 49q-41 -50 -93 -50q-118 0 -118 122q0 105 67 181.5t142 76.5q15 0 34 -7t28 -22 q2 3 4 10t3 11h117l-82 -248q-2 -4 -3.5 -12.5t-2.5 -18.5t2.5 -17.5t11.5 -7.5q10 0 28 14.5t38 40.5t34 73t14 102q0 99 -56 150t-138 51q-120 0 -202.5 -100.5t-82.5 -255.5q0 -114 54.5 -182.5t156.5 -68.5q113 0 250 102l25 -51q-52 -55 -132.5 -88.5t-154.5 -33.5 q-133 0 -213 87t-80 232zM330 229q0 -39 19 -39q15 0 35.5 16t34.5 46l31 112q5 16 0.5 24.5t-10 11.5t-10.5 3q-45 0 -72.5 -58.5t-27.5 -115.5z" />
<glyph unicode="A" horiz-adv-x="614" d="M1 0l333 674h135l143 -674h-152l-29 154h-207l-71 -154h-152zM277 264h132l-32 234z" />
<glyph unicode="B" horiz-adv-x="548" d="M48 0l95 674h274q81 0 121 -46t40 -115q0 -26 -7.5 -53t-31 -57t-60.5 -47h-2q43 -7 64.5 -49t21.5 -91q0 -77 -58.5 -146.5t-156.5 -69.5h-300zM210 114h125q33 0 57.5 29t24.5 63q0 31 -16 54.5t-42 23.5h-125zM249 394h107q35 0 55.5 31.5t20.5 62.5t-15 51.5 t-40 20.5h-104z" />
<glyph unicode="C" horiz-adv-x="546" d="M70 284q0 166 101 283.5t256 117.5q48 0 100.5 -13t88.5 -37l-48 -104q-80 36 -140 36q-70 0 -119.5 -44t-70 -104t-20.5 -125q0 -80 35 -134.5t110 -54.5q55 0 153 37l16 -105q-42 -24 -98.5 -37t-104.5 -13q-121 0 -190 84t-69 213z" />
<glyph unicode="D" horiz-adv-x="597" d="M48 0l95 674h227q125 0 193 -69.5t68 -203.5q0 -193 -95.5 -297t-260.5 -104h-227zM209 117h85q82 0 137 68.5t55 202.5q0 86 -35.5 127.5t-97.5 41.5h-82z" />
<glyph unicode="E" horiz-adv-x="512" d="M48 0l95 674h427l-17 -117h-281l-22 -159h260l-17 -117h-260l-23 -164h286l-16 -117h-432z" />
<glyph unicode="F" horiz-adv-x="474" d="M48 0l95 674h404l-17 -117h-257l-22 -159h236l-17 -117h-236l-39 -282z" />
<glyph unicode="G" horiz-adv-x="606" d="M70 288q0 165 107.5 281t271.5 116q117 0 200 -68l-59 -101q-33 27 -78 39.5t-71 12.5q-58 0 -103.5 -25.5t-70 -66t-37 -85t-12.5 -89.5q0 -81 40.5 -139t118.5 -58q38 0 84 15h-5l20 146l-115 -2l16 117h250l-46 -334q-42 -26 -110.5 -43t-119.5 -17q-131 0 -206 85 t-75 216z" />
<glyph unicode="H" horiz-adv-x="592" d="M48 0l95 674h146l-38 -269h204l38 269h145l-95 -674h-145l40 287h-204l-40 -287h-146z" />
<glyph unicode="I" horiz-adv-x="241" d="M48 0l95 674h145l-95 -674h-145z" />
<glyph unicode="J" horiz-adv-x="399" d="M8 40l44 101q54 -44 106 -44q63 0 77 100l67 477h143l-68 -483q-28 -204 -209 -204q-73 0 -160 53z" />
<glyph unicode="K" horiz-adv-x="550" d="M48 0l95 674h146l-33 -236l189 236h163l-251 -305l190 -369h-170l-124 247l-30 -37h1l-30 -210h-146z" />
<glyph unicode="L" horiz-adv-x="484" d="M48 0l95 674h147l-78 -556h262l-17 -118h-409z" />
<glyph unicode="M" horiz-adv-x="759" d="M35 0l140 674h162l71 -467q33 76 102 233.5t102 233.5h162l-50 -674h-142l36 419l-179 -419h-119l-60 414q-13 -71 -41 -209.5t-40 -204.5h-144z" />
<glyph unicode="N" horiz-adv-x="597" d="M48 0l95 674h176l120 -428l60 428h144l-95 -674h-167l-127 435l-61 -435h-145z" />
<glyph unicode="O" horiz-adv-x="640" d="M69 273q0 187 96 299.5t252 112.5q117 0 183 -75.5t66 -209.5q0 -187 -96 -300t-251 -113q-118 0 -184 76t-66 210zM220 282q0 -81 29 -130.5t86 -49.5q84 0 132 85t48 202q0 79 -29 130t-86 51q-56 0 -98 -42.5t-62 -107t-20 -138.5z" />
<glyph unicode="P" horiz-adv-x="524" d="M48 0l95 674h274q59 0 97 -30t52 -70t14 -88q0 -16 -4.5 -41t-19 -61.5t-37 -66.5t-63.5 -52t-94 -22h-134l-34 -243h-146zM245 361h107q42 0 63.5 39t21.5 74t-15 59t-43 24h-107z" />
<glyph unicode="Q" horiz-adv-x="632" d="M69 276q0 185 96 297t251 112q118 0 184 -75.5t66 -209.5q0 -114 -44.5 -204.5t-119.5 -148.5q12 -23 48 -23h65l-15 -107h-63q-22 0 -39 2t-29 6t-20 8t-15 11t-10.5 12t-8.5 14l-12 20l1 -3h-86q-114 0 -181.5 77.5t-67.5 211.5zM219 282q0 -80 29 -129t87 -49 q57 0 98.5 41.5t61.5 105t20 138.5q0 79 -29 130t-86 51q-56 0 -98 -42.5t-62.5 -107t-20.5 -138.5z" />
<glyph unicode="R" horiz-adv-x="558" d="M48 0l95 674h266q95 0 134.5 -49t39.5 -121q0 -21 -4 -43.5t-16.5 -55.5t-42.5 -60t-75 -41q50 -22 59 -70q33 -170 44 -234h-148l-40 192q-11 59 -50 60h-81l-35 -252h-146zM246 369h106q38 0 62.5 35t24.5 70q0 36 -15 59.5t-47 23.5h-105z" />
<glyph unicode="S" horiz-adv-x="514" d="M32 94l62 110q32 -39 87 -68.5t106 -29.5q32 0 60.5 21.5t28.5 60.5q0 42 -28 55l-144 70q-104 51 -104 152q0 98 72.5 159t178.5 61q69 0 114 -21t91 -67l-54 -102q-40 33 -77.5 50t-50 18t-34.5 1q-42 0 -68 -22t-26 -52q0 -36 37 -57q23 -11 71 -34t71 -33 q100 -47 100 -150q0 -104 -77.5 -166.5t-178.5 -62.5q-71 0 -124 25q-74 35 -113 82z" />
<glyph unicode="T" horiz-adv-x="492" d="M79 557l16 117h490l-16 -117h-173l-78 -557h-145l78 557h-172z" />
<glyph unicode="U" horiz-adv-x="612" d="M90 302l53 372h147l-53 -374q-14 -99 5.5 -147.5t77.5 -48.5q59 0 93 48.5t48 147.5l53 374h145l-53 -372q-24 -171 -99.5 -243t-202.5 -72q-126 0 -182 72.5t-32 242.5z" />
<glyph unicode="V" horiz-adv-x="571" d="M96 674h149l68 -486l205 486h147l-310 -674h-136z" />
<glyph unicode="W" horiz-adv-x="818" d="M96 674h150l31 -457l156 434h137l33 -430q26 77 78 226.5t79 226.5h151l-270 -674h-137l-33 435l-156 -435h-138z" />
<glyph unicode="X" horiz-adv-x="589" d="M2 0l262 333l-157 341h162l88 -228l153 228h161l-253 -341l169 -333h-165l-96 227l-161 -227h-163z" />
<glyph unicode="Y" horiz-adv-x="591" d="M97 674h163l89 -298l171 298h163l-280 -436h1l-34 -238h-148l34 237h1z" />
<glyph unicode="Z" horiz-adv-x="523" d="M14 0l15 106l375 451h-298l17 117h480l-15 -103l-379 -452h303l-17 -119h-481z" />
<glyph unicode="[" horiz-adv-x="296" d="M18 -185l121 859h208l-14 -97h-88l-93 -665h88l-14 -97h-208z" />
<glyph unicode="\" horiz-adv-x="348" d="M113 674h112l105 -674h-111z" />
<glyph unicode="]" horiz-adv-x="296" d="M18 -185l14 97h88l93 665h-88l14 97h208l-121 -859h-208z" />
<glyph unicode="^" horiz-adv-x="394" d="M70 361l171 313h103l82 -313h-130l-26 159l-70 -159h-130z" />
<glyph unicode="_" horiz-adv-x="554" d="M11 -112l13 92h500l-13 -92h-500z" />
<glyph unicode="`" horiz-adv-x="289" d="M138 708h142l59 -154h-111z" />
<glyph unicode="a" horiz-adv-x="451" d="M37 124q0 85 75.5 136.5t206.5 63.5l1 4q1 5 1 8.5t0.5 10t-0.5 11.5t-2.5 10.5t-5 10t-8.5 8.5t-13 6t-18 2q-31 0 -65.5 -10.5t-52.5 -20.5l-19 -11l-26 92q0 2 25 14.5t73.5 26.5t95.5 14h13t25.5 -3t34 -8.5t34 -18t30 -29.5t17 -44.5t0.5 -62.5l-47 -334h-142l7 50 q-41 -58 -124 -58q-41 0 -78.5 33t-37.5 99zM173 143q0 -20 9.5 -33t23.5 -13q12 0 29 4.5t38 24t25 49.5l9 65q-60 -11 -97 -36t-37 -61z" />
<glyph unicode="b" horiz-adv-x="489" d="M44 0l95 674h142l-33 -233q48 57 117 57q61 0 100.5 -52.5t39.5 -149.5q0 -147 -64 -228t-164 -81q-8 0 -22 3.5t-34.5 17.5t-29.5 36l-6 -44h-141zM211 175q-11 -76 59 -76q43 0 65.5 60t22.5 127q0 100 -62 100q-9 0 -21 -5.5t-27 -25.5t-19 -51z" />
<glyph unicode="c" horiz-adv-x="418" d="M53 198q0 135 73 217.5t192 82.5q80 0 146 -42l-41 -101q-46 30 -107 30q-57 0 -89.5 -52t-32.5 -120q0 -49 20.5 -81t61.5 -32q56 0 115 27l13 -99q-79 -41 -158 -41q-91 0 -142 56t-51 155z" />
<glyph unicode="d" horiz-adv-x="489" d="M52 187q0 145 63 228t149 83q69 0 101 -57l33 233h142l-95 -674h-141l6 44q-15 -22 -39.5 -36t-39.5 -17.5t-23 -3.5q-72 0 -114 51t-42 149zM199 198q0 -99 48 -99q70 0 81 76l18 129q3 24 -1.5 41.5t-13.5 25.5t-16.5 11.5t-13.5 3.5q-48 0 -75 -49.5t-27 -138.5z" />
<glyph unicode="e" horiz-adv-x="476" d="M54 203q0 124 71.5 209.5t182.5 85.5q87 0 135 -59.5t48 -152.5q0 -20 -1.5 -36t-3 -23.5t-4.5 -17.5t-4 -12h-294q2 -48 26.5 -76.5t71.5 -28.5q61 0 136 42l15 -92q-79 -54 -188 -54q-92 0 -141.5 61t-49.5 154zM197 289h169q5 43 -13.5 71t-56.5 28q-37 0 -64 -28 t-35 -71z" />
<glyph unicode="f" horiz-adv-x="271" d="M31 -185l82 574h-46l13 95h46l6 39q6 47 23 80t34 48.5t41.5 24t36 9t27.5 0.5h4q42 0 89 -32l-32 -85q-39 17 -55 17q-18 0 -24 -46l-8 -55h74l-13 -95h-74l-82 -574h-142z" />
<glyph unicode="g" horiz-adv-x="490" d="M48 -133l45 100q24 -18 61 -32t68 -14q78 0 90 81l5 37q-48 -52 -100 -52q-66 0 -115 56t-49 156q0 138 65 218.5t153 80.5q9 0 21.5 -2.5t36.5 -17.5t37 -41l7 47h141l-71 -504q-8 -60 -45.5 -99t-82.5 -52.5t-100 -13.5q-52 0 -99 15.5t-68 36.5zM198 198q0 -99 63 -99 q20 0 41 18t27 60l18 132q7 45 -12.5 61.5t-46.5 16.5q-30 0 -51.5 -33t-30 -74t-8.5 -82z" />
<glyph unicode="h" horiz-adv-x="489" d="M44 0l95 674h142l-33 -233q24 32 56 44.5t57 12.5q153 0 124 -216l-40 -282h-143l40 282q14 104 -31 104q-13 0 -28 -6t-33.5 -30.5t-23.5 -65.5l-40 -284h-142z" />
<glyph unicode="i" horiz-adv-x="231" d="M44 0l68 484h143l-68 -484h-143zM121 551l18 123h143l-18 -123h-143z" />
<glyph unicode="j" horiz-adv-x="241" d="M-71 -150l33 89l32 -12t21 -8q9 -3 16 2t10.5 17.5t5 21t3.5 21.5l71 503h144l-72 -507q-23 -162 -165 -162q-46 0 -99 35zM131 551l17 123h144l-17 -123h-144z" />
<glyph unicode="k" horiz-adv-x="453" d="M44 0l95 674h142l-43 -305q19 22 57 64t46 51h161l-183 -188h1l135 -296h-155l-82 205l-6 -6h2l-28 -199h-142z" />
<glyph unicode="l" horiz-adv-x="231" d="M44 0l95 674h143l-95 -674h-143z" />
<glyph unicode="m" horiz-adv-x="693" d="M40 0l68 484h138l-8 -54q57 68 118 68q28 0 53.5 -18.5t41.5 -48.5q25 30 58 48.5t62 18.5q63 0 101 -46.5t23 -155.5l-42 -296h-142l39 281q16 104 -30 104q-4 0 -8.5 -1t-13 -6t-15 -14t-13.5 -26.5t-10 -41.5l-42 -296h-142l42 295q14 90 -34 90q-19 0 -36.5 -25.5 t-26.5 -86.5l-38 -273h-143z" />
<glyph unicode="n" horiz-adv-x="480" d="M40 0l68 484h137l-8 -55q52 69 122 69q74 0 105.5 -50t14.5 -168l-39 -280h-142l39 280q16 108 -30 108q-22 0 -49.5 -24t-35.5 -82l-40 -282h-142z" />
<glyph unicode="o" horiz-adv-x="481" d="M53 197q0 135 71 218t186 83q88 0 137 -56t49 -154q0 -135 -71.5 -218t-186.5 -83q-87 0 -136 56.5t-49 153.5zM195 209q0 -48 15 -80.5t43 -32.5q42 0 71.5 57t29.5 123q0 47 -15.5 80t-43.5 33q-43 0 -71.5 -56.5t-28.5 -123.5z" />
<glyph unicode="p" horiz-adv-x="489" d="M18 -185l94 669h141l-7 -49q52 63 116 63q65 0 104 -51t39 -148q0 -147 -65 -229.5t-157 -82.5q-22 0 -50.5 14.5t-41.5 43.5l-32 -230h-141zM211 182q-4 -26 0.5 -44t13.5 -26t16.5 -11t13.5 -3q48 0 75 50t27 140q0 98 -47 98q-71 0 -81 -76z" />
<glyph unicode="q" horiz-adv-x="489" d="M52 191q0 144 62.5 225.5t152.5 81.5q64 0 98 -63l7 49h141l-94 -669h-141l32 230q-21 -29 -53.5 -43.5t-54.5 -14.5q-67 0 -108.5 53t-41.5 151zM199 198q0 -100 62 -100q6 0 14 3t20 11t21.5 26t12.5 44l18 128q11 76 -60 76q-30 0 -51 -33.5t-29 -74t-8 -80.5z" />
<glyph unicode="r" horiz-adv-x="323" d="M48 0l68 484h137l-9 -61q52 75 115 75h24l-17 -120h-31q-94 0 -109 -111l-37 -267h-141z" />
<glyph unicode="s" horiz-adv-x="402" d="M29 72l65 94q56 -68 130 -68q27 0 40 27q17 36 -7 47l-101 48q-78 44 -78 114q0 73 55 118.5t138 45.5q47 0 81.5 -14.5t78.5 -54.5l-51 -88q-58 53 -120 53q-26 0 -37 -28q-9 -31 33 -52l64 -30q39 -18 61.5 -52.5t22.5 -75.5q0 -33 -23 -79q-23 -40 -69.5 -65 t-102.5 -25q-51 0 -98.5 23t-81.5 62z" />
<glyph unicode="t" horiz-adv-x="317" d="M58 390l13 94h66l16 114h141l-16 -114h87l-13 -94h-87l-35 -251q-5 -14 -1 -29.5t22 -15.5q13 0 69 25l-10 -101q-54 -30 -98 -30q-18 0 -29 0.5t-34.5 9t-36.5 24t-21 48.5t-1 80l34 240h-66z" />
<glyph unicode="u" horiz-adv-x="489" d="M73 204l39 280h142l-39 -280q-15 -105 31 -105q7 0 16 2t24 9.5t27 27.5t16 49l41 297h143l-68 -484h-138l8 51q-21 -26 -49.5 -42t-43.5 -19t-24 -3q-27 0 -51.5 11t-44.5 35t-28.5 68.5t-0.5 102.5z" />
<glyph unicode="v" horiz-adv-x="490" d="M69 484h149l50 -320l140 320h148l-243 -484h-136z" />
<glyph unicode="w" horiz-adv-x="689" d="M69 484h149l22 -286l102 286h142l23 -282l102 282h147l-211 -484h-126l-35 278l-112 -278h-127z" />
<glyph unicode="x" horiz-adv-x="488" d="M2 0l193 245l-114 239h156l54 -144l33 51q30 49 61 93h156l-181 -239q110 -219 125 -245h-156l-64 152l-106 -152h-157z" />
<glyph unicode="y" horiz-adv-x="491" d="M43 -162l23 94q17 -12 49 -12q19 0 36 37l29 60q-24 110 -111 467h149l54 -303l137 303h149l-294 -585q-25 -48 -66.5 -66t-74.5 -18q-30 0 -80 23z" />
<glyph unicode="z" horiz-adv-x="416" d="M14 0l13 90l260 288h-212l15 106h380l-13 -90l-258 -288h211l-15 -106h-381z" />
<glyph unicode="{" horiz-adv-x="334" d="M73 206l11 76q39 5 55.5 31.5t23.5 74.5l22 165q7 51 50 86t85 35h82l-13 -94h-61q-13 0 -17.5 -10t-7.5 -31l-23 -164q-4 -41 -35 -82t-61 -49q28 -9 47 -49.5t12 -81.5l-23 -163q-6 -41 13 -41h61l-13 -94h-82q-42 0 -75 35t-26 86l24 164q3 27 3 49t-13 38t-39 19z " />
<glyph unicode="|" horiz-adv-x="192" d="M29 -108l123 878h104l-123 -878h-104z" />
<glyph unicode="}" horiz-adv-x="334" d="M1 -185l13 94h61q19 0 25 41l23 163q4 41 35 81.5t60 49.5q-27 9 -46 49.5t-12 81.5l23 164q4 16 2 28.5t-15 12.5h-61l13 94h82q42 0 75 -35t26 -86l-24 -165q-3 -27 -3 -49t13 -38t39 -19l-11 -76q-40 -5 -56.5 -32t-22.5 -74l-22 -164q-7 -51 -50 -86t-85 -35h-82z " />
<glyph unicode="~" horiz-adv-x="442" d="M55 197q12 86 49.5 126.5t108.5 40.5q24 0 60 -23q32 -21 45 -21q23 0 47 59h104q-12 -83 -51.5 -124.5t-111.5 -41.5q-22 0 -60 23q-34 21 -47 21q-22 0 -42 -60h-102z" />
<glyph unicode="&#xa1;" horiz-adv-x="248" d="M29 -190l81 490h112l-57 -490h-136zM103 364l17 120h144l-17 -120h-144z" />
<glyph unicode="&#xa2;" horiz-adv-x="418" d="M53 197q0 124 62.5 204.5t169.5 94.5h-6l12 90h104l-13 -95h-5q47 -11 86 -35l-40 -101q-46 30 -107 30q-57 0 -89.5 -52t-32.5 -120q0 -49 20.5 -81t61.5 -32q56 0 115 27l12 -99q-44 -24 -97 -34h6l-14 -100h-104l13 95h6q-77 9 -118.5 64t-41.5 144z" />
<glyph unicode="&#xa3;" horiz-adv-x="462" d="M21 -13l15 107h52l33 232h-66l13 96h66l3 17q10 71 42.5 122.5t70 75t78.5 30.5q16 3 48 3q77 0 133 -51l-49 -92q-51 37 -99 37q-31 0 -52 -34.5t-29 -90.5l-3 -17h134l-13 -96h-134l-33 -232h203l-15 -107h-398z" />
<glyph unicode="&#xa4;" horiz-adv-x="459" d="M48 141l57 59h-1q-12 32 -12 73q0 62 42 116q-6 11 -20.5 31.5t-20.5 30.5l79 84l50 -69q39 16 72 16q36 0 69 -16l67 67l62 -90l-62 -63h1q8 -32 8 -60q0 -48 -37 -111h-1l44 -60l-86 -84l-43 62q-35 -19 -76 -19q-38 0 -67 13q-11 -10 -34.5 -34t-34.5 -34zM91 449 l-6 14q1 -2 5 -8q2 -2 3 -4zM214 281q0 -27 12.5 -42t28.5 -15q21 0 42 22t21 62q0 27 -13.5 42.5t-29.5 15.5q-21 0 -41 -22.5t-20 -62.5z" />
<glyph unicode="&#xa5;" horiz-adv-x="518" d="M72 91l12 87h130l10 70h-130l12 88h104l-108 338h152l64 -258q22 43 67.5 129t68.5 129h153l-205 -338h102l-12 -88h-128l-10 -70h128l-12 -87h-128l-13 -91h-140l13 91h-130z" />
<glyph unicode="&#xa6;" horiz-adv-x="192" d="M29 -108l56 395h104l-56 -395h-104zM97 376l56 395h104l-56 -395h-104z" />
<glyph unicode="&#xa7;" horiz-adv-x="415" d="M38 68l63 91q51 -60 125 -60q22 0 33 23.5t-8 34.5l-68 36q-98 50 -98 128q0 31 18.5 64t47.5 57q-34 50 -19 117q16 54 64 86.5t113 32.5q79 0 153 -66l-54 -89q-52 45 -110 45q-20 0 -30.5 -13.5t-3 -31t31.5 -26.5l19 -9q73 -35 94 -59q28 -37 28 -81q0 -31 -16 -65.5 t-46 -57.5h1q19 -39 19 -80q0 -67 -52.5 -112.5t-131.5 -45.5q-110 0 -173 81zM219 341q0 -33 37 -53l24 -13q31 31 31 55q0 16 -13 26l-58 28q-21 -23 -21 -43z" />
<glyph unicode="&#xa8;" horiz-adv-x="333" d="M107 569l16 116h122l-16 -116h-122zM264 569l16 116h122l-16 -116h-122z" />
<glyph unicode="&#xa9;" horiz-adv-x="671" d="M73 290q0 159 109 277t250 118q113 0 186.5 -87.5t73.5 -215.5q0 -159 -109 -277t-249 -118q-113 0 -187 87.5t-74 215.5zM141 296q0 -104 57.5 -174.5t146.5 -70.5q112 0 198.5 96.5t86.5 225.5q0 105 -58 175.5t-147 70.5q-112 0 -198 -96.5t-86 -226.5zM217 303 q0 96 58 164.5t146 68.5q69 0 104 -24l-25 -52q-38 19 -77 19q-69 0 -102.5 -52.5t-33.5 -121.5q0 -50 22.5 -83t72.5 -33q37 0 84 18l9 -51q-41 -24 -110 -24t-108.5 48t-39.5 123z" />
<glyph unicode="&#xaa;" horiz-adv-x="314" d="M92 333l11 79h228l-11 -79h-228zM104 538q0 55 42.5 83t125.5 37v3q1 3 1 6.5v8t-1 8.5t-2.5 8t-5 6t-8.5 2q-17 0 -39 -5t-35 -11l-14 -5l-23 58q0 1 17 10.5t50 20t65 10.5h13.5t27 -5.5t35 -15.5t23 -32.5t5.5 -54.5l-29 -212h-110l4 35q-41 -39 -74 -39 q-26 0 -47 20.5t-21 63.5zM205 544q0 -18 10 -18q6 0 14 2.5t18 13t12 26.5l5 32q-59 -15 -59 -56z" />
<glyph unicode="&#xab;" horiz-adv-x="507" d="M82 325l145 232h128l-146 -232l80 -232h-128zM276 325l145 232h128l-146 -232l80 -232h-128z" />
<glyph unicode="&#xac;" horiz-adv-x="503" d="M64 264l17 123h449l-33 -236h-123l16 113h-326z" />
<glyph unicode="&#xad;" horiz-adv-x="387" d="M55 196l18 128h333l-18 -128h-333z" />
<glyph unicode="&#xae;" horiz-adv-x="671" d="M73 290q0 159 109 277t250 118q113 0 186.5 -87.5t73.5 -215.5q0 -159 -109 -277t-249 -118q-113 0 -187 87.5t-74 215.5zM141 296q0 -104 57.5 -174.5t146.5 -70.5q112 0 198.5 96.5t86.5 225.5q0 105 -58 175.5t-147 70.5q-112 0 -198 -96.5t-86 -226.5zM231 145 l55 390h151q51 0 72.5 -29t21.5 -71q0 -17 -3.5 -35.5t-21.5 -45t-49 -37.5h1q19 -12 27 -46l24 -126h-71l-24 123q-10 28 -29 28h-64l-22 -151h-68zM329 353h84q29 0 40 24.5t11 50.5q0 52 -38 52h-80z" />
<glyph unicode="&#xaf;" horiz-adv-x="295" d="M109 583l14 102h241l-14 -102h-241z" />
<glyph unicode="&#xb0;" horiz-adv-x="336" d="M97 488q0 67 48.5 115t112.5 48q53 0 88.5 -37t35.5 -91q0 -66 -49.5 -113.5t-114.5 -47.5q-53 0 -87 36t-34 90zM192 498q0 -21 11 -35.5t27 -14.5q21 0 38 19.5t17 46.5q0 21 -11 35.5t-28 14.5q-20 0 -37 -20t-17 -46z" />
<glyph unicode="&#xb1;" horiz-adv-x="504" d="M27 0l14 103h450l-14 -103h-450zM77 353l14 104h162l25 177h127l-25 -177h161l-14 -104h-161l-25 -176h-127l25 176h-162z" />
<glyph unicode="&#xb2;" horiz-adv-x="327" d="M105 467l7 48q6 41 34.5 71t77.5 62q22 14 33.5 22.5t25.5 26t14 33.5q0 14 -7 25t-20 11q-47 0 -82 -45l-34 52q56 70 130 70q46 0 76.5 -29.5t30.5 -76.5q0 -24 -8.5 -44t-30 -39t-33.5 -27.5t-42 -28.5q-31 -21 -67 -57h149l-10 -74h-244z" />
<glyph unicode="&#xb3;" horiz-adv-x="292" d="M81 518l44 50q32 -39 74 -39q26 0 38 17.5t12 37.5q0 16 -6.5 28t-18.5 12h-58l9 66h56q15 0 26 18t11 35q0 15 -7 26.5t-20 11.5q-43 0 -81 -41l-32 51q51 59 128 59q47 1 76.5 -25t29.5 -72q0 -56 -68 -94h-2q25 0 38.5 -23.5t13.5 -49.5q0 -55 -44 -90.5t-99 -35.5 q-77 0 -120 58z" />
<glyph unicode="&#xb4;" horiz-adv-x="289" d="M106 554l103 154h142l-134 -154h-111z" />
<glyph unicode="&#xb6;" horiz-adv-x="469" d="M83 453q0 89 66 155t152 66h219l-121 -859h-106l108 767h-46l-108 -767h-106l66 468h6q-58 11 -94 58.5t-36 111.5z" />
<glyph unicode="&#xb7;" horiz-adv-x="220" d="M69 240l18 130h150l-18 -130h-150z" />
<glyph unicode="&#xb8;" horiz-adv-x="235" d="M3 -174l13 96l47 -16q39 -14 32 29q-5 27 -27 75h93q31 -52 31 -110q0 -51 -32 -78t-85 -21q-39 4 -72 25z" />
<glyph unicode="&#xb9;" horiz-adv-x="235" d="M123 738l104 107h78l-53 -378h-90l39 277l-48 -49z" />
<glyph unicode="&#xba;" horiz-adv-x="342" d="M106 333l11 79h227l-11 -79h-227zM111 588q0 85 47 138t121 53q59 0 92 -36.5t33 -99.5q0 -85 -47 -138t-123 -53q-58 0 -90.5 36.5t-32.5 99.5zM219 593q0 -61 26 -61q21 0 35.5 33.5t14.5 72.5q0 61 -27 61q-20 0 -34.5 -33.5t-14.5 -72.5z" />
<glyph unicode="&#xbb;" horiz-adv-x="507" d="M49 93l147 232q-13 37 -40.5 116t-41.5 116h129l79 -232l-144 -232h-129zM243 93l146 232l-81 232h129l79 -232l-144 -232h-129z" />
<glyph unicode="&#xbc;" horiz-adv-x="654" d="M99 0l434 674h74l-433 -674h-75zM111 567l104 107h78l-53 -378h-95l35 255l-36 -34zM361 77l8 56q30 60 79 127t99 118h88l-33 -235h42l-9 -66h-42l-11 -77l-96 1l11 76h-136zM449 143h57l15 109q-48 -60 -72 -109z" />
<glyph unicode="&#xbd;" horiz-adv-x="680" d="M112 0l433 674h74l-432 -674h-75zM114 567l104 107h78l-53 -378h-90l39 277l-48 -49zM382 0l7 48q6 41 34.5 71t77.5 62q22 14 33.5 22.5t25.5 26t14 33.5q0 14 -7 25t-20 11q-47 0 -82 -45l-34 52q56 70 130 70q46 0 76.5 -29.5t30.5 -76.5q0 -24 -8.5 -44t-30 -39 t-33.5 -27.5t-42 -28.5q-31 -21 -67 -57h149l-10 -74h-244z" />
<glyph unicode="&#xbe;" horiz-adv-x="680" d="M65 348l44 50q32 -39 74 -39q26 0 38 17.5t12 37.5q0 16 -6.5 28t-18.5 12h-58l9 66h56q15 0 26 18t11 35q0 15 -7 26.5t-20 11.5q-43 0 -81 -41l-32 51q51 59 128 59q47 1 76.5 -25t29.5 -72q0 -56 -68 -94h-2q25 -7 38.5 -28t13.5 -45q0 -55 -44 -90.5t-99 -35.5 q-77 0 -120 58zM139 0l434 674h74l-433 -674h-75zM401 77l8 56q30 60 79 127t99 118h88l-33 -235h42l-9 -66h-42l-11 -77l-96 1l11 76h-136zM489 143h57l16 109q-48 -58 -73 -109z" />
<glyph unicode="&#xbf;" horiz-adv-x="479" d="M25 -29q0 102 115 201q9 8 30 24.5t28 24.5t16.5 28.5t13.5 50.5h127q-5 -36 -11.5 -58t-11.5 -37t-27 -38t-34.5 -35t-58.5 -54q-43 -39 -43 -97q0 -31 14.5 -52t42.5 -21q41 0 76 27.5t49 52.5l68 -69q-10 -17 -26 -34.5t-41.5 -38.5t-63.5 -34t-80 -13q-81 0 -132 44 t-51 128zM227 364l17 120h144l-17 -120h-144z" />
<glyph unicode="&#xc0;" horiz-adv-x="614" d="M1 0l333 674h135l143 -674h-152l-29 154h-207l-71 -154h-152zM275 898h142l60 -154h-111zM277 264h132l-32 234z" />
<glyph unicode="&#xc1;" horiz-adv-x="614" d="M1 0l333 674h135l143 -674h-152l-29 154h-207l-71 -154h-152zM277 264h132l-32 234zM351 744l102 154h142l-133 -154h-111z" />
<glyph unicode="&#xc2;" horiz-adv-x="614" d="M1 0l333 674h135l143 -674h-152l-29 154h-207l-71 -154h-152zM255 752l116 167h129l71 -167h-121l-28 75l-45 -75h-122zM277 264h132l-32 234z" />
<glyph unicode="&#xc3;" horiz-adv-x="614" d="M1 0l333 674h135l143 -674h-152l-29 154h-207l-71 -154h-152zM271 756q14 69 38 102t78 33q21 0 50 -19q21 -14 25 -14q5 0 12 12t8 28h93q-12 -67 -37 -101t-79 -34q-28 0 -50 22q-15 13 -22 13q-15 0 -24 -42h-92zM277 264h132l-32 234z" />
<glyph unicode="&#xc4;" horiz-adv-x="614" d="M1 0l333 674h135l143 -674h-152l-29 154h-207l-71 -154h-152zM274 759l16 116h122l-16 -116h-122zM277 264h132l-32 234zM431 759l16 116h122l-16 -116h-122z" />
<glyph unicode="&#xc5;" horiz-adv-x="614" d="M1 0l333 674h135l143 -674h-152l-29 154h-207l-71 -154h-152zM277 264h132l-32 234zM324 838q0 50 29 85.5t89 35.5q47 0 68 -23.5t21 -62.5q0 -52 -27.5 -87t-90.5 -35q-46 0 -67.5 24t-21.5 63zM397 845q0 -37 23 -37q16 0 26.5 17t10.5 39q0 37 -24 37q-16 0 -26 -17 t-10 -39z" />
<glyph unicode="&#xc6;" horiz-adv-x="819" d="M2 0l383 674h492l-17 -117h-279l-22 -159h260l-17 -117h-261l-23 -164h286l-16 -117h-432l21 148h-134q-50 -88 -82 -148h-159zM299 264h94l36 256z" />
<glyph unicode="&#xc7;" horiz-adv-x="546" d="M70 284q0 108 45 199.5t127.5 146.5t184.5 55q31 0 64.5 -5.5t67 -17t57.5 -27.5l-48 -104q-80 36 -140 36q-53 0 -95 -25.5t-66 -66t-36.5 -87t-12.5 -94.5q0 -37 8 -69.5t24 -60t45 -43.5t68 -16q55 0 153 37l16 -105q-69 -40 -167 -48q9 -23 12 -32t6 -24t3 -33 q0 -52 -32 -78.5t-85 -20.5q-41 5 -71 25l13 96l47 -16q33 -11 31 19q-1 22 -19 67h5q-65 12 -112 53.5t-70 103t-23 135.5z" />
<glyph unicode="&#xc8;" horiz-adv-x="512" d="M48 0l95 674h427l-17 -117h-281l-22 -159h260l-17 -117h-260l-23 -164h286l-16 -117h-432zM235 898h142l60 -154h-111z" />
<glyph unicode="&#xc9;" horiz-adv-x="512" d="M48 0l95 674h427l-17 -117h-281l-22 -159h260l-17 -117h-260l-23 -164h286l-16 -117h-432zM277 744l102 154h142l-133 -154h-111z" />
<glyph unicode="&#xca;" horiz-adv-x="512" d="M48 0l95 674h427l-17 -117h-281l-22 -159h260l-17 -117h-260l-23 -164h286l-16 -117h-432zM204 752l116 167h129l71 -167h-121l-28 75l-45 -75h-122z" />
<glyph unicode="&#xcb;" horiz-adv-x="512" d="M48 0l95 674h427l-17 -117h-281l-22 -159h260l-17 -117h-260l-23 -164h286l-16 -117h-432zM223 759l16 116h122l-16 -116h-122zM380 759l16 116h122l-16 -116h-122z" />
<glyph unicode="&#xcc;" horiz-adv-x="241" d="M48 0l95 674h145l-95 -674h-145zM95 898h142l60 -154h-111z" />
<glyph unicode="&#xcd;" horiz-adv-x="241" d="M48 0l95 674h145l-95 -674h-145zM152 744l102 154h142l-133 -154h-111z" />
<glyph unicode="&#xce;" horiz-adv-x="241" d="M48 0l95 674h145l-95 -674h-145zM69 752l116 167h129l71 -167h-121l-28 75l-45 -75h-122z" />
<glyph unicode="&#xcf;" horiz-adv-x="241" d="M48 0l95 674h145l-95 -674h-145zM88 759l16 116h122l-16 -116h-122zM245 759l16 116h122l-16 -116h-122z" />
<glyph unicode="&#xd0;" horiz-adv-x="630" d="M41 283l16 111h80l39 280h228q124 0 192 -69.5t68 -203.5q0 -192 -95.5 -296.5t-259.5 -104.5h-228l40 283h-80zM243 117h86q80 0 135 69t55 203q0 86 -35 127t-96 41h-83l-23 -163h135l-16 -111h-135z" />
<glyph unicode="&#xd1;" horiz-adv-x="597" d="M48 0l95 674h176l120 -428l60 428h144l-95 -674h-167l-127 435l-61 -435h-145zM262 756q14 69 38 102t78 33q22 0 50 -19q21 -14 25 -14q5 0 12 12t8 28h93q-12 -67 -37 -101t-79 -34q-28 0 -50 22q-15 13 -22 13q-15 0 -24 -42h-92z" />
<glyph unicode="&#xd2;" horiz-adv-x="640" d="M69 273q0 187 96 299.5t252 112.5q117 0 183 -75.5t66 -209.5q0 -187 -96 -300t-251 -113q-118 0 -184 76t-66 210zM220 282q0 -81 29 -130.5t86 -49.5q84 0 132 85t48 202q0 79 -29 130t-86 51q-56 0 -98 -42.5t-62 -107t-20 -138.5zM276 898h142l59 -154h-111z" />
<glyph unicode="&#xd3;" horiz-adv-x="640" d="M69 273q0 187 96 299.5t252 112.5q117 0 183 -75.5t66 -209.5q0 -187 -96 -300t-251 -113q-118 0 -184 76t-66 210zM220 282q0 -81 29 -130.5t86 -49.5q84 0 132 85t48 202q0 79 -29 130t-86 51q-56 0 -98 -42.5t-62 -107t-20 -138.5zM364 744l103 154h142l-134 -154 h-111z" />
<glyph unicode="&#xd4;" horiz-adv-x="640" d="M69 273q0 187 96 299.5t252 112.5q117 0 183 -75.5t66 -209.5q0 -187 -96 -300t-251 -113q-118 0 -184 76t-66 210zM220 282q0 -81 29 -130.5t86 -49.5q84 0 132 85t48 202q0 79 -29 130t-86 51q-56 0 -98 -42.5t-62 -107t-20 -138.5zM268 752l116 167h129l71 -167h-121 l-27 75l-46 -75h-122z" />
<glyph unicode="&#xd5;" horiz-adv-x="640" d="M69 273q0 187 96 299.5t252 112.5q117 0 183 -75.5t66 -209.5q0 -187 -96 -300t-251 -113q-118 0 -184 76t-66 210zM220 282q0 -81 29 -130.5t86 -49.5q84 0 132 85t48 202q0 79 -29 130t-86 51q-56 0 -98 -42.5t-62 -107t-20 -138.5zM285 756q13 68 37.5 101.5 t78.5 33.5q21 0 49 -19q21 -14 25 -14q5 0 12.5 12t8.5 28h93q-13 -68 -37.5 -101.5t-78.5 -33.5q-28 0 -50 22q-15 13 -23 13q-15 0 -23 -42h-92z" />
<glyph unicode="&#xd6;" horiz-adv-x="640" d="M69 273q0 187 96 299.5t252 112.5q117 0 183 -75.5t66 -209.5q0 -187 -96 -300t-251 -113q-118 0 -184 76t-66 210zM220 282q0 -81 29 -130.5t86 -49.5q84 0 132 85t48 202q0 79 -29 130t-86 51q-56 0 -98 -42.5t-62 -107t-20 -138.5zM287 759l16 116h122l-16 -116h-122z M444 759l16 116h122l-16 -116h-122z" />
<glyph unicode="&#xd7;" horiz-adv-x="511" d="M49 139l175 176l-125 177l88 90l126 -177l174 176l65 -89l-175 -177l125 -175l-90 -90l-124 175l-176 -176z" />
<glyph unicode="&#xd8;" horiz-adv-x="640" d="M56 -55l79 112h1q-67 73 -67 218q0 186 96 298t251 112q76 0 134 -32l45 65h86l-77 -108h-1q63 -71 63 -210q0 -187 -96.5 -300t-251.5 -113q-73 0 -127 27l-49 -69h-86zM219 281q0 -56 10 -89l241 348h1q-30 30 -71 30q-83 0 -132 -86.5t-49 -202.5zM266 126 q29 -24 68 -24q84 0 132 85t48 200q0 54 -7 83l-239 -344h-2z" />
<glyph unicode="&#xd9;" horiz-adv-x="612" d="M90 302l53 372h147l-53 -374q-14 -99 5.5 -147.5t77.5 -48.5q59 0 93 48.5t48 147.5l53 374h145l-53 -372q-24 -171 -99.5 -243t-202.5 -72q-126 0 -182 72.5t-32 242.5zM284 898h142l59 -154h-111z" />
<glyph unicode="&#xda;" horiz-adv-x="612" d="M90 302l53 372h147l-53 -374q-14 -99 5.5 -147.5t77.5 -48.5q59 0 93 48.5t48 147.5l53 374h145l-53 -372q-24 -171 -99.5 -243t-202.5 -72q-126 0 -182 72.5t-32 242.5zM335 744l103 154h142l-134 -154h-111z" />
<glyph unicode="&#xdb;" horiz-adv-x="612" d="M90 302l53 372h147l-53 -374q-14 -99 5.5 -147.5t77.5 -48.5q59 0 93 48.5t48 147.5l53 374h145l-53 -372q-24 -171 -99.5 -243t-202.5 -72q-126 0 -182 72.5t-32 242.5zM254 752l116 167h129l71 -167h-121l-28 75l-45 -75h-122z" />
<glyph unicode="&#xdc;" horiz-adv-x="612" d="M90 302l53 372h147l-53 -374q-14 -99 5.5 -147.5t77.5 -48.5q59 0 93 48.5t48 147.5l53 374h145l-53 -372q-24 -171 -99.5 -243t-202.5 -72q-126 0 -182 72.5t-32 242.5zM273 759l16 116h122l-16 -116h-122zM430 759l16 116h122l-16 -116h-122z" />
<glyph unicode="&#xdd;" horiz-adv-x="591" d="M97 674h163l89 -298l171 298h163l-280 -436h1l-34 -238h-148l34 237h1zM289 744l102 154h142l-133 -154h-111z" />
<glyph unicode="&#xde;" horiz-adv-x="505" d="M48 0l95 674h146l-21 -145q20 28 52.5 41.5t57.5 13.5q66 0 110 -53t44 -154q0 -148 -70 -229t-173 -81q-18 0 -42.5 11.5t-36.5 36.5q-3 -17 -9 -57.5t-8 -57.5h-145zM230 255q-11 -76 62 -76q44 0 67.5 61t23.5 130q0 103 -65 103q-7 0 -14 -2.5t-19.5 -10t-22.5 -28.5 t-15 -53z" />
<glyph unicode="&#xdf;" horiz-adv-x="519" d="M48 0l64 455q16 104 78.5 167t156.5 63q45 0 85.5 -14t71.5 -51.5t31 -93.5q0 -90 -84 -147h-1q74 -42 74 -139q0 -95 -66 -167.5t-177 -72.5h-66l15 108h66q40 0 67.5 40t27.5 88q0 41 -16 69t-48 28q-5 0 -18 1t-17 1l12 83l35 2q21 0 38 29t17 66q0 64 -62 64 q-59 0 -76 -124l-64 -455h-144z" />
<glyph unicode="&#xe0;" horiz-adv-x="451" d="M37 124q0 85 75.5 136.5t206.5 63.5l1 4q1 5 1 8.5t0.5 10t-0.5 11.5t-2.5 10.5t-5 10t-8.5 8.5t-13 6t-18 2q-31 0 -65.5 -10.5t-52.5 -20.5l-19 -11l-26 92q0 2 25 14.5t73.5 26.5t95.5 14h13t25.5 -3t34 -8.5t34 -18t30 -29.5t17 -44.5t0.5 -62.5l-47 -334h-142l7 50 q-41 -58 -124 -58q-41 0 -78.5 33t-37.5 99zM173 143q0 -20 9.5 -33t23.5 -13q12 0 29 4.5t38 24t25 49.5l9 65q-60 -11 -97 -36t-37 -61zM178 708h142l59 -154h-111z" />
<glyph unicode="&#xe1;" horiz-adv-x="451" d="M37 124q0 85 75.5 136.5t206.5 63.5q0 1 0.5 4.5t1 6.5t1 8.5t0 10t-1.5 9.5t-3 9.5t-6 9t-8.5 7t-12 4.5t-16.5 2q-31 0 -65.5 -10.5t-52.5 -20.5l-19 -11l-26 92q0 2 25 14.5t73.5 26.5t95.5 14h7.5t14.5 -1t20 -3t23.5 -5.5t24.5 -9.5t23 -15t20 -21t15 -28.5t8 -37 t-2 -45.5l-47 -334h-142l7 50q-41 -58 -124 -58q-41 0 -78.5 33t-37.5 99zM173 143q0 -20 9.5 -33t23.5 -13q8 0 19.5 3t28 10.5t29 24.5t15.5 40l9 65q-60 -11 -97 -36t-37 -61zM222 554l103 154h142l-134 -154h-111z" />
<glyph unicode="&#xe2;" horiz-adv-x="451" d="M37 124q0 85 75.5 136.5t206.5 63.5l1 4q1 5 1 8.5t0.5 10t-0.5 11.5t-2.5 10.5t-5 10t-8.5 8.5t-13 6t-18 2q-31 0 -65.5 -10.5t-52.5 -20.5l-19 -11l-26 92q0 2 25 14.5t73.5 26.5t95.5 14h13t25.5 -3t34 -8.5t34 -18t30 -29.5t17 -44.5t0.5 -62.5l-47 -334h-142l7 50 q-41 -58 -124 -58q-41 0 -78.5 33t-37.5 99zM146 562l117 167h129l70 -167h-121l-27 75l-46 -75h-122zM173 143q0 -20 9.5 -33t23.5 -13q12 0 29 4.5t38 24t25 49.5l9 65q-60 -11 -97 -36t-37 -61z" />
<glyph unicode="&#xe3;" horiz-adv-x="451" d="M37 124q0 85 75.5 136.5t206.5 63.5l1 4q1 5 1 8.5t0.5 10t-0.5 11.5t-2.5 10.5t-5 10t-8.5 8.5t-13 6t-18 2q-31 0 -65.5 -10.5t-52.5 -20.5l-19 -11l-26 92q0 2 25 14.5t73.5 26.5t95.5 14h13t25.5 -3t34 -8.5t34 -18t30 -29.5t17 -44.5t0.5 -62.5l-47 -334h-142l7 50 q-41 -58 -124 -58q-41 0 -78.5 33t-37.5 99zM163 566q13 68 37.5 101.5t78.5 33.5q21 0 50 -19h-1q21 -14 25 -14q5 0 12.5 12t8.5 28h93q-12 -67 -37 -101t-79 -34q-28 0 -50 22q-15 13 -22 13q-3 0 -7.5 -4t-9 -14t-7.5 -24h-92zM173 143q0 -20 9.5 -33t23.5 -13 q12 0 29 4.5t38 24t25 49.5l9 65q-60 -11 -97 -36t-37 -61z" />
<glyph unicode="&#xe4;" horiz-adv-x="451" d="M37 124q0 85 75.5 136.5t206.5 63.5q0 1 0.5 4.5t1 6.5t1 8.5t0 10t-1.5 9.5t-3 9.5t-6 9t-8.5 7t-12 4.5t-16.5 2q-31 0 -65.5 -10.5t-52.5 -20.5l-19 -11l-26 92q0 2 25 14.5t73.5 26.5t95.5 14h7.5t14.5 -1t20 -3t23.5 -5.5t24.5 -9.5t23 -15t20 -21t15 -28.5t8 -37 t-2 -45.5l-47 -334h-142l7 50q-41 -58 -124 -58q-41 0 -78.5 33t-37.5 99zM166 569l17 116h122l-17 -116h-122zM173 143q0 -20 9.5 -33t23.5 -13q8 0 19.5 3t28 10.5t29 24.5t15.5 40l9 65q-60 -11 -97 -36t-37 -61zM323 569l17 116h122l-17 -116h-122z" />
<glyph unicode="&#xe5;" horiz-adv-x="451" d="M37 124q0 85 75.5 136.5t206.5 63.5l1 4q1 5 1 8.5t0.5 10t-0.5 11.5t-2.5 10.5t-5 10t-8.5 8.5t-13 6t-18 2q-31 0 -65.5 -10.5t-52.5 -20.5l-19 -11l-26 92q0 2 25 14.5t73.5 26.5t95.5 14h13t25.5 -3t34 -8.5t34 -18t30 -29.5t17 -44.5t0.5 -62.5l-47 -334h-142l7 50 q-41 -58 -124 -58q-41 0 -78.5 33t-37.5 99zM173 143q0 -20 9.5 -33t23.5 -13q12 0 29 4.5t38 24t25 49.5l9 65q-60 -11 -97 -36t-37 -61zM215 648q0 50 29.5 85.5t89.5 35.5q47 0 68 -23.5t21 -62.5q0 -52 -28 -87t-91 -35q-46 0 -67.5 24t-21.5 63zM288 655q0 -37 23 -37 q17 0 27.5 17t10.5 39q0 37 -25 37q-16 0 -26 -17t-10 -39z" />
<glyph unicode="&#xe6;" horiz-adv-x="731" d="M37 124q0 85 75.5 136.5t206.5 63.5l1 4q1 5 1 8.5t0.5 10t-0.5 11.5t-2.5 10.5t-5 10t-8.5 8.5t-13 6t-18 2q-31 0 -65.5 -10.5t-52.5 -20.5l-19 -11l-26 92q0 2 25 14.5t73.5 26.5t95.5 14q82 0 123 -45q57 43 135 43q87 0 135 -59.5t48 -152.5q0 -40 -13 -89h-293 l-1 -8q7 -97 98 -97q61 0 136 42l15 -92q-79 -54 -188 -54q-108 0 -158 79q-59 -75 -155 -75q-62 0 -106 32t-44 100zM173 143q0 -20 9.5 -33t23.5 -13q12 0 29 4.5t38 24t25 49.5l8 58q-133 -25 -133 -90zM450 289h169q5 43 -13.5 71t-56.5 28q-37 0 -64 -28t-35 -71z" />
<glyph unicode="&#xe7;" horiz-adv-x="418" d="M53 198q0 135 73 217.5t192 82.5q80 0 146 -42l-41 -101q-46 30 -107 30q-57 0 -89.5 -52t-32.5 -120q0 -49 20.5 -81t61.5 -32q56 0 115 27l12 -99q-56 -29 -119 -38h5q19 -46 20 -64q0 -3 0.5 -12.5t0.5 -13.5q0 -51 -32 -78t-85 -21q-40 4 -73 25l14 96l47 -16 q36 -12 32 24q-2 22 -19 62h5q-70 12 -108 66.5t-38 139.5z" />
<glyph unicode="&#xe8;" horiz-adv-x="476" d="M54 203q0 124 71.5 209.5t182.5 85.5q87 0 135 -59.5t48 -152.5q0 -20 -1.5 -36t-3 -23.5t-4.5 -17.5t-4 -12h-294q2 -48 26.5 -76.5t71.5 -28.5q61 0 136 42l15 -92q-79 -54 -188 -54q-92 0 -141.5 61t-49.5 154zM185 708h142l59 -154h-111zM197 289h169q5 43 -13.5 71 t-56.5 28q-37 0 -64 -28t-35 -71z" />
<glyph unicode="&#xe9;" horiz-adv-x="476" d="M54 203q0 124 71.5 209.5t182.5 85.5q87 0 135 -59.5t48 -152.5q0 -20 -1.5 -36t-3 -23.5t-4.5 -17.5t-4 -12h-294q2 -48 26.5 -76.5t71.5 -28.5q61 0 136 42l15 -92q-79 -54 -188 -54q-92 0 -141.5 61t-49.5 154zM197 289h169q5 43 -13.5 71t-56.5 28q-37 0 -64 -28 t-35 -71zM250 554l103 154h142l-134 -154h-111z" />
<glyph unicode="&#xea;" horiz-adv-x="476" d="M54 203q0 124 71.5 209.5t182.5 85.5q87 0 135 -59.5t48 -152.5q0 -20 -1.5 -36t-3 -23.5t-4.5 -17.5t-4 -12h-294q2 -48 26.5 -76.5t71.5 -28.5q61 0 136 42l15 -92q-79 -54 -188 -54q-92 0 -141.5 61t-49.5 154zM159 562l117 167h129l70 -167h-121l-27 75l-46 -75h-122 zM197 289h169q5 43 -13.5 71t-56.5 28q-37 0 -64 -28t-35 -71z" />
<glyph unicode="&#xeb;" horiz-adv-x="476" d="M54 203q0 124 71.5 209.5t182.5 85.5q87 0 135 -59.5t48 -152.5q0 -20 -1.5 -36t-3 -23.5t-4.5 -17.5t-4 -12h-294q2 -48 26.5 -76.5t71.5 -28.5q61 0 136 42l15 -92q-79 -54 -188 -54q-92 0 -141.5 61t-49.5 154zM178 569l17 116h122l-17 -116h-122zM197 289h169 q5 43 -13.5 71t-56.5 28q-37 0 -64 -28t-35 -71zM335 569l17 116h122l-17 -116h-122z" />
<glyph unicode="&#xec;" horiz-adv-x="231" d="M44 0l68 484h143l-68 -484h-143zM64 708h142l59 -154h-111z" />
<glyph unicode="&#xed;" horiz-adv-x="231" d="M44 0l68 484h143l-68 -484h-143zM122 554l103 154h142l-134 -154h-111z" />
<glyph unicode="&#xee;" horiz-adv-x="231" d="M37 562l116 167h129l71 -167h-121l-27 75l-46 -75h-122zM44 0l68 484h143l-68 -484h-143z" />
<glyph unicode="&#xef;" horiz-adv-x="231" d="M44 0l68 484h143l-68 -484h-143zM56 569l16 116h122l-16 -116h-122zM213 569l16 116h122l-16 -116h-122z" />
<glyph unicode="&#xf0;" horiz-adv-x="472" d="M48 195q0 109 70 194t149 85q26 0 44 -9q-23 46 -66 77q-22 -24 -78 -80l-39 54l65 67q-23 25 -58 52l83 77q40 -20 65 -40l66 67l45 -49l-55 -56q63 -68 107 -164t44 -191q0 -130 -70.5 -210t-185.5 -80q-87 0 -136.5 55t-49.5 151zM197 208q0 -43 13.5 -73t39.5 -30 q39 0 66 52.5t27 114.5q0 45 -14 75t-41 30q-39 0 -65 -53t-26 -116z" />
<glyph unicode="&#xf1;" horiz-adv-x="480" d="M40 0l68 484h137l-8 -55q52 69 122 69q74 0 105.5 -50t14.5 -168l-39 -280h-142l39 280q16 108 -30 108q-22 0 -49.5 -24t-35.5 -82l-40 -282h-142zM178 566q13 68 37.5 101.5t78.5 33.5q21 0 49 -19q21 -14 25 -14q5 0 12.5 12t8.5 28h93q-6 -33 -14 -55.5t-21 -41.5 t-33 -28.5t-48 -9.5q-29 0 -51 22h1q-15 13 -23 13q-3 0 -7 -4t-8.5 -14t-7.5 -24h-92z" />
<glyph unicode="&#xf2;" horiz-adv-x="481" d="M53 197q0 135 71 218t186 83q88 0 137 -56t49 -154q0 -135 -71.5 -218t-186.5 -83q-87 0 -136 56.5t-49 153.5zM173 708h142l59 -154h-111zM195 209q0 -48 15 -80.5t43 -32.5q42 0 71.5 57t29.5 123q0 47 -15.5 80t-43.5 33q-43 0 -71.5 -56.5t-28.5 -123.5z" />
<glyph unicode="&#xf3;" horiz-adv-x="481" d="M53 197q0 135 71 218t186 83q88 0 137 -56t49 -154q0 -135 -71.5 -218t-186.5 -83q-87 0 -136 56.5t-49 153.5zM195 209q0 -48 15 -80.5t43 -32.5q42 0 71.5 57t29.5 123q0 47 -15.5 80t-43.5 33q-43 0 -71.5 -56.5t-28.5 -123.5zM254 554l103 154h142l-134 -154h-111z " />
<glyph unicode="&#xf4;" horiz-adv-x="481" d="M53 197q0 135 71 218t186 83q88 0 137 -56t49 -154q0 -135 -71.5 -218t-186.5 -83q-87 0 -136 56.5t-49 153.5zM161 562l116 167h129l71 -167h-121l-27 75l-46 -75h-122zM195 209q0 -48 15 -80.5t43 -32.5q42 0 71.5 57t29.5 123q0 47 -15.5 80t-43.5 33 q-43 0 -71.5 -56.5t-28.5 -123.5z" />
<glyph unicode="&#xf5;" horiz-adv-x="481" d="M53 197q0 135 71 218t186 83q88 0 137 -56t49 -154q0 -135 -71.5 -218t-186.5 -83q-87 0 -136 56.5t-49 153.5zM178 566q13 68 37.5 101.5t78.5 33.5q21 0 49 -19q21 -14 25 -14q5 0 12.5 12t8.5 28h93q-6 -33 -14 -55.5t-21 -41.5t-33 -28.5t-48 -9.5q-29 0 -51 22h1 q-15 13 -23 13q-3 0 -7 -4t-8.5 -14t-7.5 -24h-92zM195 209q0 -48 15 -80.5t43 -32.5q42 0 71.5 57t29.5 123q0 47 -15.5 80t-43.5 33q-43 0 -71.5 -56.5t-28.5 -123.5z" />
<glyph unicode="&#xf6;" horiz-adv-x="481" d="M53 197q0 135 71 218t186 83q88 0 137 -56t49 -154q0 -135 -71.5 -218t-186.5 -83q-87 0 -136 56.5t-49 153.5zM181 569l16 116h122l-16 -116h-122zM195 209q0 -48 15 -80.5t43 -32.5q42 0 71.5 57t29.5 123q0 47 -15.5 80t-43.5 33q-43 0 -71.5 -56.5t-28.5 -123.5z M338 569l16 116h122l-16 -116h-122z" />
<glyph unicode="&#xf7;" horiz-adv-x="502" d="M67 282l16 113h448l-16 -113h-448zM184 91l18 130h149l-18 -130h-149zM236 461l18 130h149l-18 -130h-149z" />
<glyph unicode="&#xf8;" horiz-adv-x="490" d="M30 -44l65 95h1q-39 53 -39 146q0 136 71 218.5t186 82.5q44 0 82 -15l33 47h86l-61 -87h-1q48 -54 48 -157q0 -134 -72 -216.5t-187 -82.5q-53 0 -91 19l-35 -50h-86zM199 201l124 177h2q-13 11 -26 11q-42 0 -71 -56.5t-29 -123.5v-8zM224 113q15 -17 34 -17 q42 0 71 57t29 122q0 22 -1 29l-132 -191h-1z" />
<glyph unicode="&#xf9;" horiz-adv-x="489" d="M73 204l39 280h142l-39 -280q-15 -105 31 -105q7 0 16 2t24 9.5t27 27.5t16 49l41 297h143l-68 -484h-138l8 51q-21 -26 -49.5 -42t-43.5 -19t-24 -3q-27 0 -51.5 11t-44.5 35t-28.5 68.5t-0.5 102.5zM194 708h142l59 -154h-111z" />
<glyph unicode="&#xfa;" horiz-adv-x="489" d="M73 204l39 280h142l-39 -280q-15 -105 31 -105q7 0 16 2t24 9.5t27 27.5t16 49l41 297h143l-68 -484h-138l8 51q-21 -26 -49.5 -42t-43.5 -19t-24 -3q-27 0 -51.5 11t-44.5 35t-28.5 68.5t-0.5 102.5zM250 554l103 154h142l-134 -154h-111z" />
<glyph unicode="&#xfb;" horiz-adv-x="489" d="M73 204l39 280h142l-39 -280q-15 -105 31 -105q7 0 16 2t24 9.5t27 27.5t16 49l41 297h143l-68 -484h-138l8 51q-21 -26 -49.5 -42t-43.5 -19t-24 -3q-27 0 -51.5 11t-44.5 35t-28.5 68.5t-0.5 102.5zM165 562l117 167h129l70 -167h-121l-27 75l-46 -75h-122z" />
<glyph unicode="&#xfc;" horiz-adv-x="489" d="M73 204l39 280h142l-39 -280q-15 -105 31 -105q7 0 16 2t24 9.5t27 27.5t16 49l41 297h143l-68 -484h-138l8 51q-21 -26 -49.5 -42t-43.5 -19t-24 -3q-27 0 -51.5 11t-44.5 35t-28.5 68.5t-0.5 102.5zM185 569l17 116h122l-17 -116h-122zM342 569l17 116h122l-17 -116 h-122z" />
<glyph unicode="&#xfd;" horiz-adv-x="491" d="M43 -162l23 94q17 -12 49 -12q19 0 36 37l29 60q-24 110 -111 467h149l54 -303l137 303h149l-294 -585q-25 -48 -66.5 -66t-74.5 -18q-30 0 -80 23zM212 554l102 154h142l-133 -154h-111z" />
<glyph unicode="&#xfe;" horiz-adv-x="494" d="M22 -185l121 859h143l-32 -229q43 53 105 53q68 0 109.5 -52.5t41.5 -150.5q0 -146 -63.5 -227t-162.5 -81q-8 0 -20 2t-34 13.5t-35 31.5l-31 -219h-142zM216 175q-7 -45 12.5 -61.5t45.5 -16.5q43 0 66 61t23 127q0 101 -62 101q-9 0 -20.5 -4t-27 -24.5t-20.5 -55.5z " />
<glyph unicode="&#xff;" horiz-adv-x="491" d="M43 -162l23 94q17 -12 49 -12q19 0 36 37l29 60q-24 110 -111 467h149l54 -303l137 303h149l-294 -585q-25 -48 -66.5 -66t-74.5 -18q-30 0 -80 23zM186 569l16 116h122l-16 -116h-122zM343 569l16 116h122l-16 -116h-122z" />
<glyph unicode="&#x152;" horiz-adv-x="928" d="M69 273q0 185 97 298.5t239 113.5q99 0 146 -68l8 57h427l-16 -117h-281l-23 -159h260l-16 -117h-260l-23 -164h287l-17 -117h-433l7 48q-63 -59 -164 -59q-110 0 -174 76t-64 208zM219 283q0 -81 29 -130t87 -49q84 0 132 84t48 201q0 79 -29 130t-86 51 q-82 0 -131.5 -86t-49.5 -201z" />
<glyph unicode="&#x153;" horiz-adv-x="779" d="M53 196q0 136 71 218.5t187 82.5q87 0 137 -67q33 28 77 48t86 20q87 0 135 -58t48 -151q0 -36 -14 -89h-289q-4 -50 19.5 -79t73.5 -29q66 0 145 45l7 -95q-81 -54 -189 -54q-49 0 -86 21t-55 57q-28 -36 -74.5 -57t-92.5 -21q-88 0 -137 55.5t-49 152.5zM196 207 q0 -47 15 -79t44 -32q42 0 70.5 56t28.5 123q0 47 -15 80t-43 33q-43 0 -71.5 -56.5t-28.5 -124.5zM501 289h169q5 43 -13.5 71t-56.5 28q-37 0 -64 -28t-35 -71z" />
<glyph unicode="&#x178;" horiz-adv-x="591" d="M97 674h163l89 -298l171 298h163l-280 -436h1l-34 -238h-148l34 237h1zM263 759l16 116h122l-16 -116h-122zM420 759l16 116h122l-16 -116h-122z" />
<glyph unicode="&#x2c6;" horiz-adv-x="388" d="M115 562l116 167h129l71 -167h-121l-27 75l-46 -75h-122z" />
<glyph unicode="&#x2dc;" horiz-adv-x="320" d="M98 566q13 68 37.5 101.5t78.5 33.5q22 0 50 -19h-1q21 -14 25 -14q5 0 12.5 12t8.5 28h93q-12 -67 -37 -101t-79 -34q-28 0 -50 22q-15 13 -22 13q-3 0 -7.5 -4t-9 -14t-7.5 -24h-92z" />
<glyph unicode="&#x2000;" horiz-adv-x="479" />
<glyph unicode="&#x2001;" horiz-adv-x="959" />
<glyph unicode="&#x2002;" horiz-adv-x="479" />
<glyph unicode="&#x2003;" horiz-adv-x="959" />
<glyph unicode="&#x2004;" horiz-adv-x="319" />
<glyph unicode="&#x2005;" horiz-adv-x="239" />
<glyph unicode="&#x2006;" horiz-adv-x="159" />
<glyph unicode="&#x2007;" horiz-adv-x="159" />
<glyph unicode="&#x2008;" horiz-adv-x="119" />
<glyph unicode="&#x2009;" horiz-adv-x="191" />
<glyph unicode="&#x200a;" horiz-adv-x="53" />
<glyph unicode="&#x2010;" horiz-adv-x="387" d="M55 196l18 128h333l-18 -128h-333z" />
<glyph unicode="&#x2011;" horiz-adv-x="387" d="M55 196l18 128h333l-18 -128h-333z" />
<glyph unicode="&#x2012;" horiz-adv-x="387" d="M55 196l18 128h333l-18 -128h-333z" />
<glyph unicode="&#x2013;" horiz-adv-x="499" d="M55 198l17 119h445l-17 -119h-445z" />
<glyph unicode="&#x2014;" horiz-adv-x="639" d="M55 199l17 118h585l-17 -118h-585z" />
<glyph unicode="&#x2018;" horiz-adv-x="320" d="M97 436l164 238h117l-138 -238h-143z" />
<glyph unicode="&#x2019;" horiz-adv-x="320" d="M97 436l138 238h143l-163 -238h-118z" />
<glyph unicode="&#x201a;" horiz-adv-x="303" d="M13 -108l138 238h142l-163 -238h-117z" />
<glyph unicode="&#x201c;" horiz-adv-x="501" d="M131 674h143l72 -238h-117zM312 674h143l71 -238h-117z" />
<glyph unicode="&#x201d;" horiz-adv-x="501" d="M97 436l138 238h143l-163 -238h-118zM278 436l137 238h143l-163 -238h-117z" />
<glyph unicode="&#x201e;" horiz-adv-x="484" d="M13 -108l138 238h142l-163 -238h-117zM193 -108l138 238h143l-163 -238h-118z" />
<glyph unicode="&#x2022;" horiz-adv-x="316" d="M76 285q0 56 42 96.5t98 40.5q47 0 77.5 -31t30.5 -77q0 -56 -42.5 -96t-99.5 -40q-46 0 -76 30.5t-30 76.5z" />
<glyph unicode="&#x2026;" horiz-adv-x="592" d="M35 0l18 130h144l-18 -130h-144zM225 0l18 130h142l-18 -130h-142zM415 0l18 130h142l-18 -130h-142z" />
<glyph unicode="&#x202f;" horiz-adv-x="191" />
<glyph unicode="&#x2039;" horiz-adv-x="313" d="M82 325l145 232h128l-146 -232l80 -232h-128z" />
<glyph unicode="&#x203a;" horiz-adv-x="313" d="M49 93l147 232q-13 37 -40.5 116t-41.5 116h129l79 -232l-144 -232h-129z" />
<glyph unicode="&#x205f;" horiz-adv-x="239" />
<glyph unicode="&#x20ac;" horiz-adv-x="592" d="M42 213l42 83h63q1 7 10 54h-97l46 83h72q41 105 125 169t195 64q98 0 152 -49l-55 -99q-42 37 -96 37q-116 0 -175 -122h238l-51 -83h-215q-1 -3 -3 -15.5t-4 -23t-2 -15.5h203l-51 -83h-143q14 -49 49.5 -80.5t89.5 -31.5q50 0 103 40l24 -103q-86 -49 -159 -49 q-104 0 -170.5 62.5t-82.5 161.5h-108z" />
<glyph unicode="&#x2122;" horiz-adv-x="705" d="M91 605l10 69h392l40 -267l117 267h102l-35 -399h-90l22 219l-96 -219h-76l-34 215l-39 -215h-91l63 330h-92l-46 -330h-91l46 330h-102z" />
<glyph unicode="&#xe000;" horiz-adv-x="485" d="M0 0v485h485v-485h-485z" />
</font>
</defs>
</svg>
